<?xml version="1.0" encoding="utf-8"?>
<!-- Generator: Adobe Illustrator 22.0.0, SVG Export Plug-In . SVG Version: 6.00 Build 0)  -->
<svg version="1.1" id="Capa_1" xmlns="http://www.w3.org/2000/svg" xmlns:xlink="http://www.w3.org/1999/xlink" x="0px" y="0px"
	 viewBox="0 0 248.8 97.8" style="enable-background:new 0 0 248.8 97.8;" xml:space="preserve">
<style type="text/css">
	.st0{fill:#0D5BAB;}
	.st1{fill:#0D5BAA;}
	.st2{fill:#0D5CAA;}
	.st3{fill:#B12C34;}
	.st4{fill:#A7353B;}
	.st5{fill:#135AA6;}
	.st6{fill:#AF2F36;}
	.st7{fill:#A5333A;}
	.st8{fill:#A6343B;}
	.st9{fill:#115CA7;}
	.st10{fill:#AC3C42;}
	.st11{fill:#A9353B;}
	.st12{fill:#A2383E;}
	.st13{fill:#A3393E;}
	.st14{fill:#A24146;}
	.st15{fill:#A44046;}
	.st16{fill:#A13D43;}
	.st17{fill:#A23A41;}
	.st18{fill:#A1383F;}
	.st19{fill:#A0393E;}
	.st20{fill:#A0383E;}
	.st21{fill:#A03A3F;}
	.st22{fill:#A03D43;}
	.st23{fill:#9E3A41;}
	.st24{fill:#9F3941;}
	.st25{fill:#9D3A40;}
	.st26{fill:#A54047;}
	.st27{fill:#A23C43;}
	.st28{fill:#A23E44;}
	.st29{fill:#9E3A42;}
	.st30{fill:#2C547C;}
	.st31{fill:#A6464B;}
	.st32{fill:#A23D45;}
	.st33{fill:#9C393F;}
	.st34{fill:#A34549;}
	.st35{fill:#2C639B;}
	.st36{fill:#A44449;}
	.st37{fill:#A54349;}
	.st38{fill:#5E4B78;}
	.st39{fill:#9A5254;}
	.st40{fill:#9C5257;}
	.st41{fill:#889BA9;}
	.st42{fill:#6B4675;}
	.st43{fill:#634774;}
	.st44{fill:#684673;}
</style>
<g>
	<path class="st0" d="M232.1,36.4c0.3,0.8,0.4,1.4,0.6,1.8c0.2,0.6,1.3,4.4,1.3,4.8c0,9.6,0,19.2,0,29.1c-4.3-1.1-8.5-0.3-13-0.7
		c0-0.6,0-1.4,0-2.1c0-7-0.1-14,0-20.9c0-2.2-0.3-4.1-1.6-5.9c-1.9-1.3-3.7-1-5.7,0.4c-0.2,0.5-0.6,1.2-0.9,1.9
		c-0.5,1.2-1,2.4-1,3.9c0,7.5,0,15.1,0,22.7c-4.3,0-8.6,0-13,0c0-8.9,0-17.8,0-26.7c-0.5-0.7-0.9-1.6-1.6-2.2
		c-1.6-1.5-3.4-1.4-5,0.1c-0.9,0.8-1.8,3.1-2,4.3c-1.2,8.1-0.1,16.2-0.7,24.5c-4.2,0-8.5,0-12.9,0c0-12.8,0-25.5,0-38.2
		c3.6-1.4,7.4-0.5,10.7-0.8c0.7,0.4,1.2,0.6,1.8,0.9c0,1.5,0,3.1,0,4.9c3.1-5,7.6-6.9,13-6.3c4,0.5,7.1,2.8,8.7,6.7
		C216.5,30,227.3,29.9,232.1,36.4z"/>
	<path class="st1" d="M78.5,41.6c-2.2,0-4.1,0-6.1,0c-0.2-1.4-0.1-2.7-0.1-4.1c0-1.4,0-2.8,0-4.1c0.3-0.3,0.5-0.5,0.8-0.8
		c1.7,0,3.4,0,5.3,0c0-4.3,0-8.5,0-12.7c4.3-1.4,8.5-2.8,13-4.3c0.4,2.8,0.1,5.5,0.2,8.3c0.1,2.8,0,5.6,0,8.7c0.8,0,1.7,0,2.5,0
		c6.9,0,13.8,0,20.6,0c0.8,0,1.7-0.2,2.3,1c0,1.7,0,3.6,0,6.1c0.7-1.3,1.1-2.1,1.7-2.9c0.7-0.9,1.6-1.6,2.4-2.4
		c1.6-1.7,3.6-2.3,5.8-2.4c0.8,0,1.5,0,2.3,0c0.2,0.3,0.5,0.5,0.8,0.9c-0.2,3.7,0.4,7.6-0.7,11.4c-0.2,0-0.4,0.1-0.5,0.1
		c-2.6-0.5-2.6-0.5-4.9,0c-0.6,0.1-1.2,0.4-1.7,0.8c-2.4,2-3.7,4.4-4.2,7.6c-0.8,5.3-0.2,10.6-0.4,15.9c0,0.9,0,1.8,0,2.8
		c-4.4,0-8.6,0-12.9,0c0-9.9,0-19.8,0-29.5c-0.2-0.2-0.2-0.3-0.3-0.3c-0.1,0-0.2-0.1-0.2-0.1c-4.1,0-8.3,0-12.6,0
		c0,5.6,0,11.2,0,16.7c0,0.7,0.4,1.3,0.6,2.1c0.6,0.5,1.3,1.2,2.5,2.2c1.1-0.1,2.8-0.3,4.7-0.5c0,2.7,0,5.4,0,8.3
		c-0.7,0.3-1.6,1.1-2.5,1.1c-1.3,0-2.5,0.5-3.7,0.6c-2,0.1-4,0.3-5.9,0c-2.9-0.6-5.7-1.7-7-4.7c-1-2.3-1.7-4.7-1.7-7.2
		C78.5,54,78.5,47.9,78.5,41.6z"/>
	<path class="st2" d="M157.8,32.6c4.1,0,8.2,0,12.4,0c0,0.9,0,1.7,0,2.5c0,9.5,0,19,0,28.6c0,2.5,0.4,5.1,0.7,7.9
		c-2.3,0-4.3,0-6.4,0c-2.1,0-4.1,0-6.3,0c0-1.9,0-3.7,0-5.7c-1.5,1.8-2.8,3.4-4.7,4.4c-0.7,0.4-4.2,1.8-4.9,1.9
		c-2.8,0.2-5.5,0-8-1.2c-1.5-0.7-2.9-1.6-3.7-3.3c-1.2-2.6-2.1-5.1-2-8c0.1-8.3,0-16.6,0-24.9c0-0.7,0-1.5,0-2.2c4.2,0,8.2,0,12.5,0
		c0,1.4,0,2.8,0,4.2c0,4.3,0,8.7,0,13c0,1.7-0.1,3.4,0,5.1c0.1,1.5,0.4,3,0.7,4.6c0.2,0.4,0.4,1,0.7,1.4c0.9,1,2.1,2.1,3.5,1.7
		c1.4-0.4,3.1-0.5,3.6-2.3c0.2-0.7,0.7-1.2,1.1-2C158.4,49.8,157.4,41.3,157.8,32.6z"/>
	<path class="st3" d="M54.7,54.6c-0.8,0.2-0.9,1-1.3,1.5c-2.1,2.2-4.3,4.3-6.5,6.4c0,0-0.2,0-0.4,0c-0.5-0.8-0.2-1.7-0.2-2.6
		c-0.1-0.8,0-1.7,0-2.5c0.7-0.3,0.8-1.3,1.7-1.5c0,0,0-0.5,0-0.8c0.3,0,0.7,0,1.1,0c0-1.2,0-2.3,0-3.4c0-0.7,0-1.5,0-2.1
		c0.4-0.1,0.7-0.2,1.1-0.3c0-2.5,0-5.1,0-7.6c0.4-0.1,0.7-0.2,1-0.3c0-2.9,0-5.9,0-8.4c-0.6-0.7-1-1.1-1.5-1.6c-0.6,0-1.4,0-2.2,0
		c-5.2,0-10.5,0-15.8,0c-0.1,0.4-0.3,0.7-0.4,1.1c-0.7,0-1.4,0-2.2,0c-0.2,0-0.3,0.4-0.4,0.5c-1.1,0-2.3,0-3.4,0
		c-3.1,0-6,0.7-8.9,1.7c-0.3,0.1-0.7,0-1.2,0c2.6-3.7,5.5-5.8,11.1-8c1.5-0.6,3-1.1,4.4-1.6c1.8-0.6,3.8-0.8,5.7-1.2
		c2.1-0.4,4.2-0.3,6.3-0.7c3.8-0.8,7.6-0.2,11.4-0.5c0.2,0.2,0.5,0.5,0.7,0.5c2.2,0,4.4,0,6.6,0c0,4.2,0,8.3,0,12.5
		c-0.3,0-0.7,0-1.1,0c0,2,0,3.8,0,5.7c-0.3,0-0.7,0-1.1,0c0,1.2,0,2.3,0,3.4c-0.3,0-0.7,0-1.1,0c0,1.2,0,2.3,0,3.4c0,0.3,0,0.7,0,1
		c-0.5,0.2-0.8,0.3-1.2,0.4c0,0.7,0,1.3,0,1.9c-0.4,0.1-0.7,0.2-1.1,0.4c0,0.7,0,1.3,0,1.7C55.3,54.1,55,54.3,54.7,54.6z"/>
	<path class="st1" d="M54.7,54.6c0.3-0.2,0.6-0.5,1-0.9c0-0.4,0-1,0-1.7c0.4-0.1,0.7-0.2,1.1-0.4c0-0.6,0-1.2,0-1.9
		c0.4-0.1,0.7-0.2,1.2-0.4c0-0.3,0-0.6,0-1c0.3,0,0.7,0,1.1,0c0-1.2,0-2.3,0-3.4c0.3,0,0.7,0,1.1,0c0-1.2,0-2.3,0-3.4
		c0.3,0,0.7,0,1.1,0c0-2,0-3.8,0-5.7c0.3,0,0.7,0,1.1,0c-0.1-4.3,0.1-8.4-0.1-12.5c-0.5,0-0.8,0-1,0c0-0.3,0-0.7,0-1.1
		c-2.4,0-4.6,0-6.8,0c0-2.2,0-4.4,0-6.8c4.3,0,8.4,0,12.5,0c0,16.6,0,33.2,0,49.8c0,2,0,4,0,6.1c-4.1,0.2-8.2,0-12.5,0.1
		C54.7,65.8,54.7,60.2,54.7,54.6z"/>
	<path class="st1" d="M13.4,70.4c-2.8-1.4-5.2-3.2-6.8-6c-1.3-2.1-2.1-4.3-2.2-6.7c-0.1-1.5,0-3,0-4.5c-0.1-3.7,1.3-6.9,3.1-10
		c1.6-2.8,4.2-4.4,6.9-6.3c0.4,2.1,0,4.2,0.3,6.4c2-0.9,3.9-1.6,5.9-2c3.6-0.8,4.3-0.7,7.5-0.5c2,0.1,3.4,1,4.9,2
		c0.4,0.7,0.9,1.4,1.1,2.2c0.2,0.8,0.2,1.6,0.3,2.7c-2.5,0-4.9-0.1-7.4,0c-4.1,0.1-8.1,1.3-11.6,3.4c-1.8,1.1-3,3-3.9,5.1
		c-0.9,2.3-1.1,4.6-1,6.9c0.1,1.8,0.7,3.5,1.9,4.9c0.5,0.6,1,1.2,1.5,1.8C13.8,70.1,13.6,70.3,13.4,70.4z"/>
	<path class="st4" d="M227.1,12.1c1.2,0.3,2.5-0.2,3.8,0.4c2.5,1.1,3,3.3,3.2,5.4c0.3,3.3,0.1,6.6,0.1,10c-1,0-1.8,0-2.7,0
		c-0.5-4.1,0.6-8.2-0.8-12.3c-0.7-0.4-1.4-0.8-2.2-1.2c-1.9,0.4-3.1,1.5-3.9,3.7c0,2.9,0,6.4,0,9.8c-1.6,0.1-1.6,0.1-2.7-0.6
		c0-3.4,0-6.9,0-10.2c-0.7-1-1.4-1.8-1.9-2.6c-3.3,0.2-4.3,1.2-4.4,4.3c0,2.8,0,5.6,0,8.4c-1.6,1.1-1.9,1.1-3.4,0
		c0-4.7,0-9.4,0-14.1c0.5-0.7,1.2-1.3,2-0.7c0.6,0.4,0.8,1.3,1.1,1.9c0.8-0.6,1.8-1.3,2.7-2.1c1.1,0,2.3,0,3.7,0
		c0.6,0.7,1.3,1.5,2,2.5C224.9,13.7,225.9,12.9,227.1,12.1z"/>
	<path class="st5" d="M47.9,55.2c0,0.3,0,0.8,0,0.8c-0.9,0.2-1,1.2-1.7,1.5c0-3.7,0.1-7.3,0-11c-0.1-3.4-1.2-6.3-3.6-8.9
		c-1.9-2-4.3-2.7-6.6-3.9c-1.3,0.4-2.4-0.6-3.7-0.6c-1.2,0-2.4,0-3.7,0c0.1-0.2,0.3-0.5,0.4-0.5c0.7-0.1,1.5,0,2.2,0
		c0.2-0.4,0.3-0.8,0.4-1.1c5.3,0,10.5,0,15.8,0c0.8,0,1.7,0,2.2,0c0.5,0.6,0.9,1,1.5,1.6c0,2.5,0,5.5,0,8.4c-0.3,0.1-0.6,0.2-1,0.3
		c0,2.5,0,5.1,0,7.6c-0.4,0.1-0.7,0.2-1.1,0.3c0,0.7,0,1.4,0,2.1c-0.3,0-0.7,0-1.1,0C47.9,53,47.9,54.1,47.9,55.2z"/>
	<path class="st6" d="M236.5,19.1c1-0.8,0.7-2.2,0.4-3c-0.5-1.1-0.3-2.1-0.4-2.8c-0.5-1.1-0.9-1.9-1.4-2.7c-0.7-0.4-1.7-0.7-2.5-1.2
		c-1.1-0.7-2.3-0.6-3.4-0.5c-1.1,0.1-2.1-0.4-3.2,0.4c-0.5,0.4-1.6,0.1-2.6,0.1c1.7-2.5,4.1-3.3,6.6-3.9c4.3-1,8.6-1.5,13.1-1.1
		c0.2,0.2,0.4,0.4,0.8,0.8c-0.3,0.8,0.4,1.7-0.4,2.7c-0.2,0.3-0.2,0.9-0.2,1.3c-0.1,3.5-1.2,6.6-3.2,9.4c-0.6,0.8-1.2,1.6-1.8,2.4
		c-0.2,0.2-0.4,0.3-0.8,0.5C237,20.6,236.8,19.9,236.5,19.1z"/>
	<path class="st7" d="M205.4,17.6c-0.3-0.9-0.5-1.6-0.8-2.4c-0.5-0.2-0.9-0.5-1.6-0.8c-3.1,0-3.1,0-5,1.1c-0.3-0.5-0.6-1.1-0.9-1.8
		c0.9-1.2,2.4-1.5,3.7-1.5c3.8-0.2,3.9-0.1,6.4,2.3c1.2,2.7,0.7,5.6,0.8,8.5c0.1,1.6,0,3.2,0,4.9c-0.7,0-1.3,0-2.1,0
		c0-0.2-0.1-0.5-0.2-0.8c-0.1-0.2-0.4-0.4-0.7-0.7c-0.7,0.5-1.5,1-2.3,1.5c-2.8,0.3-5.3,0.1-6.6-3.3c0.2-0.7-0.2-1.8,0.3-2.9
		c0.8-2,2.6-2.6,4.3-3.2C202.1,17.9,203.6,17.9,205.4,17.6z M205.2,23.8c0-1.3,0-2.5,0-3.6c-1.8-0.5-3.4,0.2-5,0.7
		c-0.7,1.1-1.4,2.2-1.1,3.4c0.5,0.6,1,1.1,1.4,1.5c1,0,1.9,0,2.8,0C203.9,25.1,204.6,24.4,205.2,23.8z"/>
	<path class="st8" d="M179.7,17.6c0-0.6,0-1.2,0-1.9c-0.4-0.3-1-0.7-1.9-1.3c-1.4,0.1-3.4-0.6-5.3,1.2c-0.1-0.4-0.1-0.8-0.2-1.1
		c-0.1-0.3-0.2-0.6-0.4-1c2-1.4,4.3-1.6,6.6-1.4c0.9,0.4,1.8,0.6,2.5,1.1c0.6,0.5,1,1.2,1.5,2c0,1.3,0,2.7,0,4.1
		c0,1.2-0.2,2.4,0.5,3.5c0.2,0.3-0.2,1-0.4,1.5c0.9,0.7,0.2,1.8,0.5,2.9c-1,0-1.9,0-2.8,0c-0.1-0.2-0.1-0.5-0.2-1
		c-1,0.5-1.9,1.2-2.9,1.5c-1.1,0.3-2.2,0.2-3.3,0.2c-0.8-0.7-2.2-0.6-2.2-2.1c-2-1.9-1-3.8,0.1-5.5c0.6-0.9,1.9-1.6,3-2
		C176.4,18,178,17.9,179.7,17.6z M178,25.7c0.8-1,1.6-2,2.3-2.8c0-1,0-1.8,0-2.7c-1.3,0-2.5,0-3.1,0c-2.3,0.5-3.1,1.9-3.7,3.5
		c0.4,0.7,0.8,1.4,1.3,2.1C175.8,25.7,176.7,25.7,178,25.7z"/>
	<path class="st9" d="M34.3,54c0.2,4.4-0.1,8.3-4.3,10.7c-1.5,0-3.1,0-4.7,0c-0.9-0.9-1.7-1.7-2.8-2.8c0-1,0-2.3,0-3.7
		c0.9-0.6,1.2-1.7,2.2-2.4c0.9-0.6,2-0.4,2.6-1.3C29.6,54.4,31.8,54.2,34.3,54z"/>
	<path class="st10" d="M169.1,27.9c-3.9,0-7.5,0-11.1,0c-0.3-0.3-0.5-0.5-0.8-0.8c0-5.3,0-10.7,0-16.2c0-0.7,0.4-1.3,0.6-2.1
		c0.8-0.3,1.6-0.6,2.7-1c0,5.9,0,11.5,0,17.2c2.9,0,5.6,0,8.2,0c0.4,0.4,0.6,0.6,1.1,1.1C169.5,26.7,169.3,27.3,169.1,27.9z"/>
	<path class="st11" d="M187.7,12.2c0-1.3,0-2.3,0-3.4c0.9-0.3,1.7-0.6,2.8-0.9c0,1.5,0,2.8,0,4.2c1.2,0,2.2,0,3.4,0
		c0.3,0.7,0.5,1.3,0.8,2.1c-1.5,0.4-2.8,0.7-4.1,1c0,3,0,6,0,9.3c0.3,0.2,0.9,0.5,1.5,0.9c-0.1,0.1-0.2,0.3-0.3,0.4
		c0.6,0,1.3,0.1,2,0.1c0,0.7,0,1.4,0,2.2c-1.1,0-2.3,0-3.5,0c-2.2-0.7-2.7-2.4-2.6-4.6c0.1-2.7,0-5.4,0-8.3c-0.7,0-1.3,0-2.1,0
		c-0.1-1-0.1-1.9-0.2-2.8C186.2,12.2,186.8,12.2,187.7,12.2z"/>
	<path class="st12" d="M107.4,78.9c1.7-0.3,3.2-0.5,4.4-0.7c1.5,1.1,3.5,1.2,4,3.2c0,0.9-0.1,1.9,0,2.8c0.2,2.5-0.6,4.5-3.6,5.5
		c-2.3,0.2-4.9,0.1-6.6-2.7c0.2-1.4-1.1-2.9-0.5-4.3c0.3-0.6,0.2-1.3,0.6-1.7C106.2,80.1,106.9,79.5,107.4,78.9z M113.6,85.5
		c0-1,0-1.9,0-3.1c-0.7-0.7-1.6-1.6-2.3-2.3c-1.3,0.6-2.7,0.7-3.4,2.1c0,1.2,0,2.5,0,3.6c0.3,0.6,0.6,1.1,0.8,1.6
		c0.9,0.2,1.9,0.5,2.9,0.8C112.3,87.2,112.9,86.3,113.6,85.5z"/>
	<path class="st13" d="M132.3,89.2c-1.5,0.3-2.6,0.5-3.6,0.6c-0.8-0.8-1.4-1.4-1.9-1.9c-0.2-0.7-0.4-1.4-0.6-2.1
		c0.2-0.7,0.4-1.6,0.7-2.8c0.9-1,2.1-2,4.1-1.7c0.3,0.3,0.7,0.7,1.2,1.1c0.1-0.4,0.2-0.7,0.4-1.2c0.6,0.2,1.3,0.3,2,0.5
		c0,2.9,0,5.7,0,8.6c-0.6,0.8-1.4,1.8-2.2,2.8c-1.5,0-2.8,0-4.5,0c-0.2-0.5-0.5-1.2-0.8-1.9c0.5-0.1,0.7-0.3,0.9-0.3
		c1,0.2,2,0.4,3.1,0.7C131.4,90.6,131.8,90,132.3,89.2z M130.6,88.4c0.7-0.8,1.1-1.4,1.7-2.2c0-0.4,0-1.2,0-1.3
		c-0.7-1-1.1-1.6-1.5-2.1c-0.7,0.3-1.2,0.6-1.8,0.9c0,1,0,2,0,2.7C129.4,87.1,129.9,87.6,130.6,88.4z"/>
	<path class="st14" d="M26.5,89.6c0-2.6,0-5.1,0-7.6c0.8-1.1,1.7-1.1,2.5-0.4c1.2-0.2,2.2-0.4,3.3-0.6c0.7,0.8,1.3,1.5,2,2.3
		c0,1.9,0,4,0,6.2c-0.7,0-1.3,0-2.1,0c0-1.7,0-3.5,0-5.2c-0.6-0.5-1-0.9-1.5-1.4c-0.4,0.2-0.8,0.4-1.4,0.7c0,1.9,0,3.8,0,5.9
		C28.3,89.6,27.5,89.6,26.5,89.6z"/>
	<path class="st15" d="M209.8,89.6c0-2.6,0-5.1,0-7.6c0.3-0.3,0.6-0.6,0.9-0.8c0.9,0.2,1.7,0.6,2.6,0.6c0.7,0,1.5-0.5,2.3-0.7
		c0.7,0.8,1.4,1.5,2.1,2.3c0,1.9,0,4.1,0,6.3c-0.7,0-1.3,0-2.1,0c-0.4-2.2,0.5-4.6-0.9-6.8c-0.7,0.3-1.3,0.5-2,0.9
		c0,1.9,0,3.9,0,5.9C211.7,89.6,210.9,89.6,209.8,89.6z"/>
	<path class="st16" d="M152,82.3c-0.5,1-0.9,1.7-1.2,2.4c-0.1-0.1-0.3-0.3-0.4-0.4c0,1.7,0,3.4,0,5.3c-0.7,0-1.4,0.1-2.2,0.1
		c0-2.8,0-5.5,0-8.5c1,0.2,2.2,0.8,2.9,0.4c1-0.6,2-0.3,2.9-0.5c0.5,0.5,0.9,0.9,1.2,1.2c0.6,2.4,1,4.7,0.6,7.1c-0.8,0-1.7,0-2.7,0
		c0-2,0-3.9,0-5.9c-0.1,0.1-0.3,0.2-0.4,0.3C152.6,83.6,152.4,83.2,152,82.3z"/>
	<path class="st17" d="M4.3,81.9c0.7-0.9,1.5-1.9,2.4-3c1.7-0.2,3.5-0.5,5.4-0.7c0.3,0.8,0.6,1.5,0.9,2.3c-1.6,0-3,0-4.4,0
		C8,81.3,7.4,82,6.6,82.9C6.5,84.7,6.3,87,9.8,88c0.5-0.1,1.6-0.3,2.9-0.5c0.1,0.6,0.1,1.3,0.2,1.9c-0.2,0.2-0.2,0.3-0.3,0.3
		c-1.6-0.1-3.3,0.1-4.9-0.3c-1.8-0.4-2.5-1.5-3.3-3C4.3,85.1,4.3,83.6,4.3,81.9z"/>
	<path class="st18" d="M78.5,87.7c-0.7,0.7-1.3,1.3-2,2c-1.3,0-2.6,0-3.8,0c-1.6-0.9-2.3-2.4-2.6-4c-0.2-1.4,1.1-2.5,1.6-3.7
		c0.7-0.5,1.5-0.1,2.1-0.8c0.3-0.4,1.4-0.1,1.7-0.1C79.3,82.4,78.3,85.3,78.5,87.7z M74.2,82.7c-0.7,1-1.3,1.9-1.8,2.6
		c0.4,1,0.7,1.8,1,2.6c0.8,0,1.5,0,2.3,0c0.4-0.8,0.7-1.7,1-2.4c-0.2-0.7-0.5-1.4-0.6-1.9C75.5,83.3,75,83.1,74.2,82.7z"/>
	<path class="st19" d="M204.5,89.9c-1.8-0.2-3.2-0.4-4.5-0.5c-0.5-1.1-1-1.9-1.5-2.9c0-3,0.2-3.4,3.1-5.2c2.8,0,2.8,0,5.3,2.5
		c0,1.1,0,2.3,0,3.8C206.2,88.1,205.4,89,204.5,89.9z M203.9,87.9c0.8-1.1,0.9-2.3,0.8-3.6c-0.8-0.6-1.2-1.9-2.9-1.2
		c-0.3,0.7-0.8,1.5-1.2,2.4c0.5,0.9,0.9,1.6,1.4,2.4C202.6,87.9,203.3,87.9,203.9,87.9z"/>
	<path class="st20" d="M18.5,81.2c2.2-0.3,3.9,0.7,5,3.4c0.1,1.9,0.3,4.2-3.1,5.1c-1.7-0.1-4.3,0.7-5.5-3.5
		C14.7,84.5,15.5,82.4,18.5,81.2z M18.7,87.9c1.5,0.3,1.9-0.8,2.6-1.4c0-0.8,0-1.5,0-2.2c-0.5-0.5-0.9-0.9-1.4-1.4
		c-0.4,0-0.7,0-1.1,0c-0.4,0.5-0.9,0.9-1.3,1.4c0,0.8,0,1.6,0,2C18,87.1,18.4,87.6,18.7,87.9z"/>
	<path class="st21" d="M53.5,80.9c0,3.2,0,5.9,0,8.7c-0.9,0-1.8,0.4-2.5-0.5c-1.1,0.5-1.1,0.5-3.4,0.5c-1.1-1-1.5-2.2-1.4-3.7
		c0.1-1.5,0-3,0-4.7c0.7,0,1.4-0.1,2.2-0.1c0,2.1,0,4,0,5.9c1.4,1.1,1.4,1.1,2.9,0.2c0-1.7,0-3.5,0-5.4
		C51.9,81.5,52.6,81.3,53.5,80.9z"/>
	<path class="st22" d="M181.5,89.7c-1.1-0.1-2-0.3-2.9-0.3c-1,0-2,0.2-3,0.3c-0.4-0.5-0.9-1-1.4-1.7c0-0.6,0-1.4,0-2.1
		c1.4-1.8,3.3-1.4,5-1.4c0-0.5,0.1-0.7,0-0.8c-0.2-0.3-0.5-0.5-1-0.9c-1,0.2-2.2,0.4-3.4,0.7c0-0.7,0-1.1,0-1.5
		c4.5-1.4,5-0.9,6.7,1.8C181.5,85.6,181.5,87.5,181.5,89.7z M179.5,85.8c-1,0-1.7-0.1-1.8-0.1c-0.9,0.7-1.4,1-1.9,1.4
		c0.7,1.2,1.7,0.9,2.8,0.8C178.9,87.4,179.1,86.7,179.5,85.8z"/>
	<path class="st23" d="M142.6,84.3c-0.3-0.5-0.5-0.9-0.9-1.5c-1,0.2-2,0.4-3.1,0.6c0-0.5,0-0.9,0-1.6c1.3-0.3,2.6-0.5,4-0.8
		c0.7,0.9,1.4,1.6,2.1,2.4c0,1.9,0,4,0,6.4c-0.8-0.2-1.4-0.3-2.2-0.5c-1,0.2-2.2,0.3-3.6,0.5c-0.4-0.6-0.8-1.1-1.5-2
		c0.1-0.5,0.3-1.5,0.6-2.7C139.4,84.9,140.9,84.6,142.6,84.3z M139.7,87.9c0.7,0,1.4,0,2,0c0.7-0.7,0.7-0.7,0.4-2.3
		c-0.8,0.3-1.6,0.6-2.4,0.9C139.7,86.9,139.7,87.4,139.7,87.9z"/>
	<path class="st24" d="M94.4,84.5c-0.6-0.7-1.1-1.2-1.6-1.7c-1,0.3-1.9,0.5-3,0.8c0-0.7,0-1.1,0-1.6c2.1-1.2,4-1.2,6.2,0.6
		c0,1-0.1,2.3,0,3.4c0.1,1.1,0.4,2.3,0.7,3.5C95.6,89.8,94.6,90,94,89c-1.6,1-3,0.9-4.6-0.1c-0.2-0.3-0.5-0.9-0.7-1.4
		c0.4-1.3,1.2-2.3,2.6-3C92.2,84.5,93.2,84.5,94.4,84.5z M93.6,87.9c0.3-0.7,0.5-1.4,0.8-2.2c-0.9,0-1.6,0-1.6,0
		c-0.9,0.6-1.4,1-1.9,1.3C91.6,88.2,92.6,88,93.6,87.9z"/>
	<path class="st25" d="M228,89.9c-1-0.3-1.6-0.4-2-0.5c-1.5,0.2-2.7,0.3-4.1,0.5c-0.5-1-1-2-1.5-3c0.9-0.8,1.6-1.4,2.5-2.3
		c0.6,0,1.6,0,2.9,0c-0.3-0.7-0.6-1.2-0.9-1.8c-1.1,0.3-2,0.5-3.1,0.8c0-0.4-0.1-0.9-0.1-1.4c1.8-1.3,3.6-1.3,5.6-0.2
		C228.6,84.3,227.6,87,228,89.9z M225.7,86c-0.2-0.2-0.3-0.3-0.5-0.5c-0.8,0.3-1.7,0.7-2.5,1c0.1,0.6,0.1,1,0.1,1.4
		c0.8,0,1.4,0,2.3,0C225.4,87.2,225.6,86.6,225.7,86z"/>
	<path class="st26" d="M164.4,82.2c0.4-0.4,0.6-0.6,0.9-0.9c2,0,3.9,0,5.9,0c0,0.6,0,1.2,0,1.9c-1.1,1.4-2.3,2.9-3.7,4.8
		c1.5,0,2.6,0,3.7,0c0,0.6,0,1.1,0,1.6c-2.2,0-4.3,0-6.6,0c0-0.5,0-1.2,0-2c0.9-1.2,2.6-2.1,3.2-4.1c-0.8,0-1.7,0-2.5,0
		C165,83,164.7,82.6,164.4,82.2z"/>
	<path class="st27" d="M41.3,89.6c-1.3,0-2.7,0-4.1,0c0-0.5,0-1,0-1.5c1,0,2,0,3.2,0c0-0.6,0.1-1.1,0.1-1.5c-1.2-0.5-2.2-0.9-3-1.3
		c-0.8-1.4,0-2.4,0.3-3.4c0.4-0.2,0.8-0.4,1.5-0.8c0.7,0,1.7,0,2.6,0c0.7,0.5,1.2,1.1,0.8,2.1c-1.2-0.5-2.3-0.9-3.4,0.6
		c0.7,0.3,1.3,0.6,1.9,0.9c0-0.1,0.1-0.2,0.1-0.2c0.6,0.7,1.2,1.4,2,2.2c0,0.1,0,0.5,0,1C42.7,88.3,42,89,41.3,89.6z"/>
	<path class="st28" d="M68.2,88.2c0,0.4,0,0.8,0,1.4c-1.1,0-2.1,0-3.1,0c-0.4-0.4-0.9-0.9-1.3-1.3c0-1.5,0-3,0-4.5
		c-0.6-0.4-1.2-0.7-2-1.3c0.6-0.5,1.1-0.9,1.5-1.3c0.3-0.3,0.5-0.9,0.9-1.1c0.5-0.3,1.1-0.5,1.8-0.8c0,0.8,0,1.2,0,1.8
		c0.6,0.1,1.1,0.2,1.6,0.3c0.6,0.7,0.1,1.6-1.4,2.4c0,1.2,0,2.4,0,3.8C66.7,87.7,67.5,87.9,68.2,88.2z"/>
	<path class="st29" d="M186.3,89.7c-0.6-0.7-1.3-1.3-2-2c0.1-2.4-0.8-5.2,2.9-6.4c0.5,0,1.5,0,2.6,0c0,0.7,0.1,1.4,0.1,2.1
		c-0.6-0.2-1.2-0.4-2-0.6c-0.3,0.6-0.7,1.3-1.1,1.9c-0.1-0.1-0.2-0.2-0.3-0.3c0,0.8,0,1.5,0,2.3c0.5,0.5,0.9,0.9,1.5,1.5
		c0.7,0,1.5,0,2.4,0c0,1.6,0,1.6-1,1.6C188.4,89.7,187.3,89.7,186.3,89.7z"/>
	<path class="st30" d="M67.2,65.3c0-16.6,0-33.2,0-49.8c0.2,0.1,0.5,0.3,0.5,0.5c0.1,0.6,0,1.1,0,1.7c0,15.2,0,30.3,0,45.5
		C67.7,63.9,68.4,64.9,67.2,65.3z"/>
	<path class="st31" d="M57.6,77.8c0.7,0,1.4,0,2.1,0c0,3.9,0,7.7,0,11.7c-0.6,0-1.3,0.1-2.1,0.1C57.6,85.8,57.6,81.9,57.6,77.8z"/>
	<path class="st32" d="M233.5,89.6c-0.7,0-1.4,0-2.1,0c0-3.9,0-7.7,0-11.7c0.6,0,1.3-0.1,2.1-0.1C233.5,81.7,233.5,85.6,233.5,89.6z
		"/>
	<path class="st33" d="M82,81c0.9,0.3,1.6,0.7,2.4,0.7c0.8,0,1.5-0.4,2.5-0.7c0.1,0.9,0.1,1.6,0.1,2.4c-0.8,0-1.4,0-2,0
		c-0.3,0.6-0.5,1-1,1.8c0,1.2,0,2.8,0,4.4c-0.7,0-1.4,0-2.1,0C82,86.9,82,84.2,82,81z"/>
	<path class="st34" d="M121.4,89.6c-0.8,0-1.4,0-2.1,0c0-2.6,0-5.1,0-7.1c0.4-0.7,0.6-1.1,0.9-1.7c0.7,0.6,1.1,1.1,1.6,1.5
		c1.1-0.9,1.1-0.9,2.4-1.1c0,0.6,0,1.3,0,2.1c-0.5,0-1.1,0.1-1.9,0.2C120.9,85.2,121.7,87.4,121.4,89.6z"/>
	<path class="st35" d="M34.2,66.6c0,1.4,0,2.8,0,4.3c-2.8,0.8-5.7,2-8.9,1.6c3.5-1.1,6.5-3,8.4-6.3C33.9,66.4,34.1,66.5,34.2,66.6z"
		/>
	<path class="st36" d="M159.5,81.1c0.8,0.2,1.4,0.4,2.1,0.6c0,2.7,0,5.2,0,8c-0.6,0-1.3,0.1-2.1,0.1
		C159.5,86.8,159.5,84.1,159.5,81.1z"/>
	<path class="st37" d="M195.5,89.6c-0.7,0-1.3,0-2.1,0c0-2.8,0-5.5,0-8.4c0.5,0,0.9,0,1.4,0.1c0.2,0.1,0.4,0.4,0.7,0.7
		C195.5,84.4,195.5,87,195.5,89.6z"/>
	<path class="st38" d="M54.7,22.3c2.2,0,4.4,0,6.8,0c0,0.4,0,0.8,0,1.1c-2.2,0-4.4,0-6.6,0c-0.2,0-0.5-0.4-0.7-0.5
		C54.3,22.7,54.5,22.5,54.7,22.3z"/>
	<path class="st39" d="M159,77.8c1.2,0,1.8,0,2.6,0c0,0.7,0,1.3,0,2.1c-0.5,0-1.2,0.2-1.7,0.1C158.8,79.7,159.8,78.7,159,77.8z"/>
	<path class="st40" d="M193.5,77.8c0.7,0,1.4,0,2.1,0c0,0.7,0,1.3,0,2.1c-0.6,0-1.3,0.1-2.1,0.1C193.5,79.3,193.5,78.7,193.5,77.8z"
		/>
	<path class="st41" d="M13.4,70.4c0.2-0.2,0.4-0.4,0.6-0.6c0.4,0.4,0.8,0.8,1.1,1.1C14.5,70.8,13.7,71.5,13.4,70.4z"/>
	<path class="st41" d="M16.5,71.7c-0.7-0.2-1-0.3-1.4-0.4c0.3-0.1,0.5-0.2,0.8-0.2C16,71,16.1,71.2,16.5,71.7z"/>
	<path class="st38" d="M61.5,23.5c0.3,0,0.6,0,1,0c0.2,4.1,0,8.2,0.1,12.5c-0.5,0-0.8,0-1.1,0C61.5,31.8,61.5,27.6,61.5,23.5z"/>
	<path class="st38" d="M61.5,35.9c0,1.8,0,3.7,0,5.7c-0.4,0-0.8,0-1.1,0c0-1.8,0-3.7,0-5.7C60.8,35.9,61.2,35.9,61.5,35.9z"/>
	<path class="st42" d="M60.4,41.6c0,1.1,0,2.2,0,3.4c-0.5,0-0.8,0-1.1,0c0-1.1,0-2.2,0-3.4C59.7,41.6,60,41.6,60.4,41.6z"/>
	<path class="st43" d="M59.2,45c0,1.1,0,2.2,0,3.4c-0.5,0-0.8,0-1.1,0c0-1.1,0-2.2,0-3.4C58.6,45,58.9,45,59.2,45z"/>
	<path class="st44" d="M47.9,55.2c0-1.1,0-2.2,0-3.4c0.5,0,0.8,0,1.1,0c0,1.1,0,2.2,0,3.4C48.6,55.2,48.3,55.2,47.9,55.2z"/>
</g>
</svg>
