<?xml version="1.0" encoding="utf-8"?>
<!-- Generator: Adobe Illustrator 21.0.0, SVG Export Plug-In . SVG Version: 6.00 Build 0)  -->
<svg version="1.1" xmlns="http://www.w3.org/2000/svg" xmlns:xlink="http://www.w3.org/1999/xlink" x="0px" y="0px"
	 viewBox="0 0 512 512" style="enable-background:new 0 0 512 512;" xml:space="preserve">
<style type="text/css">
	.st0{display:none;}
	.st1{display:inline;fill:#00253D;}
	.st2{display:inline;}
	.st3{fill:#DAE1E6;}
	.st4{display:inline;fill:#F8B64C;}
	.st5{display:inline;opacity:0.1;}
	.st6{clip-path:url(#SVGID_2_);fill:#40596B;}
	.st7{display:inline;fill:#FFD15C;}
	.st8{fill:#3A2929;}
	.st9{display:inline;fill:#212529;}
	.st10{fill:#ACB3BA;}
	.st11{display:inline;fill:#383838;}
	.st12{fill:#002EAD;}
	.st13{fill:#5C6266;}
	.st14{fill:#FAFAFA;}
	.st15{fill:#00253D;}
	.st16{fill:#D5D6DB;}
	.st17{fill:#212529;}
	.st18{fill:#797D80;}
	.st19{fill:#3D93CC;}
	.st20{fill:#FF2F32;}
	.st21{fill:#A6BA47;}
</style>
<g id="Capa_1" class="st0">
	<ellipse class="st1" cx="256.1" cy="256" rx="255.9" ry="256"/>
	<g class="st2">
		<path class="st3" d="M238.4,162.5c5.3-7.1,12.4-10.6,19.4-10.6s14.1,3.5,19.4,8.8c5.3,5.3,7.1,12.4,7.1,21.2
			c0,8.8-1.8,15.9-7.1,21.2l-31.8,31.8c-10.6,10.6-15.9,19.4-19.4,24.7c-3.5,5.3-5.3,15.9-5.3,28.2v26.5h67.1v-19.4
			c0-8.8,1.8-14.1,3.5-17.7c1.8-3.5,7.1-8.8,12.4-15.9c7.1-7.1,12.4-12.4,19.4-19.4c1.8-1.8,3.5-5.3,8.8-10.6
			c3.5-5.3,7.1-8.8,8.8-10.6c1.8-1.8,3.5-7.1,7.1-12.4c3.5-5.3,5.3-14.1,5.3-26.5c0-26.5-8.8-47.7-26.5-63.5s-40.6-22.9-67.1-22.9
			s-51.2,8.8-68.8,24.7s-30,40.6-31.8,70.6h70.6C229.6,178.4,233.1,169.6,238.4,162.5z"/>
		<ellipse class="st3" cx="256.1" cy="377.8" rx="38.8" ry="38.8"/>
	</g>
</g>
<g id="Capa_2" class="st0">
	<path class="st1" d="M512,512H0.4l12.7-69.6c12.4-67.7,75-117.2,148.2-117.2h189.8c73.2,0,135.8,49.5,148.2,117.2L512,512z"/>
	<path class="st4" d="M326.3,294.6v31c0,0-16.7,33.8-57.4,42.7h-0.2c-5.5,1.3-11.5,2-17.8,2.2c-53.7-1-75.3-44.8-75.3-44.8v-30.7
		c9.7,7,20.6,12.8,32.4,16.3c1.7,0.6,3.4,1,5.1,1.5c9,2.5,18.3,3.7,28.1,3.7h19.5C285.2,316.4,307.8,308,326.3,294.6"/>
	<g class="st5">
		<g>
			<defs>
				<rect id="SVGID_1_" x="213.1" y="294.5" width="113.2" height="73.7"/>
			</defs>
			<clipPath id="SVGID_2_">
				<use xlink:href="#SVGID_1_"  style="overflow:visible;"/>
			</clipPath>
			<path class="st6" d="M326.3,294.6v31c0,0-16.7,33.8-57.4,42.7h-0.2l-55.7-55.6c9,2.5,18.3,3.7,28.1,3.7h19.5
				C285.2,316.4,307.8,308,326.3,294.6"/>
		</g>
	</g>
	<rect x="250.9" y="370.3" class="st7" width="0" height="0"/>
	<g class="st2">
		<path class="st8" d="M340.6,255.5c0,0,63.3,65.4,47.5,106.2c-15.8,40.8-17.9,90.9-4.5,102.1c0,0-2.6,13.6-24.9-8.6
			c0,0-68.1-60.3-53.6-134.4C305.1,320.7,326,302.5,340.6,255.5"/>
		<path class="st8" d="M365.1,189.2c0,0,16.9-57.4-86.4-99.7c0,0-50.2,71.5-114.3,76.2c0,0,11-5.7,14-10.4c0,0-15,11-41.2-13.5
			c0,0-0.7,14.5-0.9,32.8c-0.2,20.8,3.3,41.6,10.5,61.3l10.4,28.6c0,0-78.2-48.9-45.1-175c0,0,23.1-109.1,175.6-87.5
			c0,0,97.3,16,95.3,138.3C383.1,140.2,383.6,171,365.1,189.2"/>
	</g>
	<path class="st4" d="M155.4,192.9c4.4,17.9,2.1,33.7-5.3,35.3c-7.3,1.6-16.9-11.6-21.3-29.4c-4.4-17.9-2.1-33.6,5.3-35.3
		C141.3,161.9,150.9,175.1,155.4,192.9"/>
	<path class="st9" d="M450.4,408.9L442.7,512h-373l-7.7-103.1c-0.9-6.3,4.4-12,11.3-12h365.9C446,396.9,451.3,402.6,450.4,408.9"/>
	<g class="st2">
		<path class="st10" d="M271.1,472.3c-8.1,0-14.6,6.3-14.6,14C264.4,486.3,271,480,271.1,472.3"/>
		<path class="st10" d="M273.3,506.3c0,2,0.3,4,1.3,5.7h-44.1c-1.4-12.6,4.7-23.6,13.8-24.3c2.2-0.2,4.3,0.1,6.3,1.1
			c4.2,1.9,8.8,1.9,12.9,0c2.1-1,4.2-1.3,6.4-1.1c4.2,0.2,7.8,3,10.4,7.1C276.1,497.3,273.4,501.5,273.3,506.3"/>
	</g>
	<path class="st4" d="M346.3,192.9c-4.5,17.9-2.1,33.7,5.2,35.3c7.3,1.6,15.6-11.9,21.3-29.4c3.4-10.5,1.8-31.9-5.2-35.3
		C360.9,160.3,350.8,175.1,346.3,192.9"/>
	<path class="st7" d="M278.7,89.4c0,0-50.2,71.5-114.3,76.2c0,0,11-5.6,14-10.3c0,0-15,11-41.1-13.4c0,0.3,0,0.6-0.1,0.8
		c-0.1,3.3-0.7,16.2-0.8,31.9c-0.1,9.1,0.7,18.2,2,27.2c0.6,3.7,1.2,7.4,2.1,11.1c0,0,0,0,0,0c0.9,4.3,2.1,8.6,3.3,12.9
		c1,3.3,1.9,6.7,3.2,10l6.8,18.6c20.6,49.3,56.3,89.2,97.1,89.2c61.4,0,111.5-90.4,115.2-167.1C364.9,157.2,352.2,119.5,278.7,89.4"
		/>
	<path class="st11" d="M381.9,178.5v34.9c-7.6,49.6-53.2,87.8-108.1,87.8h-14.6v-13.4h14.6c47.1,0,86.2-32.3,93.7-74.5h-6.6
		c0,0,4.1-17.8,5-34.9L381.9,178.5L381.9,178.5z"/>
	<path class="st1" d="M267.8,311.1h-23.1c-9.7,0-17.7-7.4-17.7-16.6c0-9.1,7.9-16.6,17.7-16.6h23.1c9.8,0,17.7,7.4,17.7,16.6
		C285.4,303.7,277.5,311.1,267.8,311.1"/>
</g>
<g id="Capa_3">
	<path class="st12" d="M490.2,0.7H22.9c-12.1,0-21.8,9.8-21.8,21.8v73.6H512V22.5C512,10.5,502.2,0.7,490.2,0.7z"/>
	<path class="st13" d="M1.1,96.2v393.6c0,12.1,9.8,21.8,21.8,21.8h467.3c12.1,0,21.8-9.8,21.8-21.8V96.2L1.1,96.2L1.1,96.2z"/>
	<path class="st14" d="M1.1,96.2v375.1c0,12.1,9.8,21.8,21.8,21.8h467.3c12.1,0,21.8-9.8,21.8-21.8V96.2H1.1z"/>
	<circle class="st15" cx="62.8" cy="72.9" r="13.4"/>
	<circle class="st16" cx="62.8" cy="119.4" r="13.4"/>
	<path class="st17" d="M62.8,64.2c-5.1,0-9.2,4.1-9.2,9.2V119c0,5.1,4.1,9.2,9.2,9.2c5.1,0,9.2-4.1,9.2-9.2V73.4
		C72,68.3,67.9,64.2,62.8,64.2z"/>
	<circle class="st15" cx="450.3" cy="72.9" r="13.4"/>
	<circle class="st16" cx="450.3" cy="119.4" r="13.4"/>
	<path class="st17" d="M450.2,64.2c-5.1,0-9.2,4.1-9.2,9.2V119c0,5.1,4.1,9.2,9.2,9.2c5.1,0,9.2-4.1,9.2-9.2V73.4
		C459.4,68.3,455.3,64.2,450.2,64.2z"/>
	<circle class="st15" cx="321.1" cy="72.9" r="13.4"/>
	<circle class="st16" cx="321.1" cy="119.4" r="13.4"/>
	<path class="st17" d="M321.1,64.2c-5.1,0-9.2,4.1-9.2,9.2V119c0,5.1,4.1,9.2,9.2,9.2c5.1,0,9.2-4.1,9.2-9.2V73.4
		C330.3,68.3,326.2,64.2,321.1,64.2z"/>
	<circle class="st15" cx="192" cy="72.9" r="13.4"/>
	<circle class="st16" cx="192" cy="119.4" r="13.4"/>
	<path class="st17" d="M192,64.2c-5.1,0-9.2,4.1-9.2,9.2V119c0,5.1,4.1,9.2,9.2,9.2c5.1,0,9.2-4.1,9.2-9.2V73.4
		C201.2,68.3,197,64.2,192,64.2z"/>
	<path class="st18" d="M199.7,176.8h32.4c4.7,0,8.5,3.8,8.5,8.5v32.4c0,4.7-3.8,8.5-8.5,8.5h-32.4c-4.7,0-8.5-3.8-8.5-8.5v-32.4
		C191.2,180.6,195,176.8,199.7,176.8z"/>
	<path class="st19" d="M280.9,176.8h32.4c4.7,0,8.5,3.8,8.5,8.5v32.4c0,4.7-3.8,8.5-8.5,8.5h-32.4c-4.7,0-8.5-3.8-8.5-8.5v-32.4
		C272.4,180.6,276.2,176.8,280.9,176.8z"/>
	<path class="st18" d="M362.2,176.8h32.4c4.7,0,8.5,3.8,8.5,8.5v32.4c0,4.7-3.8,8.5-8.5,8.5h-32.4c-4.7,0-8.5-3.8-8.5-8.5v-32.4
		C353.7,180.6,357.5,176.8,362.2,176.8z"/>
	<path class="st20" d="M443.4,176.8h32.4c4.7,0,8.5,3.8,8.5,8.5v32.4c0,4.7-3.8,8.5-8.5,8.5h-32.4c-4.7,0-8.5-3.8-8.5-8.5v-32.4
		C434.9,180.6,438.7,176.8,443.4,176.8z"/>
	<g>
		<path class="st18" d="M37.2,254.4h32.4c4.7,0,8.5,3.8,8.5,8.5v32.4c0,4.7-3.8,8.5-8.5,8.5H37.2c-4.7,0-8.5-3.8-8.5-8.5v-32.4
			C28.7,258.3,32.5,254.4,37.2,254.4z"/>
		<path class="st18" d="M118.5,254.4h32.4c4.7,0,8.5,3.8,8.5,8.5v32.4c0,4.7-3.8,8.5-8.5,8.5h-32.4c-4.7,0-8.5-3.8-8.5-8.5v-32.4
			C110,258.3,113.8,254.4,118.5,254.4z"/>
		<path class="st18" d="M199.7,254.4h32.4c4.7,0,8.5,3.8,8.5,8.5v32.4c0,4.7-3.8,8.5-8.5,8.5h-32.4c-4.7,0-8.5-3.8-8.5-8.5v-32.4
			C191.2,258.3,195,254.4,199.7,254.4z"/>
	</g>
	<path class="st21" d="M280.9,254.4h32.4c4.7,0,8.5,3.8,8.5,8.5v32.4c0,4.7-3.8,8.5-8.5,8.5h-32.4c-4.7,0-8.5-3.8-8.5-8.5V263
		C272.4,258.3,276.2,254.4,280.9,254.4z"/>
	<path class="st18" d="M362.2,254.4h32.4c4.7,0,8.5,3.8,8.5,8.5v32.4c0,4.7-3.8,8.5-8.5,8.5h-32.4c-4.7,0-8.5-3.8-8.5-8.5v-32.4
		C353.7,258.3,357.5,254.4,362.2,254.4z"/>
	<path class="st19" d="M443.4,254.4h32.4c4.7,0,8.5,3.8,8.5,8.5v32.4c0,4.7-3.8,8.5-8.5,8.5h-32.4c-4.7,0-8.5-3.8-8.5-8.5v-32.4
		C434.9,258.3,438.7,254.4,443.4,254.4z"/>
	<g>
		<path class="st18" d="M37.2,332.1h32.4c4.7,0,8.5,3.8,8.5,8.5V373c0,4.7-3.8,8.5-8.5,8.5H37.2c-4.7,0-8.5-3.8-8.5-8.5v-32.4
			C28.7,335.9,32.5,332.1,37.2,332.1z"/>
		<path class="st18" d="M118.5,332.1h32.4c4.7,0,8.5,3.8,8.5,8.5V373c0,4.7-3.8,8.5-8.5,8.5h-32.4c-4.7,0-8.5-3.8-8.5-8.5v-32.4
			C110,335.9,113.8,332.1,118.5,332.1z"/>
		<path class="st18" d="M199.7,332.1h32.4c4.7,0,8.5,3.8,8.5,8.5V373c0,4.7-3.8,8.5-8.5,8.5h-32.4c-4.7,0-8.5-3.8-8.5-8.5v-32.4
			C191.2,335.9,195,332.1,199.7,332.1z"/>
	</g>
	<path class="st19" d="M280.9,332.1h32.4c4.7,0,8.5,3.8,8.5,8.5V373c0,4.7-3.8,8.5-8.5,8.5h-32.4c-4.7,0-8.5-3.8-8.5-8.5v-32.4
		C272.4,335.9,276.2,332.1,280.9,332.1z"/>
	<path class="st18" d="M362.2,332.1h32.4c4.7,0,8.5,3.8,8.5,8.5V373c0,4.7-3.8,8.5-8.5,8.5h-32.4c-4.7,0-8.5-3.8-8.5-8.5v-32.4
		C353.7,335.9,357.5,332.1,362.2,332.1z"/>
	<path class="st20" d="M443.4,332.1h32.4c4.7,0,8.5,3.8,8.5,8.5V373c0,4.7-3.8,8.5-8.5,8.5h-32.4c-4.7,0-8.5-3.8-8.5-8.5v-32.4
		C434.9,335.9,438.7,332.1,443.4,332.1z"/>
	<g>
		<path class="st18" d="M37.2,409.8h32.4c4.7,0,8.5,3.8,8.5,8.5v32.4c0,4.7-3.8,8.5-8.5,8.5H37.2c-4.7,0-8.5-3.8-8.5-8.5v-32.4
			C28.7,413.6,32.5,409.8,37.2,409.8z"/>
		<path class="st18" d="M118.5,409.8h32.4c4.7,0,8.5,3.8,8.5,8.5v32.4c0,4.7-3.8,8.5-8.5,8.5h-32.4c-4.7,0-8.5-3.8-8.5-8.5v-32.4
			C110,413.6,113.8,409.8,118.5,409.8z"/>
		<path class="st18" d="M199.7,409.8h32.4c4.7,0,8.5,3.8,8.5,8.5v32.4c0,4.7-3.8,8.5-8.5,8.5h-32.4c-4.7,0-8.5-3.8-8.5-8.5v-32.4
			C191.2,413.6,195,409.8,199.7,409.8z"/>
	</g>
</g>
</svg>
