<?xml version="1.0" encoding="utf-8"?>
<!-- Generator: Adobe Illustrator 22.0.0, SVG Export Plug-In . SVG Version: 6.00 Build 0)  -->
<svg version="1.1" id="Capa_1" xmlns="http://www.w3.org/2000/svg" xmlns:xlink="http://www.w3.org/1999/xlink" x="0px" y="0px"
	 viewBox="0 0 512 456" style="enable-background:new 0 0 512 456;" xml:space="preserve">
<style type="text/css">
	.st0{fill:#A3C303;}
	.st1{fill:#D3B434;}
	.st2{fill:#F8E7A1;}
	.st3{fill:#FAFAFA;}
	.st4{fill:#03558D;}
	.st5{fill:#897E6E;}
</style>
<path class="st0" d="M0-0.1v388.4h370.8v-34.8c10.6,5.3,22.6,8.4,35.3,8.4s24.7-3.1,35.3-8.4v34.8H512V-0.1H0z"/>
<path class="st1" d="M485.5,282.4c0-43.9-35.6-79.4-79.4-79.4s-79.4,35.6-79.4,79.4s35.6,79.4,79.4,79.4S485.5,326.3,485.5,282.4"/>
<g>
	<path class="st2" d="M406.1,335.3c-4.9,0-8.8-3.9-8.8-8.8c0-4.9,3.9-8.8,8.8-8.8c19.5,0,35.3-15.8,35.3-35.3c0-4.9,3.9-8.8,8.8-8.8
		c4.9,0,8.8,3.9,8.8,8.8C459,311.6,435.3,335.3,406.1,335.3"/>
	<path class="st2" d="M361.9,291.2c-4.9,0-8.8-3.9-8.8-8.8c0-29.2,23.8-53,53-53c4.9,0,8.8,3.9,8.8,8.8c0,4.9-3.9,8.8-8.8,8.8
		c-19.5,0-35.3,15.8-35.3,35.3C370.8,287.3,366.8,291.2,361.9,291.2"/>
</g>
<path class="st3" d="M326.6,282.4c0-43.9,35.6-79.4,79.4-79.4c30.8,0,57.4,17.5,70.6,43.2V70.5c-19.5,0-35.3-15.8-35.3-35.3H70.6
	c0,19.5-15.8,35.3-35.3,35.3v247.2c19.5,0,35.3,15.8,35.3,35.3h299.2C344.2,339.8,326.6,313.2,326.6,282.4"/>
<path class="st4" d="M406.1,361.8c-12.7,0-24.7-3.1-35.3-8.4v96.6l35.3-35.3l35.3,35.3v-96.6C430.7,358.8,418.8,361.8,406.1,361.8"
	/>
<g>
	<path class="st5" d="M309,97H203c-4.9,0-8.8-3.9-8.8-8.8s3.9-8.8,8.8-8.8H309c4.9,0,8.8,3.9,8.8,8.8S313.8,97,309,97"/>
	<path class="st5" d="M397.2,141.1H114.8c-4.9,0-8.8-3.9-8.8-8.8c0-4.9,3.9-8.8,8.8-8.8h282.5c4.9,0,8.8,3.9,8.8,8.8
		C406.1,137.2,402.1,141.1,397.2,141.1"/>
	<path class="st5" d="M397.2,185.3H114.8c-4.9,0-8.8-3.9-8.8-8.8s3.9-8.8,8.8-8.8h282.5c4.9,0,8.8,3.9,8.8,8.8
		S402.1,185.3,397.2,185.3"/>
	<path class="st5" d="M291.3,229.4H167.7c-4.9,0-8.8-3.9-8.8-8.8s3.9-8.8,8.8-8.8h123.6c4.9,0,8.8,3.9,8.8,8.8
		S296.2,229.4,291.3,229.4"/>
	<path class="st5" d="M132.4,229.4h-17.7c-4.9,0-8.8-3.9-8.8-8.8s3.9-8.8,8.8-8.8h17.7c4.9,0,8.8,3.9,8.8,8.8
		S137.3,229.4,132.4,229.4"/>
	<path class="st5" d="M185.4,273.6h-70.6c-4.9,0-8.8-3.9-8.8-8.8s3.9-8.8,8.8-8.8h70.6c4.9,0,8.8,3.9,8.8,8.8
		S190.3,273.6,185.4,273.6"/>
	<path class="st5" d="M291.3,273.6h-70.6c-4.9,0-8.8-3.9-8.8-8.8s3.9-8.8,8.8-8.8h70.6c4.9,0,8.8,3.9,8.8,8.8
		S296.2,273.6,291.3,273.6"/>
</g>
</svg>
