<?xml version="1.0" encoding="utf-8"?>
<!-- Generator: Adobe Illustrator 22.0.0, SVG Export Plug-In . SVG Version: 6.00 Build 0)  -->
<svg version="1.1" id="Capa_1" xmlns="http://www.w3.org/2000/svg" xmlns:xlink="http://www.w3.org/1999/xlink" x="0px" y="0px"
	 viewBox="0 0 512 512" style="enable-background:new 0 0 512 512;" xml:space="preserve">
<style type="text/css">
	.st0{fill-rule:evenodd;clip-rule:evenodd;}
</style>
<g id="XMLID_9_">
	<path id="XMLID_344_" class="st0" d="M0,170.6h24.4h24.4h24.4h24.4h24.4h24.4h24.4v-24.4v-24.4V97.4V73V48.6V24.3V-0.1h-24.4h-24.4
		H97.5H73.1H48.8H24.4H0v24.4v24.4V73v24.4v24.4v24.4V170.6 M24.4,146.2h24.4h24.4h24.4h24.4h24.4v-24.4V97.4V73V48.6V24.3h-24.4
		H97.5H73.1H48.8H24.4v24.4V73v24.4v24.4V146.2"/>
	<polyline id="XMLID_343_" class="st0" points="219.4,24.3 243.8,24.3 243.8,-0.1 219.4,-0.1 	"/>
	<polyline id="XMLID_342_" class="st0" points="292.6,24.3 317,24.3 317,-0.1 292.6,-0.1 	"/>
	<path id="XMLID_339_" class="st0" d="M341.3,170.6h24.4h24.4h24.4h24.4h24.4h24.4H512v-24.4v-24.4V97.4V73V48.6V24.3V-0.1h-24.4
		h-24.4h-24.4h-24.4h-24.4h-24.4h-24.4v24.4v24.4V73v24.4v24.4v24.4V170.6 M365.7,146.2h24.4h24.4h24.4h24.4h24.4v-24.4V97.4V73
		V48.6V24.3h-24.4h-24.4h-24.4h-24.4h-24.4v24.4V73v24.4v24.4V146.2"/>
	<polyline id="XMLID_338_" class="st0" points="195,48.6 219.4,48.6 219.4,24.3 195,24.3 	"/>
	<polyline id="XMLID_337_" class="st0" points="268.2,48.6 292.6,48.6 292.6,24.3 268.2,24.3 	"/>
	<polyline id="XMLID_336_" class="st0" points="48.8,121.8 73.1,121.8 97.5,121.8 121.9,121.8 121.9,97.4 121.9,73 121.9,48.6 
		97.5,48.6 73.1,48.6 48.8,48.6 48.8,73 48.8,97.4 48.8,121.8 	"/>
	<polyline id="XMLID_335_" class="st0" points="219.4,73 243.8,73 243.8,48.6 219.4,48.6 	"/>
	<polyline id="XMLID_334_" class="st0" points="390.1,121.8 414.5,121.8 438.9,121.8 463.2,121.8 463.2,97.4 463.2,73 463.2,48.6 
		438.9,48.6 414.5,48.6 390.1,48.6 390.1,73 390.1,97.4 390.1,121.8 	"/>
	<polyline id="XMLID_333_" class="st0" points="195,97.4 219.4,97.4 219.4,73 195,73 	"/>
	<path id="XMLID_330_" class="st0" d="M292.6,243.7H317v-24.4h24.4v-24.4H317v-24.4v-24.4v-24.4V97.4h-24.4V73h-24.4v24.4h-24.4
		v24.4h-24.4H195v24.4v24.4h24.4v-24.4h24.4v24.4v24.4h24.4h24.4v24.4V243.7 M268.2,170.6h24.4v-24.4v-24.4h-24.4v24.4V170.6"/>
	<polyline id="XMLID_329_" class="st0" points="24.4,292.5 48.8,292.5 73.1,292.5 73.1,268.1 97.5,268.1 97.5,243.7 97.5,219.3 
		121.9,219.3 121.9,194.9 97.5,194.9 73.1,194.9 48.8,194.9 24.4,194.9 0,194.9 0,219.3 24.4,219.3 24.4,243.7 48.8,243.7 
		48.8,268.1 24.4,268.1 24.4,292.5 	"/>
	<polyline id="XMLID_328_" class="st0" points="146.3,219.3 170.7,219.3 195,219.3 219.4,219.3 243.8,219.3 243.8,194.9 
		219.4,194.9 195,194.9 170.7,194.9 146.3,194.9 146.3,219.3 	"/>
	<polyline id="XMLID_327_" class="st0" points="365.7,219.3 390.1,219.3 390.1,194.9 365.7,194.9 	"/>
	<polyline id="XMLID_326_" class="st0" points="414.5,219.3 438.9,219.3 438.9,194.9 414.5,194.9 	"/>
	<polyline id="XMLID_325_" class="st0" points="463.2,243.7 487.6,243.7 512,243.7 512,219.3 487.6,219.3 487.6,194.9 463.2,194.9 
		463.2,219.3 463.2,243.7 	"/>
	<polyline id="XMLID_324_" class="st0" points="121.9,243.7 146.3,243.7 146.3,219.3 121.9,219.3 	"/>
	<path id="XMLID_321_" class="st0" d="M292.6,438.7H317v-24.4V390v-24.4h24.4v-24.4v-24.4H317h-24.4v-24.4h-24.4v-24.4h24.4v-24.4
		h-24.4v-24.4h-24.4v24.4h-24.4H195v24.4h-24.4v24.4H195v24.4v24.4v24.4h24.4h24.4h24.4v-24.4h-24.4v-24.4h24.4v24.4h24.4v24.4
		h-24.4V390h24.4v24.4V438.7 M219.4,292.5h24.4v-24.4h-24.4V292.5"/>
	<polyline id="XMLID_320_" class="st0" points="414.5,365.6 438.9,365.6 438.9,341.2 463.2,341.2 463.2,316.8 438.9,316.8 
		438.9,292.5 414.5,292.5 414.5,316.8 390.1,316.8 390.1,292.5 365.7,292.5 365.7,268.1 390.1,268.1 390.1,243.7 365.7,243.7 
		365.7,219.3 341.3,219.3 341.3,243.7 317,243.7 317,268.1 317,292.5 341.3,292.5 341.3,316.8 365.7,316.8 365.7,341.2 390.1,341.2 
		414.5,341.2 414.5,365.6 	"/>
	<polyline id="XMLID_319_" class="st0" points="390.1,243.7 414.5,243.7 414.5,219.3 390.1,219.3 	"/>
	<polyline id="XMLID_318_" class="st0" points="146.3,268.1 170.7,268.1 170.7,243.7 146.3,243.7 	"/>
	<polyline id="XMLID_317_" class="st0" points="414.5,268.1 438.9,268.1 463.2,268.1 463.2,243.7 438.9,243.7 414.5,243.7 
		414.5,268.1 	"/>
	<polyline id="XMLID_316_" class="st0" points="463.2,316.8 487.6,316.8 487.6,292.5 512,292.5 512,268.1 487.6,268.1 463.2,268.1 
		463.2,292.5 463.2,316.8 	"/>
	<polyline id="XMLID_315_" class="st0" points="97.5,316.8 121.9,316.8 121.9,292.5 97.5,292.5 	"/>
	<polyline id="XMLID_314_" class="st0" points="146.3,316.8 170.7,316.8 170.7,292.5 146.3,292.5 	"/>
	<path id="XMLID_311_" class="st0" d="M0,511.9h24.4h24.4h24.4h24.4h24.4h24.4h24.4v-24.4v-24.4v-24.4v-24.4V390v-24.4v-24.4h-24.4
		h-24.4H97.5H73.1H48.8H24.4H0v24.4V390v24.4v24.4v24.4v24.4V511.9 M24.4,487.5h24.4h24.4h24.4h24.4h24.4v-24.4v-24.4v-24.4V390
		v-24.4h-24.4H97.5H73.1H48.8H24.4V390v24.4v24.4v24.4V487.5"/>
	<polyline id="XMLID_310_" class="st0" points="487.6,390 512,390 512,365.6 512,341.2 487.6,341.2 463.2,341.2 463.2,365.6 
		487.6,365.6 487.6,390 	"/>
	<polyline id="XMLID_309_" class="st0" points="390.1,511.9 414.5,511.9 414.5,487.5 438.9,487.5 438.9,463.1 438.9,438.7 
		414.5,438.7 414.5,414.4 438.9,414.4 438.9,438.7 463.2,438.7 463.2,414.4 487.6,414.4 487.6,390 463.2,390 463.2,365.6 
		438.9,365.6 438.9,390 414.5,390 414.5,365.6 390.1,365.6 365.7,365.6 365.7,390 390.1,390 390.1,414.4 390.1,438.7 365.7,438.7 
		365.7,463.1 365.7,487.5 390.1,487.5 390.1,511.9 	"/>
	<polyline id="XMLID_308_" class="st0" points="48.8,463.1 73.1,463.1 97.5,463.1 121.9,463.1 121.9,438.7 121.9,414.4 121.9,390 
		97.5,390 73.1,390 48.8,390 48.8,414.4 48.8,438.7 48.8,463.1 	"/>
	<polyline id="XMLID_307_" class="st0" points="195,511.9 219.4,511.9 219.4,487.5 243.8,487.5 243.8,463.1 219.4,463.1 
		219.4,438.7 243.8,438.7 268.2,438.7 268.2,414.4 243.8,414.4 243.8,390 219.4,390 195,390 195,414.4 195,438.7 195,463.1 
		195,487.5 195,511.9 	"/>
	<polyline id="XMLID_306_" class="st0" points="268.2,463.1 292.6,463.1 292.6,438.7 268.2,438.7 	"/>
	<polyline id="XMLID_305_" class="st0" points="487.6,487.5 512,487.5 512,463.1 487.6,463.1 	"/>
	<polyline id="XMLID_304_" class="st0" points="243.8,511.9 268.2,511.9 292.6,511.9 292.6,487.5 268.2,487.5 243.8,487.5 
		243.8,511.9 	"/>
	<polyline id="XMLID_303_" class="st0" points="438.9,511.9 463.2,511.9 463.2,487.5 438.9,487.5 	"/>
</g>
</svg>
