<?xml version="1.0" encoding="utf-8"?>
<!-- Generator: Adobe Illustrator 22.0.0, SVG Export Plug-In . SVG Version: 6.00 Build 0)  -->
<svg version="1.1" id="Capa_1" xmlns="http://www.w3.org/2000/svg" xmlns:xlink="http://www.w3.org/1999/xlink" x="0px" y="0px"
	 viewBox="0 0 512 454.7" style="enable-background:new 0 0 512 454.7;" xml:space="preserve">
<style type="text/css">
	.st0{fill:#E4AF18;}
	.st1{fill:#F4BF1A;}
	.st2{fill:#FFD949;}
	.st3{fill:#DCA815;}
	.st4{fill:#C49214;}
	.st5{fill:#FCC62D;}
	.st6{fill:#FFF082;}
</style>
<g>
	<path class="st0" d="M256,393.5c-125.8,0-227.7-25.8-227.7-52.3v60.9c0.1,26.4,102,52.3,227.7,52.3s227.6-25.9,227.7-52.3v-60.9
		C483.7,367.7,381.8,393.5,256,393.5"/>
	<path class="st1" d="M229.7,297.7C104,297.7,2,271.9,2,245.4v60.9c0.1,26.4,102,52.3,227.7,52.3s227.7-25.9,227.7-52.3v-60.9
		C457.4,271.9,355.5,297.7,229.7,297.7"/>
	<path class="st0" d="M282.3,201.9c-125.8,0-227.7-25.8-227.7-52.3v60.9c0.1,26.4,102,52.3,227.7,52.3
		c125.7,0,227.7-25.9,227.7-52.3v-60.9C510,176.1,408,201.9,282.3,201.9"/>
	<path class="st2" d="M457.4,46.2c0,26.5-102,51.1-227.7,51.1C104,97.3,2,72.7,2,46.2C2,19.7,104,1.5,229.7,1.5
		C355.5,1.5,457.4,19.7,457.4,46.2"/>
	<path class="st1" d="M229.7,97.3C104,97.3,2,71.5,2,45.1V106c0.1,26.5,102,52.3,227.7,52.3s227.7-25.9,227.7-52.3V45.1
		C457.4,71.5,355.5,97.3,229.7,97.3"/>
	<path class="st3" d="M37,71.8v60.9c5.3,2,11.2,3.8,17.5,5.6V77.5C48.2,75.7,42.4,73.8,37,71.8"/>
	<path class="st3" d="M404.9,77.5v60.9c6.4-1.8,12.2-3.7,17.5-5.6V71.8C417.1,73.8,411.3,75.7,404.9,77.5"/>
	<path class="st3" d="M80.8,83.8v61c5.6,1.2,11.4,2.3,17.5,3.3v-61C92.3,86,86.4,84.9,80.8,83.8"/>
	<path class="st3" d="M361.1,87.1v61c6.1-1,11.9-2.1,17.5-3.3v-61C373,84.9,367.2,86,361.1,87.1"/>
	<path class="st3" d="M124.6,91v61c5.7,0.7,11.5,1.4,17.5,2V93C136.2,92.4,130.3,91.7,124.6,91"/>
	<path class="st3" d="M317.3,93v61c6-0.6,11.8-1.3,17.5-2V91C329.1,91.7,323.3,92.4,317.3,93"/>
	<path class="st3" d="M168.4,95.2v61c5.8,0.4,11.6,0.8,17.5,1v-61C180,96,174.2,95.6,168.4,95.2"/>
	<path class="st3" d="M273.5,96.3v61c5.9-0.3,11.8-0.6,17.5-1v-61C285.3,95.6,279.4,96,273.5,96.3"/>
	<path class="st3" d="M229.7,97.3c-2.9,0-5.9,0-8.8,0v61c2.9,0,5.8,0.1,8.8,0.1s5.9,0,8.8-0.1v-61C235.6,97.3,232.7,97.3,229.7,97.3
		"/>
	<path class="st4" d="M89.6,176.4v60.9c5.3,2,11.2,3.8,17.5,5.6V182C100.7,180.2,94.9,178.3,89.6,176.4"/>
	<path class="st4" d="M457.4,182v60.9c6.4-1.8,12.2-3.7,17.5-5.6v-60.9C469.6,178.3,463.8,180.2,457.4,182"/>
	<path class="st4" d="M133.4,188.3v61c5.6,1.2,11.4,2.3,17.5,3.3v-61C144.8,190.6,139,189.5,133.4,188.3"/>
	<path class="st4" d="M413.7,191.6v61c6.1-1,11.9-2.1,17.5-3.3v-61C425.6,189.5,419.7,190.6,413.7,191.6"/>
	<path class="st4" d="M177.2,195.5v61c5.7,0.7,11.5,1.4,17.5,2v-61C188.7,196.9,182.9,196.2,177.2,195.5"/>
	<path class="st4" d="M369.9,197.5v61c6-0.6,11.8-1.3,17.5-2v-61C381.7,196.2,375.8,196.9,369.9,197.5"/>
	<path class="st4" d="M221,199.8v61c5.8,0.4,11.6,0.8,17.5,1v-61C232.6,200.5,226.7,200.2,221,199.8"/>
	<path class="st4" d="M326.1,200.8v61c5.9-0.3,11.8-0.6,17.5-1v-61C337.8,200.2,332,200.5,326.1,200.8"/>
	<path class="st4" d="M282.3,201.9c-2.9,0-5.8,0-8.8-0.1v61c2.9,0,5.8,0,8.8,0c2.9,0,5.9,0,8.8,0v-61
		C288.1,201.8,285.2,201.9,282.3,201.9"/>
	<path class="st3" d="M37,272.2v60.9c5.3,2,11.2,3.8,17.5,5.6v-60.9C48.2,276,42.4,274.1,37,272.2"/>
	<path class="st3" d="M404.9,277.8v60.9c6.4-1.8,12.2-3.7,17.5-5.6v-60.9C417.1,274.2,411.3,276,404.9,277.8"/>
	<path class="st3" d="M80.8,284.1v61c5.6,1.2,11.4,2.3,17.5,3.3v-61C92.3,286.4,86.4,285.3,80.8,284.1"/>
	<path class="st3" d="M361.1,287.4v61c6.1-1,11.9-2.1,17.5-3.3v-61C373,285.3,367.2,286.4,361.1,287.4"/>
	<path class="st3" d="M124.6,291.3v61c5.7,0.7,11.5,1.4,17.5,2v-61C136.2,292.7,130.3,292.1,124.6,291.3"/>
	<path class="st3" d="M317.3,293.3v61c6-0.6,11.8-1.3,17.5-2v-61C329.1,292.1,323.3,292.7,317.3,293.3"/>
	<path class="st3" d="M168.4,295.6v61c5.8,0.4,11.6,0.8,17.5,1v-61C180,296.3,174.2,296,168.4,295.6"/>
	<path class="st3" d="M273.5,296.6v61c5.9-0.3,11.8-0.6,17.5-1v-61C285.3,296,279.4,296.3,273.5,296.6"/>
	<path class="st3" d="M229.7,297.7c-2.9,0-5.9,0-8.8-0.1v61c2.9,0,5.8,0.1,8.8,0.1s5.9,0,8.8-0.1v-61
		C235.6,297.7,232.7,297.7,229.7,297.7"/>
	<path class="st4" d="M63.3,368V429c5.3,2,11.2,3.8,17.5,5.6v-60.9C74.5,371.9,68.6,370,63.3,368"/>
	<path class="st4" d="M431.2,373.6v60.9c6.4-1.8,12.2-3.7,17.5-5.6V368C443.4,370,437.5,371.9,431.2,373.6"/>
	<path class="st4" d="M107.1,380v61c5.6,1.2,11.4,2.3,17.5,3.3v-61C118.6,382.2,112.7,381.1,107.1,380"/>
	<path class="st4" d="M387.4,383.3v61c6.1-1,11.9-2.1,17.5-3.3v-61C399.3,381.1,393.4,382.2,387.4,383.3"/>
	<path class="st4" d="M150.9,387.2v61c5.7,0.7,11.5,1.4,17.5,2v-61C162.4,388.6,156.6,387.9,150.9,387.2"/>
	<path class="st4" d="M343.6,389.2v61c6-0.6,11.8-1.3,17.5-2v-61C355.4,387.9,349.6,388.6,343.6,389.2"/>
	<path class="st4" d="M194.7,391.4v61c5.8,0.4,11.6,0.8,17.5,1v-61C206.3,392.2,200.4,391.8,194.7,391.4"/>
	<path class="st4" d="M299.8,392.5v61c5.9-0.3,11.8-0.6,17.5-1v-61C311.6,391.8,305.7,392.2,299.8,392.5"/>
	<path class="st4" d="M256,393.5c-2.9,0-5.9,0-8.8-0.1v61c2.9,0,5.8,0.1,8.8,0.1c2.9,0,5.8,0,8.8-0.1v-61
		C261.8,393.5,258.9,393.5,256,393.5"/>
	<path class="st5" d="M450.5,318.4c-24.9,21.8-114.3,40.3-220.8,40.3c-83.3,0-156.1-11.4-195.8-26.7c-3.7,3.3-5.6,6.8-5.6,10.4
		c0,26.5,102,51.1,227.7,51.1c125.8,0,227.7-24.7,227.7-51.1C483.7,333.3,471.6,325.1,450.5,318.4"/>
	<path class="st2" d="M282.3,262.8c-115.7,0-211.2-21.9-225.7-46C22.6,224.5,2,234.7,2,246.6c0,26.5,102,51.1,227.7,51.1
		c125.8,0,227.7-24.7,227.7-51.1c0-1.2-0.3-2.3-0.7-3.4C415,254.8,352.4,262.8,282.3,262.8"/>
	<path class="st5" d="M448.6,119.5c-27.3,21.1-114.9,38.8-218.9,38.8c-67.2,0-127.5-7.4-169.2-18.3c-3.9,3.4-6,7-6,10.7
		c0,26.5,102,51.1,227.7,51.1c125.8,0,227.7-24.7,227.7-51.1C510,138.1,486.7,127.3,448.6,119.5"/>
	<path class="st0" d="M435.5,44.2c0,22.6-92.2,43.6-205.8,43.6c-113.7,0-205.8-21-205.8-43.6c0-22.6,92.2-38.1,205.8-38.1
		C343.4,6.1,435.5,21.7,435.5,44.2"/>
	<path class="st6" d="M417.5,42.7c0,18.3-84.3,35.3-188.3,35.3c-104,0-188.3-17-188.3-35.3c0-18.3,84.3-30.9,188.3-30.9
		C333.1,11.8,417.5,24.4,417.5,42.7"/>
	<path class="st0" d="M437.7,127.8c-24.9,17.7-104.8,32.5-199.7,32.5c-61.3,0-116.3-6.2-154.4-15.3c-3.5,2.8-5.5,5.8-5.5,9
		c0,22.2,93,42.9,207.8,42.9c114.7,0,207.8-20.7,207.8-42.9C493.7,143.3,472.4,134.3,437.7,127.8"/>
	<path class="st6" d="M423.5,131.8c-22.8,14.5-96.3,26.6-183.4,26.6c-56.3,0-106.8-5.1-141.8-12.6c-3.2,2.3-5,4.8-5,7.4
		c0,18.2,85.4,35.1,190.8,35.1c105.4,0,190.8-16.9,190.8-35.1C475,144.6,455.4,137.2,423.5,131.8"/>
	<path class="st0" d="M275.6,262.7c-105.7-0.5-192.9-18.4-206.1-37.8c-31.1,6-49.9,14.1-49.9,23.6c-0.1,21.2,93,41.4,207.9,41.9
		c114.9,0.5,208.2-18.9,208.3-40.1c0-0.9-0.2-1.9-0.6-2.8C396.9,256.8,339.7,263,275.6,262.7"/>
	<path class="st6" d="M276.2,262.1c-98.8-0.4-180.2-14.8-192.5-30.3c-29,4.8-46.6,11.2-46.6,18.9c-0.1,17,86.9,33.1,194.2,33.6
		c107.3,0.5,194.4-15,194.5-31.9c0-0.8-0.2-1.5-0.5-2.2C389.5,257.4,336,262.3,276.2,262.1"/>
	<path class="st0" d="M438.8,322.8c-23.4,18.6-107.7,34.5-208.1,34.5c-78.5,0-147.1-9.7-184.5-22.9c-3.4,2.8-5.3,5.8-5.3,8.9
		c0,22.7,96.1,43.8,214.6,43.8c118.5,0,214.6-21.1,214.6-43.8C470,335.6,458.6,328.6,438.8,322.8"/>
	<path class="st6" d="M427.8,328.2c-22.2,15-102.1,27.8-197.2,27.8c-74.4,0-139.4-7.8-174.9-18.4c-3.3,2.3-5,4.7-5,7.2
		C50.6,363,141.7,380,254,380c112.3,0,203.4-17,203.4-35.3C457.4,338.4,446.6,332.8,427.8,328.2"/>
</g>
</svg>
