<?xml version="1.0" encoding="UTF-8"?>
<svg width="502px" height="534px" viewBox="0 0 502 534" version="1.1" xmlns="http://www.w3.org/2000/svg" xmlns:xlink="http://www.w3.org/1999/xlink">
    <!-- Generator: Sketch 46 (44423) - http://www.bohemiancoding.com/sketch -->
    <title>Group</title>
    <desc>Created with Sketch.</desc>
    <defs></defs>
    <g id="Prototype" stroke="none" stroke-width="1" fill="none" fill-rule="evenodd">
        <g id="verificacion-QR" transform="translate(-865.000000, 0.000000)">
            <g id="Group" transform="translate(758.000000, -132.000000)">
                <path d="M553.0225,662.375628 L544.59174,664.983222 C542.051037,665.76905 539.361693,664.322428 538.584922,661.752102 L536.211474,653.898388 C535.434703,651.328062 536.864653,648.607362 539.405356,647.821534 L547.836116,645.21394 C550.376819,644.428112 553.066163,645.874734 553.842934,648.44506 L556.216382,656.298774 C556.993153,658.8691 555.563203,661.5898 553.0225,662.375628 Z" id="Rectangle-10-Copy-4" fill-opacity="0.780000031" fill="#CFE65C"></path>
                <path d="M91.542814,266.68301 L303.045822,87.1416978 C311.186707,80.2310393 323.323828,81.3052804 330.154841,89.5410826 L499.970905,294.279601 C506.801918,302.515403 505.740058,314.794035 497.599173,321.704694 L286.096165,501.246006 C277.955281,508.156664 265.81816,507.082423 258.987146,498.846621 L89.1710822,294.108103 C82.3400691,285.872301 83.4019296,273.593668 91.542814,266.68301 Z" id="Rectangle-10-Copy-9" fill="#FAFAFA" transform="translate(294.570994, 294.193852) rotate(54.000000) translate(-294.570994, -294.193852) "></path>
                <path d="M420.288059,516.74623 L427.771736,486.380879 C429.057209,481.165017 434.27885,477.990957 439.434599,479.291418 L467.606644,486.397394 C472.762393,487.697854 475.899872,492.980377 474.614399,498.196238 L467.130722,528.56159 C465.845249,533.777451 460.623608,536.951511 455.467859,535.651051 L427.295814,528.545074 C422.140065,527.244614 419.002586,521.962091 420.288059,516.74623 Z" id="Rectangle-10-Copy-5" fill="#F7FAFC"></path>
                <path d="M515.288059,542.49367 L519.505583,525.380879 C520.791056,520.165017 526.012697,516.990957 531.168446,518.291418 L546.736652,522.218264 C551.8924,523.518724 555.029879,528.801247 553.744407,534.017109 L549.526882,551.1299 C548.24141,556.345762 543.019768,559.519822 537.86402,558.219361 L522.295814,554.292515 C517.140065,552.992054 514.002586,547.709532 515.288059,542.49367 L515.288059,542.49367 Z" id="Rectangle-10-Copy-8" fill-opacity="0.74000001" fill="#DAE1E6"></path>
                <path d="M359.006735,230.343301 L354.252052,211.050962 C353.127263,206.487083 355.872557,201.864875 360.383837,200.726973 L378.113264,196.25499 C382.624544,195.117088 387.193481,197.89439 388.318269,202.458269 L393.072953,221.750608 C394.197741,226.314487 391.452447,230.936695 386.941167,232.074597 L369.21174,236.54658 C364.70046,237.684483 360.131524,234.90718 359.006735,230.343301 Z" id="Rectangle-10-Copy" fill-opacity="0.469999999" fill="#CFE65C"></path>
                <path d="M545.983164,599.466203 L540.70312,586.245262 C538.712616,581.26115 541.092849,575.588293 546.019519,573.574581 L557.917791,568.711318 C562.844461,566.697606 568.451939,569.105591 570.442443,574.089703 L575.722487,587.310643 C577.712991,592.294755 575.332758,597.967613 570.406088,599.981325 L558.507816,604.844588 C553.581146,606.8583 547.973668,604.450315 545.983164,599.466203 Z" id="Rectangle-10-Copy-6" fill-opacity="0.810000002" fill="#FFDC60"></path>
                <path d="M432.993093,412.322602 L414.720215,391.056973 C407.748164,382.943033 408.598041,370.647523 416.618468,363.594182 L435.743451,346.77525 C443.763878,339.721909 455.917682,340.581695 462.889733,348.695635 L481.162611,369.961264 C488.134662,378.075204 487.284785,390.370714 479.264358,397.424055 L460.139376,414.242987 C452.118949,421.296328 439.965144,420.436542 432.993093,412.322602 Z" id="Rectangle-10-Copy-3" fill="#F0F4F7"></path>
                <path d="M692.20589,234.408645 L636.032765,420.284883 C632.925682,430.566188 622.168305,436.352676 612.005492,433.209365 L436.621424,378.963895 C426.458611,375.820585 420.738812,364.937783 423.845896,354.656478 L480.01902,168.780241 C483.126104,158.498936 493.883481,152.712448 504.046294,155.855758 L679.430362,210.101229 C689.593175,213.244539 695.312974,224.12734 692.20589,234.408645 Z" id="Rectangle-10-Copy-2" fill="#80CCFF"></path>
                <path d="M683.836748,293.167638 L734.010819,392.787921 C738.835453,402.3672 735.07055,414.08948 725.601672,418.970366 L632.156136,467.138382 C622.687258,472.019269 611.100078,468.210469 606.275444,458.63119 L556.101373,359.010907 C551.276739,349.431628 555.041642,337.709348 564.51052,332.828462 L657.956056,284.660446 C667.424934,279.77956 679.012114,283.588359 683.836748,293.167638 Z" id="Rectangle-10-Copy-7" fill="#3D93CC"></path>
            </g>
        </g>
    </g>
</svg>