<?xml version="1.0" encoding="utf-8"?>
<!-- Generator: Adobe Illustrator 22.0.0, SVG Export Plug-In . SVG Version: 6.00 Build 0)  -->
<svg version="1.1" id="Capa_1" xmlns="http://www.w3.org/2000/svg" xmlns:xlink="http://www.w3.org/1999/xlink" x="0px" y="0px"
	 viewBox="0 0 512 512" style="enable-background:new 0 0 512 512;" xml:space="preserve">
<g>
	<path d="M255.5,3C116.1,3,3,116,3,255.3C3,394.9,116.1,508,255.5,508C395,508,508,394.9,508,255.3C508,116,395,3,255.5,3L255.5,3z
		 M273.5,395.9c-5.9,5.2-12.7,7.8-20.4,7.8c-7.9,0-14.9-2.6-20.8-7.7c-5.9-5.2-8.9-12.4-8.9-21.6c0-8.2,2.9-15.2,8.6-20.8
		c5.8-5.6,12.8-8.4,21.1-8.4c8.2,0,15.2,2.8,20.8,8.4c5.6,5.6,8.4,12.5,8.4,20.8C282.3,383.5,279.4,390.6,273.5,395.9L273.5,395.9z
		 M346.6,214.6c-4.6,8.4-9.9,15.6-16.1,21.6c-6.2,6.1-17.3,16.3-33.4,30.6c-4.4,4-8,7.6-10.7,10.7c-2.6,3.1-4.6,5.8-5.9,8.4
		c-1.3,2.6-2.3,5.1-3.1,7.7c-0.7,2.5-1.8,7-3.2,13.4c-2.5,13.5-10.3,20.3-23.3,20.3c-6.8,0-12.5-2.2-17.1-6.6c-4.6-4.5-7-11-7-19.8
		c0-11,1.7-20.5,5.1-28.5c3.4-8,7.9-15.1,13.5-21.1c5.6-6.1,13.2-13.3,22.7-21.7c8.4-7.3,14.4-12.8,18.1-16.5
		c3.8-3.7,6.9-7.8,9.4-12.4c2.6-4.5,3.8-9.5,3.8-14.9c0-10.4-3.9-19.3-11.6-26.4c-7.8-7.2-17.8-10.8-30.1-10.8
		c-14.3,0-24.9,3.6-31.7,10.9c-6.8,7.2-12.5,17.9-17.2,32c-4.5,14.8-12.9,22.1-25.2,22.1c-7.3,0-13.5-2.6-18.5-7.7
		c-5-5.2-7.5-10.7-7.5-16.7c0-12.4,3.9-25,11.9-37.7c8-12.8,19.6-23.3,34.8-31.7c15.3-8.4,33.1-12.5,53.4-12.5
		c18.9,0,35.6,3.5,50.1,10.5c14.5,7,25.7,16.5,33.6,28.5c7.9,12,11.8,25.1,11.8,39.2C353.4,196.5,351.1,206.2,346.6,214.6
		L346.6,214.6z M346.6,214.6"/>
</g>
</svg>
