<?xml version="1.0" encoding="utf-8"?>
<!-- Generator: Adobe Illustrator 22.0.0, SVG Export Plug-In . SVG Version: 6.00 Build 0)  -->
<svg version="1.1" id="Capa_1" xmlns="http://www.w3.org/2000/svg" xmlns:xlink="http://www.w3.org/1999/xlink" x="0px" y="0px"
	 viewBox="0 0 800 231" style="enable-background:new 0 0 800 231;" xml:space="preserve">
<style type="text/css">
	.st0{fill:#96C01F;}
	.st1{fill:#00558B;}
	.st2{fill:#98C220;}
	.st3{fill:#FCFCF8;}
	.st4{fill:#9DC52F;}
	.st5{fill:#9FC633;}
	.st6{fill:#A1C636;}
	.st7{fill:#A3C83E;}
	.st8{fill:#B0CF5A;}
	.st9{fill:#F6F8EB;}
	.st10{fill:#F8FAF0;}
	.st11{fill:#9CC426;}
	.st12{fill:#A5C940;}
	.st13{fill:#BBD471;}
	.st14{fill:#E8F0CD;}
	.st15{fill:#B6D268;}
	.st16{fill:#D6E5A7;}
	.st17{fill:#A7CA46;}
	.st18{fill:#E3EDC3;}
	.st19{fill:#9EC42D;}
	.st20{fill:#9CC42B;}
	.st21{fill:#F2F6E3;}
	.st22{fill:#DCE8B4;}
	.st23{fill:#ACCC52;}
	.st24{fill:#ABCC4F;}
	.st25{fill:#A9CA4A;}
	.st26{fill:#CDDE95;}
	.st27{fill:#C4D985;}
	.st28{fill:#FAFBF4;}
	.st29{fill:#CADD8F;}
	.st30{fill:#D1E19F;}
	.st31{fill:#C2D880;}
	.st32{fill:#BED678;}
	.st33{fill:#B4D162;}
	.st34{fill:#EFF4DB;}
	.st35{fill:#B2D05E;}
	.st36{fill:#DAE7AF;}
	.st37{fill:#E1ECBF;}
	.st38{fill:#DFEBBB;}
	.st39{fill:#A6CA44;}
	.st40{fill:#F4F7E7;}
	.st41{fill:#AECE55;}
	.st42{fill:#D8E5AA;}
	.st43{fill:#B8D36D;}
	.st44{fill:#E6EEC8;}
	.st45{fill:#EDF3D8;}
	.st46{fill:#A2C83A;}
	.st47{fill:#C6DA88;}
	.st48{fill:#BFD77A;}
	.st49{fill:#D3E2A2;}
	.st50{fill:#EAF1D1;}
	.st51{fill:#F0F5DE;}
	.st52{fill:#CFE099;}
	.st53{fill:#B5D165;}
	.st54{fill:#BCD574;}
	.st55{fill:#C8DB8C;}
	.st56{fill:#9AC221;}
	.st57{fill:#ECF2D4;}
	.st58{fill:#C1D77D;}
	.st59{fill:#DEE9B8;}
	.st60{fill:#9AC225;}
	.st61{fill:#FEFEFE;}
	.st62{fill:#CFE09C;}
	.st63{fill:#95C01F;}
	.st64{fill:#9AC222;}
</style>
<g>
	<path class="st0" d="M574,130c0.6,0,1.1,0,1.7,0c45.2,0,90.3,0,135.5-0.1c6.7,0,13.5-0.1,20.2-0.1c10.5,0,20.3,2.5,29.3,8.1
		c10.2,6.4,17.6,15.1,20.3,27c3.1,13.9-0.9,26-10.7,36.2c-8.8,9.2-19.9,14-32.4,15.4c-3.4,0.4-6.8,0.3-10.3,0.3
		c-9.2,0-18.3,0-27.5,0c-0.5,0.2-1.1,0.1-1.6,0.1c-40.8,0-81.6,0-122.4,0c-2,0-2.2-0.1-2.2-2.2c0-7.9,0-15.8,0-23.7
		c0-0.6,0-1.1-0.2-1.6c-0.2-0.4-0.3-0.9-0.2-1.3c0.9-4.2,1.3-8.6,3-12.6c1.5-3.5,3.7-6.6,7.4-8.2c1.5-0.6,3-0.9,4.6-0.7
		c3,0.3,5,2.6,5,5.6c0,1.3-0.2,2.5-0.4,3.7c-1.8,8.8-3.7,17.5-5.5,26.3c-0.1,0.3-0.1,0.7-0.2,1c-0.2,0.9,0.1,1.3,1,1.3
		c3.2,0,6.4,0,9.7,0c1.1,0,1.3-0.7,1.5-1.6c1-4.6,2-9.2,2.9-13.7c1.1-5.5,2.3-10.9,3.4-16.4c0.4-2.1,0.5-4.2,0.2-6.3
		c-0.5-3.8-2.8-6.4-6.1-7.9c-6.2-2.8-12.2-2-17.9,1.4c-1.6,1-3.1,2.2-4.4,3.7c-1,1.1-1.5,1.1-2-0.4c-0.6-1.7-2-2.9-2.4-4.7
		c0.3-8.7,0-17.4,0.1-26C573.6,131.7,573.3,130.8,574,130z"/>
	<path class="st1" d="M309.8,51c2-2,3.6-4,5.6-5.7c8.7-7.3,22.8-8,31.6-1.6c1.4,1,2.7,2.3,3.8,3.7c1.1,1.4,1.9,3,2.8,4.7
		c1.4-1.8,2.7-3.3,4.2-4.8c9.1-9.2,22.8-9.7,31.2-5.4c6.5,3.4,10.1,9,12.1,15.8c1.3,4.2,1.8,8.6,1.8,13c0.1,14.6,0,29.1,0,43.7
		c0,1.2-0.3,1.6-1.6,1.6c-6.5-0.1-13.1-0.1-19.6,0c-1.1,0-1.5-0.2-1.5-1.5c0-13.3,0-26.7-0.1-40c0-2.8-0.3-5.5-1.1-8.2
		c-1.5-5.2-4.6-7.9-9.5-8.2c-4.3-0.3-8.8,2.7-10.6,7.1c-1,2.5-1.3,5-1.3,7.7c0,13.8,0,27.6,0.1,41.4c0,1.3-0.2,1.8-1.7,1.8
		c-6.5-0.1-13-0.1-19.5,0c-1.4,0-1.6-0.4-1.6-1.7c0-12,0.1-24.1,0-36.1c0-3.3,0.1-6.5-0.5-9.8c-0.2-1.3-0.5-2.6-1-3.8
		c-1.4-3.4-3.7-5.9-7.5-6.4c-4.3-0.6-7.7,0.9-10.3,4.3c-2.1,2.7-3.1,5.8-3.1,9.3c0,14.2,0,28.3,0,42.5c0,1.4-0.3,1.8-1.7,1.7
		c-6.5-0.1-13.1-0.1-19.6,0c-1.2,0-1.5-0.3-1.5-1.5c0-16.5,0-33,0-49.6c0-7.4-0.1-14.9-0.6-22.3c-0.1-1.3,0.3-1.6,1.6-1.6
		c5.4,0.1,10.9,0.1,16.3,0c1.6,0,1.9,0.6,2,1.9C309.2,45.7,309.5,48.4,309.8,51z"/>
	<path class="st1" d="M67.2,64.5c0-16.7,0-33.3,0-50c0-1.2,0.2-1.6,1.5-1.6c20,0,40.1,0,60.1,0c1.3,0,1.6,0.3,1.5,1.6
		c-0.1,5.4-0.1,10.8,0,16.2c0,1.2-0.4,1.5-1.5,1.5c-10.5,0-21.1,0-31.6,0c-1.9,0-3.7,0.1-5.6,0.1c-0.8,0-1,0.3-1,1
		c0,7.2,0.1,14.3,0,21.5c0,1.2,0.7,1,1.4,1c11.3,0,22.7,0,34-0.1c1.3,0,1.8,0.3,1.7,1.7c-0.1,5.2-0.1,10.5,0,15.7
		c0,1.5-0.5,1.7-1.8,1.7c-11.3,0-22.6,0-33.8,0c-1.2,0-1.5,0.3-1.5,1.5c0,12.8,0,25.7,0.1,38.5c0,1.3-0.4,1.6-1.6,1.6
		c-6.8-0.1-13.6-0.1-20.4,0c-1.2,0-1.6-0.3-1.6-1.6C67.3,97.9,67.3,81.2,67.2,64.5C67.3,64.5,67.2,64.5,67.2,64.5z"/>
	<path class="st1" d="M687.2,76.7c0,8.4-1.4,15.6-5.1,22.1c-5.2,9.2-13.3,14.8-23.5,17.3c-11.3,2.7-22.3,1.7-32.5-4.3
		c-9.8-5.8-15-14.7-16.7-25.8c-1.1-7.1-0.7-14.1,1.5-21c3.6-11.5,11.1-19.5,22.5-23.3c11.4-3.8,22.8-3.7,33.8,1.5
		c10.9,5.2,16.9,14.3,19.3,26C687,72,687.1,74.8,687.2,76.7z"/>
	<path class="st1" d="M217.2,77.4c0.1,8.1-1.3,15.1-5,21.7c-4.6,8.2-11.5,13.7-20.4,16.5c-11.1,3.5-22.1,3.2-32.8-1.8
		c-10.4-4.9-16.6-13.3-19-24.4c-2.2-10.2-1.5-20.3,3.2-29.7c5.6-11.2,15-17.3,27.2-19.3c7.9-1.3,15.7-1.1,23.2,1.7
		c12.9,4.8,20.3,14.3,22.9,27.7C217.1,72.4,217.3,75.2,217.2,77.4z"/>
	<path class="st1" d="M722.3,51.4c1.5-2,2.9-3.7,4.5-5.2c9.5-8.7,25.5-9.6,35.4-1.8c5.5,4.3,8.1,10.2,9.5,16.9
		c0.7,3.2,0.9,6.5,0.9,9.8c0,14.3,0,28.6,0.1,42.9c0,1.6-0.5,1.9-1.9,1.8c-6.6-0.1-13.3,0-19.9,0c-1.3,0-1.5-0.4-1.5-1.6
		c0-13.5,0-27.1,0-40.6c0-2.2-0.3-4.4-0.8-6.6c-1.2-4.8-3.9-8.2-9.1-8.8c-5.2-0.7-9.3,1.3-12.1,5.6c-1.7,2.7-2.4,5.6-2.4,8.7
		c0,13.9,0,27.7,0,41.6c0,1.4-0.4,1.7-1.7,1.7c-6.6-0.1-13.3-0.1-19.9,0c-1.2,0-1.7-0.2-1.7-1.6c0-16.1,0-32.2,0-48.3
		c0-7.9-0.3-15.8-0.6-23.7c0-1,0.1-1.4,1.3-1.4c5.9,0.1,11.9,0,17.8,0c0.9,0,1.2,0.2,1.3,1.1C721.5,44.9,721.9,47.9,722.3,51.4z"/>
	<path class="st1" d="M483.9,90.3c0,6.9-0.2,14.7,0.6,22.4c0.1,1,0.8,2.2,0.2,2.9c-0.7,0.7-2,0.2-3.1,0.2c-5.5,0-11,0-16.5,0
		c-1,0-1.4-0.3-1.5-1.3c-0.2-1.6-0.6-3.3-0.9-4.9c-0.1-0.4,0-1-0.5-1.2c-0.4-0.1-0.6,0.4-0.9,0.7c-8.4,9.1-24.6,11.2-34.8,4.4
		c-8.2-5.5-11.1-13.5-9.9-23.1c1.3-10.1,7.6-16.3,16.6-20.2c6.2-2.6,12.7-3.8,19.4-4.2c2.2-0.2,4.4-0.2,6.6-0.2
		c0.9,0,1.1-0.3,1.1-1.1c0-3.8-2.2-6.9-6-8.3c-3.4-1.2-6.9-1.4-10.4-1.1c-6,0.5-11.7,2.1-17,5.1c-0.7,0.4-0.9,0.3-1.1-0.5
		c-1.2-4.4-2.5-8.8-3.8-13.2c-0.3-0.9,0.1-1.2,0.8-1.6c5.6-2.8,11.6-4.5,17.8-5.3c7.1-1,14.2-1.2,21.3,0.4
		c11.8,2.7,18.7,10.2,21.1,21.9c0.7,3.5,0.9,7.1,0.9,10.7C483.9,78.6,483.9,84,483.9,90.3z"/>
	<path class="st2" d="M574,130c0,8.8,0,17.6,0,26.4c0,0.9-0.1,1.8-0.4,2.7c-0.5,0.2-1-0.1-1.4-0.3c-5.6-3.4-16.5-2-21.7,4.1
		c-0.5,0.6-1.1,1.8-1.8,1.5c-0.9-0.5-0.2-1.6,0-2.5c0.7-3.8,1.4-3.6-3-3.6c-2,0-4,0.1-6,0c-1.4-0.1-2,0.5-2.2,1.8
		c-1.6,8.3-3.4,16.5-5,24.7c-1.2,6.1-2.5,12.2-3.8,18.3c-0.3,1.4-0.3,1.5,1.2,1.5c2.9,0,5.8-0.1,8.8,0c1.4,0,1.9-0.6,2.2-1.9
		c1.5-7.5,3.1-15,4.7-22.5c1-4.8,3-9.1,7.2-12c2.4-1.7,5.1-2.3,8-1.1c2.5,1.1,3.7,3.2,3.3,6c-0.9,6.4-2.5,12.6-3.8,19
		c-0.7,3.7-1.5,7.3-2.3,10.9c-0.3,1.4-0.2,1.6,1.3,1.6c3,0,5.9,0,8.9,0c1.2,0,1.8-0.4,2.1-1.6c0.8-4.1,1.7-8.2,2.5-12.3
		c0.1-0.6,0-1.5,0.9-1.7c0.7,0.5,0.6,1.3,0.6,2.1c0,8,0,16,0,24c0,1.4,0.4,1.7,1.8,1.7c40.6,0,81.2,0,121.8,0c0.8,0,1.5,0,2.3,0
		c-0.6,0.3-1.2,0.2-1.8,0.2c-23.8,0-47.5,0-71.3,0c-32.3,0-64.6,0-96.8,0.1c-2.1,0-4.2,0-6.3,0c-0.6-0.6-0.5-1.3-0.5-2
		c0-7.6,0-15.3,0-22.9c0-0.6,0-1.2-0.2-1.8c-0.2-1.5,0.2-2.9,0.2-4.3c0-2.1-0.2-4.1-0.3-6.2c0.2-0.7,0.2-1.5,0.2-2.2
		c0-5.3,0-10.5,0-15.8c0-0.6,0-1.2,0.2-1.8c0.5-1.1,1.5-1,2.5-1c1,0,1.3-0.4,1.2-1.4c-0.3-3.6-1.1-7-3.3-10
		c-0.4-0.5-0.7-1.1-0.6-1.8c0.1-4.4,0-8.8,0-13.1c0-0.8-0.1-1.6,0.4-2.3c2.3-0.3,4.6-0.1,6.9-0.1c3.7-0.1,7.3,0.1,11-0.1
		C552.5,130,563.2,130,574,130z"/>
	<path class="st1" d="M554.9,59.5c-4.7-1.9-9.5-2.4-14.4-2.2c-10.2,0.5-17.6,7.7-18.5,18c-0.5,5.5,0.2,10.8,3.3,15.5
		c4.3,6.3,10.6,8.5,17.9,8.4c3.9,0,7.7-0.6,11.4-2c0.8-0.3,1.1-0.2,1.3,0.7c0.8,4.9,1.5,9.8,2.4,14.7c0.2,1.1-0.1,1.6-1.2,2
		c-5.1,1.7-10.3,2.4-15.6,2.7c-7,0.4-14-0.2-20.6-2.7c-12.9-4.9-20.2-14.4-22.4-27.8c-1.4-8.2-0.7-16.3,2.5-24
		c4.3-10.3,11.8-17.2,22.2-20.8c11.2-3.9,22.6-3.8,34-0.4c1,0.3,1.4,0.6,1.2,1.8C557.1,48.8,556,54.1,554.9,59.5z"/>
	<path class="st1" d="M251.9,55.1c0.7-0.5,0.7-1,0.9-1.5c4.1-9.8,13-15.1,23.6-14c0.8,0.1,1.1,0.4,1.1,1.2c0,6.6,0,13.3,0.1,19.9
		c0,1-0.4,1-1.2,0.9c-3-0.6-6.1-0.7-9.1-0.1c-7.8,1.6-12.3,7.2-12.4,15.5c-0.1,6,0,12.1,0,18.1c0,6.5,0,13,0,19.5
		c0,1.1-0.2,1.5-1.4,1.4c-6.8-0.1-13.7,0-20.5,0c-1.2,0-1.5-0.4-1.5-1.5c0-15.2,0-30.3,0-45.5c0-8.8-0.2-17.5-0.6-26.3
		c-0.1-1.3,0.2-1.8,1.6-1.8c5.6,0.1,11.2,0.1,16.8,0c1.3,0,1.7,0.3,1.8,1.6c0.1,3.6,0.4,7.1,0.6,10.7
		C251.8,53.9,251.9,54.4,251.9,55.1z"/>
	<path class="st3" d="M28.5,217.3c-5.6,0-11.2-0.1-16.8,0.1c-1.4,0-2.2-1-3.5-1.1c-0.3,0-0.3-0.4-0.3-0.6c0-0.4,0-0.8,0-1.2
		c0-27,0-53.9,0-80.9c0-1.8,1.1-2.9,2.9-3c0.1,0,0.1,0,0.2,0c12.2,0.2,24.3-0.5,36.5-0.3c0.1,0.2,0,0.4-0.2,0.5
		c-0.6,0.3-1.3,0.3-1.9,0.3c-3.2,0-6.3,0-9.5,0c-1.8,0.1-3.6,0-5.4,0c-1.1,0-1.6,0.4-1.6,1.5c0,0.6,0,1.2,0,1.8c0,26.7,0,53.3,0,80
		C29,215.3,29.3,216.4,28.5,217.3z"/>
	<path class="st1" d="M594.6,78.3c0,12,0,24,0,36c0,1.1-0.2,1.5-1.4,1.5c-6.8-0.1-13.7-0.1-20.5,0c-1.2,0-1.4-0.4-1.4-1.4
		c0-24,0-47.9,0-71.9c0-1.1,0.1-1.6,1.4-1.6c6.9,0,13.9,0,20.8-0.1c1.3,0,1.1,0.7,1.1,1.4C594.6,54.3,594.6,66.3,594.6,78.3z"/>
	<path class="st4" d="M445.6,216.9c-6.2,0.2-12.5,0.1-18.7,0c-0.7-0.8-0.5-1.8-0.5-2.8c0-17.1,0.2-34.1-0.1-51.2
		c-0.2-10.1-0.2-20.2-0.2-30.3c0-0.8-0.1-1.7,0.4-2.5c0.4-0.2,0.8-0.1,1.2-0.1c5.7,0,11.3,0,17,0c0.3,0,0.7,0,1,0.1
		c0.5,0.6,0.4,1.3,0.4,2c0,27.6,0,55.1,0,82.7C446.1,215.6,446.1,216.4,445.6,216.9z"/>
	<path class="st5" d="M426.6,130.3c0,9.1-0.2,18.1,0,27.2c0.6,19.8,0.1,39.6,0.3,59.5c-5.2,0-10.5,0-15.7,0
		c-0.7-0.8-0.5-1.8-0.5-2.8c0-18.3,0-36.6,0-54.9c0-8.9,0-17.7,0-26.6c0-0.8-0.1-1.7,0.4-2.5c1.1-0.3,2.3-0.1,3.4-0.1
		c3.5,0,7.1,0,10.6,0C425.6,130.1,426.1,129.9,426.6,130.3z"/>
	<path class="st6" d="M411.1,130.3c0,28.9,0,57.8,0,86.7c-4.2,0-8.5,0-12.7,0c-0.7-0.8-0.5-1.8-0.5-2.8c0-18.3,0-36.6,0-54.9
		c0-8.9,0-17.7,0-26.6c0-0.8-0.1-1.7,0.4-2.5c2.8-0.4,5.6-0.1,8.4-0.1C408.2,130.1,409.7,129.9,411.1,130.3z"/>
	<path class="st7" d="M392.4,217c-4.2,0-8.5,0-12.7,0c-0.7-0.8-0.5-1.8-0.5-2.8c0-18.3,0-36.6,0-54.8c0-8.7,0-17.3,0-26
		c0-0.6,0-1.1,0-1.7c0-1.2,0.4-1.7,1.7-1.7c3.7,0.1,7.4-0.1,11.2,0.1c0.5,0.6,0.5,1.3,0.5,2c-0.2,10.1,0.4,20.2,0.3,30.3
		c-0.1,17.2,0,34.4,0,51.7C392.9,215.1,393.1,216.1,392.4,217z"/>
	<path class="st8" d="M307.8,130.3c4.1,0,8.3,0,12.4,0c0.7,0.8,0.5,1.8,0.5,2.8c0,18.3,0,36.6,0,54.9c0,8.9,0,17.7,0,26.6
		c0,0.8,0.1,1.7-0.4,2.5c-1.7,0.3-3.5,0.1-5.2,0.1c-2.4,0-4.9,0.2-7.3-0.1c-0.5-0.6-0.4-1.3-0.4-2c0-27.5,0-55,0-82.6
		C307.3,131.7,307.2,130.9,307.8,130.3z"/>
	<path class="st9" d="M60.3,217.3c-4.1,0-8.3,0-12.4,0c-0.7-0.8-0.5-1.8-0.5-2.8c0-17.5,0-35,0-52.5c0-9.7,0-19.3,0-29
		c0-0.8-0.1-1.7,0.4-2.5c1.4-0.4,2.9-0.2,4.3-0.1c2.7,0,5.5-0.2,8.2,0.1c0.5,0.6,0.4,1.3,0.4,2c0,27.5,0,55.1,0,82.6
		C60.8,215.9,60.8,216.6,60.3,217.3z"/>
	<path class="st10" d="M47.9,130.5c0,28.9,0,57.8,0,86.7c-3.8,0-7.7,0-11.5,0c-0.4-0.4-0.5-1-0.5-1.5c0.2-3.5-0.3-6.9-0.3-10.4
		c0-24,0-47.9,0-71.9c0-1-0.2-2,0.5-2.9c3.8,0,7.7,0,11.5,0C47.7,130.4,47.8,130.4,47.9,130.5z"/>
	<path class="st11" d="M476.7,216.9c-4.1,0-8.3,0-12.4,0c-0.7-0.8-0.5-1.8-0.5-2.8c0-19.8,0-39.6,0-59.4c0-7.4,0-14.7,0-22.1
		c0-0.8-0.1-1.7,0.4-2.5c1.6-0.4,3.3-0.1,4.9-0.1c2.5,0,5.1-0.1,7.6,0.1c0.7,0.8,0.5,1.8,0.5,2.8c0,15.6,0,31.3,0,46.9
		c0,2.8,0,2.8,2.8,2.8c1,0,2-0.1,3,0c0.6,0.1,1.3,0,1.3,0.9c-0.4,0.5-1,0.3-1.6,0.3c-3.5,0-6.9,0-10.4,0c-1.2,0-1.7,0.5-1.5,1.6
		c0.4,3.9,1,7.8,3.2,11.2c0.6,0.9,1.3,1.8,2.1,2.6c0.5,0.5,1.1,1,1.1,1.9c0,4.5,0,9,0,13.5C477.2,215.4,477.3,216.3,476.7,216.9z"/>
	<path class="st12" d="M476.7,130.3c-4.1,0-8.3,0-12.4,0c-0.5,0.4-1.1,0.5-1.7,0.5c-2.6,0-5.1,0.1-7.7,0c-2.6,0.1-5.1,0-7.7,0
		c-0.6,0-1.2,0-1.7-0.4c-6.3,0-12.7,0-19,0c-5.1,0-10.3,0-15.4,0c-4.2,0-8.5,0-12.7,0c-2.1,0.7-4.2,0.7-6.3,0c-3.6,0-7.2,0-10.9-0.1
		c-1.3,0-1.6,0.5-1.6,1.7c0,19.6,0,39.1,0,58.7c0,8.8,0,17.6,0,26.4c-3.1,0-6.2,0-9.4,0c-0.7-0.8-0.5-1.8-0.5-2.8
		c0-18.5,0-36.9,0-55.4c0-8.7,0-17.3,0-26c0-0.9-0.2-1.8,0.5-2.6c3.5-0.1,6.9-0.2,10.4-0.2c22,0,44.1,0,66.1,0c31,0,62,0,93-0.1
		c0.6,0,1.2,0,1.8,0c-0.5,0.4-1.1,0.2-1.6,0.2c-5.4,0-10.8,0-16.2,0c-0.5,0.4-1.1,0.5-1.7,0.5c-10.9,0-21.8,0.1-32.7,0
		c-3.7,0.1-7.3,0-11,0C477.8,130.7,477.2,130.7,476.7,130.3z"/>
	<path class="st13" d="M263.7,130.3c3.2,0,6.4,0,9.7,0c0.7,0.8,0.5,1.8,0.5,2.8c0,20.2,0,40.4,0,60.6c0,7,0,14,0,21
		c0,0.8,0.1,1.6-0.4,2.3c-3.3,0.3-6.5,0.2-9.8,0c-0.5-0.6-0.4-1.3-0.4-2c0-27.5,0-55,0-82.5C263.2,131.7,263.1,130.9,263.7,130.3z"
		/>
	<path class="st14" d="M113.2,130.2c9.4,0,18.7,0,28.1,0c0.1,0.2,0,0.4-0.2,0.5c-1.9,0.5-3.8,0.2-5.6,0.3c-2.1,0.1-4.2,0.1-6.3,0
		c-3.1,0.1-6.2,0.1-9.4,0c-1.4,0.1-2.7,0-4.1,0c-1.5,0-1.7,0.2-1.7,1.8c0,0.5,0,0.9,0,1.4c0,20.8-0.1,41.7,0.1,62.5
		c0,6,0.2,12.1,0.2,18.1c0,0.8,0.1,1.7-0.5,2.5c-3.2,0-6.4,0-9.7,0c-0.7-0.8-0.5-1.8-0.5-2.8c0-18,0-36,0-54.1c0-9.1,0-18.2,0-27.3
		c0-0.8-0.1-1.7,0.4-2.5c1.1-0.5,2.3-0.1,3.4-0.2C109.3,130.3,111.2,130.6,113.2,130.2z"/>
	<path class="st15" d="M279.4,130.3c3.2,0,6.4,0,9.7,0c0.7,0.8,0.5,1.8,0.5,2.8c0,18.3,0,36.6,0,54.9c0,8.8,0,17.7,0,26.5
		c0,0.8,0.1,1.7-0.4,2.5c-3.2,0.3-6.3,0.2-9.5,0c-0.6-0.8-0.4-1.8-0.4-2.8c0-21.8,0-43.6,0-65.4c0-5.4-0.4-10.9-0.3-16.3
		C278.9,131.8,278.8,131,279.4,130.3z"/>
	<path class="st16" d="M176.3,217.2c-3.1,0-6.2,0-9.4,0c-0.7-0.9-0.5-1.9-0.5-2.9c0-22.4,0-44.9,0-67.3c0-4.7-0.4-9.4-0.3-14.2
		c0-0.8-0.1-1.6,0.4-2.3c3.3-0.3,6.5-0.2,9.8,0c0.5,0.6,0.4,1.3,0.4,2c0,27.5,0,55,0,82.5C176.8,215.8,176.9,216.6,176.3,217.2z"/>
	<path class="st17" d="M354.6,130.3c3.1,0,6.2,0,9.4,0c0.7,0.8,0.5,1.8,0.5,2.8c0,18.3,0,36.6,0,54.9c0,8.8,0,17.6,0,26.4
		c0,0.9,0.2,1.8-0.5,2.6c-2.1,0-4.2,0.1-6.3,0.1c-1.1,0.1-2.1,0.3-3.2-0.1c-0.4-0.6-0.4-1.3-0.4-2c0-27.5,0-55,0-82.5
		C354.1,131.7,354.1,130.9,354.6,130.3z"/>
	<path class="st18" d="M119.8,130.5c3.1,0,6.2,0,9.4,0c0.7,0.8,0.5,1.8,0.5,2.8c0,17.7,0,35.4,0,53.1c0,9.4,0,18.8,0,28.2
		c0,0.9,0.2,1.8-0.5,2.6c-3.1,0-6.2,0-9.4,0c-0.7-0.8-0.5-1.8-0.5-2.8c0-18,0-36,0-54c0-9.1,0-18.2,0-27.3
		C119.3,132.3,119.2,131.3,119.8,130.5z"/>
	<path class="st19" d="M445.6,130.3c3.1,0,6.2,0,9.4,0c0.7,0.8,0.5,1.8,0.5,2.8c0,21,0,42.1,0,63.1c0,6.1,0,12.2,0,18.3
		c0,0.8,0.2,1.7-0.5,2.4c-3.1,0-6.2,0-9.4,0C445.6,188,445.6,159.2,445.6,130.3z"/>
	<path class="st20" d="M455,216.9c0-28.9,0-57.7,0-86.6c3.1,0,6.2,0,9.4,0c0,28.9,0,57.8,0,86.7C461.2,216.9,458.1,216.9,455,216.9z
		"/>
	<path class="st21" d="M76,217.3c-3.1,0-6.2,0-9.4,0c-0.7-0.8-0.5-1.8-0.5-2.8c0-17.5,0-34.9,0-52.4c0-9.7,0-19.4,0-29.1
		c0-0.8-0.1-1.7,0.4-2.5c3.2-0.3,6.3-0.2,9.5,0c0.5,0.6,0.4,1.3,0.4,2c0,27.5,0,55.1,0,82.6C76.5,215.9,76.6,216.6,76,217.3z"/>
	<path class="st22" d="M154.3,217.2c-3.1,0-6.2,0-9.4,0c-0.7-0.8-0.5-1.8-0.5-2.8c0-18.7,0-37.4,0-56.1c0-8.5,0-16.9,0-25.4
		c0-0.8-0.1-1.7,0.4-2.5c3.2-0.3,6.3-0.2,9.5,0c0.5,0.6,0.4,1.3,0.4,2c0,27.5,0,55,0,82.6C154.8,215.8,154.8,216.6,154.3,217.2z"/>
	<path class="st23" d="M326.5,130.3c3.1,0,6.2,0,9.4,0c0.7,0.8,0.5,1.8,0.5,2.8c0,18.3,0,36.6,0,54.9c0,8.8,0,17.7,0,26.5
		c0,0.8,0.1,1.7-0.4,2.5c-3.2,0.3-6.3,0.2-9.5,0c-0.5-0.6-0.4-1.3-0.4-2c0-27.5,0-55,0-82.6C326,131.7,326,130.9,326.5,130.3z"/>
	<path class="st24" d="M335.9,216.9c0-28.9,0-57.8,0-86.7c3.1,0,6.2,0,9.4,0c0.7,0.8,0.5,1.8,0.5,2.8c0,18.2,0,36.4,0,54.6
		c0,8.9,0,17.9,0,26.8c0,0.8,0.1,1.7-0.4,2.5C342.2,217.2,339,217.2,335.9,216.9z"/>
	<path class="st25" d="M345.3,216.9c0-28.9,0-57.8,0-86.7c3.1,0,6.2,0,9.4,0c0,28.9,0,57.8,0,86.7
		C351.5,217.2,348.4,217.2,345.3,216.9z"/>
	<path class="st26" d="M199,130.3c2.8,0,5.7,0,8.5,0c0.7,0.8,0.5,1.8,0.5,2.8c0,20.4,0,40.8,0,61.2c0,6.8,0,13.6,0,20.4
		c0,0.8,0.1,1.6-0.4,2.3c-3.2,0.3-6.3,0.2-9.5,0c-0.5-0.6-0.4-1.3-0.4-2c0-27.4,0-54.9,0-82.3C197.6,131.7,197.4,130.4,199,130.3z"
		/>
	<path class="st27" d="M226.2,130.3c2.9,0,5.8,0,8.8,0c0.7,0.8,0.5,1.7,0.5,2.6c0,10.6-0.2,21.3,0.1,31.9c0.5,16.5,0.1,33,0.2,49.5
		c0,0.9,0.2,1.8-0.4,2.6c-3,0.3-5.9,0.2-8.9,0c-0.5-0.5-0.4-1.2-0.4-1.9c0.2-8.2-0.4-16.4-0.3-24.6c0.1-19.2,0-38.3,0-57.5
		C225.7,132.1,225.5,131.1,226.2,130.3z"/>
	<path class="st28" d="M36.1,130.5c0.1,28.9-0.3,57.8,0.3,86.7c-2.6,0-5.2,0-7.9,0c0-28.3,0-56.5,0-84.8c0-1.9,0-1.9,2-1.9
		C32.4,130.5,34.2,130.5,36.1,130.5z"/>
	<path class="st29" d="M207.5,217c0-28.9,0-57.8,0-86.7c2.3,0,4.6,0,6.9,0c0.7,0.8,0.5,1.8,0.5,2.8c0,20.1,0,40.3,0,60.4
		c0,7,0,14.1,0,21.1c0,0.8,0.1,1.6-0.4,2.3C212.2,217.3,209.8,217.2,207.5,217z"/>
	<path class="st30" d="M207.5,217c2.3,0,4.6,0,6.9,0c1.2-0.8,2.6-0.3,3.9-0.5c0.6-0.1,1.2,0,1.8,0c1.5-0.1,3.1,0,4.7,0
		c0.6,0,1.2,0,1.7,0.5c2.9,0,5.8,0,8.8,0c0.8-0.6,1.7-0.5,2.6-0.5c1.3,0,2.7-0.1,4,0c1.1,0,2.3,0,3.4,0c2-0.1,4-0.1,6,0
		c2.2-0.1,4.4-0.1,6.6,0c1.4-0.1,2.8,0,4.2,0c0.6,0,1.1,0.1,1.5,0.5c3.2,0,6.4,0,9.7,0c2.1-0.7,4.2-0.7,6.3,0c3.1,0,6.2,0,9.4,0
		c1.9-0.9,3.8-0.3,5.7-0.4c2.2-0.1,4.4-0.1,6.7,0c1.5-0.1,3.1,0,4.6,0c0.6,0,1.2,0,1.7,0.4c4.1,0,8.3,0,12.4,0
		c2.1-0.7,4.2-0.7,6.3,0c3.1,0,6.2,0,9.4,0c3.1,0,6.2,0,9.4,0c3.1,0,6.2,0,9.4,0c1,0,2,0.1,3.1,0.1c-0.6,0.4-1.3,0.2-1.9,0.2
		c-26.9,0-53.9,0-80.8,0c-30.2,0-60.3,0-90.5,0c-0.7,0-1.4,0-2.1,0c-0.7-0.8-0.5-1.8-0.5-2.8c0-19,0-38.1,0-57.1
		c0-8.1,0-16.2,0-24.3c0-0.8-0.1-1.7,0.4-2.5c2.2-0.3,4.3-0.2,6.5-0.1c0.6,0.8,0.4,1.7,0.4,2.6c0,26.4,0,52.8,0,79.2
		c0,0.3,0,0.6,0,0.9c0,3.1,0,3.1,3.1,3.2c1.4-0.1,2.9,0,4.3,0c0.5,0,1.1,0.1,1.5,0.5C201.2,217,204.3,217,207.5,217z"/>
	<path class="st31" d="M241.9,217c-2.2,0-4.4,0-6.6,0c0.2-28.9-0.4-57.8-0.3-86.7c2.3,0,4.6,0,7,0c0.7,0.8,0.5,1.8,0.5,2.7
		c0,20,0,39.9,0,59.9c0,7.2,0,14.4,0,21.6C242.4,215.4,242.5,216.2,241.9,217z"/>
	<path class="st32" d="M257.9,217c-2.2,0-4.4,0-6.6,0c-0.7-0.8-0.5-1.8-0.5-2.8c0-17.6,0-35.2,0-52.8c0-9.5,0-19,0-28.5
		c0-0.9-0.2-1.8,0.5-2.6c2.2,0,4.4,0,6.6,0c0.7,0.8,0.5,1.8,0.5,2.7c0,20.1,0,40.1,0,60.2c0,7.1,0,14.2,0,21.3
		C258.4,215.4,258.5,216.2,257.9,217z"/>
	<path class="st33" d="M301.4,216.9c-2.2,0-4.4,0-6.6,0c-0.7-0.8-0.5-1.8-0.5-2.7c0-19.1,0-38.2,0-57.3c0-8,0-16.1,0-24.1
		c0-0.8-0.1-1.7,0.5-2.5c2.2,0,4.4,0,6.6,0c0.7,0.8,0.5,1.8,0.5,2.8c0,18.4,0,36.7,0,55.1c0,8.8,0,17.6,0,26.4
		C301.9,215.3,302.1,216.2,301.4,216.9z"/>
	<path class="st34" d="M88.7,217.3c-2.2,0-4.4,0-6.6,0c-0.7-0.8-0.5-1.8-0.5-2.8c0-17.8,0-35.6,0-53.3c0-9.4,0-18.7,0-28.1
		c0-0.8-0.1-1.7,0.4-2.5c2.2-0.3,4.3-0.2,6.5,0c0.5,0.6,0.4,1.3,0.4,2c-0.2,12.2,0.4,24.4,0.3,36.7c-0.1,15.1,0,30.2,0,45.3
		C89.2,215.5,89.4,216.4,88.7,217.3z"/>
	<path class="st35" d="M301.4,216.9c0-28.9,0-57.8,0-86.7c2.1,0,4.2,0,6.3,0c0,28.9,0,57.8,0,86.7
		C305.7,216.9,303.6,216.9,301.4,216.9z"/>
	<path class="st36" d="M154.3,217.2c0-28.9,0-57.8,0-86.7c2.1-0.2,4.3-0.3,6.4,0c0.5,0.6,0.4,1.3,0.4,2c0,27.5,0,55,0,82.5
		c0,0.7,0.1,1.5-0.5,2.1C158.5,217.2,156.4,217.2,154.3,217.2z"/>
	<path class="st37" d="M129.2,217.3c0-28.9,0-57.8,0-86.7c2.1,0,4.2,0,6.3,0c0.7,0.8,0.5,1.8,0.5,2.8c0,17.7,0,35.4,0,53.1
		c0,9.4,0,18.8,0,28.2c0,0.9,0.2,1.8-0.5,2.6C133.4,217.2,131.3,217.3,129.2,217.3z"/>
	<path class="st38" d="M135.5,217.2c0-28.9,0-57.8,0-86.7c1.9,0,3.8,0,5.7,0c0.3-0.2,0.6-0.2,0.8,0.1c0.4,0.7,0.3,1.5,0.3,2.2
		c0,27.3,0,54.6,0,81.9c0,0.8,0.2,1.7-0.5,2.5C139.8,217.2,137.6,217.2,135.5,217.2z"/>
	<path class="st39" d="M364,217c0-28.9,0-57.8,0-86.7c2.1,0,4.2,0,6.3,0c0,28.9,0,57.8,0,86.7C368.2,217,366.1,217,364,217z"/>
	<path class="st40" d="M66.6,130.5c0,28.9,0,57.8,0,86.7c-2.1,0-4.2,0-6.3,0c0-28.9,0-57.8,0-86.7C62.4,130.3,64.5,130.3,66.6,130.5
		z"/>
	<path class="st41" d="M326.5,216.9c-2.1,0-4.2,0-6.3,0c0-28.9,0-57.8,0-86.7c2.1,0,4.2,0,6.3,0C326.5,159.1,326.5,188,326.5,216.9z
		"/>
	<path class="st42" d="M160.6,217.2c0-28.9,0-57.8,0-86.7c2-0.2,4-0.2,6,0c0.5,28.9,0.2,57.8,0.3,86.7
		C164.8,217.2,162.7,217.2,160.6,217.2z"/>
	<path class="st43" d="M279.7,216.9c-2.1,0-4.2,0-6.3,0c0-28.9,0-57.8,0-86.6c2,0,4,0,6,0C279.8,159.2,279.6,188.1,279.7,216.9z"/>
	<path class="st44" d="M119.8,130.5c0,28.9,0,57.8,0,86.7c-2,0-4,0-6,0c0.1-14.2-0.4-28.3-0.3-42.5c0.1-14.1,0-28.3,0-42.4
		c0-1.5,0.4-1.9,1.9-1.8C116.8,130.6,118.3,130.5,119.8,130.5z"/>
	<path class="st45" d="M88.7,217.3c0-28.9,0.1-57.8-0.3-86.7c2.1-0.2,4.3-0.3,6.4,0c0.5,0.6,0.4,1.3,0.4,2c0,27.5,0,55,0,82.5
		c0,0.7,0.1,1.5-0.5,2.2C92.7,217.3,90.7,217.3,88.7,217.3z"/>
	<path class="st46" d="M392.1,130.3c2.1,0,4.2,0,6.3,0c0,28.9,0,57.8,0,86.7c-2,0-4,0-6,0c0-22.6,0.1-45.1-0.1-67.7
		C392.3,143,392.2,136.6,392.1,130.3z"/>
	<path class="st47" d="M226.5,217c-2.1,0-4.2,0-6.3,0c-0.7-0.8-0.5-1.8-0.5-2.8c0-17.5,0-35,0-52.5c0-9.6,0-19.2,0-28.8
		c0-0.9-0.2-1.8,0.5-2.6c2,0,4,0,6,0C226.2,159.2,226,188.1,226.5,217z"/>
	<path class="st48" d="M251.3,130.3c0,28.9,0,57.8,0,86.7c-2,0-4,0-6,0c-0.7-0.8-0.5-1.8-0.5-2.8c0-18.7,0-37.3,0-56
		c0-7.3,0-14.7,0-22c0-1.3,0-2.6-0.2-3.9c-0.1-0.7-0.2-1.4,0.4-2C247,130.3,249.2,130.3,251.3,130.3z"/>
	<path class="st49" d="M182.4,130.5c0,28.9,0,57.8,0,86.7c-2,0-4,0-6,0c0-28.9,0-57.8,0-86.7C178.3,130.3,180.4,130.3,182.4,130.5z"
		/>
	<path class="st50" d="M104.1,130.5c0,28.9,0,57.8,0,86.7c-2,0-4,0-6,0c-0.7-0.8-0.5-1.8-0.5-2.8c0-17.8,0-35.7,0-53.5
		c0-9.3,0-18.6,0-27.9c0-0.8-0.1-1.7,0.4-2.5C100,130.3,102,130.3,104.1,130.5z"/>
	<path class="st51" d="M82,130.5c0,28.9,0,57.8,0,86.7c-2,0-4,0-6,0c0-28.9,0-57.8,0-86.7C78,130.3,80,130.3,82,130.5z"/>
	<path class="st52" d="M198.1,217c-1.9,0-3.8,0-5.7,0c-0.4-0.4-0.4-0.9-0.5-1.4c0-0.3,0-0.5,0-0.8c-0.2-27.3-0.4-54.7-0.3-82
		c0-0.7-0.1-1.4,0.3-2.1c1-0.8,2.2,0,3.3-0.5c1.3,0,2.6,0,3.9,0c-1.1,0.3-0.9,1.2-0.9,2c0,22.4,0,44.8,0,67.2
		C198.1,205.3,198.1,211.1,198.1,217z"/>
	<path class="st53" d="M294.8,130.3c0,28.9,0,57.8,0,86.7c-1.9,0-3.8,0-5.7,0c0-28.9,0-57.8,0-86.7
		C291,130.3,292.9,130.3,294.8,130.3z"/>
	<path class="st54" d="M257.9,217c0-28.9,0-57.8,0-86.7c1.9,0,3.8,0,5.7,0c0,28.9,0,57.8,0,86.7C261.7,217,259.8,217,257.9,217z"/>
	<path class="st55" d="M220.1,130.3c0,28.9,0,57.8,0,86.7c-1.9,0-3.8,0-5.7,0c0-28.9,0-57.8,0-86.7
		C216.3,130.3,218.2,130.3,220.1,130.3z"/>
	<path class="st56" d="M523.5,190c0.4,0.6,0.3,1.3,0.3,2c0,8.3,0,16.6,0,24.8c-11.5,0-23,0-34.5,0c-0.5-0.5-0.5-1.1-0.5-1.7
		c0-2.5,0-4.9,0-7.4c0-0.7,0-1.4,0.6-1.9c0.9-0.4,1.9-0.2,2.8-0.1c5.7,0.6,11.4,0.2,16.8-1.7c6.5-2.3,11.4-6.3,13.5-13.1
		C522.9,190.6,522.9,190.1,523.5,190z"/>
	<path class="st1" d="M582.2,31.8c-4.3-0.1-8.4-1.9-10.5-6.6c-2-4.6-1.6-9.1,1.7-13c4-4.8,13.1-5.3,18.1-0.9
		c4.7,4.1,5.2,11.9,1,16.6C589.8,30.7,586.5,31.7,582.2,31.8z"/>
	<path class="st1" d="M637.6,31.6c0.4-0.8,0.7-1.5,1.1-2.1c3.8-6.7,7.6-13.4,11.3-20.1c0.5-0.9,1-1.3,2.1-1.3c6.6,0.1,13.3,0,19.9,0
		c0.3,0.4,0,0.6-0.2,0.8c-5.8,7.3-11.6,14.5-17.5,21.8c-0.4,0.4-0.7,0.8-1.3,0.8C648,31.6,643,31.6,637.6,31.6z"/>
	<path class="st57" d="M98.1,130.5c0,28.9,0,57.8,0,86.7c-1.1,0-2.2,0-3.3,0c0-28.9,0-57.8,0-86.7C95.8,130.3,96.9,130.3,98.1,130.5
		z"/>
	<path class="st58" d="M244.9,130.3c0.7,28.9,0.1,57.8,0.3,86.7c-1.1,0-2.2,0-3.3,0c0-28.9,0-57.8,0-86.7
		C242.9,130.3,243.9,130.3,244.9,130.3z"/>
	<path class="st59" d="M141.9,217.2c0-28.9,0-57.8,0-86.7c1-0.2,2-0.2,3,0c0,28.9,0,57.8,0,86.7
		C143.9,217.2,142.9,217.2,141.9,217.2z"/>
	<path class="st60" d="M490.1,206.1c-0.9,0.1-0.7,0.9-0.7,1.4c0,3.2,0,6.3,0,9.5c-4.2,0-8.5,0-12.7,0c0-4.8,0-9.6,0-14.4
		c0-0.5-0.2-1.1,0.3-1.5c0.5-0.2,0.9,0.1,1.3,0.3c3.1,2.3,6.7,3.3,10.4,4.1C489.2,205.4,489.9,205.3,490.1,206.1z"/>
	<path class="st28" d="M98.1,130.5c-1.1,0-2.2,0-3.3,0c-2.1,0-4.2,0-6.3,0c-2.1,0-4.2,0-6.3,0c-2,0-4,0-6,0c-3.1,0-6.2,0-9.4,0
		c-2.1,0-4.2,0-6.3,0c-4.1,0-8.3,0-12.4,0c-0.1,0-0.2,0-0.3,0c0-0.1,0-0.2,0-0.3c21.9,0,43.7,0,65.6,0c-0.8,0.6-1.7,0.3-2.6,0.3
		c-2.2,0.1-4.3,0-6.5,0C102.1,130.5,100.1,130.5,98.1,130.5z"/>
	<path class="st44" d="M144.9,130.5c-1,0-2,0-3,0c-0.2,0-0.4,0-0.6,0c0-0.1,0-0.2,0-0.3c17.9,0,35.9,0,53.8,0c-1,0.5-2,0.1-3,0.3
		c-1.1,0.7-2.2,0.7-3.3,0c-2.1,0-4.2,0-6.3,0c-2,0-4,0-6,0c-3.2,0-6.4,0-9.7,0c-2,0-4,0-6,0c-2.1,0-4.2,0-6.3,0
		C151.1,130.5,148,130.5,144.9,130.5z"/>
	<path class="st61" d="M573.7,188.9c-1,4.7-2.1,9.3-3,14c-0.3,1.7-0.9,2.1-2.6,2.1c-3.6-0.1-7.2,0-11,0c1.3-6.1,2.5-12.1,3.7-18.1
		c0.9-4.6,2.1-9.1,2.7-13.8c0.5-3.5-1.8-6.2-5.3-6.2c-4.4-0.1-7.2,2.5-9.4,5.8c-2.1,3.2-2.8,6.8-3.6,10.5
		c-1.4,6.9-2.8,13.8-4.3,20.7c-0.1,0.5-0.1,1.1-1,1.1c-4,0-8,0-12.2,0c0.9-4.6,1.8-9,2.7-13.4c2.2-10.6,4.4-21.3,6.6-31.9
		c0.3-1.3,0.6-2,2.2-1.9c3.1,0.2,6.1,0.1,9.2,0c1.4,0,1.5,0.5,1.2,1.6c-0.4,1.6-0.7,3.1-1.2,5.2c3.2-4.3,7-6.7,11.8-7.5
		c4.7-0.9,9.2-0.8,13.3,2.1c1.4,1.5,2.4,3.2,2.8,5.2c0.6-0.2,0.8-0.7,1.1-1.1c5.4-6.4,15.8-8.6,23.1-4.8c3.9,2,5.9,5.2,6,9.7
		c0.1,4.2-1.2,8.2-2,12.3c-1.5,7.6-3.2,15.1-4.7,22.7c-0.3,1.4-0.8,1.8-2.2,1.8c-3.2-0.1-6.4-0.1-9.7,0c-1.1,0-1.5-0.1-1.3-1.5
		c2.1-9.7,4.1-19.5,6-29.2c1.1-5.3-2.3-8.5-7.6-7.1c-1.8,0.4-3.2,1.4-4.5,2.6c-2,1.9-3.4,4.2-4.3,6.8
		C575.1,180.5,574.4,184.7,573.7,188.9z"/>
	<path class="st61" d="M640.3,200.5c-4.4,4.3-9.5,5.7-15.1,5.6c-3.9-0.1-7.5-1.1-10.6-3.7c-5.2-4.3-4.5-13.3-0.9-17.6
		c3.3-4.1,7.8-5.9,12.8-6.7c4.4-0.7,8.8-1,13.2-1.6c1.2-0.1,2.4-0.4,3.5-0.8c2-0.7,3.3-1.9,3.5-4.1c0.2-2.4-0.7-4.1-2.7-5.3
		c-3.4-1.9-9.3-1.3-12.3,1.1c-1.2,1-1.9,2.2-2.3,3.6c-0.2,0.8-0.6,1.1-1.5,1.1c-3.2,0-6.3-0.1-9.5,0c-1.4,0-1.5-0.6-1.2-1.6
		c1.2-5.4,4.3-9.2,9.2-11.6c5.5-2.6,11.5-2.7,17.4-2.3c2.8,0.2,5.5,0.7,8,1.8c4.9,2.1,7.1,5.6,6.9,10.9c-0.2,5.5-1.9,10.8-2.9,16.2
		c-0.9,4.4-2.2,8.8-2.7,13.3c-0.2,1.6-0.3,3.3,0.1,5c0.2,0.7,0,1.1-0.8,1.1c-3.7,0-7.4,0-11,0c-0.7,0-1-0.3-1-1
		C640.3,202.9,640.3,201.9,640.3,200.5z"/>
	<path class="st61" d="M734.2,166.5c-1.2,0.2-3.1-0.7-4.1,0.3c-0.9,0.9-0.8,2.7-1.1,4.1c-1.4,6.5-2.7,13.1-4,19.6
		c-0.7,3.2,0.4,4.6,3.6,4.7c1.4,0,2.8,0,4.2-0.1c0.8-0.1,1,0.1,0.8,0.9c-0.6,2.7-1.2,5.5-1.8,8.2c-0.1,0.5-0.3,0.8-0.9,0.9
		c-4.1,0.3-8.1,0.8-12.2-0.1c-5.9-1.2-8.6-5.2-7.4-11.2c1.7-8.7,3.5-17.4,5.4-26.1c0.3-1.3-0.1-1.3-1.1-1.3c-2,0-3.9,0-5.9,0
		c-0.9,0-1.1-0.3-0.9-1.2c0.5-2.2,1.1-4.5,1.5-6.8c0.2-0.7,0.6-0.9,1.3-0.9c2,0,3.9,0,5.9,0c1,0,1.4-0.2,1.6-1.3
		c0.7-4,1.6-7.9,2.4-11.8c0.2-1,0.5-1.3,1.6-1.3c3.5,0.1,7,0.1,10.6,0c1,0,1.2,0.2,0.9,1.2c-0.9,3.9-1.5,7.8-2.4,11.7
		c-0.3,1.3,0,1.6,1.3,1.5c2.1-0.1,4.1,0,6.2,0c1.1,0,1.7,0.1,1.2,1.4c-0.6,2.1-1.1,4.2-1.5,6.3c-0.2,0.8-0.5,1.1-1.3,1.1
		C736.9,166.4,735.7,166.5,734.2,166.5z"/>
	<path class="st61" d="M684.6,157.7c-0.5,2.5-1,4.8-1.6,7.3c0.3-0.1,0.5-0.2,0.6-0.3c3.9-6.4,9.9-8.6,17.1-8.3
		c2.4,0.1,2.4,0.1,1.9,2.5c-0.6,3-1.4,6-1.9,9c-0.2,1.3-0.8,1.4-1.8,1.1c-2.7-0.7-5.5-0.8-8.2,0c-4.7,1.3-7.4,4.6-9.1,8.9
		c-1.9,4.8-2.5,9.8-3.6,14.8c-0.8,3.7-1.6,7.4-2.3,11.1c-0.2,0.8-0.5,1-1.3,1c-3.6,0-7.2,0-10.7,0c-0.8,0-1.1-0.1-0.9-1.1
		c3.1-15,6.2-30,9.3-45c0.1-0.5,0.2-1,1-1C676.8,157.8,680.7,157.7,684.6,157.7z"/>
	<path class="st61" d="M632.9,78.6c0.2-6.3,0.9-12.1,4.4-17.1c5.2-7.5,15.6-7.7,21.1-0.5c1.9,2.5,3,5.4,3.7,8.5
		c1.6,7.6,1.5,15.1-1.6,22.3c-1.8,4.1-4.6,7.3-9.1,8.4c-5.4,1.3-10.1-0.3-13.5-4.7c-2.9-3.6-4-7.9-4.6-12.4
		C633.1,81.5,633,79.9,632.9,78.6z"/>
	<path class="st61" d="M193.1,77.9c0,5.6-0.7,10.5-2.9,15c-1.8,3.7-4.5,6.6-8.6,7.7c-5.2,1.4-10.5-0.5-13.8-4.9
		c-2.5-3.3-3.7-7-4.3-11c-1-6.7-0.6-13.3,2-19.5c1.9-4.4,4.9-7.8,9.8-8.8c5.4-1.1,9.8,0.5,13.1,5c2.9,3.9,4,8.5,4.4,13.3
		C193.1,76,193.1,77.3,193.1,77.9z"/>
	<path class="st61" d="M461.1,85.7c0,1.5,0,2.9,0,4.4c0,6.8-8.1,13-16,10.5c-3.1-1-4.9-3.3-5.4-6.5c-0.5-3.7,0.4-7,3.4-9.4
		c2.8-2.2,6.2-3.1,9.6-3.6c2.4-0.4,4.8-0.4,7.2-0.5c1-0.1,1.3,0.3,1.3,1.3C461.1,83.1,461.1,84.4,461.1,85.7
		C461.1,85.7,461.1,85.7,461.1,85.7z"/>
	<path class="st61" d="M490.1,206.1c-1.5-0.3-3-0.6-4.5-1c-3.1-0.8-5.9-2.2-8.5-4.1c-4.9-4.4-6.5-10.1-6.6-16.4
		c0-0.6-0.2-1.2,0.8-1.2c4.1,0,8.1,0,12.2,0c0.3,0,0.5,0.1,0.6,0.3c0.5,0.9,0.4,1.8,0.5,2.8c0.5,3.3,2.2,5.5,5.1,6.9
		c5.3,2,10.6,2.3,15.8-0.3c1.1-0.6,2.1-1.3,2.9-2.3c2.5-3.3,2-6.9-1.3-9.3c-2-1.5-4.4-2.3-6.7-3c-3.7-1.1-7.4-2-10.9-3.4
		c-2.3-0.9-4.5-2-6.4-3.6c-4.5-3.6-6.1-8.4-5.8-14c0.4-8.3,5.2-13.5,12.4-16.9c8.9-3.2,17.9-3.6,26.9-0.2c2.4,0.9,4.4,2.4,6.2,4.2
		c0.4,0.4,0.9,0.8,0.9,1.5c2.6,3.5,3.9,7.3,4.2,11.7c0.1,1.3-0.2,1.8-1.6,1.7c-0.7-0.1-1.5,0.1-2.2,0.2c-0.1,0.1-0.3,0.3-0.5,0.3
		c-2.9,0.2-5.7,0.2-8.6,0c-0.7,0-1.2-0.6-1.2-1.3c0-2.3-0.7-4.4-2.5-6c-1.9-1.7-4.2-2.3-6.6-2.5c-2.6-0.3-5.1,0-7.6,0.8
		c-3.4,1.1-5.3,3.7-5.2,6.9c0,1.6,0.7,2.8,1.9,3.8c2.2,1.7,4.6,2.8,7.3,3.5c3.7,1,7.6,1.7,11.2,3c2.5,0.9,4.8,2.1,6.8,3.8
		c2.5,2.1,4.4,4.7,4.7,8.1c0.5,3.4,0.5,6.8,0,10.2c-3.1,10.5-11.1,14.6-21.1,16C498.3,206.7,494.2,206.3,490.1,206.1z"/>
	<path class="st56" d="M523.5,179.9c-2.2-7.9-8.5-10.8-15.6-12.8c-3.4-0.9-6.9-1.4-10.2-2.7c-1.4-0.6-2.7-1.3-4-2.1
		c-4-2.6-2.9-7.7-0.4-9.9c2-1.8,4.5-2.4,7.1-2.7c2.5-0.3,5-0.1,7.5,0.6c3.7,1.1,5.9,3.8,6,7.6c0.1,1.4,0.6,1.6,1.8,1.6
		c2.7-0.1,5.4,0,8.1,0c0,5.9,0,11.8,0,17.7C523.9,178.1,523.8,179,523.5,179.9z"/>
	<path class="st56" d="M523.4,146c-4.4-5-10.2-6.9-16.6-7.5c-6-0.5-11.8,0.2-17.4,2.4c-0.5-0.4-0.5-1-0.5-1.5c0-2.5,0-5.1,0-7.6
		c0-0.6,0.1-1.1,0.5-1.5c11.5,0,23,0,34.4,0c0,4.7,0,9.4,0,14.1C523.8,144.9,524.1,145.6,523.4,146z"/>
	<path class="st60" d="M489.4,130.3c0,3.6,0,7.1,0,10.7c-3.6,1.7-6.8,4-9.1,7.4c-4.6,6.9-5,20.2,7.2,25.4c0.6,0.3,1.3,0.6,1.9,0.9
		c0.5,0.6,0.5,1.3,0.5,2c0,5,0,10,0,15c0,0.7,0.1,1.4-0.5,2c-3.8-1.7-5.8-5.4-5.4-9.9c0.3-0.9-0.5-0.6-0.8-0.6c-1.7,0-3.4-0.1-5.1,0
		c-1.2,0.1-1.4-0.4-1.4-1.5c0-6.5,0-13.1,0-19.6c0-10.6,0-21.2,0-31.8C480.9,130.3,485.2,130.3,489.4,130.3z"/>
	<path class="st62" d="M188.7,130.5c1.1,0,2.2,0,3.3,0c-0.1,28.8,0.1,57.6,0.3,86.4c-3.6,0-3.6,0-3.6-3.6
		C188.7,185.8,188.7,158.1,188.7,130.5z"/>
	<path class="st63" d="M644,182.5c-1.4,4.3-1.9,8.7-5.1,11.8c-3.2,3.1-7,3.7-11.2,2.6c-2.1-0.6-3.8-1.8-3.9-4.2
		c-0.2-2.7,0.7-5,3.1-6.4c1.9-1.1,4-1.4,6.2-1.7c2.1-0.2,4.3-0.4,6.4-0.6C641,183.8,642.3,183.2,644,182.5z"/>
	<path class="st64" d="M489.4,193.7c0-6.3,0-12.6,0-19c4.2,1.3,8.4,2.6,12.7,3.9c1.7,0.5,3.3,1.3,4.8,2.2c5.2,3,3.8,8.8,0.7,11.4
		c-2,1.7-4.3,2.6-6.8,2.9C496.9,195.5,493,195.4,489.4,193.7z"/>
</g>
</svg>
