<?xml version="1.0" encoding="utf-8"?>
<!-- Generator: Adobe Illustrator 22.0.0, SVG Export Plug-In . SVG Version: 6.00 Build 0)  -->
<svg version="1.1" id="Capa_1" xmlns="http://www.w3.org/2000/svg" xmlns:xlink="http://www.w3.org/1999/xlink" x="0px" y="0px"
	 viewBox="0 0 475 118.7" style="enable-background:new 0 0 475 118.7;" xml:space="preserve">
<style type="text/css">
	.st0{fill:none;}
	.st1{fill:#ABC22D;}
	.st2{fill:#005489;}
	.st3{fill:#FFFFFF;}
</style>
<g>
	<g>
		<line class="st0" x1="2.6" y1="94.1" x2="486" y2="101.8"/>
		<g>
			<path class="st1" d="M88.9,81.3c45.5-1.8,101,2.4,146.9,0.8c55.1-2.2,167.5-0.4,222.6,0.5c0,1.5-11,3.6-6.4,4.5
				c18.3,2.6,16.3,2.4,16.2,8.6c0,1.5-13.8-0.2-9.2,1.4c-8.8,2.8-4.2,2.2-1.3,3.2c4.6,1.6,1.3-0.9,5.8,1.5c4.6,2.4-4.7,4.5-0.1,6.8
				c4.6,0.1,1.2,0,5.8,0.1c4.6,1.6-4.7,4.5-0.1,4.6c13.7,1.7-23.4,2.3-5.1,2.6c0,1.5-15.1-0.8-24.7,0.9c-165.8-7-268.2,0.9-428.8-4
				c-8.4-0.5-8.8-5.5-4.6-6.1c-4.6,0.7,9.4-1.4,4.8-0.7c0-2.3-4.6-6.2,13.7-6.6L10.6,99c-4.6-0.8,0-2.3,0.1-3.8
				c4.6,0.1,9.2,0.1,9.2-0.6c0-0.8,0-2.3,0-3c-4.6-0.1,0.2,0-4.4-0.1c4.6,0.1-4.7-0.1-4.7-0.8c0-0.8,0-2.3,0-3
				c9.2-0.6,13,1,22.2,0.4l0-2.3c-9.2-0.9-13-0.2-22.2-0.4c4.6-0.7,4.6-1.4,4.6-3c13.8-0.5,17.6,1.8,31.4-0.3l-13.8-0.2
				C42.3,78.2,75.2,81.8,88.9,81.3z"/>
		</g>
	</g>
	<g>
		<g>
			<g>
				<path class="st2" d="M318,73.1l-1.3-3l18.6-24.4c3.2-4.3,5.6-7.9,7.1-10.9c1.6-3,2.3-5.6,2.3-8c0-2.2-0.8-3.9-2.3-5.2
					c-1.6-1.3-3.7-1.9-6.5-1.9c-2.6,0-5.1,0.5-7.4,1.4c-2.3,0.9-4.3,1.9-6.2,3c-1.1-2.4-2.1-4.9-2.9-7.4c-0.8-2.5-1.3-5.1-1.5-7.7
					c2.4-1.3,5.3-2.5,8.7-3.4c3.4-1,7.3-1.5,11.6-1.5c3.5,0,6.8,0.4,9.9,1.3c3,0.8,5.7,2.1,7.9,3.8c2.2,1.7,4,3.8,5.2,6.4
					c1.3,2.6,1.9,5.6,1.9,9.2c0,2.5-0.3,4.9-0.9,7.1c-0.6,2.2-1.4,4.3-2.4,6.4c-1,2-2.1,3.9-3.3,5.7c-1.2,1.8-2.4,3.5-3.6,5.2
					l-5.9,8.3h18.3c0.6,2.9,0.9,5.5,0.9,7.6c0,2.4-0.3,5.1-0.9,8H318z"/>
				<path class="st2" d="M385.6,54.5c1.4,0,2.8,0.1,4.3,0.2c1.5,0.1,3,0.3,4.6,0.5c0.3,1.6,0.5,3.1,0.6,4.6c0.1,1.5,0.2,2.9,0.2,4.3
					c0,1.4-0.1,2.8-0.2,4.3c-0.1,1.5-0.4,3-0.6,4.6c-1.6,0.3-3.1,0.5-4.6,0.6c-1.5,0.1-2.9,0.2-4.3,0.2s-2.8-0.1-4.3-0.2
					c-1.5-0.1-3-0.3-4.6-0.6c-0.3-1.6-0.5-3.1-0.6-4.6c-0.1-1.5-0.2-2.9-0.2-4.3c0-1.4,0.1-2.8,0.2-4.3c0.1-1.5,0.3-3,0.6-4.6
					c1.6-0.2,3.1-0.4,4.6-0.5C382.8,54.5,384.2,54.5,385.6,54.5z"/>
				<path class="st2" d="M430.4,4.1c4.7,0,8.7,0.9,12.1,2.7c3.4,1.8,6.2,4.3,8.5,7.5c2.2,3.2,3.9,6.9,4.9,11.2c1,4.3,1.6,9,1.6,14
					c0,5-0.6,9.6-1.7,13.9c-1.1,4.2-2.8,7.9-5,11.1c-2.2,3.1-5.1,5.6-8.6,7.4c-3.5,1.8-7.5,2.7-12.2,2.7c-4.7,0-8.7-0.9-12.1-2.7
					c-3.4-1.8-6.2-4.2-8.4-7.4c-2.2-3.1-3.8-6.8-4.9-11.1c-1.1-4.2-1.6-8.9-1.6-13.9c0-5,0.6-9.7,1.7-14c1.1-4.3,2.8-8.1,5-11.2
					c2.2-3.2,5.1-5.7,8.5-7.5C421.6,5,425.6,4.1,430.4,4.1z M430.2,19.8c-2.8,0-4.9,1.6-6.5,4.9c-1.5,3.3-2.3,8.2-2.3,14.7
					c0,6.5,0.8,11.3,2.3,14.6c1.6,3.3,3.7,4.9,6.4,4.9c2.6,0,4.7-1.6,6.3-4.9c1.5-3.3,2.3-8.1,2.3-14.6c0-6.5-0.8-11.4-2.3-14.7
					C434.9,21.5,432.8,19.8,430.2,19.8z"/>
			</g>
		</g>
	</g>
	<g>
		<path class="st2" d="M28.7,30.9H53v6.3H36.4v11.6h15.5v6.3H36.4v17.9h-7.7V30.9z"/>
		<path class="st2" d="M87.5,57.6c0,11.2-7.9,16.2-15.6,16.2c-8.6,0-15.3-5.9-15.3-15.7c0-10,6.6-16.2,15.8-16.2
			C81.4,42,87.5,48.4,87.5,57.6z M64.5,57.9c0,5.9,2.9,10.3,7.6,10.3c4.4,0,7.4-4.3,7.4-10.5c0-4.8-2.1-10.2-7.4-10.2
			C66.7,47.6,64.5,52.9,64.5,57.9z"/>
		<path class="st2" d="M93.8,52.5c0-4.1-0.1-7.1-0.3-9.8h6.7l0.3,5.8h0.3c1.5-4.3,5.1-6.5,8.3-6.5c0.8,0,1.2,0.1,1.8,0.2v7.3
			c-0.6-0.1-1.3-0.3-2.3-0.3c-3.7,0-6.2,2.4-6.9,5.8c-0.1,0.7-0.3,1.5-0.3,2.4v15.8h-7.7V52.5z"/>
		<path class="st2" d="M116.1,51.7c0-3.5-0.1-6.4-0.3-9.1h6.6l0.3,4.5h0.2c1.5-2.4,4.3-5.2,9.4-5.2c4,0,7.1,2.3,8.5,5.6h0.1
			c1.1-1.7,2.3-2.9,3.8-3.8c1.7-1.2,3.6-1.8,6.1-1.8c5.1,0,10.2,3.4,10.2,13.2v18h-7.5V56.3c0-5.1-1.8-8.1-5.4-8.1
			c-2.6,0-4.6,1.9-5.4,4.1c-0.2,0.8-0.4,1.7-0.4,2.6v18.3h-7.5V55.5c0-4.3-1.7-7.3-5.3-7.3c-2.9,0-4.8,2.3-5.5,4.4
			c-0.3,0.8-0.4,1.6-0.4,2.5v18h-7.5V51.7z"/>
		<path class="st2" d="M192.8,65.8c0,2.8,0.1,5.4,0.4,7.3h-6.9l-0.5-3.4h-0.2c-1.9,2.4-5.1,4.1-9,4.1c-6.1,0-9.6-4.4-9.6-9.1
			c0-7.7,6.8-11.6,18.1-11.5v-0.5c0-2-0.8-5.3-6.2-5.3c-3,0-6.1,0.9-8.2,2.3l-1.5-5c2.3-1.4,6.2-2.7,11-2.7
			c9.8,0,12.6,6.2,12.6,12.8V65.8z M185.3,58.2c-5.4-0.1-10.6,1.1-10.6,5.7c0,3,1.9,4.4,4.4,4.4c3.1,0,5.3-2,6-4.2
			c0.2-0.6,0.3-1.2,0.3-1.7V58.2z"/>
		<path class="st2" d="M223.4,72.2c-1.6,0.8-4.8,1.6-8.6,1.6c-9.5,0-15.7-6.1-15.7-15.6c0-9.1,6.3-16.3,17-16.3
			c2.8,0,5.7,0.6,7.4,1.4l-1.4,5.8c-1.3-0.6-3.1-1.2-5.8-1.2c-5.9,0-9.4,4.3-9.3,9.9c0,6.3,4.1,9.8,9.3,9.8c2.7,0,4.6-0.6,6.1-1.2
			L223.4,72.2z"/>
		<path class="st2" d="M237.3,34.1c0,2.3-1.7,4.1-4.4,4.1c-2.6,0-4.3-1.8-4.3-4.1c0-2.4,1.8-4.2,4.3-4.2
			C235.6,29.9,237.2,31.8,237.3,34.1z M229.1,73.1V42.7h7.8v30.5H229.1z"/>
		<path class="st2" d="M274.1,57.6c0,11.2-7.9,16.2-15.6,16.2c-8.6,0-15.3-5.9-15.3-15.7c0-10,6.6-16.2,15.8-16.2
			C268,42,274.1,48.4,274.1,57.6z M251.1,57.9c0,5.9,2.9,10.3,7.6,10.3c4.4,0,7.4-4.3,7.4-10.5c0-4.8-2.1-10.2-7.4-10.2
			C253.3,47.6,251.1,52.9,251.1,57.9z M267.8,29.4l-7.7,9.3h-5.3l5.4-9.3H267.8z"/>
		<path class="st2" d="M280.4,51.7c0-3.5-0.1-6.4-0.3-9.1h6.8l0.4,4.6h0.2c1.3-2.4,4.6-5.3,9.7-5.3c5.3,0,10.8,3.4,10.8,13.1v18.1
			h-7.7V55.9c0-4.4-1.6-7.7-5.8-7.7c-3.1,0-5.2,2.2-6,4.5c-0.3,0.7-0.3,1.6-0.3,2.5v17.9h-7.8V51.7z"/>
	</g>
	<g>
		<path class="st3" d="M44.3,94.2l0.5,3.9c0.1,1,0.2,1.9,0.3,2.7h0.1c0.1-0.8,0.3-1.8,0.5-2.7l0.8-3.9h1.9l0.8,3.8
			c0.2,1,0.3,1.9,0.5,2.8h0.1c0.1-0.8,0.2-1.8,0.3-2.7l0.5-3.8h2.4l-2.3,9h-2l-0.7-3.1c-0.2-0.8-0.3-1.8-0.5-2.8h0
			c-0.1,1-0.3,2-0.5,2.8l-0.8,3.1H44l-2.2-9H44.3z"/>
		<path class="st3" d="M63.3,94.2l0.5,3.9c0.1,1,0.2,1.9,0.3,2.7h0.1c0.1-0.8,0.3-1.8,0.5-2.7l0.8-3.9h1.9L68,98
			c0.2,1,0.3,1.9,0.5,2.8h0.1c0.1-0.8,0.2-1.8,0.3-2.7l0.5-3.8h2.4l-2.3,9h-2l-0.7-3.1c-0.2-0.8-0.3-1.8-0.5-2.8h0
			c-0.1,1-0.3,2-0.5,2.8l-0.8,3.1h-2.1l-2.2-9H63.3z"/>
		<path class="st3" d="M82.2,94.2l0.5,3.9c0.1,1,0.2,1.9,0.3,2.7H83c0.1-0.8,0.3-1.8,0.5-2.7l0.8-3.9h1.9l0.8,3.8
			c0.2,1,0.3,1.9,0.5,2.8h0.1c0.1-0.8,0.2-1.8,0.3-2.7l0.5-3.8h2.4l-2.3,9h-2l-0.7-3.1c-0.2-0.8-0.3-1.8-0.5-2.8h0
			c-0.1,1-0.3,2-0.5,2.8l-0.8,3.1h-2.1l-2.2-9H82.2z"/>
		<path class="st3" d="M99.5,103.3c-0.7,0-1.4-0.6-1.4-1.6c0-0.9,0.7-1.6,1.4-1.6c0.8,0,1.4,0.6,1.4,1.6
			C100.9,102.7,100.3,103.3,99.5,103.3L99.5,103.3z"/>
		<path class="st3" d="M109.9,103.1v-7.3h-1.2v-1.7h1.2v-0.4c0-1,0.2-1.9,0.9-2.7c0.5-0.5,1.3-0.8,2.1-0.8c0.6,0,1.1,0.1,1.4,0.2
			l-0.3,1.9c-0.2-0.1-0.4-0.1-0.7-0.1c-0.8,0-1.1,0.7-1.1,1.5v0.4h1.6v1.7h-1.6v7.3H109.9z"/>
		<path class="st3" d="M128.3,98.6c0,3.7-2.1,4.7-3.4,4.7c-2.1,0-3.4-1.7-3.4-4.6c0-3.2,1.7-4.7,3.5-4.7
			C127,94,128.3,95.8,128.3,98.6z M123.8,98.6c0,1.5,0.2,2.8,1.1,2.8c0.8,0,1-1.5,1-2.8c0-1.2-0.2-2.8-1-2.8
			C124,95.8,123.8,97.4,123.8,98.6z"/>
		<path class="st3" d="M136.7,96.9c0-0.9,0-1.9-0.1-2.7h2.1l0.1,1.3h0.1c0.4-1,1.1-1.4,1.8-1.4c0.2,0,0.4,0,0.5,0v2.4
			c-0.1,0-0.3,0-0.5,0c-0.5,0-1.2,0.3-1.5,1.3c-0.1,0.2-0.1,0.5-0.1,0.9v4.5h-2.4V96.9z"/>
		<path class="st3" d="M149.3,96.9c0-1-0.1-1.9-0.1-2.7h2.1l0.1,1h0c0.5-0.7,1.2-1.2,2.1-1.2c1,0,1.6,0.5,2,1.2h0
			c0.2-0.3,0.5-0.7,0.9-0.9c0.4-0.2,0.8-0.3,1.3-0.3c1.6,0,2.3,1.3,2.3,3.4v5.7h-2.4v-5.3c0-1-0.1-1.9-0.8-1.9
			c-0.4,0-0.7,0.3-0.9,0.8c0,0.1-0.1,0.4-0.1,0.6v5.7h-2.4v-5.6c0-0.6-0.1-1.5-0.8-1.5c-0.4,0-0.7,0.3-0.9,0.8
			c-0.1,0.2-0.1,0.4-0.1,0.7v5.6h-2.4V96.9z"/>
		<path class="st3" d="M174.9,101.1c0,0.7,0,1.4,0.1,2.1h-2.2l-0.1-0.9h0c-0.5,0.7-1.2,1-2,1c-1.4,0-2.4-1.1-2.4-2.7
			c0-2.3,2.1-3.3,4.1-3.3V97c0-0.7-0.4-1.2-1.3-1.2c-0.7,0-1.3,0.2-1.8,0.5l-0.4-1.6c0.5-0.3,1.5-0.7,2.8-0.7c2.7,0,3.2,1.9,3.2,3.7
			V101.1z M172.6,98.8c-0.8,0-1.9,0.3-1.9,1.5c0,0.9,0.5,1.2,0.9,1.2c0.4,0,0.8-0.2,1-0.8c0-0.1,0.1-0.3,0.1-0.4V98.8z"/>
		<path class="st3" d="M188.7,103c-0.2,0.1-0.8,0.3-1.5,0.3c-2.3,0-3.8-1.6-3.8-4.5c0-2.8,1.6-4.7,4.1-4.7c0.6,0,1.1,0.1,1.3,0.2
			l-0.3,1.9c-0.2-0.1-0.5-0.2-0.9-0.2c-1.2,0-1.8,1.1-1.8,2.7c0,1.6,0.7,2.6,1.8,2.6c0.3,0,0.6-0.1,0.9-0.2L188.7,103z"/>
		<path class="st3" d="M199.2,91.8c0,0.8-0.5,1.3-1.3,1.3c-0.7,0-1.2-0.5-1.2-1.3c0-0.8,0.6-1.3,1.2-1.3
			C198.7,90.5,199.2,91,199.2,91.8z M196.8,103.1v-9h2.4v9H196.8z"/>
		<path class="st3" d="M214.6,98.6c0,3.7-2.1,4.7-3.4,4.7c-2.1,0-3.4-1.7-3.4-4.6c0-3.2,1.7-4.7,3.5-4.7
			C213.3,94,214.6,95.8,214.6,98.6z M210.2,98.6c0,1.5,0.2,2.8,1.1,2.8c0.8,0,1-1.5,1-2.8c0-1.2-0.2-2.8-1-2.8
			C210.3,95.8,210.2,97.4,210.2,98.6z"/>
		<path class="st3" d="M223.1,96.9c0-1-0.1-1.9-0.1-2.7h2.1l0.1,1h0c0.5-0.7,1.2-1.2,2.2-1.2c1.7,0,2.4,1.4,2.4,3.4v5.8h-2.4v-5.6
			c0-0.8-0.2-1.5-0.9-1.5c-0.4,0-0.7,0.3-0.9,0.8c-0.1,0.2-0.1,0.5-0.1,0.8v5.5h-2.4V96.9z"/>
		<path class="st3" d="M238.3,103.1v-1.6l1.2-1.5c1.5-2,2.8-3.6,2.8-5.3c0-1-0.5-1.6-1.5-1.6c-0.8,0-1.4,0.3-1.8,0.6l-0.4-1.9
			c0.5-0.3,1.6-0.7,2.7-0.7c2.6,0,3.4,1.7,3.4,3.4c0,2.2-1.4,4-2.8,5.6l-0.7,0.8v0h3.6v2.1H238.3z"/>
		<path class="st3" d="M253.6,97c0-1.1,0-2-0.1-2.8h2.1l0.1,1h0c0.4-0.7,1-1.2,1.9-1.2c2,0,2.8,2.1,2.8,4.6c0,3.2-1.4,4.6-2.9,4.6
			c-0.7,0-1.2-0.5-1.5-0.9h0v4.3h-2.4V97z M256,99.9c0,0.3,0,0.6,0.1,0.8c0.2,0.5,0.5,0.7,0.8,0.7c0.8,0,1.1-1.2,1.1-2.7
			c0-1.7-0.4-2.6-1.1-2.6c-0.4,0-0.7,0.3-0.8,0.8c-0.1,0.2-0.1,0.4-0.1,0.6V99.9z"/>
		<path class="st3" d="M275.5,100.4c0,1,0,1.9,0.1,2.7h-2.1l-0.1-1h0c-0.4,0.6-1.2,1.1-2.1,1.1c-1.7,0-2.4-1.3-2.4-3.7v-5.4h2.4v5.2
			c0,1.2,0.2,1.9,0.9,1.9c0.4,0,0.7-0.3,0.8-0.6c0.1-0.2,0.1-0.5,0.1-0.8v-5.7h2.4V100.4z"/>
		<path class="st3" d="M284.4,96.9c0-1-0.1-1.9-0.1-2.7h2.1l0.1,1h0c0.5-0.7,1.2-1.2,2.2-1.2c1.7,0,2.4,1.4,2.4,3.4v5.8h-2.4v-5.6
			c0-0.8-0.2-1.5-0.9-1.5c-0.4,0-0.7,0.3-0.9,0.8c-0.1,0.2-0.1,0.5-0.1,0.8v5.5h-2.4V96.9z"/>
		<path class="st3" d="M302.7,91.8v2.3h1.8v1.7h-1.8v4.1c0,1,0.4,1.3,0.9,1.3c0.2,0,0.4,0,0.6-0.1l0,1.9c-0.3,0.1-0.8,0.2-1.5,0.2
			c-0.7,0-1.3-0.2-1.7-0.6c-0.5-0.5-0.8-1.2-0.8-2.6v-4.2h-1.1v-1.7h1.1v-1.6L302.7,91.8z"/>
		<path class="st3" d="M319.2,98.6c0,3.7-2.1,4.7-3.4,4.7c-2.1,0-3.4-1.7-3.4-4.6c0-3.2,1.7-4.7,3.5-4.7
			C317.9,94,319.2,95.8,319.2,98.6z M314.7,98.6c0,1.5,0.2,2.8,1.1,2.8c0.8,0,1-1.5,1-2.8c0-1.2-0.2-2.8-1-2.8
			C314.9,95.8,314.7,97.4,314.7,98.6z"/>
		<path class="st3" d="M332.7,103c-0.2,0.1-0.8,0.3-1.5,0.3c-2.3,0-3.8-1.6-3.8-4.5c0-2.8,1.6-4.7,4.1-4.7c0.6,0,1.1,0.1,1.3,0.2
			l-0.3,1.9c-0.2-0.1-0.5-0.2-0.9-0.2c-1.2,0-1.8,1.1-1.8,2.7c0,1.6,0.7,2.6,1.8,2.6c0.3,0,0.6-0.1,0.9-0.2L332.7,103z"/>
		<path class="st3" d="M342.8,99.5c0,1.4,0.8,1.9,1.9,1.9c0.7,0,1.3-0.1,1.7-0.3l0.3,1.7c-0.6,0.2-1.6,0.4-2.5,0.4
			c-2.4,0-3.8-1.6-3.8-4.4c0-3,1.6-4.8,3.6-4.8c1.9,0,3,1.5,3,4.2c0,0.6,0,1-0.1,1.2H342.8z M344.9,97.8c0-1.2-0.3-2.1-1-2.1
			c-0.8,0-1.1,1.2-1.1,2.1H344.9z"/>
		<path class="st3" d="M355.6,96.9c0-0.9,0-1.9-0.1-2.7h2.1l0.1,1.3h0.1c0.4-1,1.1-1.4,1.8-1.4c0.2,0,0.4,0,0.5,0v2.4
			c-0.1,0-0.3,0-0.5,0c-0.5,0-1.2,0.3-1.5,1.3c-0.1,0.2-0.1,0.5-0.1,0.9v4.5h-2.4V96.9z"/>
		<path class="st3" d="M374.6,98.6c0,3.7-2.1,4.7-3.4,4.7c-2.1,0-3.4-1.7-3.4-4.6c0-3.2,1.7-4.7,3.5-4.7
			C373.3,94,374.6,95.8,374.6,98.6z M370.1,98.6c0,1.5,0.2,2.8,1.1,2.8c0.8,0,1-1.5,1-2.8c0-1.2-0.2-2.8-1-2.8
			C370.3,95.8,370.1,97.4,370.1,98.6z"/>
		<path class="st3" d="M384.1,103.3c-0.7,0-1.4-0.6-1.4-1.6c0-0.9,0.7-1.6,1.4-1.6c0.8,0,1.4,0.6,1.4,1.6
			C385.5,102.7,384.9,103.3,384.1,103.3L384.1,103.3z"/>
		<path class="st3" d="M399,103c-0.2,0.1-0.8,0.3-1.5,0.3c-2.3,0-3.8-1.6-3.8-4.5c0-2.8,1.6-4.7,4.1-4.7c0.6,0,1.1,0.1,1.3,0.2
			l-0.3,1.9c-0.2-0.1-0.5-0.2-0.9-0.2c-1.2,0-1.8,1.1-1.8,2.7c0,1.6,0.7,2.6,1.8,2.6c0.3,0,0.6-0.1,0.9-0.2L399,103z"/>
		<path class="st3" d="M413.7,98.6c0,3.7-2.1,4.7-3.4,4.7c-2.1,0-3.4-1.7-3.4-4.6c0-3.2,1.7-4.7,3.5-4.7
			C412.4,94,413.7,95.8,413.7,98.6z M409.2,98.6c0,1.5,0.2,2.8,1.1,2.8c0.8,0,1-1.5,1-2.8c0-1.2-0.2-2.8-1-2.8
			C409.4,95.8,409.2,97.4,409.2,98.6z"/>
		<path class="st3" d="M422.2,96.9c0-1-0.1-1.9-0.1-2.7h2.1l0.1,1h0c0.5-0.7,1.2-1.2,2.1-1.2c1,0,1.6,0.5,2,1.2h0
			c0.2-0.3,0.5-0.7,0.9-0.9c0.4-0.2,0.8-0.3,1.3-0.3c1.6,0,2.3,1.3,2.3,3.4v5.7h-2.4v-5.3c0-1-0.1-1.9-0.8-1.9
			c-0.4,0-0.7,0.3-0.9,0.8c0,0.1-0.1,0.4-0.1,0.6v5.7h-2.4v-5.6c0-0.6-0.1-1.5-0.8-1.5c-0.4,0-0.7,0.3-0.9,0.8
			c-0.1,0.2-0.1,0.4-0.1,0.7v5.6h-2.4V96.9z"/>
	</g>
</g>
</svg>
