<?xml version="1.0" encoding="utf-8"?>
<!-- Generator: Adobe Illustrator 22.0.0, SVG Export Plug-In . SVG Version: 6.00 Build 0)  -->
<svg version="1.1" id="Capa_1" xmlns="http://www.w3.org/2000/svg" xmlns:xlink="http://www.w3.org/1999/xlink" x="0px" y="0px"
	 viewBox="0 0 90 180" style="enable-background:new 0 0 90 180;" xml:space="preserve">
<style type="text/css">
	.st0{fill:#3C88BA;}
</style>
<path class="st0" d="M0,161c0,10.5,4.3,19,9.5,19h71c5.2,0,9.5-8.5,9.5-19V19c0-10.5-4.3-19-9.5-19h-71C4.2,0,0,8.5,0,19V161z
	 M81,173H10c-2.7,0-5-5.1-5-11.4v-27L22.4,90l14.2,39c0.9,2,2.3,2,3.2,0l26.7-56L86,114.2v47.5C86,167.9,83.8,173,81,173L81,173z
	 M10,6h71c2.7,0,5,4,5,8.9V100L67.8,60.5c-0.9-1.6-2.3-1.6-3.2,0L38.8,115L23.6,81.4c-0.9-1.6-2.3-1.6-3.2,0L5,122V14.9
	C5,10,7.2,6,10,6L10,6z M-31.1,61.2"/>
<path class="st0" d="M26.2,39.8c4.8,0,8.8-3.8,8.8-8.4c0-4.6-3.9-8.4-8.8-8.4c-4.8,0-8.8,3.8-8.8,8.4C17.5,36,21.4,39.8,26.2,39.8
	L26.2,39.8z M26.2,26.3c2.9,0,5.3,2.3,5.3,5.1c0,2.8-2.4,5.1-5.3,5.1c-2.9,0-5.3-2.3-5.3-5.1C20.9,28.6,23.3,26.3,26.2,26.3
	L26.2,26.3z M26.2,26.3"/>
</svg>
