<?xml version="1.0" encoding="utf-8"?>
<!-- Generator: Adobe Illustrator 22.0.0, SVG Export Plug-In . SVG Version: 6.00 Build 0)  -->
<svg version="1.1" id="Capa_1" xmlns="http://www.w3.org/2000/svg" xmlns:xlink="http://www.w3.org/1999/xlink" x="0px" y="0px"
	 viewBox="0 0 160 64" style="enable-background:new 0 0 160 64;" xml:space="preserve">
<style type="text/css">
	.st0{fill:#3C89BB;}
</style>
<g>
	<path class="st0" d="M0,57.3C0,61,7.6,64,16.9,64h126.3c9.3,0,16.9-3,16.9-6.7V6.7C160,3,152.4,0,143.1,0H16.9C7.6,0,0,3,0,6.7
		V57.3z M147.4,61H12.8c-5.2,0-9.4-1.6-9.4-3.6v-8.5l32.3-12.2l27.6,10.5c1.7,0.6,4.4,0.6,6,0l49.9-18.9l37.6,14.2v14.9
		C156.9,59.4,152.6,61,147.4,61L147.4,61z M12.8,3.2h134.6c5.2,0,9.4,1.7,9.4,3.7v32.4l-34.6-13.5c-1.7-0.7-4.4-0.7-6,0L66.3,45.3
		L38.7,34.5c-1.7-0.7-4.4-0.7-6,0L3.4,46V6.9C3.4,4.9,7.6,3.2,12.8,3.2L12.8,3.2z M3.9,3.2"/>
	<path class="st0" d="M26,23.6c4.7,0,8.5-3.7,8.5-8.1c0-4.5-3.8-8.1-8.5-8.1c-4.7,0-8.5,3.7-8.5,8.1C17.5,20,21.3,23.6,26,23.6
		L26,23.6z M26,10.6c2.9,0,5.2,2.2,5.2,4.9c0,2.7-2.3,4.9-5.2,4.9c-2.8,0-5.2-2.2-5.2-4.9C20.8,12.8,23.1,10.6,26,10.6L26,10.6z
		 M26,10.6"/>
</g>
</svg>
