<?xml version="1.0" encoding="utf-8"?>
<!-- Generator: Adobe Illustrator 22.0.0, SVG Export Plug-In . SVG Version: 6.00 Build 0)  -->
<svg version="1.1" id="Capa_1" xmlns="http://www.w3.org/2000/svg" xmlns:xlink="http://www.w3.org/1999/xlink" x="0px" y="0px"
	 viewBox="0 0 512 512" style="enable-background:new 0 0 512 512;" xml:space="preserve">
<style type="text/css">
	.st0{fill:#3D93CC;}
</style>
<g>
	<path class="st0" d="M0,458.1C0,487.9,24.3,512,54,512h404c29.8,0,54-24.2,54-53.9V54.9C512,25.1,487.7,1,458,1H54
		C24.2,1,0,25.2,0,54.9V458.1z M458,486.4H54c-15.6,0-28.4-12.7-28.4-28.3v-67.3l97.1-96.9l83,82.8c5,5,13.1,5,18.1,0l149.8-149.5
		l112.8,112.6v118.4C486.4,473.7,473.6,486.4,458,486.4L458,486.4z M54,26.6h404c15.6,0,28.4,12.7,28.4,28.3v248.6L382.6,200
		c-5-5-13.1-5-18.1,0L214.7,349.5l-83-82.8c-5-5-13.1-5-18.1,0l-88,87.8V54.9C25.6,39.3,38.4,26.6,54,26.6L54,26.6z M54,26.6"/>
	<path class="st0" d="M158.7,205.8c36,0,65.2-29.2,65.2-65c0-35.8-29.3-65-65.2-65c-35.9,0-65.2,29.2-65.2,65
		C93.5,176.5,122.7,205.8,158.7,205.8L158.7,205.8z M158.7,101.2c21.9,0,39.5,17.7,39.5,39.5c0,21.7-17.8,39.5-39.5,39.5
		c-21.8,0-39.5-17.8-39.5-39.5C119.2,119,136.8,101.2,158.7,101.2L158.7,101.2z M158.7,101.2"/>
</g>
</svg>
