<?xml version="1.0" encoding="utf-8"?>
<!-- Generator: Adobe Illustrator 22.0.0, SVG Export Plug-In . SVG Version: 6.00 Build 0)  -->
<svg version="1.1" id="Capa_1" xmlns="http://www.w3.org/2000/svg" xmlns:xlink="http://www.w3.org/1999/xlink" x="0px" y="0px"
	 viewBox="0 0 460.7 512" style="enable-background:new 0 0 460.7 512;" xml:space="preserve">
<style type="text/css">
	.st0{fill:#3D93CC;}
	.st1{fill:#CFE65C;}
	.st2{clip-path:url(#SVGID_2_);fill:#CFE65C;}
	.st3{clip-path:url(#SVGID_2_);fill:#FFC934;}
	.st4{fill:#EDA22D;}
	.st5{fill:#A36D10;}
	.st6{fill:#FFC934;}
</style>
<g>
	<path class="st0" d="M456.1,425.9l-91.5,6.3L312,509L201.5,318.5l145.2-84.2L456.1,425.9z M456.1,425.9"/>
	<path class="st0" d="M346.7,235.4l109.4,190.5l-56.8,4.2l-34.7,2.1l-20,28.4L312,509L201.5,318.5L346.7,235.4z M346.7,235.4"/>
	<path class="st1" d="M301.4,260.7l97.9,169.4l-34.7,2.1l-20,28.4l-97.9-168.4L301.4,260.7z M301.4,260.7"/>
	<path class="st0" d="M3.6,425.9l91.5,6.3l52.6,76.8l110.5-190.5l-145.2-84.2L3.6,425.9z M3.6,425.9"/>
	<path class="st0" d="M113.1,235.4L3.6,425.9l56.8,4.2l34.7,2.1l20,28.4l32.6,48.4l110.5-190.5L113.1,235.4z M113.1,235.4"/>
	<g>
		<defs>
			<rect id="SVGID_1_" x="3" y="3" width="454" height="507.2"/>
		</defs>
		<clipPath id="SVGID_2_">
			<use xlink:href="#SVGID_1_"  style="overflow:visible;"/>
		</clipPath>
		<path class="st2" d="M158.3,260.7L60.5,430.1l34.7,2.1l20,28.4L213,292.2L158.3,260.7z M158.3,260.7"/>
		<path class="st3" d="M420.3,263.8c27.4-27.4,27.4-71.5,0-98.9c-13.7-13.7-21-30.5-21-49.5c0-38.9-31.6-70.5-70.5-70.5
			c-18.9,0-36.8-7.4-49.5-21c-27.4-27.4-71.6-27.4-98.9,0c-13.7,13.7-30.5,21-49.5,21C92,45,60.5,76.5,60.5,115.5
			c0,18.9-7.4,36.8-21,49.5c-27.4,27.4-27.4,71.5,0,98.9c13.7,13.7,21,30.5,21,49.5c0,38.9,31.6,70.5,70.5,70.5
			c18.9,0,36.8,7.4,49.5,21c27.4,27.4,71.6,27.4,98.9,0c13.7-13.7,30.5-21,49.5-21c38.9,0,70.5-31.6,70.5-70.5
			C399.3,295.4,406.7,277.5,420.3,263.8L420.3,263.8z M420.3,263.8"/>
	</g>
	<path class="st4" d="M229.9,382.7c-7.4,0-14.7-3.2-20-8.4c-21-21-49.5-32.6-78.9-32.6c-15.8,0-28.4-12.6-28.4-28.4
		c0-29.5-11.6-57.9-32.6-78.9c-10.5-10.5-10.5-28.4,0-40c21-21,32.6-49.5,32.6-78.9c0-15.8,12.6-28.4,28.4-28.4
		c30.5,0,57.9-11.6,78.9-32.6c5.3-5.3,12.6-8.4,20-8.4s14.7,3.2,20,8.4c21,21,49.5,32.6,78.9,32.6c15.8,0,28.4,12.6,28.4,28.4
		c0,30.5,11.6,57.9,32.6,78.9c10.5,10.5,10.5,28.4,0,40c-21,21-32.6,49.5-32.6,78.9c0,15.8-12.6,28.4-28.4,28.4
		c-30.5,0-57.9,11.6-78.9,32.6C244.6,379.6,237.2,382.7,229.9,382.7L229.9,382.7z M229.9,382.7"/>
	<path class="st5" d="M69.9,204.9c21-21,32.6-49.5,32.6-78.9c0-15.8,12.6-28.4,28.4-28.4c30.5,0,57.9-11.6,78.9-32.6
		c5.3-5.3,12.6-8.4,20-8.4s14.7,3.2,20,8.4c21,21,49.5,32.6,78.9,32.6c15.8,0,28.4,12.6,28.4,28.4c0,30.5,11.6,57.9,32.6,78.9
		c4.2,4.2,6.3,9.5,7.4,14.7c2.1-8.4-1.1-17.9-7.4-25.3c-21-21-32.6-49.5-32.6-78.9c0-15.8-12.6-28.4-28.4-28.4
		c-29.5,0-57.9-11.6-78.9-32.6c-5.3-5.3-12.6-8.4-20-8.4s-14.7,3.2-20,8.4c-21,21-49.5,32.6-78.9,32.6c-15.8,0-28.4,12.6-28.4,28.4
		c0,29.5-11.6,57.9-32.6,78.9c-6.3,6.3-9.5,15.8-7.4,25.3C62.6,214.4,65.7,209.1,69.9,204.9L69.9,204.9z M69.9,204.9"/>
	<path class="st6" d="M234.1,96.5l24.2,73.7c1.1,2.1,2.1,3.2,4.2,3.2h77.9c4.2,0,6.3,6.3,3.2,8.4L280.4,227
		c-2.1,1.1-2.1,3.2-2.1,5.3l24.2,73.7c1.1,4.2-3.2,8.4-7.4,5.3L232,265.9c-2.1-1.1-4.2-1.1-5.3,0l-63.1,45.2
		c-4.2,3.2-8.4-1.1-7.4-5.3l24.2-73.7c1.1-2.1,0-4.2-2.1-5.3l-63.1-45.2c-4.2-3.2-2.1-8.4,3.2-8.4h77.9c2.1,0,4.2-1.1,4.2-3.2
		l24.2-73.7C226.7,92.3,233,92.3,234.1,96.5L234.1,96.5z M234.1,96.5"/>
</g>
</svg>
