<?xml version="1.0" encoding="utf-8"?>
<!-- Generator: Adobe Illustrator 22.0.0, SVG Export Plug-In . SVG Version: 6.00 Build 0)  -->
<svg version="1.1" id="Capa_1" xmlns="http://www.w3.org/2000/svg" xmlns:xlink="http://www.w3.org/1999/xlink" x="0px" y="0px"
	 viewBox="0 0 512 512" style="enable-background:new 0 0 512 512;" xml:space="preserve">
<path d="M496,6H12v432h484V6z M508,453.8V505H3v-51.2h227.2v10.9h50.7v-10.9H508z M255.5,81.8 M483.9,372h-94.2v-17.7
	c0-21.4-16.2-47.9-36-58.6l-45.5-24.7l-30,71.1l-14.8-46c-3.2,0.7-6.2,1.6-9.5,1.6c-3.1,0-6.3-0.9-9.4-1.6l-15.7,48.4l-30.6-72.7
	l-44.1,23.9c-19.9,10.7-36.1,37.2-36.1,58.5V372H24V21h460L483.9,372L483.9,372z M166.9,209.8c5.6,24.9,19.3,46.5,38.7,60.6
	c0.3,4.2,3.1,8.7,7.6,11.3c6.1,3.7,13.1,2.5,15.4-2.5c2.3-5-0.9-12.1-7-15.7c-3.8-2.2-7.7-2.5-10.9-1.3
	c-16.8-12.1-29.1-30.6-34.6-52c5.6-1.9,9.7-7.9,9.7-14.9v-6.9c7.5,42.9,35.1,82.7,68.1,82.7c33,0,60.6-39.8,68-82.7v6.9
	c0,8.7,6.2,15.7,13.9,15.7c7.6,0,13.8-7,13.8-15.7v-32.8c0-5.5-2.5-10.4-6.4-13.2c-5.1-51.1-43.2-90.8-89.4-90.8
	s-84.2,39.8-89.4,90.8c-3.8,2.8-6.4,7.7-6.4,13.2v32.8C158.2,201.8,161.8,207.5,166.9,209.8L166.9,209.8z M254,68.5
	c40.6,0,74.1,34.1,80.1,78.4c-4.6,0.7-8.4,4-10.5,8.4c-4-43.6-33.6-66.7-69.6-66.7c-35.9,0-65.5,23.1-69.6,66.7
	c-1.5-3.2-3.8-5.9-6.9-7.3c-0.5-1-1.3-1.8-2.2-2.2c-0.5-0.3-0.9-0.3-1.3-0.3C180.5,101.8,213.9,68.5,254,68.5L254,68.5z M266,402.5
	c0,6.9-5.4,12.5-12,12.5s-12-5.6-12-12.5s5.4-12.5,12-12.5S266,395.6,266,402.5z M264.2,402.5c0,5.8-4.5,10.5-10.1,10.5
	s-10.1-4.7-10.1-10.5s4.5-10.5,10.1-10.5S264.2,396.7,264.2,402.5z"/>
</svg>
