<?xml version="1.0" encoding="utf-8"?>
<!-- Generator: Adobe Illustrator 22.0.0, SVG Export Plug-In . SVG Version: 6.00 Build 0)  -->
<svg version="1.1" id="Capa_1" xmlns="http://www.w3.org/2000/svg" xmlns:xlink="http://www.w3.org/1999/xlink" x="0px" y="0px"
	 viewBox="0 0 512 512" style="enable-background:new 0 0 512 512;" xml:space="preserve">
<style type="text/css">
	.st0{fill:#020202;}
</style>
<rect x="161.3" y="473.3" class="st0" width="183.6" height="33.7"/>
<path class="st0" d="M5,4v447.4h502V4H5z M487,404H19V23h468V404z"/>
<path d="M468.2,400H37.8c-8.2,0-14.8-6.6-14.8-14.7V47.7C23,39.6,29.6,33,37.8,33h430.4c8.2,0,14.8,6.6,14.8,14.7v337.6
	C483,393.4,476.3,400,468.2,400L468.2,400z M32.5,349.1v36.2c0,2.9,2.4,5.3,5.3,5.3h430.4c2.9,0,5.3-2.4,5.3-5.3v-36.2H32.5z
	 M32.5,339.7h441V80.2h-441V339.7z M32.5,70.8h441V47.7c0-2.9-2.4-5.3-5.3-5.3H37.8c-2.9,0-5.3,2.4-5.3,5.3V70.8z M119,380.9
	c-2.6,0-4.7-2.1-4.7-4.7v-2.4H49.8c-2.6,0-4.7-2.1-4.7-4.7c0-2.6,2.1-4.7,4.7-4.7h64.4v-2.6c0-2.6,2.1-4.7,4.7-4.7
	c2.6,0,4.7,2.1,4.7,4.7v2.6h332.5c2.6,0,4.7,2.1,4.7,4.7c0,2.6-2.1,4.7-4.7,4.7H123.7v2.4C123.7,378.8,121.6,380.9,119,380.9
	L119,380.9z M452.8,61.3H115.4c-2.6,0-4.7-2.1-4.7-4.7c0-2.6,2.1-4.7,4.7-4.7h337.4c2.6,0,4.7,2.1,4.7,4.7
	C457.6,59.2,455.5,61.3,452.8,61.3L452.8,61.3z M82.4,61.3h-0.5c-2.6,0-4.7-2.1-4.7-4.7c0-2.6,2.1-4.7,4.7-4.7h0.5
	c2.6,0,4.7,2.1,4.7,4.7C87.1,59.2,85,61.3,82.4,61.3L82.4,61.3z M64.4,61.3h-0.5c-2.6,0-4.7-2.1-4.7-4.7c0-2.6,2.1-4.7,4.7-4.7h0.5
	c2.6,0,4.7,2.1,4.7,4.7C69.2,59.2,67,61.3,64.4,61.3L64.4,61.3z M46.5,61.3H46c-2.6,0-4.7-2.1-4.7-4.7c0-2.6,2.1-4.7,4.7-4.7h0.5
	c2.6,0,4.7,2.1,4.7,4.7C51.2,59.2,49.1,61.3,46.5,61.3L46.5,61.3z M46.5,61.3"/>
<path d="M253.6,160.6c-35.3,0-64.1,23.7-64.1,52.9c0,29.2,28.8,52.9,64.1,52.9c35.4,0,64.1-23.7,64.1-52.9
	C317.7,184.3,288.9,160.6,253.6,160.6z M253.6,259.8c-31,0-56.1-20.8-56.1-46.3c0-25.5,25.2-46.3,56.1-46.3
	c31,0,56.1,20.8,56.1,46.3C309.7,239,284.5,259.8,253.6,259.8z"/>
<path d="M287.7,210.6l-51.3-24.4c-1.2-0.6-2.8-0.6-4,0c-1.2,0.6-2,1.7-2,2.8v48.8c0,1.2,0.8,2.3,2,2.8c0.6,0.3,1.3,0.4,2,0.4
	c0.7,0,1.4-0.2,2-0.4l51.3-24.4c1.2-0.6,2-1.7,2-2.8C289.7,212.3,288.9,211.2,287.7,210.6z M238.4,232.2v-37.5l39.3,18.7
	L238.4,232.2z"/>
</svg>
