<?xml version="1.0" encoding="utf-8"?>
<!-- Generator: Adobe Illustrator 22.0.0, SVG Export Plug-In . SVG Version: 6.00 Build 0)  -->
<svg version="1.1" id="Capa_1" xmlns="http://www.w3.org/2000/svg" xmlns:xlink="http://www.w3.org/1999/xlink" x="0px" y="0px"
	 viewBox="0 0 458.2 512" style="enable-background:new 0 0 458.2 512;" xml:space="preserve">
<style type="text/css">
	.st0{fill:#7CBB00;}
	.st1{fill:#EDFFC2;}
</style>
<g>
	<path class="st0" d="M343.9,510H59.4C28.3,510,3,484.7,3,453.6V59.4C3,28.3,28.3,3,59.4,3h200.7c14.4,0,28.1,5.4,38.6,15.3
		l83.8,78.6c11.3,10.6,17.8,25.6,17.8,41.2v12.9c0,7.6-6.1,13.7-13.7,13.7c-7.6,0-13.7-6.1-13.7-13.7V138c0-8-3.3-15.7-9.2-21.2
		L280,38.3c-5.4-5.1-12.5-7.9-19.9-7.9H59.4c-16,0-29,13-29,29v394.1c0,16,13,29,29,29h284.5c16,0,29-13,29-29V225.5
		c0-7.6,6.1-13.7,13.7-13.7c7.6,0,13.7,6.1,13.7,13.7v228.1C400.4,484.7,375.1,510,343.9,510L343.9,510z M343.9,510"/>
	<path class="st1" d="M401.2,369.8H150.1c-21.5,0-38.9-17.4-38.9-38.9V207.6c0-21.5,17.4-38.9,38.9-38.9h251.1
		c21.5,0,38.9,17.4,38.9,38.9v123.3C440.1,352.4,422.7,369.8,401.2,369.8L401.2,369.8z M401.2,369.8"/>
	<path class="st0" d="M401.2,383.5H150.1c-29,0-52.6-23.6-52.6-52.6V207.6c0-29,23.6-52.6,52.6-52.6h251.1c29,0,52.6,23.6,52.6,52.6
		v123.3C453.8,359.9,430.2,383.5,401.2,383.5L401.2,383.5z M150.1,182.4c-13.9,0-25.2,11.3-25.2,25.2v123.3
		c0,13.9,11.3,25.2,25.2,25.2h251.1c13.9,0,25.2-11.3,25.2-25.2V207.6c0-13.9-11.3-25.2-25.2-25.2H150.1z M150.1,182.4"/>
</g>
<g>
	<g>
		<path class="st0" d="M215.5,301.3l-6-12.1c-2.4-4.7-4.1-8.2-5.9-12.1h-0.2c-1.4,3.9-3,7.4-5.2,12l-5.5,12.2h-17.3l19.4-33.9
			L176,234.3h17.4l5.9,12.2c2,4.1,3.4,7.4,5,11.1h0.3c1.6-4.3,2.9-7.2,4.6-11.1l5.6-12.2H232L213.1,267l19.9,34.3H215.5z"/>
		<path class="st0" d="M261.1,234.3h15.2v54.3h26.7v12.7h-41.8V234.3z"/>
		<path class="st0" d="M332.3,285.7c4,2.2,10.3,4.2,16.8,4.2c7,0,10.6-2.9,10.6-7.3c0-4.1-3.2-6.5-11.2-9.4
			c-11.2-4-18.5-10.1-18.5-19.8c0-11.4,9.6-20.1,25.3-20.1c7.6,0,13.2,1.5,17.1,3.4l-3.3,12.2c-2.7-1.3-7.5-3.2-14-3.2
			c-6.6,0-9.7,3.1-9.7,6.5c0,4.3,3.7,6.1,12.4,9.4c11.9,4.4,17.4,10.6,17.4,20.1c0,11.2-8.6,20.8-27,20.8c-7.6,0-15.2-2.1-18.9-4.2
			L332.3,285.7z"/>
	</g>
</g>
</svg>
