<?xml version="1.0" encoding="utf-8"?>
<!-- Generator: Adobe Illustrator 22.0.0, SVG Export Plug-In . SVG Version: 6.00 Build 0)  -->
<svg version="1.1" id="Capa_1" xmlns="http://www.w3.org/2000/svg" xmlns:xlink="http://www.w3.org/1999/xlink" x="0px" y="0px"
	 viewBox="0 0 512 512" style="enable-background:new 0 0 512 512;" xml:space="preserve">
<style type="text/css">
	.st0{fill:none;stroke:#000000;stroke-width:5;stroke-miterlimit:10;}
</style>
<path d="M493,41H380V17.5c0-6.9-5.6-12.5-12.5-12.5S355,10.6,355,17.5V41H157V17.5c0-6.9-5.6-12.5-12.5-12.5S132,10.6,132,17.5V41
	H19c-7.7,0-14,6.3-14,14v389c0,2,5,10,11,10c18,0,54.8,0,57,0c0,0,8.7,7.7,9,8c14,11,31,20,31,20c21,12,48,18,48,18c15,4,37,6,47,6
	c288.8-51.2,245.6-43.5,288-52c7.9-1.6,11-7,11-12V55C507,47.3,500.7,41,493,41z M18.9,448c-3.9,0-7.9-3.4-7.9-7.4L10.9,376
	c14.1,41,28.2,55.5,53,72H18.9z M501,433c0,10-5.3,14.9-11,16c-45,9-247,44.8-283,48c-78,7-199-77-195-194l1-148h488V433z M501,148
	H13V63c0-7.7,6.3-14,14-14h105c0.3,6.7,5.7,12,12.5,12s12.2-5.3,12.5-12H355c0.3,6.7,5.7,12,12.5,12s12.2-5.3,12.5-12h109
	c7.7,0,12,4.3,12,12V148z"/>
<path class="st0" d="M247.8,249.6c-3.2-26.7-24.9-48.3-51.6-51.3c-2.3-0.3-4.5-0.4-6.8-0.4c-15.7,0-30.5,6.1-41.6,17.3
	c-11.1,11.1-17.3,25.9-17.3,41.6v0.7c0,0.7,0.6,1.3,1.3,1.3h37.5c0.7,0,1.3-0.6,1.3-1.3c0-10.8,8.4-19.4,18.8-19.4
	c0.2,0,0.4,0,0.6,0c9.8,0.3,17.8,8.3,18.1,18.1c0.2,5-1.7,9.8-5.2,13.5c-3.7,3.8-8.8,6-14.1,6h-5.2c-0.7,0-1.3,0.6-1.3,1.3v37.5
	c0,0.7,0.6,1.3,1.3,1.3h5.2c5.3,0,10.4,2.2,14.1,6c3.5,3.7,5.4,8.5,5.2,13.5c-0.3,9.8-8.3,17.8-18.1,18.1c-0.2,0-0.4,0-0.6,0
	c-10.4,0-18.8-8.7-18.8-19.3c0-0.7-0.6-1.3-1.3-1.3h-37.5c-0.7,0-1.3,0.6-1.3,1.3v0.5c0,32.5,26.4,58.9,58.8,58.9
	c2.2,0,4.5-0.1,6.8-0.4c26.7-3,48.5-24.6,51.6-51.3c1.8-14.9-2.1-29.6-10.7-41.6l-3.2-4.4l3.2-4.4
	C245.7,279.2,249.5,264.4,247.8,249.6L247.8,249.6z M247.8,249.6"/>
<path class="st0" d="M331.3,199.8h-10.6c-27.4,0-49.8,22.3-49.8,49.8v92.7c0,27.4,22.3,49.8,49.8,49.8h10.6
	c27.4,0,49.8-22.3,49.8-49.8v-92.7C381,222.1,358.7,199.8,331.3,199.8L331.3,199.8z M341.9,332.1c0,8-6.5,14.5-14.5,14.5h-2.9
	c-8,0-14.5-6.5-14.5-14.5v-72.4c0-8,6.5-14.5,14.5-14.5h2.9c8,0,14.5,6.5,14.5,14.5V332.1z M341.9,332.1"/>
</svg>
