<?xml version="1.0" encoding="utf-8"?>
<!-- Generator: Adobe Illustrator 22.0.0, SVG Export Plug-In . SVG Version: 6.00 Build 0)  -->
<svg version="1.1" xmlns="http://www.w3.org/2000/svg" xmlns:xlink="http://www.w3.org/1999/xlink" x="0px" y="0px"
	 viewBox="0 0 512 512" style="enable-background:new 0 0 512 512;" xml:space="preserve">
<style type="text/css">
	.st0{display:none;}
	.st1{display:inline;}
	.st2{clip-path:url(#SVGID_2_);}
	.st3{clip-path:url(#SVGID_2_);fill:#FFFFFF;}
	.st4{fill:#020202;}
	.st5{fill:#FFFFFF;}
	.st6{opacity:0.6;}
</style>
<g id="Capa_1" class="st0">
	<g class="st1">
		<path d="M256.5,4C117.1,4,4,117,4,256.3C4,395.9,117.1,509,256.5,509C396,509,509,395.9,509,256.3C509,117,396,4,256.5,4L256.5,4z
			 M274.5,396.9c-5.9,5.2-12.7,7.8-20.4,7.8c-7.9,0-14.9-2.6-20.8-7.7c-5.9-5.2-8.9-12.4-8.9-21.6c0-8.2,2.9-15.2,8.6-20.8
			c5.8-5.6,12.8-8.4,21.1-8.4c8.2,0,15.2,2.8,20.8,8.4c5.6,5.6,8.4,12.5,8.4,20.8C283.3,384.5,280.4,391.6,274.5,396.9L274.5,396.9z
			 M347.6,215.6c-4.6,8.4-9.9,15.6-16.1,21.6c-6.2,6.1-17.3,16.3-33.4,30.6c-4.4,4-8,7.6-10.7,10.7c-2.6,3.1-4.6,5.8-5.9,8.4
			c-1.3,2.6-2.3,5.1-3.1,7.7c-0.7,2.5-1.8,7-3.2,13.4c-2.5,13.5-10.3,20.3-23.3,20.3c-6.8,0-12.5-2.2-17.1-6.6c-4.6-4.5-7-11-7-19.8
			c0-11,1.7-20.5,5.1-28.5c3.4-8,7.9-15.1,13.5-21.1c5.6-6.1,13.2-13.3,22.7-21.7c8.4-7.3,14.4-12.8,18.1-16.5
			c3.8-3.7,6.9-7.8,9.4-12.4c2.6-4.5,3.8-9.5,3.8-14.9c0-10.4-3.9-19.3-11.6-26.4c-7.8-7.2-17.8-10.8-30.1-10.8
			c-14.3,0-24.9,3.6-31.7,10.9c-6.8,7.2-12.5,17.9-17.2,32c-4.5,14.8-12.9,22.1-25.2,22.1c-7.3,0-13.5-2.6-18.5-7.7
			c-5-5.2-7.5-10.7-7.5-16.7c0-12.4,3.9-25,11.9-37.7c8-12.8,19.6-23.3,34.8-31.7c15.3-8.4,33.1-12.5,53.4-12.5
			c18.9,0,35.6,3.5,50.1,10.5c14.5,7,25.7,16.5,33.6,28.5c7.9,12,11.8,25.1,11.8,39.2C354.4,197.5,352.1,207.2,347.6,215.6
			L347.6,215.6z M347.6,215.6"/>
	</g>
</g>
<g id="Capa_2" class="st0">
	<g class="st1">
		<g>
			<defs>
				<rect id="SVGID_1_" x="2" y="2" width="510" height="509"/>
			</defs>
			<clipPath id="SVGID_2_">
				<use xlink:href="#SVGID_1_"  style="overflow:visible;"/>
			</clipPath>
			<path class="st2" d="M493,510.9H18.3c-9,0-16.3-9.2-16.3-20.4V21.7C2,10.5,9.3,1.3,18.3,1.3H493c9,0,16.3,9.1,16.3,20.4v468.7
				C509.3,501.7,502,510.9,493,510.9L493,510.9z M12.5,440.2v50.3c0,4,2.6,7.3,5.9,7.3H493c3.2,0,5.9-3.3,5.9-7.3v-50.3H12.5z
				 M12.5,427.1h486.4V66.8H12.5V427.1z M12.5,53.8h486.4V21.7c0-4-2.6-7.3-5.9-7.3H18.3c-3.2,0-5.9,3.3-5.9,7.3V53.8z M107.8,484.4
				c-2.9,0-5.2-2.9-5.2-6.5v-3.3h-71c-2.9,0-5.2-2.9-5.2-6.5c0-3.6,2.4-6.5,5.2-6.5h71v-3.7c0-3.6,2.4-6.5,5.2-6.5
				c2.9,0,5.2,2.9,5.2,6.5v3.7h366.7c2.9,0,5.2,2.9,5.2,6.5c0,3.6-2.3,6.5-5.2,6.5H113.1v3.3C113.1,481.4,110.7,484.4,107.8,484.4
				L107.8,484.4z M476.1,40.6H103.9c-2.9,0-5.2-2.9-5.2-6.5s2.3-6.5,5.2-6.5h372.1c2.9,0,5.2,2.9,5.2,6.5S479,40.6,476.1,40.6
				L476.1,40.6z M67.5,40.6h-0.5c-2.9,0-5.2-2.9-5.2-6.5s2.3-6.5,5.2-6.5h0.5c2.9,0,5.2,2.9,5.2,6.5S70.4,40.6,67.5,40.6L67.5,40.6z
				 M47.7,40.6h-0.5c-2.9,0-5.2-2.9-5.2-6.5s2.4-6.5,5.2-6.5h0.5c2.9,0,5.2,2.9,5.2,6.5S50.6,40.6,47.7,40.6L47.7,40.6z M27.9,40.6
				h-0.5c-2.9,0-5.2-2.9-5.2-6.5s2.4-6.5,5.2-6.5h0.5c2.9,0,5.2,2.9,5.2,6.5S30.8,40.6,27.9,40.6L27.9,40.6z M27.9,40.6"/>
			<path class="st2" d="M256.3,326.8c-39,0-70.7-31.7-70.7-70.7c0-39,31.7-70.7,70.7-70.7c39,0,70.7,31.7,70.7,70.7
				C327,295,295.3,326.8,256.3,326.8L256.3,326.8z"/>
			<path class="st3" d="M256.3,194.1c-34.1,0-61.9,27.8-61.9,61.9c0,34.1,27.8,61.9,61.9,61.9c34.1,0,61.9-27.8,61.9-61.9
				S290.4,194.1,256.3,194.1L256.3,194.1z"/>
			<path class="st2" d="M235.1,293.1c-0.8,0-1.5-0.2-2.2-0.6c-1.4-0.8-2.2-2.2-2.2-3.8v-65.3c0-1.6,0.8-3,2.2-3.8
				c1.4-0.8,3-0.8,4.4,0l56.6,32.7c1.4,0.8,2.2,2.2,2.2,3.8c0,1.6-0.8,3-2.2,3.8l-56.6,32.7C236.7,292.9,235.9,293.1,235.1,293.1
				L235.1,293.1z"/>
			<polygon class="st3" points="239.5,231 239.5,281.1 282.9,256 			"/>
		</g>
	</g>
</g>
<g id="Capa_3" class="st0">
	<g class="st1">
		<path class="st4" d="M5,5v447.4h502V5H5z M309.8,236"/>
		<rect x="161.3" y="474.3" class="st4" width="183.6" height="33.7"/>
		<path class="st5" d="M260.3,290.8c-39,0-70.7-31.7-70.7-70.7c0-39,31.7-70.7,70.7-70.7c39,0,70.7,31.7,70.7,70.7
			C331,259,299.3,290.8,260.3,290.8L260.3,290.8z"/>
		<path d="M260.3,158.1c-34.1,0-61.9,27.8-61.9,61.9c0,34.1,27.8,61.9,61.9,61.9c34.1,0,61.9-27.8,61.9-61.9
			S294.4,158.1,260.3,158.1L260.3,158.1z"/>
		<path class="st5" d="M239.1,257.1c-0.8,0-1.5-0.2-2.2-0.6c-1.4-0.8-2.2-2.2-2.2-3.8v-65.3c0-1.6,0.8-3,2.2-3.8
			c1.4-0.8,3-0.8,4.4,0l56.6,32.7c1.4,0.8,2.2,2.2,2.2,3.8c0,1.6-0.8,3-2.2,3.8l-56.6,32.7C240.7,256.9,239.9,257.1,239.1,257.1
			L239.1,257.1z"/>
		<polygon points="243.5,195 243.5,245.1 286.9,220 		"/>
	</g>
</g>
<g id="Capa_5">
	<path d="M208,508c-10,0-32-2-47-6c0,0-27-6-48-18c0,0-17-9-31-20c-0.3-0.3-9-8-9-8c-2.2,0-39,0-57,0c-6,0-11-8-11-10V57
		c0-7.7,6.3-14,14-14h474c7.7,0,14,6.3,14,14v387c0,5-3.1,10.4-11,12C453.6,464.5,496.8,456.8,208,508z"/>
	<path class="st6" d="M144.5,63L144.5,63c-6.9,0-12.5-5.6-12.5-12.5v-31c0-6.9,5.6-12.5,12.5-12.5h0c6.9,0,12.5,5.6,12.5,12.5v31
		C157,57.4,151.4,63,144.5,63z"/>
	<path class="st6" d="M367.5,63L367.5,63c-6.9,0-12.5-5.6-12.5-12.5v-31c0-6.9,5.6-12.5,12.5-12.5l0,0c6.9,0,12.5,5.6,12.5,12.5v31
		C380,57.4,374.4,63,367.5,63z"/>
	<path class="st5" d="M501,150H13V65c0-7.7,6.3-14,14-14h462c7.7,0,12,4.3,12,12V150z"/>
	<path class="st5" d="M207,499c-78,7-199-77-195-194l1-148h488v278c0,10-5.3,14.9-11,16C445,460,243,495.8,207,499z"/>
	<path class="st5" d="M11,442.6L10.9,378c14.1,41,28.2,55.5,53,72l-45,0C15,450,11,446.6,11,442.6z"/>
	<path class="st6" d="M247.8,251.6c-3.2-26.7-24.9-48.3-51.6-51.3c-2.3-0.3-4.5-0.4-6.8-0.4c-15.7,0-30.5,6.1-41.6,17.3
		c-11.1,11.1-17.3,25.9-17.3,41.6v0.7c0,0.7,0.6,1.3,1.3,1.3h37.5c0.7,0,1.3-0.6,1.3-1.3c0-10.8,8.4-19.4,18.8-19.4
		c0.2,0,0.4,0,0.6,0c9.8,0.3,17.8,8.3,18.1,18.1c0.2,5-1.7,9.8-5.2,13.5c-3.7,3.8-8.8,6-14.1,6h-5.2c-0.7,0-1.3,0.6-1.3,1.3v37.5
		c0,0.7,0.6,1.3,1.3,1.3h5.2c5.3,0,10.4,2.2,14.1,6c3.5,3.7,5.4,8.5,5.2,13.5c-0.3,9.8-8.3,17.8-18.1,18.1c-0.2,0-0.4,0-0.6,0
		c-10.4,0-18.8-8.7-18.8-19.3c0-0.7-0.6-1.3-1.3-1.3h-37.5c-0.7,0-1.3,0.6-1.3,1.3v0.5c0,32.5,26.4,58.9,58.8,58.9
		c2.2,0,4.5-0.1,6.8-0.4c26.7-3,48.5-24.6,51.6-51.3c1.8-14.9-2.1-29.6-10.7-41.6l-3.2-4.4l3.2-4.4
		C245.7,281.2,249.5,266.4,247.8,251.6L247.8,251.6z M247.8,251.6"/>
	<path class="st6" d="M331.3,206.8h-10.6c-27.4,0-49.8,22.3-49.8,49.8v92.7c0,27.4,22.3,49.8,49.8,49.8h10.6
		c27.4,0,49.8-22.3,49.8-49.8v-92.7C381,229.1,358.7,206.8,331.3,206.8L331.3,206.8z M341.9,339.1c0,8-6.5,14.5-14.5,14.5h-2.9
		c-8,0-14.5-6.5-14.5-14.5v-72.4c0-8,6.5-14.5,14.5-14.5h2.9c8,0,14.5,6.5,14.5,14.5V339.1z M341.9,339.1"/>
</g>
<g id="Capa_6" class="st0">
	<g class="st1">
		<path d="M465.9,36.4h-42.6C419.5,18.9,404.3,6,386.1,6s-33.5,12.9-37.3,30.4H163.2C159.4,18.9,144.2,6,125.9,6
			S91.7,18.9,88.7,36.4H46.1C23.3,36.4,5,54.6,5,77.4v316.5c0,22.8,18.3,41,41.1,41h248.7c12.9,41.8,51.7,72.1,97.4,72.1
			c49.4,0,90.5-34.9,99.6-81.2c9.1-7.6,15.2-19.7,15.2-31.9V77.4C507,54.6,488.7,36.4,465.9,36.4z M386.1,21.2
			c12.9,0,22.8,9.9,22.8,22.8s-9.9,22.8-22.8,22.8c-12.9,0-22.8-9.9-22.8-22.8S373.9,21.2,386.1,21.2z M125.9,21.2
			c12.9,0,22.8,9.9,22.8,22.8s-9.9,22.8-22.8,22.8s-22.8-9.9-22.8-22.8S113,21.2,125.9,21.2z M46.1,51.5h42.6
			c3.8,17.5,19,30.4,37.3,30.4s33.5-12.9,37.3-30.4h186.3c3.8,17.5,19,30.4,37.3,30.4s33.5-12.9,37.3-30.4h41.8
			c14.5,0,25.9,11.4,25.9,25.8v41H20.2v-41C20.2,62.9,31.6,51.5,46.1,51.5z M46.1,420.5c-14.5,0-25.9-12.1-25.9-26.6V134.3h471.6
			V384c-9.9-45.5-51-79.7-99.6-79.7c-56.3,0-101.9,45.5-101.9,101.7c0,5.3,0.8,9.9,1.5,15.2H46.1V420.5z M392.1,491.8
			c-47.9,0-86.7-38.7-86.7-86.5s38.8-86.5,86.7-86.5s86.7,38.7,86.7,86.5S440.1,491.8,392.1,491.8z"/>
		<path d="M185.3,160.1h-41.1c-4.6,0-7.6,3-7.6,7.6v41c0,4.6,3,7.6,7.6,7.6h41.1c4.6,0,7.6-3,7.6-7.6v-41
			C192.9,163.9,189.8,160.1,185.3,160.1z M177.7,201.1h-25.9v-25.8h25.9V201.1z"/>
		<path d="M274.3,160.1h-41.1c-4.6,0-7.6,3-7.6,7.6v41c0,4.6,3,7.6,7.6,7.6h41.1c4.6,0,7.6-3,7.6-7.6v-41
			C281.9,163.9,278.8,160.1,274.3,160.1z M266.6,201.1h-25.9v-25.8h25.9V201.1z"/>
		<path d="M322.2,216.3h41.1c4.6,0,7.6-3,7.6-7.6v-41c0-4.6-3-7.6-7.6-7.6h-41.1c-4.6,0-7.6,3-7.6,7.6v41
			C314.6,213.2,318.4,216.3,322.2,216.3z M329.8,175.3h25.9v25.8h-25.9V175.3z"/>
		<path d="M411.2,216.3h41.1c4.6,0,7.6-3,7.6-7.6v-41c0-4.6-3-7.6-7.6-7.6h-41.1c-4.6,0-7.6,3-7.6,7.6v41
			C403.6,213.2,407.4,216.3,411.2,216.3z M418.8,175.3h25.9v25.8h-25.9V175.3z"/>
		<path d="M96.3,240.6H55.2c-4.6,0-7.6,3-7.6,7.6v41c0,4.6,3,7.6,7.6,7.6h41.1c4.6,0,7.6-3,7.6-7.6v-41
			C103.9,244.4,100.8,240.6,96.3,240.6z M88.7,282.3H62.8v-25.8h25.9V282.3z"/>
		<path d="M185.3,240.6h-41.1c-4.6,0-7.6,3-7.6,7.6v41c0,4.6,3,7.6,7.6,7.6h41.1c4.6,0,7.6-3,7.6-7.6v-41
			C192.9,244.4,189.8,240.6,185.3,240.6z M177.7,282.3h-25.9v-25.8h25.9V282.3z"/>
		<path d="M322.2,297.5h41.1c4.6,0,7.6-3,7.6-7.6v-41c0-4.6-3-7.6-7.6-7.6h-41.1c-4.6,0-7.6,3-7.6,7.6v41
			C314.6,293.7,318.4,297.5,322.2,297.5z M329.8,255.7h25.9v25.8h-25.9V255.7z"/>
		<path d="M96.3,321.8H55.2c-4.6,0-7.6,3-7.6,7.6v41c0,4.6,3,7.6,7.6,7.6h41.1c4.6,0,7.6-3,7.6-7.6v-41
			C103.9,324.8,100.8,321.8,96.3,321.8z M88.7,362.8H62.8V337h25.9V362.8z"/>
		<path d="M185.3,321.8h-41.1c-4.6,0-7.6,3-7.6,7.6v41c0,4.6,3,7.6,7.6,7.6h41.1c4.6,0,7.6-3,7.6-7.6v-41
			C192.9,324.8,189.8,321.8,185.3,321.8z M177.7,362.8h-25.9V337h25.9V362.8z"/>
		<path d="M274.3,240.6h-41.1c-4.6,0-7.6,3-7.6,7.6v41c0,4.6,3,7.6,7.6,7.6h41.1c4.6,0,7.6-3,7.6-7.6v-41
			C281.9,244.4,278.8,240.6,274.3,240.6z M266.6,282.3h-25.9v-25.8h25.9V282.3z"/>
		<path d="M437.8,362.8l-66.9,68.3l-23.6-33.4c-2.3-3-7.6-3.8-10.6-1.5c-3,2.3-3.8,6.8-1.5,10.6L364,447c1.5,1.5,3,3,5.3,3
			c2.3,0,4.6-0.8,6.1-2.3l73.8-74.4c3-3,3-7.6,0-10.6C446.2,359.7,440.8,359.7,437.8,362.8z"/>
	</g>
</g>
<g id="Capa_7" class="st0">
	<path class="st1" d="M497,7H13v432h484V7z M509,454.8V506H4v-51.2h227.2v10.9h50.7v-10.9H509z M256.5,82.8 M484.9,373h-94.2v-17.7
		c0-21.4-16.2-47.9-36-58.6l-45.5-24.7l-30,71.1l-14.8-46c-3.2,0.7-6.2,1.6-9.5,1.6c-3.1,0-6.3-0.9-9.4-1.6l-15.7,48.4l-30.6-72.7
		l-44.1,23.9c-19.9,10.7-36.1,37.2-36.1,58.5V373H25V22h460L484.9,373L484.9,373z M167.9,210.8c5.6,24.9,19.3,46.5,38.7,60.6
		c0.3,4.2,3.1,8.7,7.6,11.3c6.1,3.7,13.1,2.5,15.4-2.5c2.3-5-0.9-12.1-7-15.7c-3.8-2.2-7.7-2.5-10.9-1.3
		c-16.8-12.1-29.1-30.6-34.6-52c5.6-1.9,9.7-7.9,9.7-14.9v-6.9c7.5,42.9,35.1,82.7,68.1,82.7c33,0,60.6-39.8,68-82.7v6.9
		c0,8.7,6.2,15.7,13.9,15.7c7.6,0,13.8-7,13.8-15.7v-32.8c0-5.5-2.5-10.4-6.4-13.2c-5.1-51.1-43.2-90.8-89.4-90.8
		s-84.2,39.8-89.4,90.8c-3.8,2.8-6.4,7.7-6.4,13.2v32.8C159.2,202.8,162.8,208.5,167.9,210.8L167.9,210.8z M255,69.5
		c40.6,0,74.1,34.1,80.1,78.4c-4.6,0.7-8.4,4-10.5,8.4c-4-43.6-33.6-66.7-69.6-66.7c-35.9,0-65.5,23.1-69.6,66.7
		c-1.5-3.2-3.8-5.9-6.9-7.3c-0.5-1-1.3-1.8-2.2-2.2c-0.5-0.3-0.9-0.3-1.3-0.3C181.5,102.8,214.9,69.5,255,69.5L255,69.5z M267,403.5
		c0,6.9-5.4,12.5-12,12.5s-12-5.6-12-12.5s5.4-12.5,12-12.5S267,396.6,267,403.5z M265.2,403.5c0,5.8-4.5,10.5-10.1,10.5
		s-10.1-4.7-10.1-10.5s4.5-10.5,10.1-10.5S265.2,397.7,265.2,403.5z"/>
</g>
<g id="Capa_8" class="st0">
	<g class="st1">
		<path d="M354.9,322.8c32.7-33.8,53.6-81.6,53.6-127.2c0-82.9-68.5-150.2-153.1-150.2c-84.6,0-153.2,67.3-153.2,150.2
			c0,20.5,4.4,41.3,12,61.2c18.8,41.6,55.7,73.8,102.5,85.6c9.3-11.2,23.2-18,38.7-18c27.5,0,49.8,22,49.8,48.9
			c0,26.9-22.4,48.8-49.8,48.8c-19.7,0-37-11.2-45.1-27.9c-40.2-8.7-75.4-28.5-102.8-55.6C47.1,363.9,8,404.2,8,449.6
			c0,76.5,494.7,76.5,494.7,0C502.7,392.9,442,344.2,354.9,322.8L354.9,322.8z M354.9,322.8"/>
		<path d="M223.7,379.2c2.8,14.6,15.9,25.7,31.6,25.7c17.9,0,32.2-14.1,32.2-31.5c0-17.4-14.4-31.6-32.1-31.6
			c-13.7,0-25.3,8.4-30,20.2c-80.9-14-142.6-83.2-142.6-166.4c0-93.3,77.4-169.2,172.6-169.2c95.1,0,172.4,75.9,172.4,169.2h17.7
			C445.5,92.7,360.2,9,255.4,9C150.5,9,65.2,92.7,65.2,195.5C65.2,287.7,134,364.4,223.7,379.2L223.7,379.2z M223.7,379.2"/>
	</g>
</g>
<g id="Capa_9" class="st0">
	<path class="st1" d="M466.6,301.1c-10.9-20.2-67.8-38-87.4-43.7c-30.5-55.2-13.9-125-13.9-125c-5.5,19.8-12.3,27.4-12.3,27.4
		c-5.4,35.9-40.7,65.4-40.7,65.4c-0.6,9.7,0.9,17.9,3.6,24.8c-54.5,73-99.1,34.8-121.1,5c4.3-8,6.8-17.8,6.1-29.8
		c0,0-35.3-29.5-40.7-65.4c0,0-2.4-2.7-5.5-9.1c2.1-0.9,4.5-2.6,6.8-5.6c0,0,13.7,49.7,101.6,72.7c0,0-3.3,4.6,4.4,7H290
		c0,0,12.6,0.6,12.6-7.9c0.1-2.5-0.4-9.5-10.5-9.5l-28.5,0.3c0,0-51.9-1.7-98-65.3c0,0-4.9-9.5-8-19.4
		c103.5,4.9,157.6-34.4,159.2-35.7c1.5,4.7,10.6,28.3,40.7,39.1c0,0,1.1-9.7,4.4-10.7c0,0,3.6,1.5,4.8,5.2c0,0,7.9-62.3-26.3-85.6
		l0.2-0.3c-71.4-52.2-152.3-12.5-152.3-12.5c-44.8,24-46.3,68.9-44.3,89.3c-7.4-0.9-15.2,1-13.2,14.8c0,0,8.2,24.9,20.3,25
		c2.7,24.5,3.5,68.3-16.9,105.6c-23.5,8.3-47.1,14.3-47.1,14.3c-25.4,8.1-36.3,20.3-36.3,20.3C13.3,338.1,8.8,441.2,8.8,441.2
		c0.5,23.5,12.7,26,12.7,26c86.8,32.1,222.6,37.7,222.6,37.7c139.6,2.4,241.1-32.9,241.1-32.9c14.8-7.7,15.3-13.8,15.3-13.8
		C510.7,384.3,466.6,301.1,466.6,301.1L466.6,301.1z M466.6,301.1"/>
</g>
</svg>
