<?xml version="1.0" encoding="utf-8"?>
<!-- Generator: Adobe Illustrator 21.0.0, SVG Export Plug-In . SVG Version: 6.00 Build 0)  -->
<svg version="1.1" xmlns="http://www.w3.org/2000/svg" xmlns:xlink="http://www.w3.org/1999/xlink" x="0px" y="0px"
	 viewBox="0 0 512 431" style="enable-background:new 0 0 512 431;" xml:space="preserve">
<style type="text/css">
	.st0{display:none;}
	.st1{display:inline;}
	.st2{fill:#E2E5E7;}
	.st3{fill:#D1D5D5;}
	.st4{fill:#C6CBCB;}
	.st5{fill:#2D404E;}
	.st6{fill:#DF584C;}
	.st7{fill:#212529;}
	.st8{fill:#FAFAFA;}
	.st9{display:inline;fill:#ECE7EA;}
	.st10{display:inline;fill:#1B4145;}
	.st11{display:inline;fill:#6FC5D6;}
	.st12{display:inline;fill:#F14742;}
	.st13{fill:#8B7E7F;}
	.st14{display:inline;fill:#8B7E7F;}
	.st15{display:inline;fill:#9B9B9B;}
	.st16{display:inline;fill:#FAFAFA;}
	.st17{display:inline;fill:#FF2F32;}
	.st18{display:inline;fill:#FFFFFF;}
	.st19{display:inline;fill:#212529;}
	.st20{fill:#002EAD;}
	.st21{fill:#5C6266;}
	.st22{fill:#00253D;}
	.st23{fill:#D5D6DB;}
	.st24{fill:#797D80;}
	.st25{fill:#3D93CC;}
	.st26{fill:#FF2F32;}
	.st27{fill:#A6BA47;}
</style>
<g id="Capa_1" class="st0">
	<g class="st1">
		<path class="st2" d="M512,341.2c0,7.1-5.8,12.9-12.9,12.9H13.6c-7.1,0-12.9-5.8-12.9-12.9V14.8c0-7.1,5.8-12.9,12.9-12.9h485.5
			c7.1,0,12.9,5.8,12.9,12.9V341.2z M512,341.2"/>
		<path class="st3" d="M314.3,354.2h-116c0,0-2.3,38.8-7,47h130.1C316.7,392.9,314.3,354.2,314.3,354.2L314.3,354.2z M314.3,354.2"
			/>
		<path class="st4" d="M332.2,404.4c-7-0.9-10.9-3.2-10.9-3.2H191.3c0,0-3.8,2.4-10.9,3.2c-7,0.9-11.7,1.5-11.7,5H344
			C344,405.8,339.3,405.3,332.2,404.4L332.2,404.4z M332.2,404.4"/>
		<path class="st5" d="M499.1,1.9H13.6C6.5,1.9,0.7,7.7,0.7,14.8V308H512V14.8C512,7.7,506.2,1.9,499.1,1.9L499.1,1.9z M490.8,289.6
			h-469V20.3h469V289.6z M490.8,289.6"/>
		<rect x="21.9" y="20.3" class="st6" width="469" height="269.3"/>
		<path class="st4" d="M314.3,354.2h-116c0,0-0.3,5.8-1,13.3h118.1C314.7,359.9,314.3,354.2,314.3,354.2L314.3,354.2z M314.3,354.2"
			/>
		<path class="st5" d="M264.8,332.2c0,4.6-3.8,8.4-8.4,8.4c-4.6,0-8.4-3.8-8.4-8.4c0-4.6,3.8-8.4,8.4-8.4
			C261.1,323.8,264.8,327.5,264.8,332.2L264.8,332.2z M264.8,332.2"/>
	</g>
	<g class="st1">
		<path class="st7" d="M512,340c0,7.1-5.8,12.9-12.9,12.9H13.6c-7.1,0-12.9-5.8-12.9-12.9V13.6c0-7.1,5.8-12.9,12.9-12.9h485.5
			c7.1,0,12.9,5.8,12.9,12.9V340z M512,340"/>
		<path class="st7" d="M314.3,352.9h-116c0,0-2.3,38.8-7,47h130.1C316.7,391.7,314.3,352.9,314.3,352.9L314.3,352.9z M314.3,352.9"
			/>
		<path class="st7" d="M332.2,403.1c-7-0.9-10.9-3.2-10.9-3.2H191.3c0,0-3.8,2.4-10.9,3.2c-7,0.9-11.7,1.5-11.7,5H344
			C344,404.6,339.3,404,332.2,403.1L332.2,403.1z M332.2,403.1"/>
		<path class="st7" d="M499.1,0.7H13.6C6.5,0.7,0.7,6.5,0.7,13.6v293.1H512V13.6C512,6.5,506.2,0.7,499.1,0.7L499.1,0.7z
			 M490.8,288.4h-469V19h469V288.4z M490.8,288.4"/>
		<rect x="21.9" y="19" class="st8" width="469" height="269.3"/>
		<path class="st7" d="M314.3,352.9h-116c0,0-0.3,5.8-1,13.3h118.1C314.7,358.7,314.3,352.9,314.3,352.9L314.3,352.9z M314.3,352.9"
			/>
		<path class="st8" d="M264.8,330.9c0,4.6-3.8,8.4-8.4,8.4c-4.6,0-8.4-3.8-8.4-8.4c0-4.6,3.8-8.4,8.4-8.4
			C261.1,322.5,264.8,326.3,264.8,330.9L264.8,330.9z M264.8,330.9"/>
	</g>
	<g class="st1">
		<path class="st2" d="M512,341.2c0,7.1-5.8,12.9-12.9,12.9H13.6c-7.1,0-12.9-5.8-12.9-12.9V14.8c0-7.1,5.8-12.9,12.9-12.9h485.5
			c7.1,0,12.9,5.8,12.9,12.9V341.2z M512,341.2"/>
		<path class="st3" d="M314.3,354.2h-116c0,0-2.3,38.8-7,47h130.1C316.7,392.9,314.3,354.2,314.3,354.2L314.3,354.2z M314.3,354.2"
			/>
		<path class="st4" d="M332.2,404.4c-7-0.9-10.9-3.2-10.9-3.2H191.3c0,0-3.8,2.4-10.9,3.2c-7,0.9-11.7,1.5-11.7,5H344
			C344,405.8,339.3,405.3,332.2,404.4L332.2,404.4z M332.2,404.4"/>
		<path class="st5" d="M499.1,1.9H13.6C6.5,1.9,0.7,7.7,0.7,14.8V308H512V14.8C512,7.7,506.2,1.9,499.1,1.9L499.1,1.9z M490.8,289.6
			h-469V20.3h469V289.6z M490.8,289.6"/>
		<rect x="21.9" y="20.3" class="st6" width="469" height="269.3"/>
		<path class="st4" d="M314.3,354.2h-116c0,0-0.3,5.8-1,13.3h118.1C314.7,359.9,314.3,354.2,314.3,354.2L314.3,354.2z M314.3,354.2"
			/>
		<path class="st5" d="M264.8,332.2c0,4.6-3.8,8.4-8.4,8.4c-4.6,0-8.4-3.8-8.4-8.4c0-4.6,3.8-8.4,8.4-8.4
			C261.1,323.8,264.8,327.5,264.8,332.2L264.8,332.2z M264.8,332.2"/>
	</g>
	<g class="st1">
		<path class="st7" d="M512,340c0,7.1-5.8,12.9-12.9,12.9H13.6c-7.1,0-12.9-5.8-12.9-12.9V13.6c0-7.1,5.8-12.9,12.9-12.9h485.5
			c7.1,0,12.9,5.8,12.9,12.9V340z M512,340"/>
		<path class="st7" d="M314.3,352.9h-116c0,0-2.3,38.8-7,47h130.1C316.7,391.7,314.3,352.9,314.3,352.9L314.3,352.9z M314.3,352.9"
			/>
		<path class="st7" d="M332.2,403.1c-7-0.9-10.9-3.2-10.9-3.2H191.3c0,0-3.8,2.4-10.9,3.2c-7,0.9-11.7,1.5-11.7,5H344
			C344,404.6,339.3,404,332.2,403.1L332.2,403.1z M332.2,403.1"/>
		<path class="st7" d="M499.1,0.7H13.6C6.5,0.7,0.7,6.5,0.7,13.6v293.1H512V13.6C512,6.5,506.2,0.7,499.1,0.7L499.1,0.7z
			 M490.8,288.4h-469V19h469V288.4z M490.8,288.4"/>
		<rect x="21.9" y="19" class="st8" width="469" height="269.3"/>
		<path class="st7" d="M314.3,352.9h-116c0,0-0.3,5.8-1,13.3h118.1C314.7,358.7,314.3,352.9,314.3,352.9L314.3,352.9z M314.3,352.9"
			/>
		<path class="st8" d="M264.8,330.9c0,4.6-3.8,8.4-8.4,8.4c-4.6,0-8.4-3.8-8.4-8.4c0-4.6,3.8-8.4,8.4-8.4
			C261.1,322.5,264.8,326.3,264.8,330.9L264.8,330.9z M264.8,330.9"/>
	</g>
	<polygon class="st9" points="490.8,51 490.8,288.4 21.6,288.4 21.6,51 256.2,38.2 	"/>
	<rect x="21.9" y="19" class="st10" width="469" height="31.9"/>
	<ellipse class="st11" cx="420.3" cy="35" rx="7.8" ry="4.8"/>
	<ellipse class="st12" cx="456.9" cy="35" rx="7.8" ry="4.8"/>
	<ellipse class="st11" cx="383.7" cy="35" rx="7.8" ry="4.8"/>
	<g class="st1">
		<path class="st13" d="M428.1,122.8H83.3c-4.3,0-7.8-2.1-7.8-4.8s3.5-4.8,7.8-4.8h344.8c4.3,0,7.8,2.1,7.8,4.8
			S432.5,122.8,428.1,122.8z"/>
		<path class="st13" d="M428.1,97.3H83.3c-4.3,0-7.8-2.1-7.8-4.8s3.5-4.8,7.8-4.8h344.8c4.3,0,7.8,2.1,7.8,4.8
			S432.5,97.3,428.1,97.3z"/>
		<path class="st13" d="M234.8,173.9H83.3c-4.3,0-7.8-2.1-7.8-4.8c0-2.6,3.5-4.8,7.8-4.8h151.5c4.3,0,7.8,2.1,7.8,4.8
			C242.7,171.7,239.2,173.9,234.8,173.9z"/>
		<path class="st13" d="M234.8,148.3H83.3c-4.3,0-7.8-2.1-7.8-4.8s3.5-4.8,7.8-4.8h151.5c4.3,0,7.8,2.1,7.8,4.8
			S239.2,148.3,234.8,148.3z"/>
		<path class="st13" d="M234.8,199.4H83.3c-4.3,0-7.8-2.1-7.8-4.8c0-2.6,3.5-4.8,7.8-4.8h151.5c4.3,0,7.8,2.1,7.8,4.8
			C242.7,197.3,239.2,199.4,234.8,199.4z"/>
		<path class="st13" d="M234.8,225H83.3c-4.3,0-7.8-2.1-7.8-4.8c0-2.6,3.5-4.8,7.8-4.8h151.5c4.3,0,7.8,2.1,7.8,4.8
			C242.7,222.8,239.2,225,234.8,225z"/>
	</g>
	<path class="st12" d="M292.3,143.6h120.1c8.7,0,15.7,4.3,15.7,9.6v83c0,5.3-7,9.6-15.7,9.6H292.3c-8.7,0-15.7-4.3-15.7-9.6v-83
		C276.6,147.9,283.7,143.6,292.3,143.6z"/>
	<path class="st14" d="M234.8,250.5H83.3c-4.3,0-7.8-2.1-7.8-4.8c0-2.6,3.5-4.8,7.8-4.8h151.5c4.3,0,7.8,2.1,7.8,4.8
		C242.7,248.4,239.2,250.5,234.8,250.5z"/>
</g>
<g id="Capa_2" class="st0">
	<g class="st1">
		<path class="st2" d="M511.6,341.6c0,7.1-5.8,12.9-12.9,12.9H13.3c-7.1,0-12.9-5.8-12.9-12.9V15.2C0.4,8,6.1,2.2,13.3,2.2h485.5
			c7.1,0,12.9,5.8,12.9,12.9V341.6z M511.6,341.6"/>
		<path class="st3" d="M314,354.5H198c0,0-2.3,38.8-7,47H321C316.3,393.2,314,354.5,314,354.5L314,354.5z M314,354.5"/>
		<path class="st4" d="M331.9,404.7c-7-0.9-10.9-3.2-10.9-3.2H191c0,0-3.8,2.4-10.9,3.2c-7,0.9-11.7,1.5-11.7,5h175.3
			C343.6,406.2,338.9,405.6,331.9,404.7L331.9,404.7z M331.9,404.7"/>
		<path class="st5" d="M498.7,2.2H13.3C6.1,2.2,0.4,8,0.4,15.2v293.1h511.3V15.2C511.6,8,505.9,2.2,498.7,2.2L498.7,2.2z
			 M490.5,289.9h-469V20.6h469V289.9z M490.5,289.9"/>
		<rect x="21.5" y="20.6" class="st6" width="469" height="269.3"/>
		<path class="st4" d="M314,354.5H198c0,0-0.3,5.8-1,13.3H315C314.3,360.3,314,354.5,314,354.5L314,354.5z M314,354.5"/>
		<path class="st5" d="M264.5,332.5c0,4.6-3.8,8.4-8.4,8.4c-4.6,0-8.4-3.8-8.4-8.4c0-4.6,3.8-8.4,8.4-8.4
			C260.7,324.1,264.5,327.8,264.5,332.5L264.5,332.5z M264.5,332.5"/>
	</g>
	<g class="st1">
		<path class="st7" d="M512,340.3c0,7.1-5.8,12.9-12.9,12.9H13.3c-7.1,0-12.9-5.8-12.9-12.9V13.9C0.4,6.8,6.1,1,13.3,1h485.8
			c7.1,0,12.9,5.8,12.9,12.9V340.3z M512,340.3"/>
		<path class="st7" d="M314.2,353.2H198.1c0,0-2.3,38.8-7.1,47h130.2C316.6,392,314.2,353.2,314.2,353.2L314.2,353.2z M314.2,353.2"
			/>
		<path class="st7" d="M332.1,403.4c-7.1-0.9-10.9-3.2-10.9-3.2H191.1c0,0-3.8,2.4-10.9,3.2c-7,0.9-11.7,1.5-11.7,5h175.4
			C343.9,404.9,339.2,404.3,332.1,403.4L332.1,403.4z M332.1,403.4"/>
		<path class="st7" d="M499.1,1H13.3C6.1,1,0.4,6.8,0.4,13.9v293.1H512V13.9C512,6.8,506.2,1,499.1,1L499.1,1z M490.8,288.7H21.5
			V19.4h469.3V288.7z M490.8,288.7"/>
		<rect x="21.5" y="19.4" class="st8" width="469.3" height="269.3"/>
		<path class="st7" d="M314.2,353.2H198.1c0,0-0.3,5.8-1,13.3h118.2C314.6,359,314.2,353.2,314.2,353.2L314.2,353.2z M314.2,353.2"
			/>
		<path class="st8" d="M264.6,331.2c0,4.6-3.8,8.4-8.4,8.4c-4.6,0-8.4-3.8-8.4-8.4c0-4.6,3.8-8.4,8.4-8.4
			C260.9,322.8,264.6,326.6,264.6,331.2L264.6,331.2z M264.6,331.2"/>
	</g>
	<polygon class="st15" points="490.8,236.5 490.8,288.7 21.4,288.7 21.4,236.5 256.1,216.9 	"/>
	<rect x="21.4" y="19.1" class="st16" width="469.5" height="217.3"/>
	<ellipse class="st17" cx="256.2" cy="135" rx="48.6" ry="43.4"/>
	<polygon class="st18" points="240.2,110.1 288.5,135 240.2,159.9 	"/>
	<path class="st9" d="M449.1,267.5h-386c-4.3,0-7.8-2.2-7.8-4.9s3.5-4.9,7.8-4.9h386c4.3,0,7.8,2.2,7.8,4.9S453.4,267.5,449.1,267.5
		z"/>
	<ellipse class="st19" cx="63.5" cy="262.6" rx="9.2" ry="5.7"/>
</g>
<g id="Capa_3">
	<g>
		<path class="st7" d="M512,352.3c0,7.1-5.8,12.9-12.9,12.9H13.3c-7.1,0-12.9-5.8-12.9-12.9V25.9C0.4,18.8,6.1,13,13.3,13h485.8
			c7.1,0,12.9,5.8,12.9,12.9V352.3z M512,352.3"/>
		<path class="st7" d="M314.2,365.2H198.1c0,0-2.3,38.8-7.1,47h130.2C316.6,404,314.2,365.2,314.2,365.2L314.2,365.2z M314.2,365.2"
			/>
		<path class="st7" d="M332.1,415.4c-7.1-0.9-10.9-3.2-10.9-3.2H191.1c0,0-3.8,2.4-10.9,3.2c-7,0.9-11.7,1.5-11.7,5h175.4
			C343.9,416.9,339.2,416.3,332.1,415.4L332.1,415.4z M332.1,415.4"/>
		<path class="st7" d="M499.1,13H13.3C6.1,13,0.4,18.8,0.4,25.9v293.1H512V25.9C512,18.8,506.2,13,499.1,13L499.1,13z M490.8,300.7
			H21.5V31.4h469.3V300.7z M490.8,300.7"/>
		<rect x="21.5" y="31.4" class="st8" width="469.3" height="269.3"/>
		<path class="st7" d="M314.2,365.2H198.1c0,0-0.3,5.8-1,13.3h118.2C314.6,371,314.2,365.2,314.2,365.2L314.2,365.2z M314.2,365.2"
			/>
		<path class="st8" d="M264.6,343.2c0,4.6-3.8,8.4-8.4,8.4c-4.6,0-8.4-3.8-8.4-8.4c0-4.6,3.8-8.4,8.4-8.4
			C260.9,334.8,264.6,338.6,264.6,343.2L264.6,343.2z M264.6,343.2"/>
	</g>
	<path class="st20" d="M401.2,0.7H126.9c-7.1,0-12.8,5.7-12.8,12.8v43.2h300V13.5C414.1,6.4,408.3,0.7,401.2,0.7z"/>
	<path class="st21" d="M114.1,56.7v231.1c0,7.1,5.7,12.8,12.8,12.8h274.4c7.1,0,12.8-5.7,12.8-12.8V56.7L114.1,56.7L114.1,56.7z"/>
	<path class="st8" d="M114.1,56.7V277c0,7.1,5.7,12.8,12.8,12.8h274.4c7.1,0,12.8-5.7,12.8-12.8V56.7H114.1z"/>
	<circle class="st22" cx="150.3" cy="43.1" r="7.8"/>
	<circle class="st23" cx="150.3" cy="70.4" r="7.9"/>
	<path class="st7" d="M150.3,38c-3,0-5.4,2.4-5.4,5.4v26.8c0,3,2.4,5.4,5.4,5.4c3,0,5.4-2.4,5.4-5.4V43.4
		C155.7,40.4,153.3,38,150.3,38z"/>
	<circle class="st22" cx="377.8" cy="43.1" r="7.8"/>
	<circle class="st23" cx="377.8" cy="70.4" r="7.8"/>
	<path class="st7" d="M377.8,38c-3,0-5.4,2.4-5.4,5.4v26.8c0,3,2.4,5.4,5.4,5.4c3,0,5.4-2.4,5.4-5.4V43.4
		C383.2,40.4,380.8,38,377.8,38z"/>
	<circle class="st22" cx="302" cy="43.1" r="7.8"/>
	<circle class="st23" cx="302" cy="70.4" r="7.8"/>
	<path class="st7" d="M302,38c-3,0-5.4,2.4-5.4,5.4v26.8c0,3,2.4,5.4,5.4,5.4c3,0,5.4-2.4,5.4-5.4V43.4C307.4,40.4,305,38,302,38z"
		/>
	<circle class="st22" cx="226.2" cy="43.1" r="7.8"/>
	<circle class="st23" cx="226.2" cy="70.4" r="7.9"/>
	<path class="st7" d="M226.2,38c-3,0-5.4,2.4-5.4,5.4v26.8c0,3,2.4,5.4,5.4,5.4c3,0,5.4-2.4,5.4-5.4V43.4
		C231.6,40.4,229.1,38,226.2,38z"/>
	<path class="st24" d="M230.7,104.1h19c2.8,0,5,2.2,5,5v19c0,2.8-2.2,5-5,5h-19c-2.8,0-5-2.2-5-5v-19
		C225.7,106.3,227.9,104.1,230.7,104.1z"/>
	<path class="st25" d="M278.4,104.1h19c2.8,0,5,2.2,5,5v19.1c0,2.8-2.2,5-5,5h-19c-2.8,0-5-2.2-5-5v-19.1
		C273.4,106.3,275.6,104.1,278.4,104.1z"/>
	<path class="st24" d="M326.1,104.1h19c2.8,0,5,2.2,5,5v19c0,2.8-2.2,5-5,5h-19c-2.8,0-5-2.2-5-5v-19
		C321.1,106.3,323.3,104.1,326.1,104.1z"/>
	<path class="st26" d="M373.8,104.1h19c2.8,0,5,2.2,5,5v19c0,2.8-2.2,5-5,5h-19c-2.8,0-5-2.2-5-5v-19
		C368.8,106.3,371,104.1,373.8,104.1z"/>
	<g>
		<path class="st24" d="M135.3,149.7h19c2.8,0,5,2.2,5,5v19c0,2.8-2.2,5-5,5h-19c-2.8,0-5-2.2-5-5v-19
			C130.3,151.9,132.5,149.7,135.3,149.7z"/>
		<path class="st24" d="M183,149.7h19c2.8,0,5,2.2,5,5v19c0,2.8-2.2,5-5,5h-19c-2.8,0-5-2.2-5-5v-19
			C178,151.9,180.2,149.7,183,149.7z"/>
		<path class="st24" d="M230.7,149.7h19c2.8,0,5,2.2,5,5v19c0,2.8-2.2,5-5,5h-19c-2.8,0-5-2.2-5-5v-19
			C225.7,151.9,227.9,149.7,230.7,149.7z"/>
	</g>
	<path class="st27" d="M278.4,149.7h19c2.8,0,5,2.2,5,5v19c0,2.8-2.2,5-5,5h-19c-2.8,0-5-2.2-5-5v-19
		C273.4,151.9,275.6,149.7,278.4,149.7z"/>
	<path class="st24" d="M326.1,149.7h19c2.8,0,5,2.2,5,5v19c0,2.8-2.2,5-5,5h-19c-2.8,0-5-2.2-5-5v-19
		C321.1,151.9,323.3,149.7,326.1,149.7z"/>
	<path class="st25" d="M373.8,149.7h19.1c2.8,0,5,2.2,5,5v19.1c0,2.8-2.2,5-5,5h-19.1c-2.8,0-5-2.2-5-5v-19.1
		C368.8,151.9,371,149.7,373.8,149.7z"/>
	<g>
		<path class="st24" d="M135.3,195.3h19c2.8,0,5,2.2,5,5v19c0,2.8-2.2,5-5,5h-19c-2.8,0-5-2.2-5-5v-19
			C130.3,197.5,132.5,195.3,135.3,195.3z"/>
		<path class="st24" d="M183,195.3h19c2.8,0,5,2.2,5,5v19c0,2.8-2.2,5-5,5h-19c-2.8,0-5-2.2-5-5v-19
			C178,197.5,180.2,195.3,183,195.3z"/>
		<path class="st24" d="M230.7,195.3h19c2.8,0,5,2.2,5,5v19c0,2.8-2.2,5-5,5h-19c-2.8,0-5-2.2-5-5v-19
			C225.7,197.5,227.9,195.3,230.7,195.3z"/>
	</g>
	<path class="st25" d="M278.4,195.3h19c2.8,0,5,2.2,5,5v19.1c0,2.8-2.2,5-5,5h-19c-2.8,0-5-2.2-5-5v-19.1
		C273.4,197.5,275.6,195.3,278.4,195.3z"/>
	<path class="st24" d="M326.1,195.3h19c2.8,0,5,2.2,5,5v19c0,2.8-2.2,5-5,5h-19c-2.8,0-5-2.2-5-5v-19
		C321.1,197.5,323.3,195.3,326.1,195.3z"/>
	<path class="st26" d="M373.8,195.3h19c2.8,0,5,2.2,5,5v19c0,2.8-2.2,5-5,5h-19c-2.8,0-5-2.2-5-5v-19
		C368.8,197.5,371,195.3,373.8,195.3z"/>
	<g>
		<path class="st24" d="M135.3,240.9h19c2.8,0,5,2.2,5,5v19c0,2.8-2.2,5-5,5h-19c-2.8,0-5-2.2-5-5v-19
			C130.3,243.1,132.5,240.9,135.3,240.9z"/>
		<path class="st24" d="M183,240.9h19c2.8,0,5,2.2,5,5v19c0,2.8-2.2,5-5,5h-19c-2.8,0-5-2.2-5-5v-19
			C178,243.1,180.2,240.9,183,240.9z"/>
		<path class="st24" d="M230.7,240.9h19c2.8,0,5,2.2,5,5v19c0,2.8-2.2,5-5,5h-19c-2.8,0-5-2.2-5-5v-19
			C225.7,243.1,227.9,240.9,230.7,240.9z"/>
	</g>
</g>
</svg>
