<?xml version="1.0" encoding="utf-8"?>
<!-- Generator: Adobe Illustrator 21.0.0, SVG Export Plug-In . SVG Version: 6.00 Build 0)  -->
<svg version="1.1" xmlns="http://www.w3.org/2000/svg" xmlns:xlink="http://www.w3.org/1999/xlink" x="0px" y="0px"
	 viewBox="0 0 430 343" style="enable-background:new 0 0 430 343;" xml:space="preserve">
<style type="text/css">
	.st0{display:none;}
	.st1{display:inline;}
	.st2{fill:#E2E5E7;}
	.st3{fill:#D1D5D5;}
	.st4{fill:#C6CBCB;}
	.st5{fill:#2D404E;}
	.st6{fill:#DF584C;}
	.st7{fill:#212529;}
	.st8{fill:#FAFAFA;}
	.st9{display:inline;fill:#ECE7EA;}
	.st10{display:inline;fill:#1B4145;}
	.st11{display:inline;fill:#6FC5D6;}
	.st12{display:inline;fill:#F14742;}
	.st13{fill:#8B7E7F;}
	.st14{display:inline;fill:#8B7E7F;}
	.st15{display:inline;fill:#9B9B9B;}
	.st16{display:inline;fill:#FAFAFA;}
	.st17{display:inline;fill:#FF2F32;}
	.st18{display:inline;fill:#FFFFFF;}
	.st19{display:inline;fill:#212529;}
	.st20{display:inline;fill:#002EAD;}
	.st21{display:inline;fill:#5C6266;}
	.st22{display:inline;fill:#00253D;}
	.st23{display:inline;fill:#D5D6DB;}
	.st24{display:inline;fill:#797D80;}
	.st25{display:inline;fill:#3D93CC;}
	.st26{fill:#797D80;}
	.st27{display:inline;fill:#A6BA47;}
	.st28{fill:#DAE1E6;}
	.st29{fill:#002E4D;}
	.st30{fill:#565656;}
	.st31{fill:#FFFFFF;}
	.st32{font-family:'Rockwell';}
	.st33{font-size:21.5065px;}
</style>
<g id="Capa_1" class="st0">
	<g class="st1">
		<path class="st2" d="M512,341.2c0,7.1-5.8,12.9-12.9,12.9H13.6c-7.1,0-12.9-5.8-12.9-12.9V14.8c0-7.1,5.8-12.9,12.9-12.9h485.5
			c7.1,0,12.9,5.8,12.9,12.9V341.2z M512,341.2"/>
		<path class="st3" d="M314.3,354.2h-116c0,0-2.3,38.8-7,47h130.1C316.7,392.9,314.3,354.2,314.3,354.2L314.3,354.2z M314.3,354.2"
			/>
		<path class="st4" d="M332.2,404.4c-7-0.9-10.9-3.2-10.9-3.2H191.3c0,0-3.8,2.4-10.9,3.2c-7,0.9-11.7,1.5-11.7,5H344
			C344,405.8,339.3,405.3,332.2,404.4L332.2,404.4z M332.2,404.4"/>
		<path class="st5" d="M499.1,1.9H13.6C6.5,1.9,0.7,7.7,0.7,14.8V308H512V14.8C512,7.7,506.2,1.9,499.1,1.9L499.1,1.9z M490.8,289.6
			h-469V20.3h469V289.6z M490.8,289.6"/>
		<rect x="21.9" y="20.3" class="st6" width="469" height="269.3"/>
		<path class="st4" d="M314.3,354.2h-116c0,0-0.3,5.8-1,13.3h118.1C314.7,359.9,314.3,354.2,314.3,354.2L314.3,354.2z M314.3,354.2"
			/>
		<path class="st5" d="M264.8,332.2c0,4.6-3.8,8.4-8.4,8.4c-4.6,0-8.4-3.8-8.4-8.4c0-4.6,3.8-8.4,8.4-8.4
			C261.1,323.8,264.8,327.5,264.8,332.2L264.8,332.2z M264.8,332.2"/>
	</g>
	<g class="st1">
		<path class="st7" d="M512,340c0,7.1-5.8,12.9-12.9,12.9H13.6c-7.1,0-12.9-5.8-12.9-12.9V13.6c0-7.1,5.8-12.9,12.9-12.9h485.5
			c7.1,0,12.9,5.8,12.9,12.9V340z M512,340"/>
		<path class="st7" d="M314.3,352.9h-116c0,0-2.3,38.8-7,47h130.1C316.7,391.7,314.3,352.9,314.3,352.9L314.3,352.9z M314.3,352.9"
			/>
		<path class="st7" d="M332.2,403.1c-7-0.9-10.9-3.2-10.9-3.2H191.3c0,0-3.8,2.4-10.9,3.2c-7,0.9-11.7,1.5-11.7,5H344
			C344,404.6,339.3,404,332.2,403.1L332.2,403.1z M332.2,403.1"/>
		<path class="st7" d="M499.1,0.7H13.6C6.5,0.7,0.7,6.5,0.7,13.6v293.1H512V13.6C512,6.5,506.2,0.7,499.1,0.7L499.1,0.7z
			 M490.8,288.4h-469V19h469V288.4z M490.8,288.4"/>
		<rect x="21.9" y="19" class="st8" width="469" height="269.3"/>
		<path class="st7" d="M314.3,352.9h-116c0,0-0.3,5.8-1,13.3h118.1C314.7,358.7,314.3,352.9,314.3,352.9L314.3,352.9z M314.3,352.9"
			/>
		<path class="st8" d="M264.8,330.9c0,4.6-3.8,8.4-8.4,8.4c-4.6,0-8.4-3.8-8.4-8.4c0-4.6,3.8-8.4,8.4-8.4
			C261.1,322.5,264.8,326.3,264.8,330.9L264.8,330.9z M264.8,330.9"/>
	</g>
	<g class="st1">
		<path class="st2" d="M512,341.2c0,7.1-5.8,12.9-12.9,12.9H13.6c-7.1,0-12.9-5.8-12.9-12.9V14.8c0-7.1,5.8-12.9,12.9-12.9h485.5
			c7.1,0,12.9,5.8,12.9,12.9V341.2z M512,341.2"/>
		<path class="st3" d="M314.3,354.2h-116c0,0-2.3,38.8-7,47h130.1C316.7,392.9,314.3,354.2,314.3,354.2L314.3,354.2z M314.3,354.2"
			/>
		<path class="st4" d="M332.2,404.4c-7-0.9-10.9-3.2-10.9-3.2H191.3c0,0-3.8,2.4-10.9,3.2c-7,0.9-11.7,1.5-11.7,5H344
			C344,405.8,339.3,405.3,332.2,404.4L332.2,404.4z M332.2,404.4"/>
		<path class="st5" d="M499.1,1.9H13.6C6.5,1.9,0.7,7.7,0.7,14.8V308H512V14.8C512,7.7,506.2,1.9,499.1,1.9L499.1,1.9z M490.8,289.6
			h-469V20.3h469V289.6z M490.8,289.6"/>
		<rect x="21.9" y="20.3" class="st6" width="469" height="269.3"/>
		<path class="st4" d="M314.3,354.2h-116c0,0-0.3,5.8-1,13.3h118.1C314.7,359.9,314.3,354.2,314.3,354.2L314.3,354.2z M314.3,354.2"
			/>
		<path class="st5" d="M264.8,332.2c0,4.6-3.8,8.4-8.4,8.4c-4.6,0-8.4-3.8-8.4-8.4c0-4.6,3.8-8.4,8.4-8.4
			C261.1,323.8,264.8,327.5,264.8,332.2L264.8,332.2z M264.8,332.2"/>
	</g>
	<g class="st1">
		<path class="st7" d="M512,340c0,7.1-5.8,12.9-12.9,12.9H13.6c-7.1,0-12.9-5.8-12.9-12.9V13.6c0-7.1,5.8-12.9,12.9-12.9h485.5
			c7.1,0,12.9,5.8,12.9,12.9V340z M512,340"/>
		<path class="st7" d="M314.3,352.9h-116c0,0-2.3,38.8-7,47h130.1C316.7,391.7,314.3,352.9,314.3,352.9L314.3,352.9z M314.3,352.9"
			/>
		<path class="st7" d="M332.2,403.1c-7-0.9-10.9-3.2-10.9-3.2H191.3c0,0-3.8,2.4-10.9,3.2c-7,0.9-11.7,1.5-11.7,5H344
			C344,404.6,339.3,404,332.2,403.1L332.2,403.1z M332.2,403.1"/>
		<path class="st7" d="M499.1,0.7H13.6C6.5,0.7,0.7,6.5,0.7,13.6v293.1H512V13.6C512,6.5,506.2,0.7,499.1,0.7L499.1,0.7z
			 M490.8,288.4h-469V19h469V288.4z M490.8,288.4"/>
		<rect x="21.9" y="19" class="st8" width="469" height="269.3"/>
		<path class="st7" d="M314.3,352.9h-116c0,0-0.3,5.8-1,13.3h118.1C314.7,358.7,314.3,352.9,314.3,352.9L314.3,352.9z M314.3,352.9"
			/>
		<path class="st8" d="M264.8,330.9c0,4.6-3.8,8.4-8.4,8.4c-4.6,0-8.4-3.8-8.4-8.4c0-4.6,3.8-8.4,8.4-8.4
			C261.1,322.5,264.8,326.3,264.8,330.9L264.8,330.9z M264.8,330.9"/>
	</g>
	<polygon class="st9" points="490.8,51 490.8,288.4 21.6,288.4 21.6,51 256.2,38.2 	"/>
	<rect x="21.9" y="19" class="st10" width="469" height="31.9"/>
	<ellipse class="st11" cx="420.3" cy="35" rx="7.8" ry="4.8"/>
	<ellipse class="st12" cx="456.9" cy="35" rx="7.8" ry="4.8"/>
	<ellipse class="st11" cx="383.7" cy="35" rx="7.8" ry="4.8"/>
	<g class="st1">
		<path class="st13" d="M428.1,122.8H83.3c-4.3,0-7.8-2.1-7.8-4.8s3.5-4.8,7.8-4.8h344.8c4.3,0,7.8,2.1,7.8,4.8
			S432.5,122.8,428.1,122.8z"/>
		<path class="st13" d="M428.1,97.3H83.3c-4.3,0-7.8-2.1-7.8-4.8s3.5-4.8,7.8-4.8h344.8c4.3,0,7.8,2.1,7.8,4.8
			S432.5,97.3,428.1,97.3z"/>
		<path class="st13" d="M234.8,173.9H83.3c-4.3,0-7.8-2.1-7.8-4.8c0-2.6,3.5-4.8,7.8-4.8h151.5c4.3,0,7.8,2.1,7.8,4.8
			C242.7,171.7,239.2,173.9,234.8,173.9z"/>
		<path class="st13" d="M234.8,148.3H83.3c-4.3,0-7.8-2.1-7.8-4.8s3.5-4.8,7.8-4.8h151.5c4.3,0,7.8,2.1,7.8,4.8
			S239.2,148.3,234.8,148.3z"/>
		<path class="st13" d="M234.8,199.4H83.3c-4.3,0-7.8-2.1-7.8-4.8c0-2.6,3.5-4.8,7.8-4.8h151.5c4.3,0,7.8,2.1,7.8,4.8
			C242.7,197.3,239.2,199.4,234.8,199.4z"/>
		<path class="st13" d="M234.8,225H83.3c-4.3,0-7.8-2.1-7.8-4.8c0-2.6,3.5-4.8,7.8-4.8h151.5c4.3,0,7.8,2.1,7.8,4.8
			C242.7,222.8,239.2,225,234.8,225z"/>
	</g>
	<path class="st12" d="M292.3,143.6h120.1c8.7,0,15.7,4.3,15.7,9.6v83c0,5.3-7,9.6-15.7,9.6H292.3c-8.7,0-15.7-4.3-15.7-9.6v-83
		C276.6,147.9,283.7,143.6,292.3,143.6z"/>
	<path class="st14" d="M234.8,250.5H83.3c-4.3,0-7.8-2.1-7.8-4.8c0-2.6,3.5-4.8,7.8-4.8h151.5c4.3,0,7.8,2.1,7.8,4.8
		C242.7,248.4,239.2,250.5,234.8,250.5z"/>
</g>
<g id="Capa_2" class="st0">
	<g class="st1">
		<path class="st2" d="M511.6,341.6c0,7.1-5.8,12.9-12.9,12.9H13.3c-7.1,0-12.9-5.8-12.9-12.9V15.2C0.4,8,6.1,2.2,13.3,2.2h485.5
			c7.1,0,12.9,5.8,12.9,12.9V341.6z M511.6,341.6"/>
		<path class="st3" d="M314,354.5H198c0,0-2.3,38.8-7,47H321C316.3,393.2,314,354.5,314,354.5L314,354.5z M314,354.5"/>
		<path class="st4" d="M331.9,404.7c-7-0.9-10.9-3.2-10.9-3.2H191c0,0-3.8,2.4-10.9,3.2c-7,0.9-11.7,1.5-11.7,5h175.3
			C343.6,406.2,338.9,405.6,331.9,404.7L331.9,404.7z M331.9,404.7"/>
		<path class="st5" d="M498.7,2.2H13.3C6.1,2.2,0.4,8,0.4,15.2v293.1h511.3V15.2C511.6,8,505.9,2.2,498.7,2.2L498.7,2.2z
			 M490.5,289.9h-469V20.6h469V289.9z M490.5,289.9"/>
		<rect x="21.5" y="20.6" class="st6" width="469" height="269.3"/>
		<path class="st4" d="M314,354.5H198c0,0-0.3,5.8-1,13.3H315C314.3,360.3,314,354.5,314,354.5L314,354.5z M314,354.5"/>
		<path class="st5" d="M264.5,332.5c0,4.6-3.8,8.4-8.4,8.4c-4.6,0-8.4-3.8-8.4-8.4c0-4.6,3.8-8.4,8.4-8.4
			C260.7,324.1,264.5,327.8,264.5,332.5L264.5,332.5z M264.5,332.5"/>
	</g>
	<g class="st1">
		<path class="st7" d="M512,340.3c0,7.1-5.8,12.9-12.9,12.9H13.3c-7.1,0-12.9-5.8-12.9-12.9V13.9C0.4,6.8,6.1,1,13.3,1h485.8
			c7.1,0,12.9,5.8,12.9,12.9V340.3z M512,340.3"/>
		<path class="st7" d="M314.2,353.2H198.1c0,0-2.3,38.8-7.1,47h130.2C316.6,392,314.2,353.2,314.2,353.2L314.2,353.2z M314.2,353.2"
			/>
		<path class="st7" d="M332.1,403.4c-7.1-0.9-10.9-3.2-10.9-3.2H191.1c0,0-3.8,2.4-10.9,3.2c-7,0.9-11.7,1.5-11.7,5h175.4
			C343.9,404.9,339.2,404.3,332.1,403.4L332.1,403.4z M332.1,403.4"/>
		<path class="st7" d="M499.1,1H13.3C6.1,1,0.4,6.8,0.4,13.9v293.1H512V13.9C512,6.8,506.2,1,499.1,1L499.1,1z M490.8,288.7H21.5
			V19.4h469.3V288.7z M490.8,288.7"/>
		<rect x="21.5" y="19.4" class="st8" width="469.3" height="269.3"/>
		<path class="st7" d="M314.2,353.2H198.1c0,0-0.3,5.8-1,13.3h118.2C314.6,359,314.2,353.2,314.2,353.2L314.2,353.2z M314.2,353.2"
			/>
		<path class="st8" d="M264.6,331.2c0,4.6-3.8,8.4-8.4,8.4c-4.6,0-8.4-3.8-8.4-8.4c0-4.6,3.8-8.4,8.4-8.4
			C260.9,322.8,264.6,326.6,264.6,331.2L264.6,331.2z M264.6,331.2"/>
	</g>
	<polygon class="st15" points="490.8,236.5 490.8,288.7 21.4,288.7 21.4,236.5 256.1,216.9 	"/>
	<rect x="21.4" y="19.1" class="st16" width="469.5" height="217.3"/>
	<ellipse class="st17" cx="256.2" cy="135" rx="48.6" ry="43.4"/>
	<polygon class="st18" points="240.2,110.1 288.5,135 240.2,159.9 	"/>
	<path class="st9" d="M449.1,267.5h-386c-4.3,0-7.8-2.2-7.8-4.9s3.5-4.9,7.8-4.9h386c4.3,0,7.8,2.2,7.8,4.9S453.4,267.5,449.1,267.5
		z"/>
	<ellipse class="st19" cx="63.5" cy="262.6" rx="9.2" ry="5.7"/>
</g>
<g id="Capa_3" class="st0">
	<g>
		<path class="st19" d="M512,352.3c0,7.1-5.8,12.9-12.9,12.9H13.3c-7.1,0-12.9-5.8-12.9-12.9V25.9C0.4,18.8,6.1,13,13.3,13h485.8
			c7.1,0,12.9,5.8,12.9,12.9V352.3z M512,352.3"/>
		<path class="st19" d="M314.2,365.2H198.1c0,0-2.3,38.8-7.1,47h130.2C316.6,404,314.2,365.2,314.2,365.2L314.2,365.2z M314.2,365.2
			"/>
		<path class="st19" d="M332.1,415.4c-7.1-0.9-10.9-3.2-10.9-3.2H191.1c0,0-3.8,2.4-10.9,3.2c-7,0.9-11.7,1.5-11.7,5h175.4
			C343.9,416.9,339.2,416.3,332.1,415.4L332.1,415.4z M332.1,415.4"/>
		<path class="st19" d="M499.1,13H13.3C6.1,13,0.4,18.8,0.4,25.9v293.1H512V25.9C512,18.8,506.2,13,499.1,13L499.1,13z M490.8,300.7
			H21.5V31.4h469.3V300.7z M490.8,300.7"/>
		<rect x="21.5" y="31.4" class="st16" width="469.3" height="269.3"/>
		<path class="st19" d="M314.2,365.2H198.1c0,0-0.3,5.8-1,13.3h118.2C314.6,371,314.2,365.2,314.2,365.2L314.2,365.2z M314.2,365.2"
			/>
		<path class="st16" d="M264.6,343.2c0,4.6-3.8,8.4-8.4,8.4c-4.6,0-8.4-3.8-8.4-8.4c0-4.6,3.8-8.4,8.4-8.4
			C260.9,334.8,264.6,338.6,264.6,343.2L264.6,343.2z M264.6,343.2"/>
	</g>
	<path class="st20" d="M412,0.7H18.4C8.3,0.7,0.1,8.9,0.1,19.1v62h430.3v-62C430.4,8.9,422.1,0.7,412,0.7z"/>
	<path class="st21" d="M0.1,81.1v331.5c0,10.2,8.2,18.4,18.4,18.4H412c10.2,0,18.4-8.2,18.4-18.4V81.1L0.1,81.1L0.1,81.1z"/>
	<path class="st16" d="M0.1,81.1V397c0,10.2,8.2,18.4,18.4,18.4H412c10.2,0,18.4-8.2,18.4-18.4V81.1H0.1z"/>
	<circle class="st22" cx="52.1" cy="61.5" r="11.3"/>
	<circle class="st23" cx="52.1" cy="100.7" r="11.3"/>
	<path class="st19" d="M52.1,54.1c-4.3,0-7.8,3.5-7.8,7.8v38.4c0,4.3,3.5,7.8,7.8,7.8c4.3,0,7.7-3.5,7.7-7.8V61.9
		C59.8,57.6,56.4,54.1,52.1,54.1z"/>
	<circle class="st22" cx="378.4" cy="61.5" r="11.3"/>
	<circle class="st23" cx="378.4" cy="100.7" r="11.3"/>
	<path class="st19" d="M378.4,54.1c-4.3,0-7.8,3.5-7.8,7.8v38.4c0,4.3,3.5,7.8,7.8,7.8c4.3,0,7.8-3.5,7.8-7.8V61.9
		C386.1,57.6,382.6,54.1,378.4,54.1z"/>
	<circle class="st22" cx="269.6" cy="61.5" r="11.3"/>
	<circle class="st23" cx="269.6" cy="100.7" r="11.3"/>
	<path class="st19" d="M269.6,54.1c-4.3,0-7.8,3.5-7.8,7.8v38.4c0,4.3,3.5,7.8,7.8,7.8c4.3,0,7.8-3.5,7.8-7.8V61.9
		C277.4,57.6,273.9,54.1,269.6,54.1z"/>
	<circle class="st22" cx="160.8" cy="61.5" r="11.3"/>
	<circle class="st23" cx="160.8" cy="100.7" r="11.3"/>
	<path class="st19" d="M160.8,54.1c-4.3,0-7.8,3.5-7.8,7.8v38.4c0,4.3,3.5,7.8,7.8,7.8c4.3,0,7.8-3.5,7.8-7.8V61.9
		C168.6,57.6,165.1,54.1,160.8,54.1z"/>
	<path class="st24" d="M167.4,149h27.3c4,0,7.2,3.2,7.2,7.2v27.3c0,4-3.2,7.2-7.2,7.2h-27.3c-4,0-7.2-3.2-7.2-7.2v-27.3
		C160.2,152.2,163.4,149,167.4,149z"/>
	<path class="st25" d="M235.8,149h27.3c4,0,7.2,3.2,7.2,7.2v27.3c0,4-3.2,7.2-7.2,7.2h-27.3c-4,0-7.2-3.2-7.2-7.2v-27.3
		C228.6,152.2,231.8,149,235.8,149z"/>
	<path class="st24" d="M304.2,149h27.3c4,0,7.2,3.2,7.2,7.2v27.3c0,4-3.2,7.2-7.2,7.2h-27.3c-4,0-7.2-3.2-7.2-7.2v-27.3
		C297,152.2,300.2,149,304.2,149z"/>
	<path class="st17" d="M372.6,149h27.3c4,0,7.2,3.2,7.2,7.2v27.3c0,4-3.2,7.2-7.2,7.2h-27.3c-4,0-7.2-3.2-7.2-7.2v-27.3
		C365.4,152.2,368.6,149,372.6,149z"/>
	<g class="st1">
		<path class="st26" d="M30.5,214.4h27.3c4,0,7.2,3.2,7.2,7.2v27.3c0,4-3.2,7.2-7.2,7.2H30.5c-4,0-7.2-3.2-7.2-7.2v-27.3
			C23.4,217.6,26.6,214.4,30.5,214.4z"/>
		<path class="st26" d="M98.9,214.4h27.3c4,0,7.2,3.2,7.2,7.2v27.3c0,4-3.2,7.2-7.2,7.2H98.9c-4,0-7.2-3.2-7.2-7.2v-27.3
			C91.8,217.6,95,214.4,98.9,214.4z"/>
		<path class="st26" d="M167.4,214.4h27.3c4,0,7.2,3.2,7.2,7.2v27.3c0,4-3.2,7.2-7.2,7.2h-27.3c-4,0-7.2-3.2-7.2-7.2v-27.3
			C160.2,217.6,163.4,214.4,167.4,214.4z"/>
	</g>
	<path class="st27" d="M235.8,214.4h27.3c4,0,7.2,3.2,7.2,7.2v27.3c0,4-3.2,7.2-7.2,7.2h-27.3c-4,0-7.2-3.2-7.2-7.2v-27.3
		C228.6,217.6,231.8,214.4,235.8,214.4z"/>
	<path class="st24" d="M304.2,214.4h27.3c4,0,7.2,3.2,7.2,7.2v27.3c0,4-3.2,7.2-7.2,7.2h-27.3c-4,0-7.2-3.2-7.2-7.2v-27.3
		C297,217.6,300.2,214.4,304.2,214.4z"/>
	<path class="st25" d="M372.6,214.4h27.3c4,0,7.2,3.2,7.2,7.2v27.3c0,4-3.2,7.2-7.2,7.2h-27.3c-4,0-7.2-3.2-7.2-7.2v-27.3
		C365.4,217.6,368.6,214.4,372.6,214.4z"/>
	<g class="st1">
		<path class="st26" d="M30.5,279.8h27.3c4,0,7.2,3.2,7.2,7.2v27.3c0,4-3.2,7.2-7.2,7.2H30.5c-4,0-7.2-3.2-7.2-7.2V287
			C23.4,283,26.6,279.8,30.5,279.8z"/>
		<path class="st26" d="M98.9,279.8h27.3c4,0,7.2,3.2,7.2,7.2v27.3c0,4-3.2,7.2-7.2,7.2H98.9c-4,0-7.2-3.2-7.2-7.2V287
			C91.8,283,95,279.8,98.9,279.8z"/>
		<path class="st26" d="M167.4,279.8h27.3c4,0,7.2,3.2,7.2,7.2v27.3c0,4-3.2,7.2-7.2,7.2h-27.3c-4,0-7.2-3.2-7.2-7.2V287
			C160.2,283,163.4,279.8,167.4,279.8z"/>
	</g>
	<path class="st25" d="M235.8,279.8h27.3c4,0,7.2,3.2,7.2,7.2v27.3c0,4-3.2,7.2-7.2,7.2h-27.3c-4,0-7.2-3.2-7.2-7.2V287
		C228.6,283,231.8,279.8,235.8,279.8z"/>
	<path class="st24" d="M304.2,279.8h27.3c4,0,7.2,3.2,7.2,7.2v27.3c0,4-3.2,7.2-7.2,7.2h-27.3c-4,0-7.2-3.2-7.2-7.2V287
		C297,283,300.2,279.8,304.2,279.8z"/>
	<path class="st17" d="M372.6,279.8h27.3c4,0,7.2,3.2,7.2,7.2v27.3c0,4-3.2,7.2-7.2,7.2h-27.3c-4,0-7.2-3.2-7.2-7.2V287
		C365.4,283,368.6,279.8,372.6,279.8z"/>
	<g class="st1">
		<path class="st26" d="M30.5,345.2h27.3c4,0,7.2,3.2,7.2,7.2v27.3c0,4-3.2,7.2-7.2,7.2H30.5c-4,0-7.2-3.2-7.2-7.2v-27.3
			C23.4,348.4,26.6,345.2,30.5,345.2z"/>
		<path class="st26" d="M98.9,345.2h27.3c4,0,7.2,3.2,7.2,7.2v27.3c0,4-3.2,7.2-7.2,7.2H98.9c-4,0-7.2-3.2-7.2-7.2v-27.3
			C91.8,348.4,95,345.2,98.9,345.2z"/>
		<path class="st26" d="M167.4,345.2h27.3c4,0,7.2,3.2,7.2,7.2v27.3c0,4-3.2,7.2-7.2,7.2h-27.3c-4,0-7.2-3.2-7.2-7.2v-27.3
			C160.2,348.4,163.4,345.2,167.4,345.2z"/>
	</g>
</g>
<g id="Capa_4">
	<g>
		<path class="st7" d="M430,286.1c0,6-4.9,10.9-10.9,10.9H11.2c-6,0-10.9-4.9-10.9-10.9V11.9C0.4,5.9,5.2,1,11.2,1h407.9
			c6,0,10.9,4.9,10.9,10.9V286.1z M430,286.1"/>
		<path class="st7" d="M263.9,297h-97.5c0,0-2,32.6-5.9,39.5h109.3C265.9,329.6,263.9,297,263.9,297L263.9,297z M263.9,297"/>
		<path class="st7" d="M279,339.2c-5.9-0.7-9.1-2.7-9.1-2.7H160.5c0,0-3.2,2-9.1,2.7c-5.9,0.7-9.9,1.2-9.9,4.2h147.3
			C288.8,340.4,284.9,339.9,279,339.2L279,339.2z M279,339.2"/>
		<path class="st7" d="M419.1,1H11.2C5.2,1,0.4,5.9,0.4,11.9v246.3H430V11.9C430,5.9,425.1,1,419.1,1L419.1,1z M412.2,242.7H18.1
			V16.4h394.1V242.7z M412.2,242.7"/>
		<rect x="18.1" y="16.4" class="st8" width="394.1" height="226.3"/>
		<path class="st7" d="M263.9,297h-97.5c0,0-0.3,4.8-0.9,11.2h99.2C264.2,301.8,263.9,297,263.9,297L263.9,297z M263.9,297"/>
		<path class="st8" d="M222.3,278.5c0,3.9-3.2,7.1-7.1,7.1c-3.9,0-7.1-3.2-7.1-7.1c0-3.9,3.2-7.1,7.1-7.1
			C219.1,271.4,222.3,274.6,222.3,278.5L222.3,278.5z M222.3,278.5"/>
	</g>
	<path class="st28" d="M329.9,85.4v130.2c0,6.4-5.2,11.6-11.6,11.6H112.1c-6.4,0-11.6-5.2-11.6-11.6V85.4L329.9,85.4L329.9,85.4z"/>
	<path class="st29" d="M100.5,85.4V49c0-6.4,5.2-11.7,11.6-11.7h206.1c6.4,0,11.6,5.2,11.6,11.6v36.4L100.5,85.4L100.5,85.4z"/>
	<g>
		<path class="st30" d="M141.3,23.4L141.3,23.4c2.8,0,5.1,2.3,5.1,5.1V54c0,2.8-2.3,5.1-5.1,5.1l0,0c-2.8,0-5.1-2.3-5.1-5.1V28.5
			C136.2,25.7,138.5,23.4,141.3,23.4z"/>
		<path class="st30" d="M288.1,23.4L288.1,23.4c2.8,0,5.1,2.3,5.1,5.1V54c0,2.8-2.3,5.1-5.1,5.1l0,0c-2.8,0-5.1-2.3-5.1-5.1V28.5
			C283,25.7,285.3,23.4,288.1,23.4z"/>
	</g>
	<path class="st7" d="M217.8,129.8h-0.2l-12.3,6.7l-1.9-7.3l15.5-8.3h8.2v70.9h-9.3L217.8,129.8L217.8,129.8z"/>
	<text transform="matrix(1 0 0 1 161.2466 69.0449)" class="st31 st32 st33">Calendario</text>
</g>
<g id="Capa_5">
</g>
</svg>
