<?xml version="1.0" encoding="utf-8"?>
<!-- Generator: Adobe Illustrator 22.0.0, SVG Export Plug-In . SVG Version: 6.00 Build 0)  -->
<svg version="1.1" id="Capa_1" xmlns="http://www.w3.org/2000/svg" xmlns:xlink="http://www.w3.org/1999/xlink" x="0px" y="0px"
	 viewBox="0 0 292 423" style="enable-background:new 0 0 292 423;" xml:space="preserve">
<style type="text/css">
	.st0{fill:#0E7886;}
	.st1{fill:#FDFDFD;}
	.st2{fill:#0982C6;}
	.st3{fill:#686868;}
	.st4{fill:#03558D;}
	.st5{fill:#0770AA;}
	.st6{fill:#E5935C;}
	.st7{fill:#D1864E;}
	.st8{fill:#A3C303;}
	.st9{fill:#8DA005;}
	.st10{fill:#666666;}
	.st11{fill:#DFDFDF;}
	.st12{fill:#EFC75E;}
	.st13{fill:#FFFFFF;}
</style>
<g>
	<path class="st0" d="M145.7,440"/>
	<path class="st1" d="M1.1-28h291.2v331l-60.2,60.8H1.1V-28z M1.1-28"/>
	<path class="st2" d="M231.1,303h60.2l-60.2,60.8V303z M231.1,303"/>
	<path class="st3" d="M37.1,88.8h212.3V92H37.1V88.8z M37.1,272.2h97.1v3.2H37.1V272.2z M37.1,255.2h212.3v3.2H37.1V255.2z
		 M37.1,234.4h212.3v3.2H37.1V234.4z M37.1,213.6h212.3v3.2H37.1V213.6z M37.1,192.8h212.3v3.2H37.1V192.8z M37.1,172h212.3v3.2
		H37.1V172z M37.1,151.2h212.3v3.2H37.1V151.2z M37.1,130.4h212.3v3.2H37.1V130.4z M37.1,109.6h212.3v3.2H37.1V109.6z M37.1,109.6"
		/>
	<path class="st4" d="M51,32.2l-0.2,23.9l206.9-0.6l0.2-23.9L51,32.2z M51,32.2"/>
	<path class="st5" d="M169.7,55.8l6,0l0.2-23.9l-6,0L169.7,55.8z M169.7,55.8"/>
	<path class="st6" d="M23.3,48.7l27.5,7.4L51,32.2l-27.6,7.6L23.3,48.7z M23.3,48.7"/>
	<path class="st7" d="M23.4,48.7l27.5,7.4l0-5.2L23.3,47L23.4,48.7z M23.4,48.7"/>
	<path class="st8" d="M278,36.5l-0.1,14.1c0,3.9-3.5,7.1-7.7,7.1L174,57.9l0.2-28.2l96.2-0.3C274.6,29.5,278,32.6,278,36.5L278,36.5
		z M278,36.5"/>
	<path class="st9" d="M270.2,55.1l-12.5,0L227,55.2l-53,0.1l0,0.4l0,2.1l51.5-0.1l44.7-0.1c4.2,0,7.7-3.2,7.8-7.1l0-0.7
		C276.8,52.9,273.8,55.1,270.2,55.1L270.2,55.1z M270.2,55.1"/>
	<path class="st10" d="M3.7,43.8l0,1l19.7,3.9l0.1-8.9L3.7,43.8z M3.7,43.8"/>
	<path class="st11" d="M257.4,29.5l-0.4,33c-0.2,1.1-0.8,1.7-1.9,1.7l-55.9,0.2l-1.1-0.3l-4-2.5c-1.8-1.3-0.4-4,2.1-2.8l3.5,2.2
		l53.4-0.1l0.4-31.3L257.4,29.5z M257.4,29.5"/>
	<path class="st5" d="M50.8,54.1l0,2l118.9-0.3l0-2L50.8,54.1z M50.8,54.1"/>
	<path class="st4" d="M47.6,357.5h30.5V417L63,401l-15.4,16V357.5z M47.6,357.5"/>
	<path class="st12" d="M74.3,296.5l0.7,0.2c1.3-2.4,4-4,6.8-3.6c3.8,0.4,6.6,3.9,6.2,7.7c-0.1,1.2-0.6,2.4-1.2,3.3
		c0.2,0.2,0.4,0.3,0.5,0.5c2.2-1.7,5.2-2,7.7-0.5c3.3,1.9,4.5,6.2,2.5,9.6c-0.6,1.1-1.5,1.9-2.4,2.5c0.1,0.2,0.2,0.5,0.3,0.7
		c2.6-0.6,5.5,0.3,7.3,2.7c2.3,3.1,1.6,7.5-1.5,9.8c-1,0.7-2.1,1.1-3.2,1.3l0,0.7c2.7,0.5,4.9,2.6,5.6,5.4c0.8,3.8-1.6,7.5-5.3,8.3
		c-1.2,0.3-2.4,0.2-3.5-0.2l-0.3,0.7c2.3,1.6,3.5,4.4,2.9,7.3c-0.8,3.8-4.5,6.2-8.2,5.4c-1.2-0.3-2.3-0.8-3.1-1.6
		c-0.2,0.2-0.4,0.3-0.6,0.5c1.4,2.3,1.4,5.4-0.3,7.8c-2.3,3.1-6.6,3.8-9.7,1.6c-1-0.7-1.7-1.7-2.2-2.7c-0.2,0.1-0.5,0.1-0.7,0.2
		c0.4,2.7-0.9,5.5-3.4,7c-3.3,1.9-7.6,0.8-9.5-2.6c-0.6-1.1-0.9-2.2-0.9-3.4c-0.2,0-0.5-0.1-0.7-0.1c-0.8,2.7-3.1,4.7-5.9,5
		c-3.8,0.4-7.2-2.4-7.6-6.2c-0.1-1.2,0.1-2.4,0.5-3.5c-0.2-0.1-0.4-0.3-0.6-0.4c-1.8,2.1-4.7,3-7.4,2.1c-3.6-1.2-5.6-5.1-4.5-8.8
		c0.4-1.2,1-2.2,1.9-3c-0.1-0.2-0.3-0.4-0.4-0.6c-2.5,1.2-5.5,0.9-7.7-1.1c-2.9-2.6-3.1-7-0.5-9.9c0.8-0.9,1.8-1.6,2.9-1.9
		c0-0.2-0.1-0.5-0.1-0.7c-2.7,0.1-5.4-1.5-6.5-4.2c-1.6-3.5,0-7.7,3.5-9.3c1.1-0.5,2.3-0.7,3.4-0.6l0.2-0.7c-2.5-1-4.3-3.6-4.3-6.5
		c0-3.9,3.1-7,6.9-7c1.2,0,2.4,0.3,3.4,0.9c0.1-0.2,0.3-0.4,0.5-0.6c-1.9-2-2.5-5-1.3-7.7c1.6-3.5,5.7-5.1,9.2-3.6
		c1.1,0.5,2,1.3,2.7,2.2c0.2-0.1,0.4-0.2,0.6-0.4c-0.9-2.6-0.3-5.6,1.9-7.6c2.8-2.6,7.2-2.4,9.8,0.5c0.8,0.9,1.4,2,1.6,3.1
		c0.2,0,0.5,0,0.7-0.1c0.2-2.8,2-5.2,4.8-6.2c3.6-1.2,7.6,0.8,8.7,4.5C74.5,294.2,74.6,295.4,74.3,296.5L74.3,296.5z M74.3,296.5"/>
	<path class="st13" d="M62.6,362.3c17.6,0,31.9-14.5,31.9-32.2c0-17.7-14.3-32.2-31.9-32.2c-17.6,0-31.9,14.5-31.9,32.2
		C30.7,347.8,45,362.3,62.6,362.3L62.6,362.3z M62.6,362.3"/>
	<path class="st8" d="M93,330.2c0-17-13.7-30.8-30.5-30.8S32,313.2,32,330.2S45.7,361,62.5,361S93,347.2,93,330.2z M49.4,327.3
		c1.6-1.1,3.8-0.7,4.9,0.9l3.6,5.2L74,321.5c1.6-1.2,3.7-0.8,4.9,0.8c1.1,1.6,0.8,3.8-0.8,4.9l-19,14c-0.6,0.4-1.3,0.7-2.1,0.7
		c-0.2,0-0.4,0-0.6,0c-0.9-0.2-1.8-0.7-2.3-1.5l-5.7-8.2C47.4,330.6,47.8,328.4,49.4,327.3z"/>
</g>
</svg>
