<?xml version="1.0" encoding="utf-8"?>
<!-- Generator: Adobe Illustrator 22.0.0, SVG Export Plug-In . SVG Version: 6.00 Build 0)  -->
<svg version="1.1" id="Capa_1" xmlns="http://www.w3.org/2000/svg" xmlns:xlink="http://www.w3.org/1999/xlink" x="0px" y="0px"
	 viewBox="0 0 512 414" style="enable-background:new 0 0 512 414;" xml:space="preserve">
<style type="text/css">
	.st0{fill:#FCC62D;}
	.st1{fill:#E4AF18;}
	.st2{fill:#CE9912;}
	.st3{fill:#FFD949;}
	.st4{clip-path:url(#SVGID_2_);fill:#FCC62D;}
	.st5{clip-path:url(#SVGID_2_);fill:#FFD949;}
</style>
<g>
	<path class="st0" d="M243.1,249.3v5.7c0,31.6-53.1,57.2-118.5,57.2c-36.1,0-68.5-7.8-90.2-20.1c7.3,28.5,57.2,52,117.6,52
		c65.4,0,118.5-27.7,118.5-59.2C270.4,270.9,260.1,258.7,243.1,249.3"/>
	<path class="st1" d="M151.9,344.1c-65.5,0-118.5-27.7-118.5-59.2v38.5c0,31.6,53.1,57.2,118.5,57.2c65.4,0,118.5-25.6,118.5-57.2
		v-38.5C270.4,316.4,217.3,344.1,151.9,344.1"/>
	<path class="st2" d="M47,350.2c2.7,2.5,5.7,4.8,9.1,7.1v-37.8c-3.4-2.3-6.4-4.8-9.1-7.3V350.2z M47,350.2"/>
	<path class="st2" d="M247.6,319.5v37.8c3.4-2.2,6.4-4.6,9.1-7.1v-38.1C254,314.7,251,317.1,247.6,319.5"/>
	<path class="st2" d="M65.2,362.6c2.9,1.5,5.9,2.9,9.1,4.3v-37.4c-3.2-1.4-6.2-2.9-9.1-4.5V362.6z M65.2,362.6"/>
	<path class="st2" d="M229.4,366.8c3.2-1.3,6.2-2.8,9.1-4.3V325c-2.9,1.6-5.9,3-9.1,4.5V366.8z M229.4,366.8"/>
	<path class="st2" d="M83.5,370.3c2.9,1,6,1.9,9.1,2.8v-37c-3.1-0.9-6.2-1.9-9.1-3V370.3z M83.5,370.3"/>
	<path class="st2" d="M211.1,373.1c3.1-0.9,6.2-1.8,9.1-2.8v-37.2c-3,1.1-6,2.1-9.1,3V373.1z M211.1,373.1"/>
	<path class="st2" d="M106.3,376.4c3,0.6,6,1.1,9.1,1.6v-36.7c-3.1-0.5-6.1-1.1-9.1-1.7V376.4z M106.3,376.4"/>
	<path class="st2" d="M188.3,378c3.1-0.5,6.1-1,9.1-1.6v-36.8c-3,0.6-6,1.2-9.1,1.7V378z M188.3,378"/>
	<path class="st2" d="M133.6,380.1c3,0.2,6.1,0.4,9.1,0.5v-36.5c-3.1-0.1-6.1-0.3-9.1-0.5V380.1z M133.6,380.1"/>
	<path class="st2" d="M161,380.6c3.1-0.1,6.1-0.3,9.1-0.5v-36.5c-3,0.2-6.1,0.4-9.1,0.5V380.6z M161,380.6"/>
	<path class="st1" d="M124.5,275.7C59.1,275.7,6,248,6,216.4v38.5c0,31.6,53.1,57.2,118.5,57.2c65.5,0,118.5-25.6,118.5-57.2v-38.5
		C243.1,248,190,275.7,124.5,275.7"/>
	<path class="st2" d="M19.7,281.8c2.7,2.4,5.7,4.8,9.1,7V251c-3.4-2.3-6.4-4.8-9.1-7.3V281.8z M19.7,281.8"/>
	<path class="st2" d="M220.3,251v37.8c3.4-2.2,6.4-4.6,9.1-7v-38.1C226.7,246.3,223.6,248.7,220.3,251"/>
	<path class="st2" d="M37.9,294.2c2.9,1.5,5.9,2.9,9.1,4.2V261c-3.2-1.4-6.2-2.9-9.1-4.4V294.2z M37.9,294.2"/>
	<path class="st2" d="M202,298.4c3.2-1.3,6.3-2.7,9.1-4.2v-37.6c-2.9,1.6-5.9,3-9.1,4.4V298.4z M202,298.4"/>
	<path class="st2" d="M56.1,301.8c2.9,1,6,2,9.1,2.8v-37c-3.1-0.9-6.2-1.9-9.1-3V301.8z M56.1,301.8"/>
	<path class="st2" d="M183.8,304.7c3.1-0.9,6.2-1.8,9.1-2.8v-37.1c-3,1.1-6,2-9.1,3V304.7z M183.8,304.7"/>
	<path class="st2" d="M78.9,307.9c3,0.6,6,1.2,9.1,1.6v-36.7c-3.1-0.5-6.1-1.1-9.1-1.7V307.9z M78.9,307.9"/>
	<path class="st2" d="M161,309.6c3.1-0.5,6.1-1,9.1-1.6v-36.8c-3,0.6-6,1.2-9.1,1.7V309.6z M161,309.6"/>
	<path class="st2" d="M106.3,311.7c3,0.2,6,0.4,9.1,0.5v-36.5c-3.1-0.1-6.1-0.3-9.1-0.5V311.7z M106.3,311.7"/>
	<path class="st2" d="M133.6,312.1c3.1-0.1,6.1-0.2,9.1-0.5v-36.5c-3,0.2-6.1,0.4-9.1,0.5V312.1z M133.6,312.1"/>
	<path class="st3" d="M239.9,267.9c-12.2,25.3-59.2,44.2-115.4,44.2c-21,0-40.7-2.6-57.8-7.3c16.5,11.2,46,20.8,85.1,20.8
		c62.4,0,100.3-24.2,100.3-40.9C252.2,279.2,247.9,273.4,239.9,267.9"/>
	<path class="st3" d="M147.3,266.6c-65.5,0-118.5-25.6-118.5-57.2v-25.8C14.5,192.6,6,203.8,6,216.4c0,31.6,53.1,59.2,118.5,59.2
		c31.5,0,60.1-6.4,81.4-16.6C188.6,263.8,168.6,266.6,147.3,266.6"/>
	<path class="st0" d="M238.4,135v5.7c0,31.6-53.1,57.2-118.5,57.2c-36.1,0-68.5-7.8-90.2-20.1c7.3,28.5,57.2,52,117.6,52
		c65.4,0,118.5-27.7,118.5-59.2C265.8,156.6,255.5,144.4,238.4,135"/>
	<path class="st1" d="M147.3,229.8c-65.5,0-118.5-27.7-118.5-59.2V209c0,31.6,53.1,57.2,118.5,57.2c65.4,0,118.5-25.6,118.5-57.2
		v-38.5C265.8,202.1,212.7,229.8,147.3,229.8"/>
	<path class="st2" d="M42.4,235.9c2.7,2.5,5.7,4.8,9.1,7.1v-37.8c-3.4-2.3-6.4-4.8-9.1-7.3V235.9z M42.4,235.9"/>
	<path class="st2" d="M243,205.2V243c3.4-2.2,6.4-4.6,9.1-7.1v-38.1C249.4,200.4,246.4,202.8,243,205.2"/>
	<path class="st2" d="M60.6,248.3c2.9,1.5,5.9,2.9,9.1,4.3v-37.4c-3.2-1.4-6.2-2.9-9.1-4.5V248.3z M60.6,248.3"/>
	<path class="st2" d="M224.7,252.5c3.2-1.3,6.2-2.8,9.1-4.3v-37.5c-2.9,1.6-5.9,3-9.1,4.5V252.5z M224.7,252.5"/>
	<path class="st2" d="M78.9,256c2.9,1,6,1.9,9.1,2.8v-37c-3.1-0.9-6.2-1.9-9.1-3V256z M78.9,256"/>
	<path class="st2" d="M206.5,258.8c3.1-0.9,6.2-1.8,9.1-2.8v-37.2c-3,1.1-6,2.1-9.1,3V258.8z M206.5,258.8"/>
	<path class="st2" d="M101.7,262.1c3,0.6,6,1.1,9.1,1.6V227c-3.1-0.5-6.1-1.1-9.1-1.7V262.1z M101.7,262.1"/>
	<path class="st2" d="M183.7,263.7c3.1-0.5,6.1-1,9.1-1.6v-36.8c-3,0.6-6,1.2-9.1,1.7V263.7z M183.7,263.7"/>
	<path class="st2" d="M129,265.8c3,0.2,6.1,0.4,9.1,0.5v-36.5c-3.1-0.1-6.1-0.3-9.1-0.5V265.8z M129,265.8"/>
	<path class="st2" d="M156.4,266.3c3.1-0.1,6.1-0.3,9.1-0.5v-36.5c-3,0.2-6.1,0.4-9.1,0.5V266.3z M156.4,266.3"/>
	<path class="st3" d="M235.3,153.6c-12.2,25.3-59.2,44.2-115.4,44.2c-21,0-40.7-2.6-57.8-7.3c16.5,11.2,46,20.8,85.1,20.8
		c62.4,0,100.3-24.2,100.3-40.9C247.5,165,243.3,159.1,235.3,153.6"/>
	<path class="st1" d="M124.5,162.5C59.1,162.5,6,134.9,6,103.3v38.5C6,173.4,59.1,199,124.5,199c65.5,0,118.5-25.6,118.5-57.2v-38.5
		C243.1,134.9,190,162.5,124.5,162.5"/>
	<path class="st2" d="M19.7,168.7c2.7,2.4,5.7,4.8,9.1,7v-37.8c-3.4-2.3-6.4-4.8-9.1-7.3V168.7z M19.7,168.7"/>
	<path class="st2" d="M220.3,137.9v37.8c3.4-2.2,6.4-4.6,9.1-7v-38.1C226.7,133.1,223.6,135.6,220.3,137.9"/>
	<path class="st2" d="M37.9,181c2.9,1.5,5.9,2.9,9.1,4.2v-37.4c-3.2-1.4-6.2-2.9-9.1-4.4V181z M37.9,181"/>
	<path class="st2" d="M202,185.3c3.2-1.3,6.3-2.7,9.1-4.2v-37.6c-2.9,1.6-5.9,3-9.1,4.4V185.3z M202,185.3"/>
	<path class="st2" d="M56.1,188.7c2.9,1,6,2,9.1,2.8v-37c-3.1-0.9-6.2-1.9-9.1-3V188.7z M56.1,188.7"/>
	<path class="st2" d="M183.8,191.5c3.1-0.9,6.2-1.8,9.1-2.8v-37.1c-3,1.1-6,2-9.1,3V191.5z M183.8,191.5"/>
	<path class="st2" d="M78.9,194.8c3,0.6,6,1.2,9.1,1.6v-36.7c-3.1-0.5-6.1-1.1-9.1-1.7V194.8z M78.9,194.8"/>
	<path class="st2" d="M161,196.4c3.1-0.5,6.1-1,9.1-1.6V158c-3,0.6-6,1.2-9.1,1.7V196.4z M161,196.4"/>
	<path class="st2" d="M106.3,198.5c3,0.2,6,0.4,9.1,0.5v-36.5c-3.1-0.1-6.1-0.3-9.1-0.5V198.5z M106.3,198.5"/>
	<path class="st2" d="M133.6,199c3.1-0.1,6.1-0.2,9.1-0.5V162c-3,0.2-6.1,0.4-9.1,0.5V199z M133.6,199"/>
	<path class="st3" d="M147.3,153.4c-65.5,0-118.5-25.6-118.5-57.2V70.4C14.5,79.4,6,90.7,6,103.3c0,31.6,53.1,59.2,118.5,59.2
		c31.5,0,60.1-6.4,81.4-16.6C188.6,150.7,168.6,153.4,147.3,153.4"/>
	<path class="st2" d="M42.5,123.1c2.7,2.4,5.7,4.8,9.1,7V92.3c-3.4-2.3-6.4-4.8-9.1-7.3V123.1z M42.5,123.1"/>
	<path class="st1" d="M147.3,116.9c-65.5,0-118.5-27.7-118.5-59.3v38.5c0,31.6,53.1,57.2,118.5,57.2c65.5,0,118.5-25.6,118.5-57.2
		V57.7C265.8,89.3,212.8,116.9,147.3,116.9"/>
	<path class="st2" d="M243.1,92.3v37.8c3.4-2.2,6.4-4.6,9.1-7V85C249.5,87.6,246.4,90,243.1,92.3"/>
	<path class="st2" d="M60.7,135.4c2.9,1.5,5.9,2.9,9.1,4.2v-37.4c-3.2-1.4-6.2-2.9-9.1-4.4V135.4z M60.7,135.4"/>
	<path class="st2" d="M224.8,139.7c3.2-1.3,6.3-2.7,9.1-4.2V97.9c-2.9,1.6-5.9,3-9.1,4.4V139.7z M224.8,139.7"/>
	<path class="st2" d="M78.9,143.1c2.9,1,6,2,9.1,2.8v-37c-3.1-0.9-6.2-1.9-9.1-3V143.1z M78.9,143.1"/>
	<path class="st2" d="M206.6,145.9c3.1-0.9,6.2-1.8,9.1-2.8V106c-3,1.1-6,2-9.1,3V145.9z M206.6,145.9"/>
	<path class="st2" d="M101.7,149.2c3,0.6,6,1.2,9.1,1.6v-36.7c-3.1-0.5-6.1-1.1-9.1-1.7V149.2z M101.7,149.2"/>
	<path class="st2" d="M183.8,150.8c3.1-0.5,6.1-1,9.1-1.6v-36.8c-3,0.6-6,1.2-9.1,1.7V150.8z M183.8,150.8"/>
	<path class="st2" d="M129.1,152.9c3,0.2,6,0.4,9.1,0.5v-36.5c-3.1-0.1-6.1-0.3-9.1-0.5V152.9z M129.1,152.9"/>
	<path class="st2" d="M156.4,153.4c3.1-0.1,6.1-0.2,9.1-0.5v-36.5c-3,0.2-6.1,0.4-9.1,0.5V153.4z M156.4,153.4"/>
	<path class="st0" d="M265.8,57.7c0,31.6-53.1,59.2-118.5,59.2C81.9,117,28.8,89.3,28.8,57.7C28.8,26.1,81.9,3,147.3,3
		C212.8,3,265.8,26.1,265.8,57.7"/>
	<path class="st3" d="M147.3,98.6C84.9,98.6,47,74.4,47,57.7c0-16.7,37.9-41,100.3-41c62.4,0,100.3,24.4,100.3,41
		C247.6,74.4,209.7,98.6,147.3,98.6"/>
</g>
<g>
	<path class="st0" d="M479.7,253.9v5.7c0,31.6-53.1,57.2-118.5,57.2c-36.1,0-68.5-7.8-90.2-20.1c7.3,28.5,57.1,52,117.5,52
		c65.4,0,118.5-27.7,118.5-59.2C507,275.5,496.7,263.3,479.7,253.9"/>
	<path class="st1" d="M388.5,348.6c-65.5,0-118.5-27.7-118.5-59.2v38.5c0,31.6,53.1,57.2,118.5,57.2c65.4,0,118.5-25.6,118.5-57.2
		v-38.5C507,321,453.9,348.6,388.5,348.6"/>
	<path class="st2" d="M283.7,354.8c2.7,2.5,5.7,4.8,9.1,7.1V324c-3.4-2.3-6.4-4.8-9.1-7.3V354.8z M283.7,354.8"/>
	<path class="st2" d="M484.2,324v37.8c3.4-2.2,6.4-4.6,9.1-7.1v-38.1C490.6,319.3,487.6,321.7,484.2,324"/>
	<path class="st2" d="M301.9,367.1c2.9,1.5,5.9,2.9,9.1,4.3V334c-3.2-1.4-6.2-2.9-9.1-4.4V367.1z M301.9,367.1"/>
	<path class="st2" d="M466,371.4c3.2-1.3,6.2-2.8,9.1-4.3v-37.5c-2.9,1.6-5.9,3-9.1,4.4V371.4z M466,371.4"/>
	<path class="st2" d="M320.2,374.8c2.9,1,6,1.9,9.1,2.8v-37c-3.1-0.9-6.2-1.9-9.1-3V374.8z M320.2,374.8"/>
	<path class="st2" d="M447.8,377.6c3.1-0.9,6.2-1.8,9.1-2.8v-37.2c-3,1.1-6,2.1-9.1,3V377.6z M447.8,377.6"/>
	<path class="st2" d="M342.9,380.9c3,0.6,6,1.1,9.1,1.6v-36.7c-3.1-0.5-6.1-1.1-9.1-1.7V380.9z M342.9,380.9"/>
	<path class="st2" d="M425,382.6c3.1-0.5,6.1-1,9.1-1.6v-36.8c-3,0.6-6,1.2-9.1,1.7V382.6z M425,382.6"/>
	<path class="st2" d="M370.3,384.6c3,0.2,6.1,0.4,9.1,0.5v-36.5c-3.1-0.1-6.1-0.3-9.1-0.5V384.6z M370.3,384.6"/>
	<path class="st2" d="M397.6,385.1c3.1-0.1,6.1-0.3,9.1-0.5v-36.5c-3,0.2-6.1,0.4-9.1,0.5V385.1z M397.6,385.1"/>
	<path class="st1" d="M361.2,280.3c-65.5,0-118.5-27.7-118.5-59.3v38.5c0,31.6,53.1,57.2,118.5,57.2c65.4,0,118.5-25.6,118.5-57.2
		V221C479.7,252.6,426.6,280.3,361.2,280.3"/>
	<path class="st2" d="M256.3,286.4c2.7,2.4,5.7,4.8,9.1,7v-37.8c-3.4-2.3-6.4-4.8-9.1-7.3V286.4z M256.3,286.4"/>
	<path class="st2" d="M456.9,255.6v37.8c3.4-2.2,6.4-4.6,9.1-7v-38.1C463.3,250.9,460.3,253.3,456.9,255.6"/>
	<path class="st2" d="M274.6,298.7c2.9,1.5,5.9,2.9,9.1,4.2v-37.3c-3.2-1.4-6.2-2.9-9.1-4.4V298.7z M274.6,298.7"/>
	<path class="st2" d="M438.6,303c3.2-1.3,6.3-2.7,9.1-4.2v-37.5c-2.9,1.6-5.9,3-9.1,4.4V303z M438.6,303"/>
	<path class="st2" d="M292.8,306.4c2.9,1,6,2,9.1,2.8v-37c-3.1-0.9-6.2-1.9-9.1-3V306.4z M292.8,306.4"/>
	<path class="st2" d="M420.4,309.2c3.1-0.9,6.2-1.8,9.1-2.8v-37.1c-3,1.1-6,2-9.1,3V309.2z M420.4,309.2"/>
	<path class="st2" d="M315.6,312.5c3,0.6,6,1.2,9.1,1.6v-36.7c-3.1-0.5-6.1-1.1-9.1-1.7V312.5z M315.6,312.5"/>
	<path class="st2" d="M397.6,314.1c3.1-0.5,6.1-1,9.1-1.6v-36.8c-3,0.6-6,1.2-9.1,1.7V314.1z M397.6,314.1"/>
	<path class="st2" d="M342.9,316.2c3,0.2,6,0.4,9.1,0.5v-36.5c-3.1-0.1-6.1-0.3-9.1-0.5V316.2z M342.9,316.2"/>
	<path class="st2" d="M370.3,316.7c3.1-0.1,6.1-0.2,9.1-0.5v-36.5c-3,0.2-6.1,0.4-9.1,0.5V316.7z M370.3,316.7"/>
	<path class="st3" d="M476.6,272.5c-12.2,25.3-59.2,44.2-115.4,44.2c-21,0-40.7-2.6-57.8-7.3c16.5,11.2,46,20.8,85.1,20.8
		c62.4,0,100.2-24.2,100.2-40.9C488.8,283.8,484.5,277.9,476.6,272.5"/>
	<path class="st3" d="M384,271.2c-65.5,0-118.5-25.6-118.5-57.2v-25.8c-14.3,9-22.8,20.2-22.8,32.8c0,31.6,53.1,59.2,118.5,59.2
		c31.5,0,60.1-6.4,81.3-16.6C425.2,268.4,405.3,271.2,384,271.2"/>
	<path class="st1" d="M384,234.7c-65.5,0-118.5-27.7-118.5-59.3v38.5c0,31.6,53.1,57.2,118.5,57.2c65.4,0,118.5-25.6,118.5-57.2
		v-38.5C502.5,207,449.4,234.7,384,234.7"/>
	<path class="st2" d="M279.1,240.8c2.7,2.4,5.7,4.8,9.1,7v-37.8c-3.4-2.3-6.4-4.8-9.1-7.3V240.8z M279.1,240.8"/>
	<path class="st2" d="M479.7,210.1v37.8c3.4-2.2,6.4-4.6,9.1-7v-38.1C486.1,205.3,483.1,207.8,479.7,210.1"/>
	<path class="st2" d="M297.4,253.2c2.9,1.5,5.9,2.9,9.1,4.2v-37.3c-3.2-1.4-6.2-2.9-9.1-4.4V253.2z M297.4,253.2"/>
	<path class="st2" d="M461.4,257.4c3.2-1.3,6.3-2.7,9.1-4.2v-37.5c-2.9,1.6-5.9,3-9.1,4.4V257.4z M461.4,257.4"/>
	<path class="st2" d="M315.6,260.8c2.9,1,6,2,9.1,2.8v-37c-3.1-0.9-6.2-1.9-9.1-3V260.8z M315.6,260.8"/>
	<path class="st2" d="M443.2,263.7c3.1-0.9,6.2-1.8,9.1-2.8v-37.1c-3,1.1-6,2-9.1,3V263.7z M443.2,263.7"/>
	<path class="st2" d="M338.4,266.9c3,0.6,6,1.2,9.1,1.6v-36.7c-3.1-0.5-6.1-1.1-9.1-1.7V266.9z M338.4,266.9"/>
	<path class="st2" d="M420.4,268.6c3.1-0.5,6.1-1,9.1-1.6v-36.8c-3,0.6-6,1.2-9.1,1.7V268.6z M420.4,268.6"/>
	<path class="st2" d="M365.7,270.7c3,0.2,6,0.4,9.1,0.5v-36.5c-3.1-0.1-6.1-0.3-9.1-0.5V270.7z M365.7,270.7"/>
	<path class="st2" d="M393.1,271.2c3.1-0.1,6.1-0.2,9.1-0.5v-36.5c-3,0.2-6.1,0.4-9.1,0.5V271.2z M393.1,271.2"/>
	<path class="st0" d="M502.5,175.5c0,31.6-53.1,59.2-118.5,59.2c-65.5,0-118.5-27.7-118.5-59.2c0-31.6,53.1-54.7,118.5-54.7
		C449.4,120.8,502.5,143.9,502.5,175.5"/>
	<path class="st3" d="M384,216.3c-62.4,0-100.3-24.2-100.3-40.9c0-16.7,37.9-41,100.3-41c62.4,0,100.2,24.4,100.2,41
		C484.2,192.1,446.3,216.3,384,216.3"/>
</g>
<g>
	<g>
		<defs>
			<rect id="SVGID_1_" x="105.3" y="170.4" width="229" height="239"/>
		</defs>
		<clipPath id="SVGID_2_">
			<use xlink:href="#SVGID_1_"  style="overflow:visible;"/>
		</clipPath>
		<path class="st4" d="M232.5,404.4c-56.4,0-102.2-52.3-102.2-116.8c0-64.5,45.7-116.8,102.2-116.8c56.5,0,102.2,52.3,102.2,116.8
			C334.7,352.1,288.9,404.4,232.5,404.4"/>
		<path class="st5" d="M234.8,387.1c-48.3,0-87.4-44.3-87.4-98.9c0-54.6,39.1-98.9,87.4-98.9c48.3,0,87.4,44.3,87.4,98.9
			C322.3,342.8,283.1,387.1,234.8,387.1"/>
	</g>
	<path class="st1" d="M130.3,287.6c0-59.6,39.1-108.8,89.7-115.9c-4.1-0.6-8.3-0.9-12.5-0.9c-56.5,0-102.2,52.3-102.2,116.8
		c0,64.5,45.7,116.8,102.2,116.8c4.2,0,8.4-0.3,12.5-0.9C169.5,396.4,130.3,347.2,130.3,287.6"/>
	<path class="st2" d="M130.3,291.8h-25c0.1,2.8,0.2,5.6,0.5,8.4h25C130.6,297.4,130.4,294.6,130.3,291.8"/>
	<path class="st2" d="M131.2,270.9h-25c-0.3,2.8-0.6,5.5-0.8,8.4h25C130.7,276.5,130.9,273.7,131.2,270.9"/>
	<path class="st2" d="M132.6,312.6h-25c0.5,2.8,1.2,5.6,1.9,8.4h25C133.8,318.2,133.1,315.4,132.6,312.6"/>
	<path class="st2" d="M138.4,333.5h-25c1.1,2.9,2.2,5.6,3.5,8.4h25C140.7,339.1,139.5,336.3,138.4,333.5"/>
	<path class="st2" d="M135.6,250.1h-25c-0.8,2.8-1.6,5.5-2.2,8.4h25C134.1,255.6,134.8,252.8,135.6,250.1"/>
	<path class="st2" d="M143.9,229.2h-25c-1.4,2.7-2.7,5.5-3.8,8.4h25.1C141.3,234.7,142.6,231.9,143.9,229.2"/>
	<path class="st2" d="M160.9,204.2h-25.1c-2.4,2.7-4.6,5.4-6.8,8.4h25C156.3,209.6,158.6,206.8,160.9,204.2"/>
	<path class="st2" d="M186.4,183.3h-25.1c-4.3,2.5-8.4,5.3-12.2,8.4h25.1C178.1,188.6,182.2,185.8,186.4,183.3"/>
	<path class="st2" d="M151.2,358.5h-25c1.9,2.9,4,5.7,6.1,8.4h25.1C155.2,364.2,153.2,361.4,151.2,358.5"/>
	<path class="st2" d="M144.2,379.4c3.4,3,6.9,5.8,10.5,8.4h25.1c-3.7-2.5-7.2-5.3-10.6-8.4H144.2z M144.2,379.4"/>
</g>
</svg>
