<?xml version="1.0" encoding="utf-8"?>
<!-- Generator: Adobe Illustrator 21.0.0, SVG Export Plug-In . SVG Version: 6.00 Build 0)  -->
<svg version="1.1" id="Capa_1" xmlns="http://www.w3.org/2000/svg" xmlns:xlink="http://www.w3.org/1999/xlink" x="0px" y="0px"
	 viewBox="0 0 512 512" style="enable-background:new 0 0 512 512;" xml:space="preserve">
<style type="text/css">
	.st0{fill:#00253D;}
	.st1{fill:#DAE1E6;}
</style>
<ellipse class="st0" cx="256.1" cy="256" rx="255.9" ry="256"/>
<g>
	<path class="st1" d="M238.4,162.5c5.3-7.1,12.4-10.6,19.4-10.6s14.1,3.5,19.4,8.8c5.3,5.3,7.1,12.4,7.1,21.2
		c0,8.8-1.8,15.9-7.1,21.2l-31.8,31.8c-10.6,10.6-15.9,19.4-19.4,24.7c-3.5,5.3-5.3,15.9-5.3,28.2v26.5h67.1v-19.4
		c0-8.8,1.8-14.1,3.5-17.7c1.8-3.5,7.1-8.8,12.4-15.9c7.1-7.1,12.4-12.4,19.4-19.4c1.8-1.8,3.5-5.3,8.8-10.6
		c3.5-5.3,7.1-8.8,8.8-10.6c1.8-1.8,3.5-7.1,7.1-12.4c3.5-5.3,5.3-14.1,5.3-26.5c0-26.5-8.8-47.7-26.5-63.5s-40.6-22.9-67.1-22.9
		s-51.2,8.8-68.8,24.7s-30,40.6-31.8,70.6h70.6C229.6,178.4,233.1,169.6,238.4,162.5z"/>
	<ellipse class="st1" cx="256.1" cy="377.8" rx="38.8" ry="38.8"/>
</g>
</svg>
