<?xml version="1.0" encoding="utf-8"?>
<!-- Generator: Adobe Illustrator 22.0.0, SVG Export Plug-In . SVG Version: 6.00 Build 0)  -->
<svg version="1.1" id="Capa_1" xmlns="http://www.w3.org/2000/svg" xmlns:xlink="http://www.w3.org/1999/xlink" x="0px" y="0px"
	 viewBox="0 0 512 188" style="enable-background:new 0 0 512 188;" xml:space="preserve">
<style type="text/css">
	.st0{fill:#80BD41;}
	.st1{fill:#1F3D7C;}
	.st2{fill:#026241;}
	.st3{fill:#203E7C;}
	.st4{fill:#036241;}
	.st5{fill:#B2D78A;}
	.st6{fill:#93BCAE;}
	.st7{fill:#7CAD9D;}
</style>
<g>
	<path class="st0" d="M235.9,7.8c12.8,12.3,22.7,26.3,27.5,43.6c2.3,8.2,3.1,16.5,2.1,24.9c-0.1,0.5,0,1,0.2,1.5
		c5.9-17.9,2.9-34.8-5.7-51.1c6.4,3.7,15.2,24.2,16.3,37.5c1.2,14.3-0.9,27.9-7.8,40.9c5.8-0.3,11.2-1.3,16.4-3
		c13.3-4.4,24.1-12.2,32.5-23.4c3.2-4.2,5.5-8.8,7.5-13.7c0.6-1.5,1.2-3.1,2.3-4.4c0.8-1,1.9-1.4,3-0.8c1.1,0.6,1.2,1.7,0.9,2.8
		c-0.2,0.9-0.7,1.7-1.1,2.5c-12.9,22.2-31.3,38.6-53.3,51.4c-9.2,5.4-18.9,9.3-29.4,11c-15.8,2.5-31.2,1.6-45.9-5.5
		c11,2.1,21.9,3.4,33,0.6c-17.4,0.4-33.9-2.9-49.1-11.6c14.7,4.1,29.4,8.4,44.9,5.9c-10.3-0.1-20.3-2.3-30.1-5.4
		c-9.7-3.1-19.3-6.4-27.4-13c8.3,3.9,16.9,6.9,25.7,9.4c8.9,2.5,17.8,4.5,27.5,3.5c-20.8-3.5-39.5-10.9-55.7-23.9
		c17.6,8.9,35.3,17.1,55.4,18.2c-5.3-1.7-10.5-3.4-15.7-5.5c-15.3-6.4-29.8-14.1-42.8-24.5c-2.3-1.8-4.5-3.7-5.8-7.1
		c13.3,11.8,59,33.2,68.3,31.3c-11.6-3.7-22.1-9.3-32.1-15.8c-7.5-4.8-14.9-10-21-16.5c-1.3-1.4-2.7-2.8-3-4.8
		c17.8,14.6,37.7,25.4,59.4,33c-17.7-9.5-34.6-20.1-46.4-37c13.6,12.6,28.9,22.5,46,29.8c-9.7-6.8-18.5-14.5-26.8-23
		c-8.2-8.4-16.3-16.8-21.5-27.5c7.4,8.3,15.5,15.8,23.7,23.2c8.2,7.4,16.4,14.9,26.1,20.6c-3.3-3.7-6.6-7.3-9.8-11
		c-11.3-13.1-22.1-26.5-30.8-41.5c-2.4-4.2-4.6-8.5-5.7-13.3c-0.2-0.7-0.4-1.5-0.1-2.6c7.2,12.2,16,23,25.2,33.4
		c9.3,10.4,18.7,20.6,28.1,30.9c-1.7-4.5-4.1-8.7-6.4-12.9c-8.9-16.3-19.5-31.5-29.6-47.1c-3-4.7-6.3-9.3-7.9-14.7
		c0.2,0,0.3,0,0.5,0c3,3.4,6.1,6.7,9.1,10.1c13.9,15.4,26.8,31.4,36.1,50.1c1.7,3.4,3.3,6.9,5,10.5c0.8-5.6-4.8-26.4-10.3-37.7
		c-5.7-11.9-13.2-22.5-23.5-31.7c22.3,9,40.4,37,42.4,69.2c1.2-3.2,1.5-6.5,1.3-9.9c-0.9-16.4-7.9-30.7-15.8-44.7
		c-2.1-3.7-4.5-7.2-6.7-10.8C235.3,7.8,235.5,7.7,235.9,7.8z"/>
	<path class="st1" d="M4.4,164.7c1.7-4.7,4.2-8.6,9-10.7c5.4-2.3,10.9-2.1,16.3-0.1c1,0.4,2.1,0.8,1.2,2.4c-0.7,1.3-1,1.9-2.7,1.2
		c-5.8-2.6-12.4-1.6-16,2.2c-3.5,3.6-4.2,7.9-2.8,12.6c1.6,4.8,5.2,7.4,10.1,8.4c2,0.4,4.1,0.2,6.1,0c1.2-0.1,1.9-0.6,1.8-2
		c-0.1-2.3,0.1-4.7-0.1-7c-0.1-1.7,0.9-1.6,2-1.6c1.1,0,2.3-0.4,2.3,1.6c-0.1,3.3,0,6.7,0,10c0,0.8-0.1,1.3-1,1.6
		c-7,2.1-13.9,2.6-20.3-2.1c-3.1-2.3-4.7-5.6-6-9C4.4,169.5,4.4,167.1,4.4,164.7z"/>
	<path class="st2" d="M294.5,90.5c4.7-4.6,8.8-9.8,12.1-15.5c-0.4,3.1-1.8,5.8-3,8.5c-2.6,5.7-6.4,10.1-12.5,12.3
		c-3.3,1.2-6.6,2.7-10,3.6c-2.1,0.6-4.2,1.1-6.6,1.2c2-5.2,3.7-10.3,4.6-15.7c2.2-13,1.2-25.8-3-38.2c-2-5.8-2.6-11.9-4.7-17.7
		c-2.2-5.8-4.7-11.5-8-16.7c1.1-0.4,1.5,0.6,2.1,1.2c8.4,8.5,13.3,19,16.3,30.4c1.9,7.1,2.8,14.4,3,21.7c0,0.4,0.1,0.9,0.3,1.3
		c4.1-16,3.1-31.7-1.8-47.4c2.9,3.4,4.8,7.3,6.2,11.4c4.1,11.8,4.4,23.8,2.5,36c-0.1,0.7-0.2,1.3-0.3,2c-0.3,0.7,0,1.5-0.3,2.2
		c-0.1,0.2-0.2,0.4-0.3,0.6c0.6-0.5,0.3-1.5,1-1.9c4.3-10.9,6.4-22.2,5.9-33.9c5.5,15.5,2.3,30.3-4,44.8c5.8-7.5,9.4-16,11.7-25.1
		c1,13.1-4.3,24-11.8,34.2c-0.1,0.3-0.3,0.6-0.3,0.9C294,90.8,294.3,90.7,294.5,90.5z"/>
	<path class="st1" d="M434.2,158.4c0,8.1,0,15.7,0,23.3c0,1.6-0.2,2.4-2.1,2.4c-1.9,0-2-0.8-2-2.3c0.1-9,0.1-18,0-27.1
		c0-1.5,0.4-1.8,1.9-1.9c2.5-0.2,3.9,0.7,5.2,2.8c4.7,7.4,9.6,14.6,14.8,22.3c0-0.9,0-1.6,0-2.2c0-7,0.1-14.1,0-21.1
		c0-1.8,0.8-1.8,2-1.7c1.1,0.1,2.2-0.3,2.1,1.6c-0.1,9.4-0.1,18.8,0,28.2c0,1.3-0.5,1.5-1.7,1.6c-2.2,0.2-3.5-0.5-4.7-2.4
		C444.7,174.1,439.5,166.5,434.2,158.4z"/>
	<path class="st1" d="M286.8,177.9c0-7.8,0-15.2,0-22.6c0-2.1,1.7-3.2,3.6-2.4c0.7,0.3,0.5,0.9,0.5,1.3c0,9.5,0,19.1,0,28.6
		c0,1.1-0.4,1.3-1.4,1.4c-2.3,0.3-3.7-0.4-5-2.4c-4.9-7.7-10.1-15.4-15.5-23.5c0,1.3,0,2,0,2.8c0,7-0.1,14.1,0,21.1
		c0,1.8-0.9,1.7-2.1,1.7c-1.2,0-2.1,0.1-2.1-1.7c0.1-9.2,0.1-18.5,0-27.7c0-1.5,0.5-1.7,1.8-1.7c2.4-0.2,3.9,0.5,5.3,2.7
		C276.7,162.9,281.7,170.1,286.8,177.9z"/>
	<path class="st1" d="M227.3,164.8c0-3.4,0.1-6.8,0-10.2c-0.1-1.8,0.9-1.7,2.1-1.7c1.1,0,2.2-0.3,2.1,1.6
		c-0.1,6.1-0.1,12.1-0.1,18.2c0,4.2,1.5,6.6,4.8,7.9c3.5,1.3,7.6,0.4,10-2.1c1.3-1.3,1.6-2.8,1.6-4.5c0-6.3,0.1-12.6-0.1-18.9
		c0-1.9,0.6-2.2,2.3-2.2c1.7,0,2.2,0.4,2.2,2.1c-0.1,6,0,12-0.1,18c0,6.3-2.8,10.1-8.8,11.4c-4.4,1-8.7,0.6-12.5-2.4
		c-2.4-1.9-3.6-4.4-3.7-7.5C227.2,171.3,227.3,168,227.3,164.8z"/>
	<path class="st1" d="M99.9,164.5c0,3,0,6.1,0,9.1c0,5.1-2.4,8.7-7.2,10.3c-4.6,1.5-9.2,1.3-13.4-1.5c-2.9-2-4.2-4.8-4.2-8.3
		c0-6.4,0.1-12.9-0.1-19.3c0-1.7,0.7-1.9,2.1-1.9c1.5,0,2.1,0.3,2,2c-0.1,6-0.1,12,0,18c0,3.3,1,6.2,4.3,7.6
		c3.4,1.4,6.6,1.2,9.6-0.9c2.4-1.7,2.7-4.3,2.7-6.9c0-5.8,0.1-11.7,0-17.5c0-1.7,0.4-2.2,2.1-2.2c1.7,0,2.2,0.4,2.2,2.2
		C99.8,158.1,99.9,161.3,99.9,164.5z"/>
	<path class="st1" d="M379.9,180.8c2,0,3.9-0.4,5.8-1.1c1.1-0.4,1.5-0.1,1.7,0.9c0.2,0.8,1.2,1.7-0.4,2.4
		c-6.5,2.6-12.8,2.4-18.4-2.1c-5.3-4.3-6.7-10.3-5.1-16.8c1.7-6.6,6.3-10.5,13-11.6c3.6-0.6,7.1,0,10.3,1.7c0.8,0.4,2.3,0.6,1.2,2.2
		c-0.7,1-1,2.3-3,1.2c-6.9-3.8-14.7-0.7-16.9,6.4c-2.1,6.6,0.9,14.7,8.3,16.3C377.5,180.6,378.7,180.6,379.9,180.8z"/>
	<path class="st3" d="M314.6,170.3c0,3.9-0.1,7.7,0,11.6c0.1,1.8-0.6,2-2.2,2.1c-1.7,0-2.1-0.5-2.1-2.2c0.1-7.7,0-15.5,0.1-23.2
		c0-1.8-0.6-2.3-2.3-2.2c-2.3,0.1-4.5,0-6.8,0.1c-1.4,0.1-1.5-0.7-1.4-1.7c0.1-0.9-0.4-2,1.3-2c7.5,0.1,15,0.1,22.5,0
		c1.4,0,1.4,0.7,1.4,1.7c-0.1,0.9,0.4,2-1.3,2c-2.4-0.1-4.8,0.1-7.3-0.1c-1.4-0.1-2,0.3-1.9,1.8
		C314.6,162.3,314.6,166.3,314.6,170.3z"/>
	<path class="st4" d="M293.8,109.9c4.8-3.7,9.4-7.4,15-9.8c7.5-3.2,13.7-8.4,18.9-14.9c0.9-1.2,1.8-2.4,3.1-3.3
		c1.1-0.8,2.3-1.1,3.3-0.1c1,1,0.4,2.1-0.3,3.1c-0.2,0.3-0.5,0.6-0.8,0.8c-11.4,10.5-24.3,18.6-38.8,24.1
		C294.2,110,294.1,109.9,293.8,109.9z"/>
	<path class="st5" d="M235.9,7.8c-0.2,0.2-0.3,0.3-0.5,0.5c-0.8-0.6-1.2-1.4-1.6-2.4C234.6,6.4,235.4,6.9,235.9,7.8z"/>
	<path class="st6" d="M292.2,70.1c-0.2,0.9-0.4,1.7-1.5,2.7c0.6-1.4,0.4-2.6,1-3.6C292,69.4,291.8,69.9,292.2,70.1z"/>
	<path class="st7" d="M294.5,90.5c-0.4,0.8-1.1,1.4-2,1.8c0.3-0.9,0.8-1.7,1.5-2.2C294.2,90.2,294.4,90.4,294.5,90.5z"/>
	<path class="st1" d="M155.8,152.4c-9.3,0-15.8,6.6-15.8,16c-0.4,7.7,5.2,16,15.8,16.1c9.2,0.1,16-6.8,16-16
		C171.8,159.1,165.2,152.4,155.8,152.4z M166,173.9c-2.3,5-7.2,7.8-12,6.8c-5.4-1.1-9.3-5.9-9.6-11.4c-0.4-7,4.5-12.2,9.3-13
		c0.7-0.1,1.3-0.2,1.5-0.2C164.1,156,169.7,165.7,166,173.9z"/>
	<path class="st1" d="M56.9,170.3c0.8-0.3,1.6-0.6,2.3-1c3.5-1.7,5.3-5.2,4.8-9.4c-0.4-3.6-2.9-6.1-6.8-6.8
		c-3.9-0.7-7.9-0.2-11.8-0.3c-1.3,0-0.9,0.9-0.9,1.6c0,9.3,0,18.6-0.1,27.9c0,1.7,0.9,1.6,2,1.5c1.1,0,2.3,0.4,2.2-1.5
		c-0.1-3.3-0.1-6.7,0-10c0-0.6-0.3-1.5,0.5-1.5c1.5-0.1,3.2-0.8,4.4,1.2c1.8,3,4.1,5.8,5.7,8.9c1.5,2.8,3.6,3.5,6.4,2.7
		c0-0.1,0.1-0.2,0-0.2C62.8,179.1,59.8,174.7,56.9,170.3z M48.5,161.8c0-5.3,0-5.3,5.4-5.3c4,0,5.4,1.1,5.8,4.4
		c0.3,3.5-1.3,5.6-4.9,6.3C48.9,168.4,48.5,168.1,48.5,161.8z"/>
	<path class="st1" d="M420.7,182.5c-3.6-9.8-7.2-19.5-10.8-29.2c-0.2-0.6-0.4-1.2-1.3-1.3c-2.8-0.4-3.5,0-4.5,2.6
		c-0.4,1-0.8,2-1.1,2.9c-3,8.2-6.1,16.4-9.1,24.6c-0.2,0.5-1,1.2-0.2,1.8c1.2,0.9,4-0.2,4.6-1.7c0.7-2,1.5-3.9,2.1-5.9
		c0.3-1.1,0.9-1.4,2-1.4c2,0.1,3.9,0,5.9,0c5.1,0,5.1,0,6.9,4.9c0.3,0.8,0.6,1.5,0.8,2.3c0.4,1.5,1.2,2.2,3,1.7
		C419.4,183.4,421.6,185,420.7,182.5z M410.7,171.1c-2.7,0-5.4,0-8.4,0c1.6-4.5,3.2-8.7,4.9-13.4c1.6,4.4,3.1,8.4,4.6,12.5
		C412.2,171.2,411.3,171.1,410.7,171.1z"/>
	<path class="st1" d="M492.4,182.8c-3.6-9.9-7.3-19.7-10.9-29.6c-0.6-1.6-1.7-1.1-2.8-1.2c-1.1-0.1-2.2-0.1-2.7,1.4
		c-1.4,4.1-2.9,8-4.4,12.1c-2.1,5.6-4.1,11.3-6.3,16.9c-0.5,1.2-0.2,1.5,1,1.6c2.3,0.3,3.4-0.6,3.9-2.8c0.5-2,0.9-4.5,2.3-5.8
		c1.5-1.4,4.2-0.5,6.3-0.5c6.1-0.1,6.1,0,8.2,5.9c1.3,3.6,1.3,3.6,5.4,2.9C492.5,183.4,492.5,183.1,492.4,182.8z M475.2,171.1
		c-0.7,0-1.3-0.1-0.9-1c1.5-4,3-8,4.6-12.4c1.7,4.8,3.2,9,4.8,13.4C480.7,171.1,478,171.1,475.2,171.1z"/>
	<path class="st1" d="M356.4,182.6c-3.6-9.8-7.3-19.6-10.8-29.4c-0.5-1.5-1.5-1.2-2.5-1.2c-1,0-2.2-0.5-2.8,1.2
		c-3.6,9.8-7.2,19.6-10.8,29.4c-0.1,0.4-0.5,0.8-0.1,1.2c0.7,0.7,4.1,0,4.5-1c0.8-2.1,1.6-4.2,2.3-6.4c0.3-1.1,0.9-1.6,2.1-1.5
		c3.2,0.1,6.4,0.1,9.5,0c1.2,0,1.7,0.5,2,1.6c0.6,1.9,1.5,3.6,2,5.5c0.4,1.6,1.2,2.4,3.1,1.9C355.1,183.3,357.4,185.1,356.4,182.6z
		 M339.1,171.1c-1,0-0.9-0.4-0.6-1.1c1.5-4,2.9-8,4.5-12.3c1.7,4.6,3.2,8.9,4.9,13.4C344.8,171.1,341.9,171.1,339.1,171.1z"/>
	<path class="st1" d="M132.7,159.9c-0.5-3.4-2.9-5.9-6.3-6.6c-4-0.8-8-0.2-12-0.5c-1.4-0.1-1.8,0.4-1.8,1.8c0.1,4.5,0,9.1,0,13.6
		c0,4.7,0.1,9.4-0.1,14.1c-0.1,1.9,1,1.6,2.1,1.6c1.2,0,2.2,0.1,2.1-1.7c-0.2-2.3,0-4.7,0-7c0-3.1,0-3.1,3.1-2.6
		C128.4,173.8,133.9,168.3,132.7,159.9z M123.2,168.9c-0.3,0.1-0.6,0.1-0.9,0.2c-4.8,0.7-5.6,0.1-5.6-4.6c0-1.9,0.2-3.8,0-5.7
		c-0.2-2,0.6-2.5,2.4-2.3c0.6,0.1,1.2,0,1.8,0c0.5,0,0.9,0,1.4,0c4,0,6,1.7,6.3,5.2C128.9,165.5,126.8,168.3,123.2,168.9z"/>
	<path class="st1" d="M218.2,160.9c-0.3-3.7-2.7-6.8-6.3-7.6c-2.4-0.6-4.8-0.4-6.9-0.4c-2,0-3.7,0.1-5.4,0c-1.3-0.1-1.7,0.3-1.7,1.6
		c0.1,9.3,0.1,18.6,0,27.9c0,1.9,1.2,1.5,2.2,1.5c1.2,0.1,2.2,0.1,2.1-1.7c-0.2-2.4,0-4.8,0-7.3c0-2.8,0-2.8,2.9-2.4
		C212.3,173.5,218.9,169.7,218.2,160.9z M209.6,168.7c-0.2,0.1-0.5,0-0.7,0.1c-2.2,0.6-4.7,0.9-6.4-0.3c-1.1-0.8-0.2-3.3-0.3-5
		c0-0.3,0-0.6,0-0.9c0,0,0.1,0,0.1,0c0-2-0.7-4.5,0.2-5.7c1-1.3,3.7-0.4,5.6-0.4c3.5,0,5.2,1.5,5.7,4.8
		C214.3,164.7,212.5,167.9,209.6,168.7z"/>
	<path class="st1" d="M502.7,151.7c-3,0-5.2,2.4-5.2,5.4c0.1,2.9,2.3,5.1,5.3,5.1c2.9,0,5.2-2.3,5.2-5.2
		C508,154,505.6,151.6,502.7,151.7z M502.7,161.3c-2.3,0-4.3-2-4.4-4.3c0-2.4,1.9-4.4,4.3-4.4c2.4,0,4.4,2,4.4,4.4
		C507.1,159.3,505.1,161.3,502.7,161.3z"/>
	<path class="st1" d="M504.7,159c-0.3-0.6-0.8-1.1-1.2-1.7c0.9-0.4,1.5-1,1.2-2c-0.3-1-1.1-1.1-2-1.1c-0.6,0-1.1,0-1.7,0
		c-0.5,0-0.6,0.2-0.6,0.6c0,1.5,0,2.9,0,4.4c0,0.3-0.1,0.7,0.4,0.7c0.6,0,0.5-0.4,0.5-0.7c0-0.2,0-0.4,0-0.6c0.1-0.4-0.3-0.9,0.2-1
		c0.5-0.2,1,0,1.3,0.5c0.3,0.5,0.6,1,0.9,1.5c0.2,0.4,0.6,0.4,0.9,0.3C505.3,159.5,504.8,159.2,504.7,159z M502.3,156.6
		c-0.6,0.1-0.9-0.1-0.9-0.8c0-0.7,0.1-1,0.9-0.9c0.6,0.1,1.5-0.1,1.5,0.9C503.8,156.8,502.9,156.5,502.3,156.6z"/>
</g>
</svg>
