<?xml version="1.0" encoding="utf-8"?>
<!-- Generator: Adobe Illustrator 21.0.0, SVG Export Plug-In . SVG Version: 6.00 Build 0)  -->
<svg version="1.1" xmlns="http://www.w3.org/2000/svg" xmlns:xlink="http://www.w3.org/1999/xlink" x="0px" y="0px"
	 viewBox="0 0 420 284" style="enable-background:new 0 0 420 284;" xml:space="preserve">
<style type="text/css">
	.st0{display:none;}
	.st1{display:inline;}
	.st2{fill:#E2E5E7;}
	.st3{fill:#D1D5D5;}
	.st4{fill:#C6CBCB;}
	.st5{fill:#2D404E;}
	.st6{fill:#DF584C;}
	.st7{fill:#212529;}
	.st8{fill:#FAFAFA;}
	.st9{display:inline;fill:#ECE7EA;}
	.st10{display:inline;fill:#1B4145;}
	.st11{display:inline;fill:#6FC5D6;}
	.st12{display:inline;fill:#F14742;}
	.st13{fill:#8B7E7F;}
	.st14{display:inline;fill:#8B7E7F;}
	.st15{display:inline;fill:#9B9B9B;}
	.st16{display:inline;fill:#FAFAFA;}
	.st17{display:inline;fill:#FF2F32;}
	.st18{display:inline;fill:#FFFFFF;}
	.st19{display:inline;fill:#212529;}
	.st20{display:inline;fill:#002EAD;}
	.st21{display:inline;fill:#5C6266;}
	.st22{display:inline;fill:#00253D;}
	.st23{display:inline;fill:#D5D6DB;}
	.st24{display:inline;fill:#797D80;}
	.st25{display:inline;fill:#3D93CC;}
	.st26{fill:#797D80;}
	.st27{display:inline;fill:#A6BA47;}
	.st28{display:inline;fill:#DAE1E6;}
	.st29{display:inline;fill:#002E4D;}
	.st30{fill:#565656;}
	.st31{fill:#FF2F32;}
	.st32{fill:#FFFFFF;}
	.st33{fill:#383838;}
	.st34{fill:#5CAEE6;}
	.st35{clip-path:url(#SVGID_2_);fill:#383838;}
	.st36{clip-path:url(#SVGID_2_);fill:#212529;}
	.st37{fill:#00253D;}
	.st38{fill:#F8B64C;}
	.st39{opacity:0.1;}
	.st40{clip-path:url(#SVGID_4_);fill:#40596B;}
	.st41{fill:#FFD15C;}
	.st42{fill:#3A2929;}
	.st43{fill:#ACB3BA;}
</style>
<g id="Capa_1" class="st0">
	<g class="st1">
		<path class="st2" d="M512,169.2c0,7.1-5.8,12.9-12.9,12.9H13.6c-7.1,0-12.9-5.8-12.9-12.9v-326.4c0-7.1,5.8-12.9,12.9-12.9h485.5
			c7.1,0,12.9,5.8,12.9,12.9V169.2z M512,169.2"/>
		<path class="st3" d="M314.3,182.2h-116c0,0-2.3,38.8-7,47h130.1C316.7,220.9,314.3,182.2,314.3,182.2L314.3,182.2z M314.3,182.2"
			/>
		<path class="st4" d="M332.2,232.4c-7-0.9-10.9-3.2-10.9-3.2H191.3c0,0-3.8,2.4-10.9,3.2c-7,0.9-11.7,1.5-11.7,5H344
			C344,233.8,339.3,233.3,332.2,232.4L332.2,232.4z M332.2,232.4"/>
		<path class="st5" d="M499.1-170.1H13.6c-7.1,0-12.9,5.8-12.9,12.9V136H512v-293.1C512-164.3,506.2-170.1,499.1-170.1L499.1-170.1z
			 M490.8,117.6h-469v-269.3h469V117.6z M490.8,117.6"/>
		<rect x="21.9" y="-151.7" class="st6" width="469" height="269.3"/>
		<path class="st4" d="M314.3,182.2h-116c0,0-0.3,5.8-1,13.3h118.1C314.7,187.9,314.3,182.2,314.3,182.2L314.3,182.2z M314.3,182.2"
			/>
		<path class="st5" d="M264.8,160.2c0,4.6-3.8,8.4-8.4,8.4c-4.6,0-8.4-3.8-8.4-8.4c0-4.6,3.8-8.4,8.4-8.4
			C261.1,151.8,264.8,155.5,264.8,160.2L264.8,160.2z M264.8,160.2"/>
	</g>
	<g class="st1">
		<path class="st7" d="M512,168c0,7.1-5.8,12.9-12.9,12.9H13.6c-7.1,0-12.9-5.8-12.9-12.9v-326.4c0-7.1,5.8-12.9,12.9-12.9h485.5
			c7.1,0,12.9,5.8,12.9,12.9V168z M512,168"/>
		<path class="st7" d="M314.3,180.9h-116c0,0-2.3,38.8-7,47h130.1C316.7,219.7,314.3,180.9,314.3,180.9L314.3,180.9z M314.3,180.9"
			/>
		<path class="st7" d="M332.2,231.1c-7-0.9-10.9-3.2-10.9-3.2H191.3c0,0-3.8,2.4-10.9,3.2c-7,0.9-11.7,1.5-11.7,5H344
			C344,232.6,339.3,232,332.2,231.1L332.2,231.1z M332.2,231.1"/>
		<path class="st7" d="M499.1-171.3H13.6c-7.1,0-12.9,5.8-12.9,12.9v293.1H512v-293.1C512-165.5,506.2-171.3,499.1-171.3
			L499.1-171.3z M490.8,116.4h-469V-153h469V116.4z M490.8,116.4"/>
		<rect x="21.9" y="-153" class="st8" width="469" height="269.3"/>
		<path class="st7" d="M314.3,180.9h-116c0,0-0.3,5.8-1,13.3h118.1C314.7,186.7,314.3,180.9,314.3,180.9L314.3,180.9z M314.3,180.9"
			/>
		<path class="st8" d="M264.8,158.9c0,4.6-3.8,8.4-8.4,8.4c-4.6,0-8.4-3.8-8.4-8.4c0-4.6,3.8-8.4,8.4-8.4
			C261.1,150.5,264.8,154.3,264.8,158.9L264.8,158.9z M264.8,158.9"/>
	</g>
	<g class="st1">
		<path class="st2" d="M512,169.2c0,7.1-5.8,12.9-12.9,12.9H13.6c-7.1,0-12.9-5.8-12.9-12.9v-326.4c0-7.1,5.8-12.9,12.9-12.9h485.5
			c7.1,0,12.9,5.8,12.9,12.9V169.2z M512,169.2"/>
		<path class="st3" d="M314.3,182.2h-116c0,0-2.3,38.8-7,47h130.1C316.7,220.9,314.3,182.2,314.3,182.2L314.3,182.2z M314.3,182.2"
			/>
		<path class="st4" d="M332.2,232.4c-7-0.9-10.9-3.2-10.9-3.2H191.3c0,0-3.8,2.4-10.9,3.2c-7,0.9-11.7,1.5-11.7,5H344
			C344,233.8,339.3,233.3,332.2,232.4L332.2,232.4z M332.2,232.4"/>
		<path class="st5" d="M499.1-170.1H13.6c-7.1,0-12.9,5.8-12.9,12.9V136H512v-293.1C512-164.3,506.2-170.1,499.1-170.1L499.1-170.1z
			 M490.8,117.6h-469v-269.3h469V117.6z M490.8,117.6"/>
		<rect x="21.9" y="-151.7" class="st6" width="469" height="269.3"/>
		<path class="st4" d="M314.3,182.2h-116c0,0-0.3,5.8-1,13.3h118.1C314.7,187.9,314.3,182.2,314.3,182.2L314.3,182.2z M314.3,182.2"
			/>
		<path class="st5" d="M264.8,160.2c0,4.6-3.8,8.4-8.4,8.4c-4.6,0-8.4-3.8-8.4-8.4c0-4.6,3.8-8.4,8.4-8.4
			C261.1,151.8,264.8,155.5,264.8,160.2L264.8,160.2z M264.8,160.2"/>
	</g>
	<g class="st1">
		<path class="st7" d="M512,168c0,7.1-5.8,12.9-12.9,12.9H13.6c-7.1,0-12.9-5.8-12.9-12.9v-326.4c0-7.1,5.8-12.9,12.9-12.9h485.5
			c7.1,0,12.9,5.8,12.9,12.9V168z M512,168"/>
		<path class="st7" d="M314.3,180.9h-116c0,0-2.3,38.8-7,47h130.1C316.7,219.7,314.3,180.9,314.3,180.9L314.3,180.9z M314.3,180.9"
			/>
		<path class="st7" d="M332.2,231.1c-7-0.9-10.9-3.2-10.9-3.2H191.3c0,0-3.8,2.4-10.9,3.2c-7,0.9-11.7,1.5-11.7,5H344
			C344,232.6,339.3,232,332.2,231.1L332.2,231.1z M332.2,231.1"/>
		<path class="st7" d="M499.1-171.3H13.6c-7.1,0-12.9,5.8-12.9,12.9v293.1H512v-293.1C512-165.5,506.2-171.3,499.1-171.3
			L499.1-171.3z M490.8,116.4h-469V-153h469V116.4z M490.8,116.4"/>
		<rect x="21.9" y="-153" class="st8" width="469" height="269.3"/>
		<path class="st7" d="M314.3,180.9h-116c0,0-0.3,5.8-1,13.3h118.1C314.7,186.7,314.3,180.9,314.3,180.9L314.3,180.9z M314.3,180.9"
			/>
		<path class="st8" d="M264.8,158.9c0,4.6-3.8,8.4-8.4,8.4c-4.6,0-8.4-3.8-8.4-8.4c0-4.6,3.8-8.4,8.4-8.4
			C261.1,150.5,264.8,154.3,264.8,158.9L264.8,158.9z M264.8,158.9"/>
	</g>
	<polygon class="st9" points="490.8,-121 490.8,116.4 21.6,116.4 21.6,-121 256.2,-133.8 	"/>
	<rect x="21.9" y="-153" class="st10" width="469" height="31.9"/>
	<ellipse class="st11" cx="420.3" cy="-137" rx="7.8" ry="4.8"/>
	<ellipse class="st12" cx="456.9" cy="-137" rx="7.8" ry="4.8"/>
	<ellipse class="st11" cx="383.7" cy="-137" rx="7.8" ry="4.8"/>
	<g class="st1">
		<path class="st13" d="M428.1-49.2H83.3c-4.3,0-7.8-2.1-7.8-4.8s3.5-4.8,7.8-4.8h344.8c4.3,0,7.8,2.1,7.8,4.8
			S432.5-49.2,428.1-49.2z"/>
		<path class="st13" d="M428.1-74.7H83.3c-4.3,0-7.8-2.1-7.8-4.8s3.5-4.8,7.8-4.8h344.8c4.3,0,7.8,2.1,7.8,4.8
			S432.5-74.7,428.1-74.7z"/>
		<path class="st13" d="M234.8,1.9H83.3c-4.3,0-7.8-2.1-7.8-4.8s3.5-4.8,7.8-4.8h151.5c4.3,0,7.8,2.1,7.8,4.8S239.2,1.9,234.8,1.9z"
			/>
		<path class="st13" d="M234.8-23.7H83.3c-4.3,0-7.8-2.1-7.8-4.8s3.5-4.8,7.8-4.8h151.5c4.3,0,7.8,2.1,7.8,4.8
			S239.2-23.7,234.8-23.7z"/>
		<path class="st13" d="M234.8,27.4H83.3c-4.3,0-7.8-2.1-7.8-4.8s3.5-4.8,7.8-4.8h151.5c4.3,0,7.8,2.1,7.8,4.8
			S239.2,27.4,234.8,27.4z"/>
		<path class="st13" d="M234.8,53H83.3c-4.3,0-7.8-2.1-7.8-4.8c0-2.6,3.5-4.8,7.8-4.8h151.5c4.3,0,7.8,2.1,7.8,4.8
			C242.7,50.8,239.2,53,234.8,53z"/>
	</g>
	<path class="st12" d="M292.3-28.4h120.1c8.7,0,15.7,4.3,15.7,9.6v83c0,5.3-7,9.6-15.7,9.6H292.3c-8.7,0-15.7-4.3-15.7-9.6v-83
		C276.6-24.1,283.7-28.4,292.3-28.4z"/>
	<path class="st14" d="M234.8,78.5H83.3c-4.3,0-7.8-2.1-7.8-4.8s3.5-4.8,7.8-4.8h151.5c4.3,0,7.8,2.1,7.8,4.8S239.2,78.5,234.8,78.5
		z"/>
</g>
<g id="Capa_2" class="st0">
	<g class="st1">
		<path class="st2" d="M511.6,169.6c0,7.1-5.8,12.9-12.9,12.9H13.3c-7.1,0-12.9-5.8-12.9-12.9v-326.4c0-7.1,5.8-12.9,12.9-12.9
			h485.5c7.1,0,12.9,5.8,12.9,12.9V169.6z M511.6,169.6"/>
		<path class="st3" d="M314,182.5H198c0,0-2.3,38.8-7,47H321C316.3,221.2,314,182.5,314,182.5L314,182.5z M314,182.5"/>
		<path class="st4" d="M331.9,232.7c-7-0.9-10.9-3.2-10.9-3.2H191c0,0-3.8,2.4-10.9,3.2c-7,0.9-11.7,1.5-11.7,5h175.3
			C343.6,234.2,338.9,233.6,331.9,232.7L331.9,232.7z M331.9,232.7"/>
		<path class="st5" d="M498.7-169.8H13.3c-7.1,0-12.9,5.8-12.9,12.9v293.1h511.3v-293.1C511.6-164,505.9-169.8,498.7-169.8
			L498.7-169.8z M490.5,117.9h-469v-269.3h469V117.9z M490.5,117.9"/>
		<rect x="21.5" y="-151.4" class="st6" width="469" height="269.3"/>
		<path class="st4" d="M314,182.5H198c0,0-0.3,5.8-1,13.3H315C314.3,188.3,314,182.5,314,182.5L314,182.5z M314,182.5"/>
		<path class="st5" d="M264.5,160.5c0,4.6-3.8,8.4-8.4,8.4c-4.6,0-8.4-3.8-8.4-8.4c0-4.6,3.8-8.4,8.4-8.4
			C260.7,152.1,264.5,155.8,264.5,160.5L264.5,160.5z M264.5,160.5"/>
	</g>
	<g class="st1">
		<path class="st7" d="M512,168.3c0,7.1-5.8,12.9-12.9,12.9H13.3c-7.1,0-12.9-5.8-12.9-12.9v-326.4c0-7.1,5.8-12.9,12.9-12.9h485.8
			c7.1,0,12.9,5.8,12.9,12.9V168.3z M512,168.3"/>
		<path class="st7" d="M314.2,181.2H198.1c0,0-2.3,38.8-7.1,47h130.2C316.6,220,314.2,181.2,314.2,181.2L314.2,181.2z M314.2,181.2"
			/>
		<path class="st7" d="M332.1,231.4c-7.1-0.9-10.9-3.2-10.9-3.2H191.1c0,0-3.8,2.4-10.9,3.2c-7,0.9-11.7,1.5-11.7,5h175.4
			C343.9,232.9,339.2,232.3,332.1,231.4L332.1,231.4z M332.1,231.4"/>
		<path class="st7" d="M499.1-171H13.3c-7.1,0-12.9,5.8-12.9,12.9v293.1H512v-293.1C512-165.2,506.2-171,499.1-171L499.1-171z
			 M490.8,116.7H21.5v-269.3h469.3V116.7z M490.8,116.7"/>
		<rect x="21.5" y="-152.6" class="st8" width="469.3" height="269.3"/>
		<path class="st7" d="M314.2,181.2H198.1c0,0-0.3,5.8-1,13.3h118.2C314.6,187,314.2,181.2,314.2,181.2L314.2,181.2z M314.2,181.2"
			/>
		<path class="st8" d="M264.6,159.2c0,4.6-3.8,8.4-8.4,8.4c-4.6,0-8.4-3.8-8.4-8.4c0-4.6,3.8-8.4,8.4-8.4
			C260.9,150.8,264.6,154.6,264.6,159.2L264.6,159.2z M264.6,159.2"/>
	</g>
	<polygon class="st15" points="490.8,64.5 490.8,116.7 21.4,116.7 21.4,64.5 256.1,44.9 	"/>
	<rect x="21.4" y="-152.9" class="st16" width="469.5" height="217.3"/>
	<ellipse class="st17" cx="256.2" cy="-37" rx="48.6" ry="43.4"/>
	<polygon class="st18" points="240.2,-61.9 288.5,-37 240.2,-12.1 	"/>
	<path class="st9" d="M449.1,95.5h-386c-4.3,0-7.8-2.2-7.8-4.9c0-2.7,3.5-4.9,7.8-4.9h386c4.3,0,7.8,2.2,7.8,4.9
		C456.9,93.3,453.4,95.5,449.1,95.5z"/>
	<ellipse class="st19" cx="63.5" cy="90.6" rx="9.2" ry="5.7"/>
</g>
<g id="Capa_3" class="st0">
	<g>
		<path class="st19" d="M512,180.3c0,7.1-5.8,12.9-12.9,12.9H13.3c-7.1,0-12.9-5.8-12.9-12.9v-326.4c0-7.1,5.8-12.9,12.9-12.9h485.8
			c7.1,0,12.9,5.8,12.9,12.9V180.3z M512,180.3"/>
		<path class="st19" d="M314.2,193.2H198.1c0,0-2.3,38.8-7.1,47h130.2C316.6,232,314.2,193.2,314.2,193.2L314.2,193.2z M314.2,193.2
			"/>
		<path class="st19" d="M332.1,243.4c-7.1-0.9-10.9-3.2-10.9-3.2H191.1c0,0-3.8,2.4-10.9,3.2c-7,0.9-11.7,1.5-11.7,5h175.4
			C343.9,244.9,339.2,244.3,332.1,243.4L332.1,243.4z M332.1,243.4"/>
		<path class="st19" d="M499.1-159H13.3c-7.1,0-12.9,5.8-12.9,12.9v293.1H512v-293.1C512-153.2,506.2-159,499.1-159L499.1-159z
			 M490.8,128.7H21.5v-269.3h469.3V128.7z M490.8,128.7"/>
		<rect x="21.5" y="-140.6" class="st16" width="469.3" height="269.3"/>
		<path class="st19" d="M314.2,193.2H198.1c0,0-0.3,5.8-1,13.3h118.2C314.6,199,314.2,193.2,314.2,193.2L314.2,193.2z M314.2,193.2"
			/>
		<path class="st16" d="M264.6,171.2c0,4.6-3.8,8.4-8.4,8.4c-4.6,0-8.4-3.8-8.4-8.4c0-4.6,3.8-8.4,8.4-8.4
			C260.9,162.8,264.6,166.6,264.6,171.2L264.6,171.2z M264.6,171.2"/>
	</g>
	<path class="st20" d="M412-171.3H18.4c-10.2,0-18.4,8.2-18.4,18.4v62h430.3v-62C430.4-163.1,422.1-171.3,412-171.3z"/>
	<path class="st21" d="M0.1-90.9v331.5c0,10.2,8.2,18.4,18.4,18.4H412c10.2,0,18.4-8.2,18.4-18.4V-90.9L0.1-90.9L0.1-90.9z"/>
	<path class="st16" d="M0.1-90.9V225c0,10.2,8.2,18.4,18.4,18.4H412c10.2,0,18.4-8.2,18.4-18.4V-90.9H0.1z"/>
	<circle class="st22" cx="52.1" cy="-110.5" r="11.3"/>
	<circle class="st23" cx="52.1" cy="-71.3" r="11.3"/>
	<path class="st19" d="M52.1-117.9c-4.3,0-7.8,3.5-7.8,7.8v38.4c0,4.3,3.5,7.8,7.8,7.8c4.3,0,7.7-3.5,7.7-7.8v-38.4
		C59.8-114.4,56.4-117.9,52.1-117.9z"/>
	<circle class="st22" cx="378.4" cy="-110.5" r="11.3"/>
	<circle class="st23" cx="378.4" cy="-71.3" r="11.3"/>
	<path class="st19" d="M378.4-117.9c-4.3,0-7.8,3.5-7.8,7.8v38.4c0,4.3,3.5,7.8,7.8,7.8c4.3,0,7.8-3.5,7.8-7.8v-38.4
		C386.1-114.4,382.6-117.9,378.4-117.9z"/>
	<circle class="st22" cx="269.6" cy="-110.5" r="11.3"/>
	<circle class="st23" cx="269.6" cy="-71.3" r="11.3"/>
	<path class="st19" d="M269.6-117.9c-4.3,0-7.8,3.5-7.8,7.8v38.4c0,4.3,3.5,7.8,7.8,7.8c4.3,0,7.8-3.5,7.8-7.8v-38.4
		C277.4-114.4,273.9-117.9,269.6-117.9z"/>
	<circle class="st22" cx="160.8" cy="-110.5" r="11.3"/>
	<circle class="st23" cx="160.8" cy="-71.3" r="11.3"/>
	<path class="st19" d="M160.8-117.9c-4.3,0-7.8,3.5-7.8,7.8v38.4c0,4.3,3.5,7.8,7.8,7.8c4.3,0,7.8-3.5,7.8-7.8v-38.4
		C168.6-114.4,165.1-117.9,160.8-117.9z"/>
	<path class="st24" d="M167.4-23h27.3c4,0,7.2,3.2,7.2,7.2v27.3c0,4-3.2,7.2-7.2,7.2h-27.3c-4,0-7.2-3.2-7.2-7.2v-27.3
		C160.2-19.8,163.4-23,167.4-23z"/>
	<path class="st25" d="M235.8-23h27.3c4,0,7.2,3.2,7.2,7.2v27.3c0,4-3.2,7.2-7.2,7.2h-27.3c-4,0-7.2-3.2-7.2-7.2v-27.3
		C228.6-19.8,231.8-23,235.8-23z"/>
	<path class="st24" d="M304.2-23h27.3c4,0,7.2,3.2,7.2,7.2v27.3c0,4-3.2,7.2-7.2,7.2h-27.3c-4,0-7.2-3.2-7.2-7.2v-27.3
		C297-19.8,300.2-23,304.2-23z"/>
	<path class="st17" d="M372.6-23h27.3c4,0,7.2,3.2,7.2,7.2v27.3c0,4-3.2,7.2-7.2,7.2h-27.3c-4,0-7.2-3.2-7.2-7.2v-27.3
		C365.4-19.8,368.6-23,372.6-23z"/>
	<g class="st1">
		<path class="st26" d="M30.5,42.4h27.3c4,0,7.2,3.2,7.2,7.2v27.3c0,4-3.2,7.2-7.2,7.2H30.5c-4,0-7.2-3.2-7.2-7.2V49.6
			C23.4,45.6,26.6,42.4,30.5,42.4z"/>
		<path class="st26" d="M98.9,42.4h27.3c4,0,7.2,3.2,7.2,7.2v27.3c0,4-3.2,7.2-7.2,7.2H98.9c-4,0-7.2-3.2-7.2-7.2V49.6
			C91.8,45.6,95,42.4,98.9,42.4z"/>
		<path class="st26" d="M167.4,42.4h27.3c4,0,7.2,3.2,7.2,7.2v27.3c0,4-3.2,7.2-7.2,7.2h-27.3c-4,0-7.2-3.2-7.2-7.2V49.6
			C160.2,45.6,163.4,42.4,167.4,42.4z"/>
	</g>
	<path class="st27" d="M235.8,42.4h27.3c4,0,7.2,3.2,7.2,7.2v27.3c0,4-3.2,7.2-7.2,7.2h-27.3c-4,0-7.2-3.2-7.2-7.2V49.6
		C228.6,45.6,231.8,42.4,235.8,42.4z"/>
	<path class="st24" d="M304.2,42.4h27.3c4,0,7.2,3.2,7.2,7.2v27.3c0,4-3.2,7.2-7.2,7.2h-27.3c-4,0-7.2-3.2-7.2-7.2V49.6
		C297,45.6,300.2,42.4,304.2,42.4z"/>
	<path class="st25" d="M372.6,42.4h27.3c4,0,7.2,3.2,7.2,7.2v27.3c0,4-3.2,7.2-7.2,7.2h-27.3c-4,0-7.2-3.2-7.2-7.2V49.6
		C365.4,45.6,368.6,42.4,372.6,42.4z"/>
	<g class="st1">
		<path class="st26" d="M30.5,107.8h27.3c4,0,7.2,3.2,7.2,7.2v27.3c0,4-3.2,7.2-7.2,7.2H30.5c-4,0-7.2-3.2-7.2-7.2V115
			C23.4,111,26.6,107.8,30.5,107.8z"/>
		<path class="st26" d="M98.9,107.8h27.3c4,0,7.2,3.2,7.2,7.2v27.3c0,4-3.2,7.2-7.2,7.2H98.9c-4,0-7.2-3.2-7.2-7.2V115
			C91.8,111,95,107.8,98.9,107.8z"/>
		<path class="st26" d="M167.4,107.8h27.3c4,0,7.2,3.2,7.2,7.2v27.3c0,4-3.2,7.2-7.2,7.2h-27.3c-4,0-7.2-3.2-7.2-7.2V115
			C160.2,111,163.4,107.8,167.4,107.8z"/>
	</g>
	<path class="st25" d="M235.8,107.8h27.3c4,0,7.2,3.2,7.2,7.2v27.3c0,4-3.2,7.2-7.2,7.2h-27.3c-4,0-7.2-3.2-7.2-7.2V115
		C228.6,111,231.8,107.8,235.8,107.8z"/>
	<path class="st24" d="M304.2,107.8h27.3c4,0,7.2,3.2,7.2,7.2v27.3c0,4-3.2,7.2-7.2,7.2h-27.3c-4,0-7.2-3.2-7.2-7.2V115
		C297,111,300.2,107.8,304.2,107.8z"/>
	<path class="st17" d="M372.6,107.8h27.3c4,0,7.2,3.2,7.2,7.2v27.3c0,4-3.2,7.2-7.2,7.2h-27.3c-4,0-7.2-3.2-7.2-7.2V115
		C365.4,111,368.6,107.8,372.6,107.8z"/>
	<g class="st1">
		<path class="st26" d="M30.5,173.2h27.3c4,0,7.2,3.2,7.2,7.2v27.3c0,4-3.2,7.2-7.2,7.2H30.5c-4,0-7.2-3.2-7.2-7.2v-27.3
			C23.4,176.4,26.6,173.2,30.5,173.2z"/>
		<path class="st26" d="M98.9,173.2h27.3c4,0,7.2,3.2,7.2,7.2v27.3c0,4-3.2,7.2-7.2,7.2H98.9c-4,0-7.2-3.2-7.2-7.2v-27.3
			C91.8,176.4,95,173.2,98.9,173.2z"/>
		<path class="st26" d="M167.4,173.2h27.3c4,0,7.2,3.2,7.2,7.2v27.3c0,4-3.2,7.2-7.2,7.2h-27.3c-4,0-7.2-3.2-7.2-7.2v-27.3
			C160.2,176.4,163.4,173.2,167.4,173.2z"/>
	</g>
</g>
<g id="Capa_4" class="st0">
	<g class="st1">
		<path class="st7" d="M430,160.1c0,6-4.9,10.9-10.9,10.9H11.2c-6,0-10.9-4.9-10.9-10.9v-274.3c0-6,4.9-10.9,10.9-10.9h407.9
			c6,0,10.9,4.9,10.9,10.9V160.1z M430,160.1"/>
		<path class="st7" d="M263.9,171h-97.5c0,0-2,32.6-5.9,39.5h109.3C265.9,203.6,263.9,171,263.9,171L263.9,171z M263.9,171"/>
		<path class="st7" d="M279,213.2c-5.9-0.7-9.1-2.7-9.1-2.7H160.5c0,0-3.2,2-9.1,2.7c-5.9,0.7-9.9,1.2-9.9,4.2h147.3
			C288.8,214.4,284.9,213.9,279,213.2L279,213.2z M279,213.2"/>
		<path class="st7" d="M419.1-125H11.2c-6,0-10.9,4.9-10.9,10.9v246.3H430v-246.3C430-120.1,425.1-125,419.1-125L419.1-125z
			 M412.2,116.7H18.1v-226.3h394.1V116.7z M412.2,116.7"/>
		<rect x="18.1" y="-109.6" class="st8" width="394.1" height="226.3"/>
		<path class="st7" d="M263.9,171h-97.5c0,0-0.3,4.8-0.9,11.2h99.2C264.2,175.8,263.9,171,263.9,171L263.9,171z M263.9,171"/>
		<path class="st8" d="M222.3,152.5c0,3.9-3.2,7.1-7.1,7.1c-3.9,0-7.1-3.2-7.1-7.1c0-3.9,3.2-7.1,7.1-7.1
			C219.1,145.4,222.3,148.6,222.3,152.5L222.3,152.5z M222.3,152.5"/>
	</g>
	<path class="st28" d="M359-70.9V92.3c0,8-6.6,14.6-14.6,14.6H86.1c-8,0-14.6-6.6-14.6-14.6V-70.9L359-70.9L359-70.9z"/>
	<path class="st29" d="M71.5-70.9v-45.6c0-8,6.6-14.6,14.6-14.6h258.3c8,0,14.6,6.6,14.6,14.6V-71L71.5-70.9L71.5-70.9z"/>
	<g class="st1">
		<path class="st30" d="M122.6-148.6L122.6-148.6c3.5,0,6.4,2.9,6.4,6.4v31.9c0,3.5-2.9,6.4-6.4,6.4h0c-3.5,0-6.4-2.9-6.4-6.4v-31.9
			C116.3-145.7,119.1-148.6,122.6-148.6z"/>
		<path class="st30" d="M306.6-148.6L306.6-148.6c3.5,0,6.4,2.9,6.4,6.4v31.9c0,3.5-2.9,6.4-6.4,6.4l0,0c-3.5,0-6.4-2.9-6.4-6.4
			v-31.9C300.2-145.7,303.1-148.6,306.6-148.6z"/>
	</g>
	<path class="st19" d="M218.5-15.3h-0.3l-15.5,8.4l-2.3-9.2l19.4-10.4h10.2v88.9h-11.6L218.5-15.3L218.5-15.3z"/>
	<text transform="matrix(1 0 0 1 147.645 -91.4028)" class="st18" style="font-family:'Rockwell'; font-size:26.9557px;">Calendario</text>
</g>
<g id="Capa_5" class="st0">
	<g class="st1">
		<path class="st7" d="M430,136.2c0,6-4.9,10.8-10.9,10.8H11.2c-6,0-10.9-4.9-10.9-10.8v-274.1c0-6,4.9-10.9,10.9-10.9h407.9
			c6,0,10.9,4.9,10.9,10.9V136.2z M430,136.2"/>
		<path class="st7" d="M263.9,147.1h-97.5c0,0-2,32.5-5.9,39.4h109.3C265.9,179.6,263.9,147.1,263.9,147.1L263.9,147.1z
			 M263.9,147.1"/>
		<path class="st7" d="M279,189.2c-5.9-0.7-9.1-2.7-9.1-2.7H160.5c0,0-3.2,2-9.1,2.7c-5.9,0.7-9.9,1.2-9.9,4.2h147.3
			C288.8,190.5,284.9,190,279,189.2L279,189.2z M279,189.2"/>
		<path class="st7" d="M419.1-148.7H11.2c-6,0-10.9,4.9-10.9,10.9v246.2H430v-246.2C430-143.8,425.1-148.7,419.1-148.7L419.1-148.7z
			 M412.2,92.9H18.1v-226.2h394.1V92.9z M412.2,92.9"/>
		<rect x="18.1" y="-133.3" class="st8" width="394.1" height="226.2"/>
		<path class="st7" d="M263.9,147.1h-97.5c0,0-0.3,4.8-0.9,11.2h99.2C264.2,151.9,263.9,147.1,263.9,147.1L263.9,147.1z
			 M263.9,147.1"/>
		<path class="st8" d="M222.3,128.6c0,3.9-3.2,7.1-7.1,7.1c-3.9,0-7.1-3.2-7.1-7.1c0-3.9,3.2-7.1,7.1-7.1
			C219.1,121.6,222.3,124.7,222.3,128.6L222.3,128.6z M222.3,128.6"/>
	</g>
	<g class="st1">
		<path class="st31" d="M216.7-93c22.2,0,40.1,18,40.1,40.1c0,22.1-18,40.1-40.1,40.1c-22.1,0-40.1-18-40.1-40.1
			C176.6-75.1,194.6-93,216.7-93L216.7-93z M216.7-93"/>
		<path class="st32" d="M239.8-52.9l-34.4,19.9v-39.7L239.8-52.9z M239.8-52.9"/>
		<path class="st33" d="M140.8,3.1l5.1,36.5L140.8,76c-11.1,0-20.1-9-20.1-20.1V23.2C120.7,12.1,129.7,3.1,140.8,3.1L140.8,3.1z
			 M140.8,3.1"/>
		<path class="st33" d="M312.1,23.2v32.7c0,11.1-9,20.1-20.1,20.1l-5.1-36.5L292,3.1C303.1,3.1,312.1,12.1,312.1,23.2L312.1,23.2z
			 M312.1,23.2"/>
		<path class="st34" d="M171.7,3.1v73.4c0,4.2-3.5,7.7-7.7,7.7h-15.4c-4.2,0-7.7-3.5-7.7-7.7V3.1c0-4.2,3.5-7.7,7.7-7.7h15.4
			C168.2-4.7,171.7-1.2,171.7,3.1L171.7,3.1z M171.7,3.1"/>
		<path class="st34" d="M292,76v0.5c0,4.2-3.5,7.7-7.7,7.7h-15.4c-4.2,0-7.7-3.5-7.7-7.7V3.1c0-4.2,3.5-7.7,7.7-7.7h15.4
			c4.2,0,7.7,3.5,7.7,7.7V76z M292,76"/>
		<g>
			<defs>
				<rect id="SVGID_1_" x="111.2" y="-129" width="211.1" height="213.7"/>
			</defs>
			<clipPath id="SVGID_2_">
				<use xlink:href="#SVGID_1_"  style="overflow:visible;"/>
			</clipPath>
			<path class="st35" d="M312.6-79.1L300-70.3c-18.4-26.2-48.8-43.3-83.2-43.3c-34.4,0-64.8,17.1-83.2,43.3L121-79.1
				c3.9-5.5,8.2-10.7,13-15.5c22.1-22.1,51.5-34.3,82.7-34.3c31.2,0,60.6,12.2,82.7,34.3C304.3-89.8,308.7-84.6,312.6-79.1
				L312.6-79.1z M312.6-79.1"/>
			<path class="st36" d="M315.7,43.4c-2.1,0-3.9-1.7-3.9-3.9V11.8c0-0.3,0-0.6,0.1-0.9c1.8-7.4,2.7-15.1,2.7-22.8
				c0-54-43.9-97.8-97.8-97.8S119-65.8,119-11.9c0,7.7,0.9,15.4,2.7,22.8c0.1,0.3,0.1,0.6,0.1,0.9v27.7c0,2.1-1.7,3.9-3.9,3.9
				c-2.1,0-3.9-1.7-3.9-3.9V12.3c-1.8-7.9-2.8-16-2.8-24.2c0-58.2,47.4-105.6,105.6-105.6c58.2,0,105.6,47.4,105.6,105.6
				c0,8.2-0.9,16.3-2.8,24.2v27.2C319.6,41.6,317.9,43.4,315.7,43.4L315.7,43.4z M315.7,43.4"/>
		</g>
	</g>
</g>
<g id="Capa_6">
	<g>
		<path class="st7" d="M420,236.9c0,5-4.7,9-10.6,9H11.8c-5.8,0-10.6-4-10.6-9V9.3c0-5,4.7-9,10.6-9h397.7c5.8,0,10.6,4,10.6,9
			V236.9z M420,236.9"/>
		<path class="st7" d="M258.1,245.9h-95c0,0-1.9,27-5.8,32.8h106.5C260,273,258.1,245.9,258.1,245.9L258.1,245.9z M258.1,245.9"/>
		<path class="st7" d="M272.8,281c-5.8-0.6-8.9-2.3-8.9-2.3H157.3c0,0-3.1,1.6-8.9,2.3c-5.8,0.6-9.6,1-9.6,3.5h143.6
			C282.4,282,278.5,281.6,272.8,281L272.8,281z M272.8,281"/>
		<path class="st7" d="M409.4,0.3H11.8c-5.8,0-10.6,4-10.6,9v204.4H420V9.3C420,4.3,415.3,0.3,409.4,0.3L409.4,0.3z M402.7,200.9
			H18.5V13.1h384.2V200.9z M402.7,200.9"/>
		<rect x="18.5" y="13.1" class="st8" width="384.2" height="187.8"/>
		<path class="st7" d="M258.1,245.9h-95c0,0-0.3,4-0.9,9.3h96.7C258.4,250,258.1,245.9,258.1,245.9L258.1,245.9z M258.1,245.9"/>
		<path class="st8" d="M217.5,230.6c0,3.2-3.1,5.9-6.9,5.9c-3.8,0-6.9-2.6-6.9-5.9c0-3.2,3.1-5.9,6.9-5.9
			C214.4,224.7,217.5,227.4,217.5,230.6L217.5,230.6z M217.5,230.6"/>
	</g>
	<path class="st37" d="M311,201H105.5l5.1-25.5c5-24.8,30.1-42.9,59.5-42.9h76.2c29.4,0,54.5,18.1,59.5,42.9L311,201z"/>
	<path class="st38" d="M236.4,121.3v11.4c0,0-6.7,12.4-23,15.6h-0.1c-2.2,0.5-4.6,0.7-7.2,0.8c-21.6-0.4-30.2-16.4-30.2-16.4v-11.2
		c3.9,2.6,8.3,4.7,13,6c0.7,0.2,1.4,0.4,2,0.5c3.6,0.9,7.3,1.4,11.3,1.4h7.8C219.9,129.3,229,126.2,236.4,121.3"/>
	<g class="st39">
		<g>
			<defs>
				<rect id="SVGID_3_" x="191" y="121.3" width="45.5" height="27"/>
			</defs>
			<clipPath id="SVGID_4_">
				<use xlink:href="#SVGID_3_"  style="overflow:visible;"/>
			</clipPath>
			<path class="st40" d="M236.4,121.3v11.4c0,0-6.7,12.4-23,15.6h-0.1l-22.4-20.4c3.6,0.9,7.3,1.4,11.3,1.4h7.8
				C219.9,129.3,229,126.2,236.4,121.3"/>
		</g>
	</g>
	<rect x="206.1" y="149.1" class="st41" width="0" height="0"/>
	<g>
		<path class="st42" d="M242.1,107c0,0,25.4,24,19.1,38.9c-6.4,14.9-7.2,33.3-1.8,37.4c0,0-1,5-10-3.2c0,0-27.4-22.1-21.5-49.3
			C227.9,130.9,236.3,124.2,242.1,107"/>
		<path class="st42" d="M252,82.7c0,0,6.8-21-34.7-36.6c0,0-20.1,26.2-45.9,27.9c0,0,4.4-2.1,5.6-3.8c0,0-6,4-16.5-4.9
			c0,0-0.3,5.3-0.3,12c-0.1,7.6,1.3,15.2,4.2,22.5l4.2,10.5c0,0-31.4-17.9-18.1-64.1c0,0,9.3-40,70.5-32.1c0,0,39.1,5.9,38.3,50.7
			C259.2,64.7,259.4,76,252,82.7"/>
	</g>
	<path class="st38" d="M167.8,84c1.8,6.5,0.8,12.3-2.1,12.9c-2.9,0.6-6.8-4.2-8.6-10.8c-1.8-6.5-0.8-12.3,2.1-12.9
		C162.1,72.7,166,77.5,167.8,84"/>
	<path class="st7" d="M286.3,163.2l-3.1,37.8H133.3l-3.1-37.8c-0.4-2.3,1.8-4.4,4.5-4.4h147C284.5,158.8,286.6,160.9,286.3,163.2"/>
	<g>
		<path class="st43" d="M214.2,186.4c-3.2,0-5.9,2.3-5.9,5.1C211.6,191.6,214.2,189.3,214.2,186.4"/>
		<path class="st43" d="M215.1,198.9c0,0.7,0.1,1.4,0.5,2.1h-17.7c-0.5-4.6,1.9-8.7,5.5-8.9c0.9-0.1,1.7,0,2.5,0.4
			c1.7,0.7,3.5,0.7,5.2,0c0.8-0.4,1.7-0.5,2.6-0.4c1.7,0.1,3.2,1.1,4.2,2.6C216.3,195.6,215.2,197.2,215.1,198.9"/>
	</g>
	<path class="st38" d="M244.5,84c-1.8,6.5-0.8,12.3,2.1,12.9c3,0.6,6.3-4.4,8.6-10.8c1.4-3.8,0.7-11.7-2.1-12.9
		C250.3,72.1,246.2,77.5,244.5,84"/>
	<path class="st41" d="M217.3,46.1c0,0-20.1,26.2-45.9,27.9c0,0,4.4-2.1,5.6-3.8c0,0-6,4-16.5-4.9c0,0.1,0,0.2,0,0.3
		c-0.1,1.2-0.3,5.9-0.3,11.7c0,3.3,0.3,6.7,0.8,10c0.3,1.4,0.5,2.7,0.8,4.1c0,0,0,0,0,0c0.4,1.6,0.8,3.2,1.3,4.7
		c0.4,1.2,0.8,2.5,1.3,3.7l2.7,6.8c8.3,18.1,22.6,32.7,39,32.7c24.7,0,44.8-33.1,46.3-61.3C251.9,71,246.8,57.1,217.3,46.1"/>
	<path class="st33" d="M258.8,78.8v12.8c-3.1,18.2-21.4,32.2-43.4,32.2h-5.9v-4.9h5.9c18.9,0,34.6-11.8,37.6-27.3h-2.7
		c0,0,1.7-6.5,2-12.8L258.8,78.8L258.8,78.8z"/>
	<path class="st37" d="M212.9,127.4h-9.3c-3.9,0-7.1-2.7-7.1-6.1c0-3.4,3.2-6.1,7.1-6.1h9.3c3.9,0,7.1,2.7,7.1,6.1
		C220,124.7,216.8,127.4,212.9,127.4"/>
</g>
</svg>
