<?xml version="1.0" encoding="utf-8"?>
<!-- Generator: Adobe Illustrator 22.0.0, SVG Export Plug-In . SVG Version: 6.00 Build 0)  -->
<svg version="1.1" id="Capa_1" xmlns="http://www.w3.org/2000/svg" xmlns:xlink="http://www.w3.org/1999/xlink" x="0px" y="0px"
	 viewBox="0 0 487.5 512" style="enable-background:new 0 0 487.5 512;" xml:space="preserve">
<style type="text/css">
	.st0{fill:#FAFAFA;}
	.st1{fill:#F9F9F9;}
</style>
<path class="st0" d="M477.7,247.2c-15.5-2.8-30.5-6.6-44.6-11.4C329.5,201,271,116.5,251.8,7.6c-1.8-10.3-16.7-10.3-18.5,0
	C210.9,134.1,136.4,223.6,8,247.4c-10.2,1.9-10.2,16.6,0,18.5c127.2,23.5,203,112.8,225.3,238.3c1.4,7.9,9.8,7.9,9.3,7.8
	c4.6,0,8.5-3.3,9.3-7.8c11.3-64.7,43.2-152.6,130.6-204c27.9-16.4,60-28,95.3-34.5c4.5-0.8,7.7-4.7,7.7-9.3
	C485.4,251.9,482.1,248,477.7,247.2L477.7,247.2z M477.7,247.2"/>
<path class="st1" d="M106.3,210.7C76.2,229.2,42.7,240.9,8,247.4c-10.2,1.9-10.2,16.6,0,18.5c127.2,23.5,203,112.8,225.3,238.3
	c1.4,7.9,9.8,7.9,9.3,7.8c4.6,0,8.5-3.3,9.3-7.8c6.3-35.8,18.9-78.7,43.7-118.6C261.8,291.9,197.6,233.6,106.3,210.7L106.3,210.7z
	 M106.3,210.7"/>
</svg>
