<?xml version="1.0" encoding="utf-8"?>
<!-- Generator: Adobe Illustrator 22.0.0, SVG Export Plug-In . SVG Version: 6.00 Build 0)  -->
<svg version="1.1" id="Capa_1" xmlns="http://www.w3.org/2000/svg" xmlns:xlink="http://www.w3.org/1999/xlink" x="0px" y="0px"
	 viewBox="0 0 300 300" style="enable-background:new 0 0 300 300;" xml:space="preserve">
<style type="text/css">
	.st0{fill:#010101;}
	.st1{fill:#030303;}
	.st2{fill:#0F0F0F;}
	.st3{fill:#FEDC00;}
</style>
<g>
	<path d="M144.3,204.7c-46.6,0-93.2,0-139.8,0c-1.6,0-1.6,0-1.4-1.6c0.8-8.8,1.6-17.6,2.4-26.4c0.8-8.6,1.6-17.1,2.3-25.7
		c0.8-8.6,1.5-17.1,2.3-25.7c0.8-8.5,1.6-17,2.3-25.6c0.7-7.6,1.4-15.2,2-22.8c0.6-7.1,1.3-14.1,1.9-21.2c0.1-0.6,0.3-0.9,0.9-0.8
		c0.2,0,0.5,0,0.7,0c93.3,0,186.5,0,279.8,0c1.6,0,1.6,0,1.5,1.6c-0.7,7.6-1.4,15.2-2.1,22.8c-0.8,8.5-1.5,17-2.3,25.6
		c-0.7,7.6-1.4,15.3-2.1,22.9c-0.7,7.6-1.4,15.1-2.1,22.7c-0.7,7.6-1.4,15.3-2.1,22.9c-0.7,7.6-1.4,15.1-2.1,22.7
		c-0.2,2.6-0.5,5.2-0.7,7.9c0,0.6-0.2,0.8-0.8,0.8c-0.3,0-0.6,0-1,0C237.5,204.7,190.9,204.7,144.3,204.7z"/>
	<path class="st0" d="M213.3,240.9c0-3.2,0-6.5,0-9.7c0-1,0.2-1.3,1.2-1.3c3.9,0.1,7.8,0.1,11.7,0c0.9,0,1.2,0.2,1.2,1.1
		c-0.1,2.2,0,2.2-2.2,2.2c-2.5,0-5,0-7.5,0c-0.7,0-1,0.2-1,0.9c0.1,1.5,0,3.1,0,4.6c0,0.7,0.2,0.9,0.9,0.9c2.4,0,4.8,0,7.2,0
		c0.7,0,1.1,0.1,1,1c0,2,0,2-1.9,2c-2,0-4.1,0.1-6.1,0c-1,0-1.1,0.3-1.1,1.2c0.1,2.4,0,4.9,0,7.3c0,0.8-0.2,1-1,1
		c-2.5,0-2.5,0-2.5-2.4C213.3,246.6,213.3,243.8,213.3,240.9z"/>
	<path d="M116.1,249.1c0.2-0.1,0.3-0.2,0.5-0.4c0.5-0.5,1-1.2,1.6-1.5c0.7-0.3,1.1,0.7,1.8,1c1.6,0.7,3.2,1,4.8,0.5
		c0.9-0.3,1.5-0.8,1.5-1.8c-0.1-1.1-0.8-1.3-1.7-1.4c-1.2-0.1-2.5-0.2-3.7-0.4c-2-0.3-3.4-1.7-3.6-3.4c-0.3-2.3,0.5-4.3,2.5-5
		c3.1-1.2,6.1-0.9,8.9,1c0.5,0.3,0.5,0.6,0.1,1c-0.1,0.1-0.1,0.1-0.2,0.2c-1.2,1.4-1.2,1.4-2.9,0.7c-1.2-0.5-2.4-0.7-3.7-0.5
		c-0.9,0.2-1.6,0.6-1.6,1.7c0,1,0.8,1.3,1.7,1.4c1.3,0.2,2.6,0.2,3.9,0.4c2.1,0.4,3.3,1.6,3.5,3.5c0.3,2.3-0.5,4-2.4,5
		C123.7,252.9,118.8,252,116.1,249.1z"/>
	<path class="st0" d="M141.4,250.5c-1.8,1.5-3.7,2-5.8,1.2c-2.1-0.7-3.4-2.3-3.4-4.6c-0.1-3.4-0.1-6.9-0.1-10.3
		c0-0.5,0.2-0.6,0.6-0.6c2.6-0.2,2.6-0.2,2.6,2.3c0,2.3,0,4.6,0,6.9c0,2.1,1.2,3.3,3,3.4c1.8,0,3-1.2,3-3.1c0-2.8,0-5.6,0-8.4
		c0-0.9,0.1-1.2,1.1-1.2c2.2,0.1,2.2,0,2.2,2.2c0,4-0.1,8,0,12.1c0,1.3-0.4,1.7-1.6,1.5c-0.2,0-0.3,0-0.5,0
		C141.7,252,141,251.8,141.4,250.5z"/>
	<path class="st0" d="M21.5,242.4c0-2.8,0-5.7,0-8.5c0-0.8-0.2-1-1-0.9c-1.4,0.1-2.8,0-4.1,0c-0.8,0-1-0.2-1-1c0-2.1,0-2.1,2.1-2.1
		c4.1,0,8.1,0,12.2,0c1,0,1.3,0.3,1.2,1.3c-0.1,1.8,0,1.8-1.9,1.8c-1,0-2,0.1-3,0c-1-0.1-1.2,0.3-1.2,1.2c0,5.5,0,11,0,16.5
		c0,0.9-0.1,1.3-1.2,1.2c-2.2-0.1-2.2,0-2.2-2.2C21.5,247.2,21.5,244.8,21.5,242.4z"/>
	<path d="M249.7,252c-3.3-0.1-5.7-1.9-6.5-5.1c-0.6-2.2-0.6-4.4,0.2-6.6c1.8-4.7,8.3-5.9,11.7-2.1c0.4,0.4,0.4,0.6-0.1,0.9
		c-0.2,0.1-0.4,0.3-0.5,0.5c-0.8,0.9-1.3,1.2-2.5,0.2c-2-1.7-5.1-0.5-5.8,2.1c-0.4,1.3-0.4,2.7,0,4.1c0.7,2.7,3.9,3.7,6.1,1.9
		c0.8-0.7,1.2-0.5,1.8,0.1c1.5,1.4,1.6,1.4-0.1,2.7C252.7,251.6,251.3,252.1,249.7,252z"/>
	<path class="st1" d="M264.5,239.6c0-2.9,0-5.8,0-8.6c0-0.8,0.2-1.1,1.1-1.1c2.1,0,2.1,0,2.1,2.1c0,5.1,0,10.1,0,15.2
		c0,1.1,0.3,1.8,1.6,1.7c0.6-0.1,0.7,0.2,0.7,0.8c0.1,2.4,0,2.5-2.4,2.2c-2-0.3-3-1.4-3-3.6C264.5,245.3,264.5,242.4,264.5,239.6z"
		/>
	<path d="M156,243.9c0-1.5,0-2.9,0-4.4c0-0.6-0.1-1-0.8-0.8c-1.1,0.2-0.8-0.7-0.7-1.2c0-0.5-0.4-1.4,0.7-1.2
		c0.8,0.1,0.9-0.3,0.8-0.9c0-0.5,0-1.1,0-1.6c0-2.3,0.4-2.6,2.7-2.2c0.5,0.1,0.5,0.3,0.5,0.7c0,1,0.1,2,0,2.9
		c-0.1,0.9,0.1,1.3,1.1,1.1c1.1-0.2,1.3,0.3,1.3,1.3c0,0.9-0.2,1.3-1.2,1.1c-1-0.2-1.3,0.2-1.3,1.2c0.1,2.4,0,4.9,0,7.3
		c0,1.1,0.3,1.8,1.6,1.6c0.5-0.1,0.8,0.1,0.8,0.7c0.1,2.4-0.1,2.6-2.5,2.2c-1.9-0.3-3-1.6-3-3.7C156,246.7,156,245.3,156,243.9z"/>
	<path class="st0" d="M148.2,239.4c0-2.8,0-5.7,0-8.5c0-0.8,0.2-1.1,1.1-1.1c2.1,0,2.1,0,2.1,2.1c0,5,0,10.1,0,15.1
		c0,1.6,0.1,1.7,1.7,1.8c0.4,0,0.6,0,0.6,0.5c-0.1,2.8,0.6,2.7-2.4,2.4c-2-0.2-3-1.5-3.1-3.7C148.2,245.2,148.2,242.3,148.2,239.4z"
		/>
	<path class="st0" d="M195.7,239.7c0.1,0.9-0.5,2.3,0.2,2.9c0.6,0.5,2,0.1,3.1,0.2c0.6,0,1.1,0,1.7,0c1.7,0,1.6,0,1.6,1.7
		c0,0.6-0.2,0.8-0.8,0.8c-1.7,0-3.3,0-5,0c-0.7,0-0.8,0.2-0.8,0.8c0,1.6-0.1,3.2,0,4.7c0.1,1.3-0.7,1-1.3,1
		c-0.8,0.1-1.2-0.1-1.2-1.1c0.1-1.5,0-3,0-4.5c0-0.8-0.2-1.1-1-1c-1.6,0.1-3.2,0-4.9,0c-0.6,0-0.7-0.2-0.8-0.7
		c0-1.8-0.1-1.8,1.7-1.8c1.4,0,2.8,0,4.1,0c0.6,0,0.8-0.2,0.8-0.8c0-1.6,0.1-3.2,0-4.7c-0.1-1.2,0.6-1,1.3-1.1
		c0.9-0.1,1.3,0.1,1.1,1.1C195.6,238,195.7,238.7,195.7,239.7z"/>
	<path d="M260.8,244.1c0,2.2,0,4.5,0,6.7c0,0.9-0.2,1.1-1.1,1.1c-2.1,0-2.1,0-2.1-2.1c0-4.1,0-8.3,0-12.4c0-1,0.2-1.2,1.2-1.2
		c2,0.1,2,0,2,2C260.8,240.1,260.8,242.1,260.8,244.1z"/>
	<path class="st1" d="M232,234.3c0.9-1.5,1.8-2.8,2.6-4.1c0.2-0.4,0.5-0.5,0.9-0.5c1.1,0,2.2,0,3.7,0c-1.5,1.6-2.8,3.1-4.3,4.3
		C234.2,234.6,233.1,234.2,232,234.3z"/>
	<path class="st2" d="M257.6,231.7c0-1.8,0-1.8,1.7-1.8c1.5,0,1.5,0,1.5,1.9c0,1.7,0.2,1.3-1.8,1.5
		C257.5,233.3,257.5,232.5,257.6,231.7z"/>
	<path class="st3" d="M187.2,172.8c-2.9,0-5.7,0-8.4,0c-5.8,0-11.5,0-17.3,0c-0.6,0-1,0-1.3-0.7c-6.1-15.5-12.3-31-18.2-46.6
		c0-0.1-0.1-0.2-0.1-0.5c0.6,0,1.2,0,1.8,0c4.9-0.1,9.8,0.3,14.7-0.2c5.7-0.7,9.1-5.1,8.3-10.8c-0.4-3.1-2.7-5.4-6-6
		c-1.1-0.2-2.2-0.3-3.4-0.3c-9.7,0-19.3,0-29,0c-0.2,0-0.3,0-0.5,0c-0.4,0-0.7,0.1-0.8,0.5c-0.1,0.6,0.3,0.6,0.6,0.7
		c2.4,0.6,4.7,1.5,6.9,2.7c3.3,1.9,5.6,4.5,6.4,8.3c0.4,2,0.2,4,0,5.9c-1.2,13.9-2.4,27.8-3.6,41.7c-0.1,1.5-0.3,3-0.4,4.5
		c0,0.6-0.2,0.8-0.8,0.8c-7.3,0-14.5,0-21.8,0c-0.6,0-0.8-0.2-0.8-0.8c0.7-7.6,1.4-15.2,2-22.8c0.7-8,1.4-15.9,2.1-23.9
		c0.6-6.8,1.2-13.7,1.8-20.5c0.5-5.4,0.9-10.7,1.4-16.1c0.2-1.8,0.1-1.8,1.9-1.8c12.7,0,25.3,0,38,0c5.8,0,11.5,0.8,16.9,3.1
		c8,3.4,12.1,9.5,12.9,18.1c0.5,5.8-0.1,11.4-2.3,16.8c-2.7,6.8-7.7,11.4-14.2,14.5c-1.1,0.5-1.2,0.9-0.7,1.9
		c4.4,10,8.8,20.1,13.2,30.1C186.8,171.9,187,172.3,187.2,172.8z"/>
	<path class="st3" d="M236.9,86.9c10.6,0,21.1,0,31.7,0c1,0,1.3,0.2,1.2,1.3c-0.6,6.3-1.2,12.5-1.7,18.8c-0.1,0.9-0.6,0.8-1.2,0.8
		c-5,0-9.9,0-14.9,0c-13.3,0-26.6,0-40,0c-0.3,0-0.6,0-0.9,0c-0.4,0-0.7,0-0.8,0.5c-0.1,0.6,0.3,0.6,0.6,0.7c2.6,0.7,5.1,1.6,7.4,3
		c4.2,2.7,6.5,6.4,6,11.5c-0.1,0.9,0.4,0.8,0.9,0.8c4.4,0,8.9,0,13.3,0c3.8,0,7.6,0,11.3,0c0.9,0,1.3,0.1,1.2,1.2
		c-0.6,5.9-1.1,11.9-1.6,17.8c-0.1,0.9-0.3,1.2-1.3,1.2c-8.1,0-16.2,0-24.4-0.1c-1,0-1.4,0.2-1.5,1.3c-0.6,6.9-1.2,13.8-1.8,20.7
		c-0.2,1.8-0.4,3.6-0.5,5.5c0,0.9-0.3,1.1-1.1,1c-6.2,0-12.3,0-18.5,0c-1.1,0-2.3,0-3.4,0c-0.6,0-0.8-0.1-0.7-0.8
		c1.2-13.2,2.3-26.3,3.5-39.5c1.1-12.5,2.2-25,3.3-37.6c0.2-2.3,0.5-4.6,0.6-6.9c0.1-0.9,0.3-1.1,1.2-1.1
		C215.7,87,226.3,86.9,236.9,86.9z"/>
	<path class="st3" d="M76.2,86.9c11.6,0,23.1,0,34.7,0c1,0,1.3,0.2,1.2,1.2c-0.6,6.3-1.2,12.5-1.7,18.8c-0.1,1-0.7,0.8-1.2,0.8
		c-12.3,0-24.5,0-36.8,0c-0.3,0-0.6,0-0.9,0c-0.4,0-0.7,0.1-0.8,0.5c-0.1,0.6,0.3,0.6,0.6,0.7c2.4,0.6,4.7,1.5,6.9,2.7
		c4.1,2.3,6.6,5.7,6.7,10.4c0,2.3-0.3,4.5-0.5,6.8c-0.6,7.1-1.3,14.3-1.9,21.4c-0.6,7.3-1.3,14.5-1.9,21.8c-0.1,0.6-0.3,0.7-0.8,0.7
		c-7.4,0-14.9,0-22.3,0c-0.8,0-0.8-0.3-0.8-0.9c0.8-8.6,1.5-17.3,2.3-25.9c0.8-8.8,1.5-17.6,2.3-26.4c0.3-3.6,0.6-7.1,1-10.7
		c0.1-1-0.2-1.2-1.1-1.2c-7.2,0-14.4,0-21.6,0c-1,0-1.3-0.3-1.2-1.3c0.6-6.3,1.2-12.5,1.7-18.8c0.1-0.9,0.6-0.7,1.2-0.7
		C52.9,86.9,64.6,86.9,76.2,86.9z"/>
	<path d="M99.7,250.3c-1.3-2.4-2.5-4.9-3.8-7.3c-0.3-0.6-0.4-0.9,0.3-1.3c2.6-1.3,3.9-4.1,3.4-6.8c-0.6-2.8-2.7-4.8-5.7-5
		c-2.8-0.2-5.6-0.1-8.4-0.1c-0.9,0-1.1,0.3-1.1,1.2c0,6.2,0,12.3,0,18.5c0,2.4,0,2.4,2.4,2.4c0.8,0,0.9-0.3,0.9-1c0-1.7,0-3.5,0-5.2
		c0-1-0.5-2.4,0.2-3c0.6-0.5,1.9-0.1,2.9-0.2c0.8-0.1,1.2,0.3,1.5,1c1.2,2.6,2.5,5.1,3.7,7.6c0.2,0.4,0.3,0.8,0.8,0.8
		c1.1,0,2.2,0,3.6,0C100.2,251.2,100,250.8,99.7,250.3z M88.2,239.5c-0.5,0-0.4-0.4-0.4-0.7c0-0.9,0-1.7,0-2.7
		c0.1-0.9-0.5-2.3,0.2-2.9c0.6-0.5,2-0.2,3.1-0.2c0.8,0,1.5,0,2.3,0c1.8,0.1,2.9,1,3.1,2.7c0.2,1.6-0.7,3.2-2.2,3.6
		C92.3,239.8,90.2,239.4,88.2,239.5z"/>
	<path d="M58,231.9c0-2.1,0-2-2.1-2.1c-0.9,0-1.2,0.3-1.1,1.2c0.1,2.2,0,4.4,0,6.7c-0.4-0.3-0.7-0.5-1-0.7c-3.5-2.3-7.8-0.3-8.2,3.9
		c-0.2,2.2-0.2,4.4,0,6.7c0.2,2.2,1.4,3.6,3.5,4.2c2,0.6,3.8,0.1,5.8-1.5c-0.5,1.7,0.3,1.7,1.2,1.6c0.2,0,0.4,0,0.6,0
		c1.1,0.2,1.3-0.3,1.3-1.3C57.9,244.3,58,238.1,58,231.9z M54.6,246.3c-0.3,1.7-1.3,2.5-3,2.5c-1.6,0-2.6-0.9-2.8-2.6
		c-0.1-0.8-0.1-1.5-0.2-2.3c0.1-0.7,0.1-1.4,0.2-2.1c0.2-1.7,1.2-2.6,2.9-2.7c1.6,0,2.7,0.9,3,2.6C54.8,243.3,54.8,244.8,54.6,246.3
		z"/>
	<path d="M175.9,241c0-1.5-0.4-3-1.9-3.9c-2.6-1.5-5.4-1.6-8.2-0.3c-2,0.9-2,1.4-0.3,2.7c0.2,0.2,0.5,0.3,0.7,0.5
		c0.2,0.2,0.4,0.2,0.6-0.1c0.9-1.1,2.2-0.9,3.4-0.9c2,0.1,2.5,0.7,2.5,2.6c0,0.8-0.2,0.9-1,0.9c-1.5,0-3.1-0.1-4.6,0.1
		c-1.9,0.3-3.3,1.6-3.7,3.5c-0.4,1.8,0.3,3.8,1.9,4.8c2.1,1.4,5.3,1.3,7.5-0.3c-0.2,1,0.2,1.2,0.9,1.2c0.5-0.1,1,0,1.5,0
		c0.6,0,0.9-0.1,0.9-0.8C175.9,247.7,175.9,244.3,175.9,241z M170.9,248.9c-0.5,0.1-1,0.1-1.4,0.2c-0.8,0-1.5-0.1-2.2-0.5
		c-0.7-0.3-1-0.9-1-1.6c0-0.7,0.4-1.2,1.1-1.5c1.6-0.6,3.3-0.3,4.9-0.3c0.2,0,0.3,0.1,0.3,0.3C173.2,246.8,172.3,248.6,170.9,248.9z
		"/>
	<path d="M240.1,240.7c0-1.4-0.5-2.6-1.7-3.5c-2-1.5-6.7-1.6-8.8-0.2c-1.4,1-1.5,1.2-0.1,2.3c0.3,0.2,0.6,0.5,0.9,0.7
		c0.2,0.1,0.3,0.4,0.6,0.1c0.9-1.1,2.2-1,3.5-0.9c1.9,0.1,2.5,0.7,2.5,2.7c0,0.7-0.2,0.9-0.9,0.9c-1.6,0-3.2-0.2-4.7,0.1
		c-1.8,0.3-3.1,1.3-3.6,3c-0.5,1.8-0.2,3.4,1.1,4.8c1.7,1.7,6.3,2,8.1,0.1c-0.4,1.3,0.4,1.2,1.1,1.2c0.4,0,0.8,0,1.2,0
		c0.6,0.1,0.9-0.2,0.8-0.8C240.1,247.6,240.1,244.2,240.1,240.7z M235.1,248.9c-1.1,0.2-2.2,0.2-3.2-0.1c-0.8-0.3-1.4-0.9-1.3-1.8
		c0.1-0.9,0.6-1.4,1.5-1.6c0.9-0.2,1.9-0.2,2.8-0.2c0.1,0,0.2,0,0.2,0c0.6,0.3,1.8-0.7,1.9,0.7C237.1,247.8,236.6,248.7,235.1,248.9
		z"/>
	<path d="M105.7,245.2c1.3,0.1,2.6,0,3.9,0c0.4,0,0.9,0,1.3,0c1.2-0.1,2.9,0.5,3.3-0.2c0.7-1.1,0.3-2.8,0-4.1
		c-0.6-2.6-2.8-4.4-5.5-4.7c-2.8-0.3-5.2,1-6.3,3.5c-1,2.1-1,4.4-0.7,6.7c0.4,2.5,1.6,4.6,4.1,5.4c2.8,0.9,5.4,0.5,7.6-1.4
		c0.2-0.2,0.9-0.4,0.4-0.9c-0.6-0.6-1.2-1.2-2-1.6c-0.4-0.2-0.8,0.6-1.3,0.8c-0.2,0.1-0.4,0.2-0.5,0.3c-2.4,0.9-4.7-0.1-5.2-2.4
		C104.7,245.6,104.7,245.1,105.7,245.2z M104.9,241.5c0.5-1.7,1.7-2.6,3.4-2.4c1.5,0.1,2.7,1.3,2.9,2.8c0.1,0.5,0,0.7-0.6,0.7
		c-0.9,0-1.8,0-2.7,0c-0.7,0-1.5-0.1-2.2,0C104.7,242.7,104.7,242.3,104.9,241.5z"/>
	<path d="M42.5,241.4c-0.4-2.5-1.7-4.3-4.2-5c-2.5-0.8-4.8-0.4-6.7,1.5c-1.7,1.7-1.8,3.9-1.8,6.3c0,0.9,0,2,0.2,3.1
		c0.6,2.9,3.2,4.9,6.4,4.8c3.1-0.1,5.5-2.1,6-5C42.7,245.2,42.7,243.3,42.5,241.4z M39.3,246.4c-0.3,1.5-1.4,2.3-3,2.4
		c-1.6,0-2.7-0.8-3.1-2.3c-0.2-0.8-0.2-1.7-0.3-2.5c0.1-0.7,0.1-1.5,0.2-2.2c0.3-1.6,1.5-2.6,3.1-2.6c1.7,0,2.8,0.9,3.1,2.6
		C39.6,243.4,39.6,244.9,39.3,246.4z"/>
	<path d="M73.4,241.5c-0.3-2.5-1.6-4.3-3.9-5.1c-2.4-0.8-4.8-0.6-6.8,1.3c-1.9,1.7-2,4-1.9,6.3c0,0.7,0,1.5,0,2.2
		c0.3,3.5,2.7,5.8,6.2,5.9c3.6,0.1,6.1-2.1,6.5-5.7C73.6,244.7,73.6,243.1,73.4,241.5z M70.2,246.1c-0.2,1.7-1.3,2.7-2.9,2.8
		c-1.7,0.1-2.9-0.7-3.3-2.4c-0.3-1.6-0.3-3.2,0-4.8c0.3-1.6,1.6-2.4,3.2-2.3c1.6,0.1,2.7,1.1,2.9,2.7c0.1,0.7,0.1,1.5,0.1,2.2
		C70.3,244.8,70.3,245.4,70.2,246.1z"/>
</g>
</svg>
