<?xml version="1.0" encoding="utf-8"?>
<!-- Generator: Adobe Illustrator 21.0.0, SVG Export Plug-In . SVG Version: 6.00 Build 0)  -->
<svg version="1.1" xmlns="http://www.w3.org/2000/svg" xmlns:xlink="http://www.w3.org/1999/xlink" x="0px" y="0px"
	 viewBox="0 0 430 342" style="enable-background:new 0 0 430 342;" xml:space="preserve">
<style type="text/css">
	.st0{display:none;}
	.st1{display:inline;}
	.st2{fill:#E2E5E7;}
	.st3{fill:#D1D5D5;}
	.st4{fill:#C6CBCB;}
	.st5{fill:#2D404E;}
	.st6{fill:#DF584C;}
	.st7{fill:#212529;}
	.st8{fill:#FAFAFA;}
	.st9{display:inline;fill:#ECE7EA;}
	.st10{display:inline;fill:#1B4145;}
	.st11{display:inline;fill:#6FC5D6;}
	.st12{display:inline;fill:#F14742;}
	.st13{fill:#8B7E7F;}
	.st14{display:inline;fill:#8B7E7F;}
	.st15{display:inline;fill:#9B9B9B;}
	.st16{display:inline;fill:#FAFAFA;}
	.st17{display:inline;fill:#FF2F32;}
	.st18{display:inline;fill:#FFFFFF;}
	.st19{display:inline;fill:#212529;}
	.st20{display:inline;fill:#002EAD;}
	.st21{display:inline;fill:#5C6266;}
	.st22{display:inline;fill:#00253D;}
	.st23{display:inline;fill:#D5D6DB;}
	.st24{display:inline;fill:#797D80;}
	.st25{display:inline;fill:#3D93CC;}
	.st26{fill:#797D80;}
	.st27{display:inline;fill:#A6BA47;}
	.st28{display:inline;fill:#DAE1E6;}
	.st29{display:inline;fill:#002E4D;}
	.st30{fill:#565656;}
	.st31{font-family:'Rockwell';}
	.st32{font-size:26.9557px;}
	.st33{fill:#FF2F32;}
	.st34{fill:#FFFFFF;}
	.st35{fill:#383838;}
	.st36{fill:#5CAEE6;}
	.st37{clip-path:url(#SVGID_2_);fill:#383838;}
	.st38{clip-path:url(#SVGID_2_);fill:#212529;}
</style>
<g id="Capa_1" class="st0">
	<g class="st1">
		<path class="st2" d="M512,318.2c0,7.1-5.8,12.9-12.9,12.9H13.6c-7.1,0-12.9-5.8-12.9-12.9V-8.2c0-7.1,5.8-12.9,12.9-12.9h485.5
			c7.1,0,12.9,5.8,12.9,12.9V318.2z M512,318.2"/>
		<path class="st3" d="M314.3,331.2h-116c0,0-2.3,38.8-7,47h130.1C316.7,369.9,314.3,331.2,314.3,331.2L314.3,331.2z M314.3,331.2"
			/>
		<path class="st4" d="M332.2,381.4c-7-0.9-10.9-3.2-10.9-3.2H191.3c0,0-3.8,2.4-10.9,3.2c-7,0.9-11.7,1.5-11.7,5H344
			C344,382.8,339.3,382.3,332.2,381.4L332.2,381.4z M332.2,381.4"/>
		<path class="st5" d="M499.1-21.1H13.6c-7.1,0-12.9,5.8-12.9,12.9V285H512V-8.2C512-15.3,506.2-21.1,499.1-21.1L499.1-21.1z
			 M490.8,266.6h-469V-2.7h469V266.6z M490.8,266.6"/>
		<rect x="21.9" y="-2.7" class="st6" width="469" height="269.3"/>
		<path class="st4" d="M314.3,331.2h-116c0,0-0.3,5.8-1,13.3h118.1C314.7,336.9,314.3,331.2,314.3,331.2L314.3,331.2z M314.3,331.2"
			/>
		<path class="st5" d="M264.8,309.2c0,4.6-3.8,8.4-8.4,8.4c-4.6,0-8.4-3.8-8.4-8.4c0-4.6,3.8-8.4,8.4-8.4
			C261.1,300.8,264.8,304.5,264.8,309.2L264.8,309.2z M264.8,309.2"/>
	</g>
	<g class="st1">
		<path class="st7" d="M512,317c0,7.1-5.8,12.9-12.9,12.9H13.6c-7.1,0-12.9-5.8-12.9-12.9V-9.4c0-7.1,5.8-12.9,12.9-12.9h485.5
			c7.1,0,12.9,5.8,12.9,12.9V317z M512,317"/>
		<path class="st7" d="M314.3,329.9h-116c0,0-2.3,38.8-7,47h130.1C316.7,368.7,314.3,329.9,314.3,329.9L314.3,329.9z M314.3,329.9"
			/>
		<path class="st7" d="M332.2,380.1c-7-0.9-10.9-3.2-10.9-3.2H191.3c0,0-3.8,2.4-10.9,3.2c-7,0.9-11.7,1.5-11.7,5H344
			C344,381.6,339.3,381,332.2,380.1L332.2,380.1z M332.2,380.1"/>
		<path class="st7" d="M499.1-22.3H13.6c-7.1,0-12.9,5.8-12.9,12.9v293.1H512V-9.4C512-16.5,506.2-22.3,499.1-22.3L499.1-22.3z
			 M490.8,265.4h-469V-4h469V265.4z M490.8,265.4"/>
		<rect x="21.9" y="-4" class="st8" width="469" height="269.3"/>
		<path class="st7" d="M314.3,329.9h-116c0,0-0.3,5.8-1,13.3h118.1C314.7,335.7,314.3,329.9,314.3,329.9L314.3,329.9z M314.3,329.9"
			/>
		<path class="st8" d="M264.8,307.9c0,4.6-3.8,8.4-8.4,8.4c-4.6,0-8.4-3.8-8.4-8.4c0-4.6,3.8-8.4,8.4-8.4
			C261.1,299.5,264.8,303.3,264.8,307.9L264.8,307.9z M264.8,307.9"/>
	</g>
	<g class="st1">
		<path class="st2" d="M512,318.2c0,7.1-5.8,12.9-12.9,12.9H13.6c-7.1,0-12.9-5.8-12.9-12.9V-8.2c0-7.1,5.8-12.9,12.9-12.9h485.5
			c7.1,0,12.9,5.8,12.9,12.9V318.2z M512,318.2"/>
		<path class="st3" d="M314.3,331.2h-116c0,0-2.3,38.8-7,47h130.1C316.7,369.9,314.3,331.2,314.3,331.2L314.3,331.2z M314.3,331.2"
			/>
		<path class="st4" d="M332.2,381.4c-7-0.9-10.9-3.2-10.9-3.2H191.3c0,0-3.8,2.4-10.9,3.2c-7,0.9-11.7,1.5-11.7,5H344
			C344,382.8,339.3,382.3,332.2,381.4L332.2,381.4z M332.2,381.4"/>
		<path class="st5" d="M499.1-21.1H13.6c-7.1,0-12.9,5.8-12.9,12.9V285H512V-8.2C512-15.3,506.2-21.1,499.1-21.1L499.1-21.1z
			 M490.8,266.6h-469V-2.7h469V266.6z M490.8,266.6"/>
		<rect x="21.9" y="-2.7" class="st6" width="469" height="269.3"/>
		<path class="st4" d="M314.3,331.2h-116c0,0-0.3,5.8-1,13.3h118.1C314.7,336.9,314.3,331.2,314.3,331.2L314.3,331.2z M314.3,331.2"
			/>
		<path class="st5" d="M264.8,309.2c0,4.6-3.8,8.4-8.4,8.4c-4.6,0-8.4-3.8-8.4-8.4c0-4.6,3.8-8.4,8.4-8.4
			C261.1,300.8,264.8,304.5,264.8,309.2L264.8,309.2z M264.8,309.2"/>
	</g>
	<g class="st1">
		<path class="st7" d="M512,317c0,7.1-5.8,12.9-12.9,12.9H13.6c-7.1,0-12.9-5.8-12.9-12.9V-9.4c0-7.1,5.8-12.9,12.9-12.9h485.5
			c7.1,0,12.9,5.8,12.9,12.9V317z M512,317"/>
		<path class="st7" d="M314.3,329.9h-116c0,0-2.3,38.8-7,47h130.1C316.7,368.7,314.3,329.9,314.3,329.9L314.3,329.9z M314.3,329.9"
			/>
		<path class="st7" d="M332.2,380.1c-7-0.9-10.9-3.2-10.9-3.2H191.3c0,0-3.8,2.4-10.9,3.2c-7,0.9-11.7,1.5-11.7,5H344
			C344,381.6,339.3,381,332.2,380.1L332.2,380.1z M332.2,380.1"/>
		<path class="st7" d="M499.1-22.3H13.6c-7.1,0-12.9,5.8-12.9,12.9v293.1H512V-9.4C512-16.5,506.2-22.3,499.1-22.3L499.1-22.3z
			 M490.8,265.4h-469V-4h469V265.4z M490.8,265.4"/>
		<rect x="21.9" y="-4" class="st8" width="469" height="269.3"/>
		<path class="st7" d="M314.3,329.9h-116c0,0-0.3,5.8-1,13.3h118.1C314.7,335.7,314.3,329.9,314.3,329.9L314.3,329.9z M314.3,329.9"
			/>
		<path class="st8" d="M264.8,307.9c0,4.6-3.8,8.4-8.4,8.4c-4.6,0-8.4-3.8-8.4-8.4c0-4.6,3.8-8.4,8.4-8.4
			C261.1,299.5,264.8,303.3,264.8,307.9L264.8,307.9z M264.8,307.9"/>
	</g>
	<polygon class="st9" points="490.8,28 490.8,265.4 21.6,265.4 21.6,28 256.2,15.2 	"/>
	<rect x="21.9" y="-4" class="st10" width="469" height="31.9"/>
	<ellipse class="st11" cx="420.3" cy="12" rx="7.8" ry="4.8"/>
	<ellipse class="st12" cx="456.9" cy="12" rx="7.8" ry="4.8"/>
	<ellipse class="st11" cx="383.7" cy="12" rx="7.8" ry="4.8"/>
	<g class="st1">
		<path class="st13" d="M428.1,99.8H83.3c-4.3,0-7.8-2.1-7.8-4.8s3.5-4.8,7.8-4.8h344.8c4.3,0,7.8,2.1,7.8,4.8
			S432.5,99.8,428.1,99.8z"/>
		<path class="st13" d="M428.1,74.3H83.3c-4.3,0-7.8-2.1-7.8-4.8s3.5-4.8,7.8-4.8h344.8c4.3,0,7.8,2.1,7.8,4.8
			S432.5,74.3,428.1,74.3z"/>
		<path class="st13" d="M234.8,150.9H83.3c-4.3,0-7.8-2.1-7.8-4.8c0-2.6,3.5-4.8,7.8-4.8h151.5c4.3,0,7.8,2.1,7.8,4.8
			C242.7,148.7,239.2,150.9,234.8,150.9z"/>
		<path class="st13" d="M234.8,125.3H83.3c-4.3,0-7.8-2.1-7.8-4.8s3.5-4.8,7.8-4.8h151.5c4.3,0,7.8,2.1,7.8,4.8
			S239.2,125.3,234.8,125.3z"/>
		<path class="st13" d="M234.8,176.4H83.3c-4.3,0-7.8-2.1-7.8-4.8c0-2.6,3.5-4.8,7.8-4.8h151.5c4.3,0,7.8,2.1,7.8,4.8
			C242.7,174.3,239.2,176.4,234.8,176.4z"/>
		<path class="st13" d="M234.8,202H83.3c-4.3,0-7.8-2.1-7.8-4.8c0-2.6,3.5-4.8,7.8-4.8h151.5c4.3,0,7.8,2.1,7.8,4.8
			C242.7,199.8,239.2,202,234.8,202z"/>
	</g>
	<path class="st12" d="M292.3,120.6h120.1c8.7,0,15.7,4.3,15.7,9.6v83c0,5.3-7,9.6-15.7,9.6H292.3c-8.7,0-15.7-4.3-15.7-9.6v-83
		C276.6,124.9,283.7,120.6,292.3,120.6z"/>
	<path class="st14" d="M234.8,227.5H83.3c-4.3,0-7.8-2.1-7.8-4.8c0-2.6,3.5-4.8,7.8-4.8h151.5c4.3,0,7.8,2.1,7.8,4.8
		C242.7,225.4,239.2,227.5,234.8,227.5z"/>
</g>
<g id="Capa_2" class="st0">
	<g class="st1">
		<path class="st2" d="M511.6,318.6c0,7.1-5.8,12.9-12.9,12.9H13.3c-7.1,0-12.9-5.8-12.9-12.9V-7.8c0-7.1,5.8-12.9,12.9-12.9h485.5
			c7.1,0,12.9,5.8,12.9,12.9V318.6z M511.6,318.6"/>
		<path class="st3" d="M314,331.5H198c0,0-2.3,38.8-7,47H321C316.3,370.2,314,331.5,314,331.5L314,331.5z M314,331.5"/>
		<path class="st4" d="M331.9,381.7c-7-0.9-10.9-3.2-10.9-3.2H191c0,0-3.8,2.4-10.9,3.2c-7,0.9-11.7,1.5-11.7,5h175.3
			C343.6,383.2,338.9,382.6,331.9,381.7L331.9,381.7z M331.9,381.7"/>
		<path class="st5" d="M498.7-20.8H13.3C6.1-20.8,0.4-15,0.4-7.8v293.1h511.3V-7.8C511.6-15,505.9-20.8,498.7-20.8L498.7-20.8z
			 M490.5,266.9h-469V-2.4h469V266.9z M490.5,266.9"/>
		<rect x="21.5" y="-2.4" class="st6" width="469" height="269.3"/>
		<path class="st4" d="M314,331.5H198c0,0-0.3,5.8-1,13.3H315C314.3,337.3,314,331.5,314,331.5L314,331.5z M314,331.5"/>
		<path class="st5" d="M264.5,309.5c0,4.6-3.8,8.4-8.4,8.4c-4.6,0-8.4-3.8-8.4-8.4c0-4.6,3.8-8.4,8.4-8.4
			C260.7,301.1,264.5,304.8,264.5,309.5L264.5,309.5z M264.5,309.5"/>
	</g>
	<g class="st1">
		<path class="st7" d="M512,317.3c0,7.1-5.8,12.9-12.9,12.9H13.3c-7.1,0-12.9-5.8-12.9-12.9V-9.1C0.4-16.2,6.1-22,13.3-22h485.8
			c7.1,0,12.9,5.8,12.9,12.9V317.3z M512,317.3"/>
		<path class="st7" d="M314.2,330.2H198.1c0,0-2.3,38.8-7.1,47h130.2C316.6,369,314.2,330.2,314.2,330.2L314.2,330.2z M314.2,330.2"
			/>
		<path class="st7" d="M332.1,380.4c-7.1-0.9-10.9-3.2-10.9-3.2H191.1c0,0-3.8,2.4-10.9,3.2c-7,0.9-11.7,1.5-11.7,5h175.4
			C343.9,381.9,339.2,381.3,332.1,380.4L332.1,380.4z M332.1,380.4"/>
		<path class="st7" d="M499.1-22H13.3C6.1-22,0.4-16.2,0.4-9.1v293.1H512V-9.1C512-16.2,506.2-22,499.1-22L499.1-22z M490.8,265.7
			H21.5V-3.6h469.3V265.7z M490.8,265.7"/>
		<rect x="21.5" y="-3.6" class="st8" width="469.3" height="269.3"/>
		<path class="st7" d="M314.2,330.2H198.1c0,0-0.3,5.8-1,13.3h118.2C314.6,336,314.2,330.2,314.2,330.2L314.2,330.2z M314.2,330.2"
			/>
		<path class="st8" d="M264.6,308.2c0,4.6-3.8,8.4-8.4,8.4c-4.6,0-8.4-3.8-8.4-8.4c0-4.6,3.8-8.4,8.4-8.4
			C260.9,299.8,264.6,303.6,264.6,308.2L264.6,308.2z M264.6,308.2"/>
	</g>
	<polygon class="st15" points="490.8,213.5 490.8,265.7 21.4,265.7 21.4,213.5 256.1,193.9 	"/>
	<rect x="21.4" y="-3.9" class="st16" width="469.5" height="217.3"/>
	<ellipse class="st17" cx="256.2" cy="112" rx="48.6" ry="43.4"/>
	<polygon class="st18" points="240.2,87.1 288.5,112 240.2,136.9 	"/>
	<path class="st9" d="M449.1,244.5h-386c-4.3,0-7.8-2.2-7.8-4.9c0-2.7,3.5-4.9,7.8-4.9h386c4.3,0,7.8,2.2,7.8,4.9
		C456.9,242.3,453.4,244.5,449.1,244.5z"/>
	<ellipse class="st19" cx="63.5" cy="239.6" rx="9.2" ry="5.7"/>
</g>
<g id="Capa_3" class="st0">
	<g>
		<path class="st19" d="M512,329.3c0,7.1-5.8,12.9-12.9,12.9H13.3c-7.1,0-12.9-5.8-12.9-12.9V2.9C0.4-4.2,6.1-10,13.3-10h485.8
			c7.1,0,12.9,5.8,12.9,12.9V329.3z M512,329.3"/>
		<path class="st19" d="M314.2,342.2H198.1c0,0-2.3,38.8-7.1,47h130.2C316.6,381,314.2,342.2,314.2,342.2L314.2,342.2z M314.2,342.2
			"/>
		<path class="st19" d="M332.1,392.4c-7.1-0.9-10.9-3.2-10.9-3.2H191.1c0,0-3.8,2.4-10.9,3.2c-7,0.9-11.7,1.5-11.7,5h175.4
			C343.9,393.9,339.2,393.3,332.1,392.4L332.1,392.4z M332.1,392.4"/>
		<path class="st19" d="M499.1-10H13.3C6.1-10,0.4-4.2,0.4,2.9v293.1H512V2.9C512-4.2,506.2-10,499.1-10L499.1-10z M490.8,277.7
			H21.5V8.4h469.3V277.7z M490.8,277.7"/>
		<rect x="21.5" y="8.4" class="st16" width="469.3" height="269.3"/>
		<path class="st19" d="M314.2,342.2H198.1c0,0-0.3,5.8-1,13.3h118.2C314.6,348,314.2,342.2,314.2,342.2L314.2,342.2z M314.2,342.2"
			/>
		<path class="st16" d="M264.6,320.2c0,4.6-3.8,8.4-8.4,8.4c-4.6,0-8.4-3.8-8.4-8.4c0-4.6,3.8-8.4,8.4-8.4
			C260.9,311.8,264.6,315.6,264.6,320.2L264.6,320.2z M264.6,320.2"/>
	</g>
	<path class="st20" d="M412-22.3H18.4C8.3-22.3,0.1-14.1,0.1-3.9v62h430.3v-62C430.4-14.1,422.1-22.3,412-22.3z"/>
	<path class="st21" d="M0.1,58.1v331.5c0,10.2,8.2,18.4,18.4,18.4H412c10.2,0,18.4-8.2,18.4-18.4V58.1L0.1,58.1L0.1,58.1z"/>
	<path class="st16" d="M0.1,58.1V374c0,10.2,8.2,18.4,18.4,18.4H412c10.2,0,18.4-8.2,18.4-18.4V58.1H0.1z"/>
	<circle class="st22" cx="52.1" cy="38.5" r="11.3"/>
	<circle class="st23" cx="52.1" cy="77.7" r="11.3"/>
	<path class="st19" d="M52.1,31.1c-4.3,0-7.8,3.5-7.8,7.8v38.4c0,4.3,3.5,7.8,7.8,7.8c4.3,0,7.7-3.5,7.7-7.8V38.9
		C59.8,34.6,56.4,31.1,52.1,31.1z"/>
	<circle class="st22" cx="378.4" cy="38.5" r="11.3"/>
	<circle class="st23" cx="378.4" cy="77.7" r="11.3"/>
	<path class="st19" d="M378.4,31.1c-4.3,0-7.8,3.5-7.8,7.8v38.4c0,4.3,3.5,7.8,7.8,7.8c4.3,0,7.8-3.5,7.8-7.8V38.9
		C386.1,34.6,382.6,31.1,378.4,31.1z"/>
	<circle class="st22" cx="269.6" cy="38.5" r="11.3"/>
	<circle class="st23" cx="269.6" cy="77.7" r="11.3"/>
	<path class="st19" d="M269.6,31.1c-4.3,0-7.8,3.5-7.8,7.8v38.4c0,4.3,3.5,7.8,7.8,7.8c4.3,0,7.8-3.5,7.8-7.8V38.9
		C277.4,34.6,273.9,31.1,269.6,31.1z"/>
	<circle class="st22" cx="160.8" cy="38.5" r="11.3"/>
	<circle class="st23" cx="160.8" cy="77.7" r="11.3"/>
	<path class="st19" d="M160.8,31.1c-4.3,0-7.8,3.5-7.8,7.8v38.4c0,4.3,3.5,7.8,7.8,7.8c4.3,0,7.8-3.5,7.8-7.8V38.9
		C168.6,34.6,165.1,31.1,160.8,31.1z"/>
	<path class="st24" d="M167.4,126h27.3c4,0,7.2,3.2,7.2,7.2v27.3c0,4-3.2,7.2-7.2,7.2h-27.3c-4,0-7.2-3.2-7.2-7.2v-27.3
		C160.2,129.2,163.4,126,167.4,126z"/>
	<path class="st25" d="M235.8,126h27.3c4,0,7.2,3.2,7.2,7.2v27.3c0,4-3.2,7.2-7.2,7.2h-27.3c-4,0-7.2-3.2-7.2-7.2v-27.3
		C228.6,129.2,231.8,126,235.8,126z"/>
	<path class="st24" d="M304.2,126h27.3c4,0,7.2,3.2,7.2,7.2v27.3c0,4-3.2,7.2-7.2,7.2h-27.3c-4,0-7.2-3.2-7.2-7.2v-27.3
		C297,129.2,300.2,126,304.2,126z"/>
	<path class="st17" d="M372.6,126h27.3c4,0,7.2,3.2,7.2,7.2v27.3c0,4-3.2,7.2-7.2,7.2h-27.3c-4,0-7.2-3.2-7.2-7.2v-27.3
		C365.4,129.2,368.6,126,372.6,126z"/>
	<g class="st1">
		<path class="st26" d="M30.5,191.4h27.3c4,0,7.2,3.2,7.2,7.2v27.3c0,4-3.2,7.2-7.2,7.2H30.5c-4,0-7.2-3.2-7.2-7.2v-27.3
			C23.4,194.6,26.6,191.4,30.5,191.4z"/>
		<path class="st26" d="M98.9,191.4h27.3c4,0,7.2,3.2,7.2,7.2v27.3c0,4-3.2,7.2-7.2,7.2H98.9c-4,0-7.2-3.2-7.2-7.2v-27.3
			C91.8,194.6,95,191.4,98.9,191.4z"/>
		<path class="st26" d="M167.4,191.4h27.3c4,0,7.2,3.2,7.2,7.2v27.3c0,4-3.2,7.2-7.2,7.2h-27.3c-4,0-7.2-3.2-7.2-7.2v-27.3
			C160.2,194.6,163.4,191.4,167.4,191.4z"/>
	</g>
	<path class="st27" d="M235.8,191.4h27.3c4,0,7.2,3.2,7.2,7.2v27.3c0,4-3.2,7.2-7.2,7.2h-27.3c-4,0-7.2-3.2-7.2-7.2v-27.3
		C228.6,194.6,231.8,191.4,235.8,191.4z"/>
	<path class="st24" d="M304.2,191.4h27.3c4,0,7.2,3.2,7.2,7.2v27.3c0,4-3.2,7.2-7.2,7.2h-27.3c-4,0-7.2-3.2-7.2-7.2v-27.3
		C297,194.6,300.2,191.4,304.2,191.4z"/>
	<path class="st25" d="M372.6,191.4h27.3c4,0,7.2,3.2,7.2,7.2v27.3c0,4-3.2,7.2-7.2,7.2h-27.3c-4,0-7.2-3.2-7.2-7.2v-27.3
		C365.4,194.6,368.6,191.4,372.6,191.4z"/>
	<g class="st1">
		<path class="st26" d="M30.5,256.8h27.3c4,0,7.2,3.2,7.2,7.2v27.3c0,4-3.2,7.2-7.2,7.2H30.5c-4,0-7.2-3.2-7.2-7.2V264
			C23.4,260,26.6,256.8,30.5,256.8z"/>
		<path class="st26" d="M98.9,256.8h27.3c4,0,7.2,3.2,7.2,7.2v27.3c0,4-3.2,7.2-7.2,7.2H98.9c-4,0-7.2-3.2-7.2-7.2V264
			C91.8,260,95,256.8,98.9,256.8z"/>
		<path class="st26" d="M167.4,256.8h27.3c4,0,7.2,3.2,7.2,7.2v27.3c0,4-3.2,7.2-7.2,7.2h-27.3c-4,0-7.2-3.2-7.2-7.2V264
			C160.2,260,163.4,256.8,167.4,256.8z"/>
	</g>
	<path class="st25" d="M235.8,256.8h27.3c4,0,7.2,3.2,7.2,7.2v27.3c0,4-3.2,7.2-7.2,7.2h-27.3c-4,0-7.2-3.2-7.2-7.2V264
		C228.6,260,231.8,256.8,235.8,256.8z"/>
	<path class="st24" d="M304.2,256.8h27.3c4,0,7.2,3.2,7.2,7.2v27.3c0,4-3.2,7.2-7.2,7.2h-27.3c-4,0-7.2-3.2-7.2-7.2V264
		C297,260,300.2,256.8,304.2,256.8z"/>
	<path class="st17" d="M372.6,256.8h27.3c4,0,7.2,3.2,7.2,7.2v27.3c0,4-3.2,7.2-7.2,7.2h-27.3c-4,0-7.2-3.2-7.2-7.2V264
		C365.4,260,368.6,256.8,372.6,256.8z"/>
	<g class="st1">
		<path class="st26" d="M30.5,322.2h27.3c4,0,7.2,3.2,7.2,7.2v27.3c0,4-3.2,7.2-7.2,7.2H30.5c-4,0-7.2-3.2-7.2-7.2v-27.3
			C23.4,325.4,26.6,322.2,30.5,322.2z"/>
		<path class="st26" d="M98.9,322.2h27.3c4,0,7.2,3.2,7.2,7.2v27.3c0,4-3.2,7.2-7.2,7.2H98.9c-4,0-7.2-3.2-7.2-7.2v-27.3
			C91.8,325.4,95,322.2,98.9,322.2z"/>
		<path class="st26" d="M167.4,322.2h27.3c4,0,7.2,3.2,7.2,7.2v27.3c0,4-3.2,7.2-7.2,7.2h-27.3c-4,0-7.2-3.2-7.2-7.2v-27.3
			C160.2,325.4,163.4,322.2,167.4,322.2z"/>
	</g>
</g>
<g id="Capa_4" class="st0">
	<g class="st1">
		<path class="st7" d="M430,309.1c0,6-4.9,10.9-10.9,10.9H11.2c-6,0-10.9-4.9-10.9-10.9V34.9c0-6,4.9-10.9,10.9-10.9h407.9
			c6,0,10.9,4.9,10.9,10.9V309.1z M430,309.1"/>
		<path class="st7" d="M263.9,320h-97.5c0,0-2,32.6-5.9,39.5h109.3C265.9,352.6,263.9,320,263.9,320L263.9,320z M263.9,320"/>
		<path class="st7" d="M279,362.2c-5.9-0.7-9.1-2.7-9.1-2.7H160.5c0,0-3.2,2-9.1,2.7c-5.9,0.7-9.9,1.2-9.9,4.2h147.3
			C288.8,363.4,284.9,362.9,279,362.2L279,362.2z M279,362.2"/>
		<path class="st7" d="M419.1,24H11.2c-6,0-10.9,4.9-10.9,10.9v246.3H430V34.9C430,28.9,425.1,24,419.1,24L419.1,24z M412.2,265.7
			H18.1V39.4h394.1V265.7z M412.2,265.7"/>
		<rect x="18.1" y="39.4" class="st8" width="394.1" height="226.3"/>
		<path class="st7" d="M263.9,320h-97.5c0,0-0.3,4.8-0.9,11.2h99.2C264.2,324.8,263.9,320,263.9,320L263.9,320z M263.9,320"/>
		<path class="st8" d="M222.3,301.5c0,3.9-3.2,7.1-7.1,7.1c-3.9,0-7.1-3.2-7.1-7.1c0-3.9,3.2-7.1,7.1-7.1
			C219.1,294.4,222.3,297.6,222.3,301.5L222.3,301.5z M222.3,301.5"/>
	</g>
	<path class="st28" d="M359,78.1v163.2c0,8-6.6,14.6-14.6,14.6H86.1c-8,0-14.6-6.6-14.6-14.6V78.1L359,78.1L359,78.1z"/>
	<path class="st29" d="M71.5,78.1V32.4c0-8,6.6-14.6,14.6-14.6h258.3c8,0,14.6,6.6,14.6,14.6V78L71.5,78.1L71.5,78.1z"/>
	<g class="st1">
		<path class="st30" d="M122.6,0.4L122.6,0.4c3.5,0,6.4,2.9,6.4,6.4v31.9c0,3.5-2.9,6.4-6.4,6.4h0c-3.5,0-6.4-2.9-6.4-6.4V6.8
			C116.3,3.3,119.1,0.4,122.6,0.4z"/>
		<path class="st30" d="M306.6,0.4L306.6,0.4c3.5,0,6.4,2.9,6.4,6.4v31.9c0,3.5-2.9,6.4-6.4,6.4l0,0c-3.5,0-6.4-2.9-6.4-6.4V6.8
			C300.2,3.3,303.1,0.4,306.6,0.4z"/>
	</g>
	<path class="st19" d="M218.5,133.7h-0.3l-15.5,8.4l-2.3-9.2l19.4-10.4h10.2v88.9h-11.6L218.5,133.7L218.5,133.7z"/>
	<text transform="matrix(1 0 0 1 147.645 57.5972)" class="st18 st31 st32">Calendario</text>
</g>
<g id="Capa_5">
	<g>
		<path class="st7" d="M430,285.2c0,6-4.9,10.8-10.9,10.8H11.2c-6,0-10.9-4.9-10.9-10.8V11.1c0-6,4.9-10.9,10.9-10.9h407.9
			c6,0,10.9,4.9,10.9,10.9V285.2z M430,285.2"/>
		<path class="st7" d="M263.9,296.1h-97.5c0,0-2,32.5-5.9,39.4h109.3C265.9,328.6,263.9,296.1,263.9,296.1L263.9,296.1z
			 M263.9,296.1"/>
		<path class="st7" d="M279,338.2c-5.9-0.7-9.1-2.7-9.1-2.7H160.5c0,0-3.2,2-9.1,2.7c-5.9,0.7-9.9,1.2-9.9,4.2h147.3
			C288.8,339.5,284.9,339,279,338.2L279,338.2z M279,338.2"/>
		<path class="st7" d="M419.1,0.3H11.2c-6,0-10.9,4.9-10.9,10.9v246.2H430V11.1C430,5.2,425.1,0.3,419.1,0.3L419.1,0.3z
			 M412.2,241.9H18.1V15.7h394.1V241.9z M412.2,241.9"/>
		<rect x="18.1" y="15.7" class="st8" width="394.1" height="226.2"/>
		<path class="st7" d="M263.9,296.1h-97.5c0,0-0.3,4.8-0.9,11.2h99.2C264.2,300.9,263.9,296.1,263.9,296.1L263.9,296.1z
			 M263.9,296.1"/>
		<path class="st8" d="M222.3,277.6c0,3.9-3.2,7.1-7.1,7.1c-3.9,0-7.1-3.2-7.1-7.1c0-3.9,3.2-7.1,7.1-7.1
			C219.1,270.6,222.3,273.7,222.3,277.6L222.3,277.6z M222.3,277.6"/>
	</g>
	<g>
		<path class="st33" d="M216.7,56c22.2,0,40.1,18,40.1,40.1c0,22.1-18,40.1-40.1,40.1c-22.1,0-40.1-18-40.1-40.1
			C176.6,73.9,194.6,56,216.7,56L216.7,56z M216.7,56"/>
		<path class="st34" d="M239.8,96.1l-34.4,19.9V76.2L239.8,96.1z M239.8,96.1"/>
		<path class="st35" d="M140.8,152.1l5.1,36.5l-5.1,36.5c-11.1,0-20.1-9-20.1-20.1v-32.7C120.7,161.1,129.7,152.1,140.8,152.1
			L140.8,152.1z M140.8,152.1"/>
		<path class="st35" d="M312.1,172.2v32.7c0,11.1-9,20.1-20.1,20.1l-5.1-36.5l5.1-36.5C303.1,152.1,312.1,161.1,312.1,172.2
			L312.1,172.2z M312.1,172.2"/>
		<path class="st36" d="M171.7,152.1v73.4c0,4.2-3.5,7.7-7.7,7.7h-15.4c-4.2,0-7.7-3.5-7.7-7.7v-73.4c0-4.2,3.5-7.7,7.7-7.7h15.4
			C168.2,144.3,171.7,147.8,171.7,152.1L171.7,152.1z M171.7,152.1"/>
		<path class="st36" d="M292,225v0.5c0,4.2-3.5,7.7-7.7,7.7h-15.4c-4.2,0-7.7-3.5-7.7-7.7v-73.4c0-4.2,3.5-7.7,7.7-7.7h15.4
			c4.2,0,7.7,3.5,7.7,7.7V225z M292,225"/>
		<g>
			<defs>
				<rect id="SVGID_1_" x="111.2" y="20" width="211.1" height="213.7"/>
			</defs>
			<clipPath id="SVGID_2_">
				<use xlink:href="#SVGID_1_"  style="overflow:visible;"/>
			</clipPath>
			<path class="st37" d="M312.6,69.9L300,78.7c-18.4-26.2-48.8-43.3-83.2-43.3c-34.4,0-64.8,17.1-83.2,43.3L121,69.9
				c3.9-5.5,8.2-10.7,13-15.5c22.1-22.1,51.5-34.3,82.7-34.3c31.2,0,60.6,12.2,82.7,34.3C304.3,59.2,308.7,64.4,312.6,69.9
				L312.6,69.9z M312.6,69.9"/>
			<path class="st38" d="M315.7,192.4c-2.1,0-3.9-1.7-3.9-3.9v-27.7c0-0.3,0-0.6,0.1-0.9c1.8-7.4,2.7-15.1,2.7-22.8
				c0-54-43.9-97.8-97.8-97.8S119,83.2,119,137.1c0,7.7,0.9,15.4,2.7,22.8c0.1,0.3,0.1,0.6,0.1,0.9v27.7c0,2.1-1.7,3.9-3.9,3.9
				c-2.1,0-3.9-1.7-3.9-3.9v-27.2c-1.8-7.9-2.8-16-2.8-24.2c0-58.2,47.4-105.6,105.6-105.6c58.2,0,105.6,47.4,105.6,105.6
				c0,8.2-0.9,16.3-2.8,24.2v27.2C319.6,190.6,317.9,192.4,315.7,192.4L315.7,192.4z M315.7,192.4"/>
		</g>
	</g>
</g>
</svg>
