<?xml version="1.0" encoding="utf-8"?>
<!-- Generator: Adobe Illustrator 21.0.0, SVG Export Plug-In . SVG Version: 6.00 Build 0)  -->
<svg version="1.1" id="Capa_1" xmlns="http://www.w3.org/2000/svg" xmlns:xlink="http://www.w3.org/1999/xlink" x="0px" y="0px"
	 viewBox="0 0 512 409" style="enable-background:new 0 0 512 409;" xml:space="preserve">
<style type="text/css">
	.st0{fill:#E2E5E7;}
	.st1{fill:#D1D5D5;}
	.st2{fill:#C6CBCB;}
	.st3{fill:#2D404E;}
	.st4{fill:#DF584C;}
	.st5{fill:#212529;}
	.st6{fill:#FAFAFA;}
	.st7{fill:#ECE7EA;}
	.st8{fill:#1B4145;}
	.st9{fill:#6FC5D6;}
	.st10{fill:#F14742;}
	.st11{fill:#8B7E7F;}
</style>
<g>
	<path class="st0" d="M512,341.2c0,7.1-5.8,12.9-12.9,12.9H13.6c-7.1,0-12.9-5.8-12.9-12.9V14.8c0-7.1,5.8-12.9,12.9-12.9h485.5
		c7.1,0,12.9,5.8,12.9,12.9V341.2z M512,341.2"/>
	<path class="st1" d="M314.3,354.2h-116c0,0-2.3,38.8-7,47h130.1C316.7,392.9,314.3,354.2,314.3,354.2L314.3,354.2z M314.3,354.2"/>
	<path class="st2" d="M332.2,404.4c-7-0.9-10.9-3.2-10.9-3.2H191.3c0,0-3.8,2.4-10.9,3.2c-7,0.9-11.7,1.5-11.7,5H344
		C344,405.8,339.3,405.3,332.2,404.4L332.2,404.4z M332.2,404.4"/>
	<path class="st3" d="M499.1,1.9H13.6C6.5,1.9,0.7,7.7,0.7,14.8V308H512V14.8C512,7.7,506.2,1.9,499.1,1.9L499.1,1.9z M490.8,289.6
		h-469V20.3h469V289.6z M490.8,289.6"/>
	<rect x="21.9" y="20.3" class="st4" width="469" height="269.3"/>
	<path class="st2" d="M314.3,354.2h-116c0,0-0.3,5.8-1,13.3h118.1C314.7,359.9,314.3,354.2,314.3,354.2L314.3,354.2z M314.3,354.2"
		/>
	<path class="st3" d="M264.8,332.2c0,4.6-3.8,8.4-8.4,8.4c-4.6,0-8.4-3.8-8.4-8.4c0-4.6,3.8-8.4,8.4-8.4
		C261.1,323.8,264.8,327.5,264.8,332.2L264.8,332.2z M264.8,332.2"/>
</g>
<g>
	<path class="st5" d="M512,340c0,7.1-5.8,12.9-12.9,12.9H13.6c-7.1,0-12.9-5.8-12.9-12.9V13.6c0-7.1,5.8-12.9,12.9-12.9h485.5
		c7.1,0,12.9,5.8,12.9,12.9V340z M512,340"/>
	<path class="st5" d="M314.3,352.9h-116c0,0-2.3,38.8-7,47h130.1C316.7,391.7,314.3,352.9,314.3,352.9L314.3,352.9z M314.3,352.9"/>
	<path class="st5" d="M332.2,403.1c-7-0.9-10.9-3.2-10.9-3.2H191.3c0,0-3.8,2.4-10.9,3.2c-7,0.9-11.7,1.5-11.7,5H344
		C344,404.6,339.3,404,332.2,403.1L332.2,403.1z M332.2,403.1"/>
	<path class="st5" d="M499.1,0.7H13.6C6.5,0.7,0.7,6.5,0.7,13.6v293.1H512V13.6C512,6.5,506.2,0.7,499.1,0.7L499.1,0.7z
		 M490.8,288.4h-469V19h469V288.4z M490.8,288.4"/>
	<rect x="21.9" y="19" class="st6" width="469" height="269.3"/>
	<path class="st5" d="M314.3,352.9h-116c0,0-0.3,5.8-1,13.3h118.1C314.7,358.7,314.3,352.9,314.3,352.9L314.3,352.9z M314.3,352.9"
		/>
	<path class="st6" d="M264.8,330.9c0,4.6-3.8,8.4-8.4,8.4c-4.6,0-8.4-3.8-8.4-8.4c0-4.6,3.8-8.4,8.4-8.4
		C261.1,322.5,264.8,326.3,264.8,330.9L264.8,330.9z M264.8,330.9"/>
</g>
<g>
	<path class="st0" d="M512,341.2c0,7.1-5.8,12.9-12.9,12.9H13.6c-7.1,0-12.9-5.8-12.9-12.9V14.8c0-7.1,5.8-12.9,12.9-12.9h485.5
		c7.1,0,12.9,5.8,12.9,12.9V341.2z M512,341.2"/>
	<path class="st1" d="M314.3,354.2h-116c0,0-2.3,38.8-7,47h130.1C316.7,392.9,314.3,354.2,314.3,354.2L314.3,354.2z M314.3,354.2"/>
	<path class="st2" d="M332.2,404.4c-7-0.9-10.9-3.2-10.9-3.2H191.3c0,0-3.8,2.4-10.9,3.2c-7,0.9-11.7,1.5-11.7,5H344
		C344,405.8,339.3,405.3,332.2,404.4L332.2,404.4z M332.2,404.4"/>
	<path class="st3" d="M499.1,1.9H13.6C6.5,1.9,0.7,7.7,0.7,14.8V308H512V14.8C512,7.7,506.2,1.9,499.1,1.9L499.1,1.9z M490.8,289.6
		h-469V20.3h469V289.6z M490.8,289.6"/>
	<rect x="21.9" y="20.3" class="st4" width="469" height="269.3"/>
	<path class="st2" d="M314.3,354.2h-116c0,0-0.3,5.8-1,13.3h118.1C314.7,359.9,314.3,354.2,314.3,354.2L314.3,354.2z M314.3,354.2"
		/>
	<path class="st3" d="M264.8,332.2c0,4.6-3.8,8.4-8.4,8.4c-4.6,0-8.4-3.8-8.4-8.4c0-4.6,3.8-8.4,8.4-8.4
		C261.1,323.8,264.8,327.5,264.8,332.2L264.8,332.2z M264.8,332.2"/>
</g>
<g>
	<path class="st5" d="M512,340c0,7.1-5.8,12.9-12.9,12.9H13.6c-7.1,0-12.9-5.8-12.9-12.9V13.6c0-7.1,5.8-12.9,12.9-12.9h485.5
		c7.1,0,12.9,5.8,12.9,12.9V340z M512,340"/>
	<path class="st5" d="M314.3,352.9h-116c0,0-2.3,38.8-7,47h130.1C316.7,391.7,314.3,352.9,314.3,352.9L314.3,352.9z M314.3,352.9"/>
	<path class="st5" d="M332.2,403.1c-7-0.9-10.9-3.2-10.9-3.2H191.3c0,0-3.8,2.4-10.9,3.2c-7,0.9-11.7,1.5-11.7,5H344
		C344,404.6,339.3,404,332.2,403.1L332.2,403.1z M332.2,403.1"/>
	<path class="st5" d="M499.1,0.7H13.6C6.5,0.7,0.7,6.5,0.7,13.6v293.1H512V13.6C512,6.5,506.2,0.7,499.1,0.7L499.1,0.7z
		 M490.8,288.4h-469V19h469V288.4z M490.8,288.4"/>
	<rect x="21.9" y="19" class="st6" width="469" height="269.3"/>
	<path class="st5" d="M314.3,352.9h-116c0,0-0.3,5.8-1,13.3h118.1C314.7,358.7,314.3,352.9,314.3,352.9L314.3,352.9z M314.3,352.9"
		/>
	<path class="st6" d="M264.8,330.9c0,4.6-3.8,8.4-8.4,8.4c-4.6,0-8.4-3.8-8.4-8.4c0-4.6,3.8-8.4,8.4-8.4
		C261.1,322.5,264.8,326.3,264.8,330.9L264.8,330.9z M264.8,330.9"/>
</g>
<polygon class="st7" points="490.8,51 490.8,288.4 21.6,288.4 21.6,51 256.2,38.2 "/>
<rect x="21.9" y="19" class="st8" width="469" height="31.9"/>
<ellipse class="st9" cx="420.3" cy="35" rx="7.8" ry="4.8"/>
<ellipse class="st10" cx="456.9" cy="35" rx="7.8" ry="4.8"/>
<ellipse class="st9" cx="383.7" cy="35" rx="7.8" ry="4.8"/>
<g>
	<path class="st11" d="M428.1,122.8H83.3c-4.3,0-7.8-2.1-7.8-4.8s3.5-4.8,7.8-4.8h344.8c4.3,0,7.8,2.1,7.8,4.8
		S432.5,122.8,428.1,122.8z"/>
	<path class="st11" d="M428.1,97.3H83.3c-4.3,0-7.8-2.1-7.8-4.8s3.5-4.8,7.8-4.8h344.8c4.3,0,7.8,2.1,7.8,4.8S432.5,97.3,428.1,97.3
		z"/>
	<path class="st11" d="M234.8,173.9H83.3c-4.3,0-7.8-2.1-7.8-4.8c0-2.6,3.5-4.8,7.8-4.8h151.5c4.3,0,7.8,2.1,7.8,4.8
		C242.7,171.7,239.2,173.9,234.8,173.9z"/>
	<path class="st11" d="M234.8,148.3H83.3c-4.3,0-7.8-2.1-7.8-4.8s3.5-4.8,7.8-4.8h151.5c4.3,0,7.8,2.1,7.8,4.8
		S239.2,148.3,234.8,148.3z"/>
	<path class="st11" d="M234.8,199.4H83.3c-4.3,0-7.8-2.1-7.8-4.8c0-2.6,3.5-4.8,7.8-4.8h151.5c4.3,0,7.8,2.1,7.8,4.8
		C242.7,197.3,239.2,199.4,234.8,199.4z"/>
	<path class="st11" d="M234.8,225H83.3c-4.3,0-7.8-2.1-7.8-4.8c0-2.6,3.5-4.8,7.8-4.8h151.5c4.3,0,7.8,2.1,7.8,4.8
		C242.7,222.8,239.2,225,234.8,225z"/>
</g>
<path class="st10" d="M292.3,143.6h120.1c8.7,0,15.7,4.3,15.7,9.6v83c0,5.3-7,9.6-15.7,9.6H292.3c-8.7,0-15.7-4.3-15.7-9.6v-83
	C276.6,147.9,283.7,143.6,292.3,143.6z"/>
<path class="st11" d="M234.8,250.5H83.3c-4.3,0-7.8-2.1-7.8-4.8c0-2.6,3.5-4.8,7.8-4.8h151.5c4.3,0,7.8,2.1,7.8,4.8
	C242.7,248.4,239.2,250.5,234.8,250.5z"/>
</svg>
